%TF.GenerationSoftware,KiCad,Pcbnew,(6.0.11)*%
%TF.CreationDate,2023-05-23T14:51:42+01:00*%
%TF.ProjectId,Quango_Panel,5175616e-676f-45f5-9061-6e656c2e6b69,rev?*%
%TF.SameCoordinates,Original*%
%TF.FileFunction,Soldermask,Top*%
%TF.FilePolarity,Negative*%
%FSLAX46Y46*%
G04 Gerber Fmt 4.6, Leading zero omitted, Abs format (unit mm)*
G04 Created by KiCad (PCBNEW (6.0.11)) date 2023-05-23 14:51:42*
%MOMM*%
%LPD*%
G01*
G04 APERTURE LIST*
%ADD10C,7.853175*%
%ADD11C,2.776851*%
%ADD12C,0.150000*%
%ADD13C,4.500000*%
%ADD14C,4.000000*%
%ADD15C,0.200000*%
%ADD16C,0.400000*%
%ADD17C,3.000000*%
%ADD18C,7.000000*%
%ADD19O,5.000000X3.200000*%
%ADD20C,6.000000*%
%ADD21C,3.500000*%
G04 APERTURE END LIST*
D10*
X120126587Y-73500000D02*
G75*
G03*
X120126587Y-73500000I-3926587J0D01*
G01*
D11*
X81888425Y-51700000D02*
G75*
G03*
X81888425Y-51700000I-1388425J0D01*
G01*
D10*
X68726587Y-96100000D02*
G75*
G03*
X68726587Y-96100000I-3926587J0D01*
G01*
D12*
G36*
X93500000Y-88200000D02*
G01*
X87500000Y-88200000D01*
X90500000Y-85400000D01*
X93500000Y-88200000D01*
G37*
X93500000Y-88200000D02*
X87500000Y-88200000D01*
X90500000Y-85400000D01*
X93500000Y-88200000D01*
D13*
X116200000Y-119100000D02*
X116200000Y-42000000D01*
D10*
X68726587Y-50900000D02*
G75*
G03*
X68726587Y-50900000I-3926587J0D01*
G01*
D11*
X101888425Y-51700000D02*
G75*
G03*
X101888425Y-51700000I-1388425J0D01*
G01*
D12*
G36*
X73350000Y-37150000D02*
G01*
X70550000Y-34150000D01*
X73350000Y-31150000D01*
X73350000Y-37150000D01*
G37*
X73350000Y-37150000D02*
X70550000Y-34150000D01*
X73350000Y-31150000D01*
X73350000Y-37150000D01*
D13*
X64800000Y-119100000D02*
X64800000Y-42000000D01*
D10*
X120126587Y-50900000D02*
G75*
G03*
X120126587Y-50900000I-3926587J0D01*
G01*
D14*
X100450000Y-111450000D02*
X100450000Y-62350000D01*
D13*
X64800000Y-42000000D02*
X85800000Y-42000000D01*
D10*
X68726587Y-73500000D02*
G75*
G03*
X68726587Y-73500000I-3926587J0D01*
G01*
D12*
G36*
X109600000Y-34200000D02*
G01*
X106800000Y-37200000D01*
X106800000Y-31200000D01*
X109600000Y-34200000D01*
G37*
X109600000Y-34200000D02*
X106800000Y-37200000D01*
X106800000Y-31200000D01*
X109600000Y-34200000D01*
D13*
X116200000Y-42000000D02*
X95200000Y-42000000D01*
D12*
G36*
X54240000Y-142000000D02*
G01*
X51240000Y-139000000D01*
X54240000Y-136000000D01*
X54240000Y-142000000D01*
G37*
X54240000Y-142000000D02*
X51240000Y-139000000D01*
X54240000Y-136000000D01*
X54240000Y-142000000D01*
G36*
X93400000Y-112500000D02*
G01*
X87400000Y-112500000D01*
X90400000Y-109900000D01*
X93400000Y-112500000D01*
G37*
X93400000Y-112500000D02*
X87400000Y-112500000D01*
X90400000Y-109900000D01*
X93400000Y-112500000D01*
G36*
X129900000Y-139500000D02*
G01*
X126900000Y-142500000D01*
X126900000Y-136500000D01*
X129900000Y-139500000D01*
G37*
X129900000Y-139500000D02*
X126900000Y-142500000D01*
X126900000Y-136500000D01*
X129900000Y-139500000D01*
D10*
X120126587Y-96200000D02*
G75*
G03*
X120126587Y-96200000I-3926587J0D01*
G01*
D14*
X80550000Y-111450000D02*
X80550000Y-62350000D01*
D12*
G36*
X93500000Y-100450000D02*
G01*
X87500000Y-100450000D01*
X90500000Y-97650000D01*
X93500000Y-100450000D01*
G37*
X93500000Y-100450000D02*
X87500000Y-100450000D01*
X90500000Y-97650000D01*
X93500000Y-100450000D01*
G36*
X93500000Y-63700000D02*
G01*
X87500000Y-63700000D01*
X90500000Y-60900000D01*
X93500000Y-63700000D01*
G37*
X93500000Y-63700000D02*
X87500000Y-63700000D01*
X90500000Y-60900000D01*
X93500000Y-63700000D01*
G36*
X93500000Y-75950000D02*
G01*
X87500000Y-75950000D01*
X90500000Y-73150000D01*
X93500000Y-75950000D01*
G37*
X93500000Y-75950000D02*
X87500000Y-75950000D01*
X90500000Y-73150000D01*
X93500000Y-75950000D01*
D10*
X68726587Y-118700000D02*
G75*
G03*
X68726587Y-118700000I-3926587J0D01*
G01*
X120126587Y-118700000D02*
G75*
G03*
X120126587Y-118700000I-3926587J0D01*
G01*
D15*
X80928571Y-156378571D02*
X80928571Y-154878571D01*
X81428571Y-155950000D01*
X81928571Y-154878571D01*
X81928571Y-156378571D01*
X82857142Y-156378571D02*
X82714285Y-156307142D01*
X82642857Y-156235714D01*
X82571428Y-156092857D01*
X82571428Y-155664285D01*
X82642857Y-155521428D01*
X82714285Y-155450000D01*
X82857142Y-155378571D01*
X83071428Y-155378571D01*
X83214285Y-155450000D01*
X83285714Y-155521428D01*
X83357142Y-155664285D01*
X83357142Y-156092857D01*
X83285714Y-156235714D01*
X83214285Y-156307142D01*
X83071428Y-156378571D01*
X82857142Y-156378571D01*
X84642857Y-155378571D02*
X84642857Y-156378571D01*
X84000000Y-155378571D02*
X84000000Y-156164285D01*
X84071428Y-156307142D01*
X84214285Y-156378571D01*
X84428571Y-156378571D01*
X84571428Y-156307142D01*
X84642857Y-156235714D01*
X85357142Y-155378571D02*
X85357142Y-156378571D01*
X85357142Y-155521428D02*
X85428571Y-155450000D01*
X85571428Y-155378571D01*
X85785714Y-155378571D01*
X85928571Y-155450000D01*
X86000000Y-155592857D01*
X86000000Y-156378571D01*
X86500000Y-155378571D02*
X87071428Y-155378571D01*
X86714285Y-154878571D02*
X86714285Y-156164285D01*
X86785714Y-156307142D01*
X86928571Y-156378571D01*
X87071428Y-156378571D01*
X87571428Y-155378571D02*
X87571428Y-156664285D01*
X87500000Y-156807142D01*
X87357142Y-156878571D01*
X87285714Y-156878571D01*
X87571428Y-154878571D02*
X87500000Y-154950000D01*
X87571428Y-155021428D01*
X87642857Y-154950000D01*
X87571428Y-154878571D01*
X87571428Y-155021428D01*
X88500000Y-156378571D02*
X88357142Y-156307142D01*
X88285714Y-156235714D01*
X88214285Y-156092857D01*
X88214285Y-155664285D01*
X88285714Y-155521428D01*
X88357142Y-155450000D01*
X88500000Y-155378571D01*
X88714285Y-155378571D01*
X88857142Y-155450000D01*
X88928571Y-155521428D01*
X89000000Y-155664285D01*
X89000000Y-156092857D01*
X88928571Y-156235714D01*
X88857142Y-156307142D01*
X88714285Y-156378571D01*
X88500000Y-156378571D01*
X89500000Y-155378571D02*
X89857142Y-156378571D01*
X90214285Y-155378571D02*
X89857142Y-156378571D01*
X89714285Y-156735714D01*
X89642857Y-156807142D01*
X89500000Y-156878571D01*
X91928571Y-156378571D02*
X91928571Y-154878571D01*
X92428571Y-155950000D01*
X92928571Y-154878571D01*
X92928571Y-156378571D01*
X93857142Y-156378571D02*
X93714285Y-156307142D01*
X93642857Y-156235714D01*
X93571428Y-156092857D01*
X93571428Y-155664285D01*
X93642857Y-155521428D01*
X93714285Y-155450000D01*
X93857142Y-155378571D01*
X94071428Y-155378571D01*
X94214285Y-155450000D01*
X94285714Y-155521428D01*
X94357142Y-155664285D01*
X94357142Y-156092857D01*
X94285714Y-156235714D01*
X94214285Y-156307142D01*
X94071428Y-156378571D01*
X93857142Y-156378571D01*
X95642857Y-156378571D02*
X95642857Y-154878571D01*
X95642857Y-156307142D02*
X95500000Y-156378571D01*
X95214285Y-156378571D01*
X95071428Y-156307142D01*
X95000000Y-156235714D01*
X94928571Y-156092857D01*
X94928571Y-155664285D01*
X95000000Y-155521428D01*
X95071428Y-155450000D01*
X95214285Y-155378571D01*
X95500000Y-155378571D01*
X95642857Y-155450000D01*
X97000000Y-155378571D02*
X97000000Y-156378571D01*
X96357142Y-155378571D02*
X96357142Y-156164285D01*
X96428571Y-156307142D01*
X96571428Y-156378571D01*
X96785714Y-156378571D01*
X96928571Y-156307142D01*
X97000000Y-156235714D01*
X97928571Y-156378571D02*
X97785714Y-156307142D01*
X97714285Y-156164285D01*
X97714285Y-154878571D01*
X99142857Y-156378571D02*
X99142857Y-155592857D01*
X99071428Y-155450000D01*
X98928571Y-155378571D01*
X98642857Y-155378571D01*
X98500000Y-155450000D01*
X99142857Y-156307142D02*
X99000000Y-156378571D01*
X98642857Y-156378571D01*
X98500000Y-156307142D01*
X98428571Y-156164285D01*
X98428571Y-156021428D01*
X98500000Y-155878571D01*
X98642857Y-155807142D01*
X99000000Y-155807142D01*
X99142857Y-155735714D01*
X99857142Y-156378571D02*
X99857142Y-155378571D01*
X99857142Y-155664285D02*
X99928571Y-155521428D01*
X100000000Y-155450000D01*
X100142857Y-155378571D01*
X100285714Y-155378571D01*
D16*
X116500000Y-150814285D02*
X116404761Y-150909523D01*
X116119047Y-151004761D01*
X115928571Y-151004761D01*
X115642857Y-150909523D01*
X115452380Y-150719047D01*
X115357142Y-150528571D01*
X115261904Y-150147619D01*
X115261904Y-149861904D01*
X115357142Y-149480952D01*
X115452380Y-149290476D01*
X115642857Y-149100000D01*
X115928571Y-149004761D01*
X116119047Y-149004761D01*
X116404761Y-149100000D01*
X116500000Y-149195238D01*
X117071428Y-149004761D02*
X117738095Y-151004761D01*
X118404761Y-149004761D01*
X121261904Y-149957142D02*
X121547619Y-150052380D01*
X121642857Y-150147619D01*
X121738095Y-150338095D01*
X121738095Y-150623809D01*
X121642857Y-150814285D01*
X121547619Y-150909523D01*
X121357142Y-151004761D01*
X120595238Y-151004761D01*
X120595238Y-149004761D01*
X121261904Y-149004761D01*
X121452380Y-149100000D01*
X121547619Y-149195238D01*
X121642857Y-149385714D01*
X121642857Y-149576190D01*
X121547619Y-149766666D01*
X121452380Y-149861904D01*
X121261904Y-149957142D01*
X120595238Y-149957142D01*
X60542857Y-150814285D02*
X60447619Y-150909523D01*
X60161904Y-151004761D01*
X59971428Y-151004761D01*
X59685714Y-150909523D01*
X59495238Y-150719047D01*
X59400000Y-150528571D01*
X59304761Y-150147619D01*
X59304761Y-149861904D01*
X59400000Y-149480952D01*
X59495238Y-149290476D01*
X59685714Y-149100000D01*
X59971428Y-149004761D01*
X60161904Y-149004761D01*
X60447619Y-149100000D01*
X60542857Y-149195238D01*
X61114285Y-149004761D02*
X61780952Y-151004761D01*
X62447619Y-149004761D01*
X64542857Y-150433333D02*
X65495238Y-150433333D01*
X64352380Y-151004761D02*
X65019047Y-149004761D01*
X65685714Y-151004761D01*
%TO.C,kibuzzard-646C8AFB*%
G36*
X122815581Y-70914893D02*
G01*
X128380357Y-70914893D01*
X130170429Y-73600000D01*
X128380357Y-76285107D01*
X122815581Y-76285107D01*
X122815581Y-75292920D01*
X124799956Y-75292920D01*
X125848729Y-75292920D01*
X126134758Y-75269149D01*
X126400633Y-75200936D01*
X126646355Y-75088281D01*
X126864300Y-74935061D01*
X127046847Y-74745150D01*
X127193996Y-74518549D01*
X127301870Y-74261975D01*
X127366595Y-73982147D01*
X127388170Y-73679065D01*
X127388170Y-73523260D01*
X127366208Y-73219791D01*
X127300320Y-72938800D01*
X127190508Y-72680289D01*
X127041550Y-72451879D01*
X126858228Y-72261193D01*
X126640541Y-72108231D01*
X126395207Y-71996480D01*
X126128945Y-71929430D01*
X125841753Y-71907080D01*
X124799956Y-71907080D01*
X124799956Y-75292920D01*
X122815581Y-75292920D01*
X122815581Y-70914893D01*
G37*
G36*
X126203940Y-72538728D02*
G01*
X126467296Y-72738425D01*
X126586152Y-72943709D01*
X126657465Y-73204546D01*
X126681236Y-73520935D01*
X126681236Y-73699994D01*
X126654623Y-74006177D01*
X126580984Y-74261200D01*
X126460320Y-74465063D01*
X126195801Y-74665633D01*
X125834776Y-74732489D01*
X125497588Y-74732489D01*
X125497588Y-72472162D01*
X125841753Y-72472162D01*
X126203940Y-72538728D01*
G37*
%TO.C,kibuzzard-646C8AC0*%
G36*
X50629571Y-50800000D02*
G01*
X52419642Y-48114893D01*
X58570429Y-48114893D01*
X58570429Y-53485107D01*
X52419642Y-53485107D01*
X51758184Y-52492920D01*
X53411830Y-52492920D01*
X54153645Y-52492920D01*
X54386189Y-51795288D01*
X55609370Y-51795288D01*
X55844239Y-52492920D01*
X56586054Y-52492920D01*
X55318690Y-49107080D01*
X54672218Y-49107080D01*
X53411830Y-52492920D01*
X51758184Y-52492920D01*
X50629571Y-50800000D01*
G37*
G36*
X55421009Y-51230206D02*
G01*
X54574549Y-51230206D01*
X54995454Y-49962842D01*
X55421009Y-51230206D01*
G37*
%TO.C,kibuzzard-646C8A92*%
G36*
X50629571Y-96100000D02*
G01*
X52450649Y-93368384D01*
X58024727Y-93368384D01*
X58024727Y-98831616D01*
X52450649Y-98831616D01*
X51048150Y-96727869D01*
X53442836Y-96727869D01*
X53484985Y-97035989D01*
X53611430Y-97304578D01*
X53818104Y-97526948D01*
X54100935Y-97696414D01*
X54439287Y-97803675D01*
X54812520Y-97839429D01*
X55162111Y-97811653D01*
X55460542Y-97728324D01*
X55707814Y-97589444D01*
X55892557Y-97401729D01*
X56003403Y-97171898D01*
X56040352Y-96899951D01*
X55972333Y-96537183D01*
X55768276Y-96239526D01*
X55550976Y-96072353D01*
X55261846Y-95924300D01*
X54900887Y-95795367D01*
X54616892Y-95694211D01*
X54411382Y-95586078D01*
X54245113Y-95309351D01*
X54386964Y-95024484D01*
X54557303Y-94943385D01*
X54784615Y-94916351D01*
X55020065Y-94948617D01*
X55196217Y-95045413D01*
X55306094Y-95200346D01*
X55342720Y-95407019D01*
X56040352Y-95407019D01*
X56001110Y-95118665D01*
X55883385Y-94862866D01*
X55694733Y-94650379D01*
X55442714Y-94491959D01*
X55139244Y-94393418D01*
X54796242Y-94360571D01*
X54453530Y-94390802D01*
X54146281Y-94481494D01*
X53890483Y-94625962D01*
X53702123Y-94817520D01*
X53586141Y-95047448D01*
X53547481Y-95307025D01*
X53611560Y-95634912D01*
X53803796Y-95914740D01*
X54124190Y-96146509D01*
X54373593Y-96261327D01*
X54698573Y-96377890D01*
X55005531Y-96492418D01*
X55200868Y-96601132D01*
X55340395Y-96904602D01*
X55200868Y-97187143D01*
X55034018Y-97263010D01*
X54812520Y-97288300D01*
X54519515Y-97253273D01*
X54310225Y-97148192D01*
X54184651Y-96973057D01*
X54142793Y-96727869D01*
X53442836Y-96727869D01*
X51048150Y-96727869D01*
X50629571Y-96100000D01*
G37*
%TO.C,kibuzzard-646BA8CA*%
G36*
X89380420Y-148778923D02*
G01*
X106398503Y-148778923D01*
X106576999Y-148787692D01*
X106753777Y-148813914D01*
X106927133Y-148857338D01*
X107095399Y-148917544D01*
X107256953Y-148993953D01*
X107410239Y-149085829D01*
X107553782Y-149192288D01*
X107686199Y-149312304D01*
X107806215Y-149444721D01*
X107912673Y-149588264D01*
X108004550Y-149741550D01*
X108080959Y-149903104D01*
X108141165Y-150071369D01*
X108184589Y-150244725D01*
X108210811Y-150421503D01*
X108219580Y-150600000D01*
X108210811Y-150778497D01*
X108184589Y-150955275D01*
X108141165Y-151128631D01*
X108080959Y-151296896D01*
X108004550Y-151458450D01*
X107912673Y-151611736D01*
X107806215Y-151755279D01*
X107686199Y-151887696D01*
X107553782Y-152007712D01*
X107410239Y-152114171D01*
X107256953Y-152206047D01*
X107095399Y-152282456D01*
X106927133Y-152342662D01*
X106753777Y-152386086D01*
X106576999Y-152412308D01*
X106398503Y-152421077D01*
X89380420Y-152421077D01*
X89380420Y-150688367D01*
X94672087Y-150688367D01*
X94687159Y-150898001D01*
X94728242Y-151088687D01*
X94795335Y-151260425D01*
X94940675Y-151474947D01*
X95136399Y-151631720D01*
X95291687Y-151702775D01*
X95462994Y-151745408D01*
X95650321Y-151759619D01*
X95916972Y-151738884D01*
X95956904Y-151728613D01*
X96699870Y-151728613D01*
X97194413Y-151728613D01*
X97349443Y-151263525D01*
X98164897Y-151263525D01*
X98321476Y-151728613D01*
X98816020Y-151728613D01*
X98112122Y-149848108D01*
X98887333Y-149848108D01*
X99569462Y-149848108D01*
X99569462Y-151728613D01*
X100034550Y-151728613D01*
X100991081Y-151728613D01*
X102504167Y-151728613D01*
X102504167Y-151354993D01*
X101456169Y-151354993D01*
X101456169Y-151018579D01*
X102682450Y-151018579D01*
X102710549Y-151223993D01*
X102794847Y-151403052D01*
X102932629Y-151551299D01*
X103121183Y-151664276D01*
X103346751Y-151735783D01*
X103595573Y-151759619D01*
X103828634Y-151741102D01*
X104027588Y-151685550D01*
X104192436Y-151592963D01*
X104315598Y-151467820D01*
X104389495Y-151314599D01*
X104414128Y-151133301D01*
X104368782Y-150891455D01*
X104232743Y-150693018D01*
X104087877Y-150581569D01*
X103895124Y-150482867D01*
X103654484Y-150396912D01*
X103465155Y-150329474D01*
X103328147Y-150257385D01*
X103217301Y-150072900D01*
X103311869Y-149882990D01*
X103425428Y-149828923D01*
X103576969Y-149810901D01*
X103733937Y-149832411D01*
X103851371Y-149896942D01*
X103924623Y-150000230D01*
X103949040Y-150138013D01*
X104414128Y-150138013D01*
X104387966Y-149945776D01*
X104309483Y-149775244D01*
X104183715Y-149633586D01*
X104015702Y-149527972D01*
X103813389Y-149462279D01*
X103584721Y-149440381D01*
X103356246Y-149460535D01*
X103151414Y-149520996D01*
X102980882Y-149617308D01*
X102855308Y-149745013D01*
X102777987Y-149898299D01*
X102752214Y-150071350D01*
X102794933Y-150289941D01*
X102923090Y-150476493D01*
X103136686Y-150631006D01*
X103302955Y-150707552D01*
X103519609Y-150785260D01*
X103724247Y-150861612D01*
X103854472Y-150934088D01*
X103947489Y-151136401D01*
X103854472Y-151324762D01*
X103743238Y-151375340D01*
X103595573Y-151392200D01*
X103400236Y-151368848D01*
X103260710Y-151298795D01*
X103176994Y-151182038D01*
X103149089Y-151018579D01*
X102682450Y-151018579D01*
X101456169Y-151018579D01*
X101456169Y-150750378D01*
X102349137Y-150750378D01*
X102349137Y-150386060D01*
X101456169Y-150386060D01*
X101456169Y-149848108D01*
X102501066Y-149848108D01*
X102501066Y-149471387D01*
X100991081Y-149471387D01*
X100991081Y-151728613D01*
X100034550Y-151728613D01*
X100034550Y-149848108D01*
X100725981Y-149848108D01*
X100725981Y-149471387D01*
X98887333Y-149471387D01*
X98887333Y-149848108D01*
X98112122Y-149848108D01*
X97971110Y-149471387D01*
X97540129Y-149471387D01*
X96699870Y-151728613D01*
X95956904Y-151728613D01*
X96158818Y-151676678D01*
X96362293Y-151576878D01*
X96513835Y-151443359D01*
X96513835Y-150542639D01*
X95625517Y-150542639D01*
X95625517Y-150885254D01*
X96048747Y-150885254D01*
X96048747Y-151274377D01*
X95899531Y-151358093D01*
X95675126Y-151385999D01*
X95446070Y-151340652D01*
X95279801Y-151204614D01*
X95204871Y-151064399D01*
X95159912Y-150885598D01*
X95144926Y-150668213D01*
X95144926Y-150524036D01*
X95159568Y-150308717D01*
X95201426Y-150131984D01*
X95270500Y-149993835D01*
X95422816Y-149860123D01*
X95631718Y-149815552D01*
X95797793Y-149838031D01*
X95923948Y-149905469D01*
X96011346Y-150021353D01*
X96061149Y-150189172D01*
X96513835Y-150189172D01*
X96465431Y-149964638D01*
X96376031Y-149778861D01*
X96245634Y-149631842D01*
X96075274Y-149525475D01*
X95865984Y-149461654D01*
X95617765Y-149440381D01*
X95433711Y-149454936D01*
X95266021Y-149498603D01*
X95114695Y-149571381D01*
X94925172Y-149731448D01*
X94786033Y-149949652D01*
X94722729Y-150124577D01*
X94684747Y-150319655D01*
X94672087Y-150534888D01*
X94672087Y-150688367D01*
X89380420Y-150688367D01*
X89380420Y-148778923D01*
G37*
G36*
X98039323Y-150886804D02*
G01*
X97475016Y-150886804D01*
X97755619Y-150041895D01*
X98039323Y-150886804D01*
G37*
%TO.C,kibuzzard-646C8B02*%
G36*
X122795427Y-93168384D02*
G01*
X128369505Y-93168384D01*
X130190583Y-95900000D01*
X128369505Y-98631616D01*
X122795427Y-98631616D01*
X122795427Y-96527869D01*
X124779802Y-96527869D01*
X124821951Y-96835989D01*
X124948396Y-97104578D01*
X125155070Y-97326948D01*
X125437901Y-97496414D01*
X125776253Y-97603675D01*
X126149486Y-97639429D01*
X126499077Y-97611653D01*
X126797508Y-97528324D01*
X127044780Y-97389444D01*
X127229523Y-97201729D01*
X127340369Y-96971898D01*
X127377318Y-96699951D01*
X127309299Y-96337183D01*
X127105242Y-96039526D01*
X126887942Y-95872353D01*
X126598812Y-95724300D01*
X126237853Y-95595367D01*
X125953858Y-95494211D01*
X125748348Y-95386078D01*
X125582079Y-95109351D01*
X125723930Y-94824484D01*
X125894269Y-94743385D01*
X126121581Y-94716351D01*
X126357031Y-94748617D01*
X126533183Y-94845413D01*
X126643060Y-95000346D01*
X126679686Y-95207019D01*
X127377318Y-95207019D01*
X127338076Y-94918665D01*
X127220351Y-94662866D01*
X127031700Y-94450379D01*
X126779680Y-94291959D01*
X126476210Y-94193418D01*
X126133208Y-94160571D01*
X125790496Y-94190802D01*
X125483248Y-94281494D01*
X125227449Y-94425962D01*
X125039089Y-94617520D01*
X124923107Y-94847448D01*
X124884447Y-95107025D01*
X124948526Y-95434912D01*
X125140762Y-95714740D01*
X125461156Y-95946509D01*
X125710559Y-96061327D01*
X126035539Y-96177890D01*
X126342497Y-96292418D01*
X126537834Y-96401132D01*
X126677361Y-96704602D01*
X126537834Y-96987143D01*
X126370984Y-97063010D01*
X126149486Y-97088300D01*
X125856481Y-97053273D01*
X125647191Y-96948192D01*
X125521617Y-96773057D01*
X125479759Y-96527869D01*
X124779802Y-96527869D01*
X122795427Y-96527869D01*
X122795427Y-93168384D01*
G37*
%TO.C,kibuzzard-646BA165*%
G36*
X94081758Y-50964967D02*
G01*
X94196674Y-51015546D01*
X94263530Y-51104494D01*
X94285815Y-51236462D01*
X94246714Y-51389597D01*
X94129408Y-51483131D01*
X93933899Y-51517065D01*
X93589734Y-51517065D01*
X93589734Y-50948108D01*
X93915295Y-50948108D01*
X94081758Y-50964967D01*
G37*
G36*
X79692219Y-51700000D02*
G01*
X80906270Y-49878923D01*
X100093730Y-49878923D01*
X101307781Y-51700000D01*
X100093730Y-53521077D01*
X80906270Y-53521077D01*
X79735627Y-51765112D01*
X86197937Y-51765112D01*
X86213488Y-52006522D01*
X86260143Y-52220705D01*
X86337899Y-52407660D01*
X86446759Y-52567389D01*
X86582749Y-52695240D01*
X86741896Y-52786562D01*
X86924201Y-52841355D01*
X87129663Y-52859619D01*
X87377107Y-52836365D01*
X87400794Y-52828613D01*
X88152856Y-52828613D01*
X88647400Y-52828613D01*
X88802429Y-52363525D01*
X89617883Y-52363525D01*
X89774463Y-52828613D01*
X90269006Y-52828613D01*
X90479846Y-52828613D01*
X91932471Y-52828613D01*
X92228577Y-52828613D01*
X92693665Y-52828613D01*
X93124646Y-52828613D01*
X94002112Y-52828613D01*
X94238790Y-52808287D01*
X94436194Y-52751443D01*
X94594324Y-52658081D01*
X94709734Y-52528890D01*
X94778981Y-52364559D01*
X94802063Y-52165088D01*
X94777065Y-51989130D01*
X94702069Y-51842627D01*
X94583665Y-51732944D01*
X94428442Y-51667444D01*
X94563705Y-51591673D01*
X94665637Y-51482184D01*
X94729587Y-51345952D01*
X94750903Y-51189954D01*
X94727304Y-51003660D01*
X94656508Y-50849923D01*
X94538513Y-50728741D01*
X94374871Y-50641322D01*
X94167132Y-50588871D01*
X93915295Y-50571387D01*
X93124646Y-50571387D01*
X93124646Y-52828613D01*
X92693665Y-52828613D01*
X92693665Y-50571387D01*
X92228577Y-50571387D01*
X92228577Y-52828613D01*
X91932471Y-52828613D01*
X91932471Y-52454993D01*
X90944934Y-52454993D01*
X90944934Y-50571387D01*
X90479846Y-50571387D01*
X90479846Y-52828613D01*
X90269006Y-52828613D01*
X89424097Y-50571387D01*
X88993115Y-50571387D01*
X88152856Y-52828613D01*
X87400794Y-52828613D01*
X87590272Y-52766602D01*
X87769159Y-52650330D01*
X87906877Y-52493578D01*
X87996535Y-52302375D01*
X88038135Y-52076721D01*
X87573047Y-52076721D01*
X87534871Y-52255974D01*
X87451349Y-52381354D01*
X87317830Y-52455186D01*
X87129663Y-52479797D01*
X86922893Y-52437552D01*
X86780072Y-52310815D01*
X86718491Y-52176284D01*
X86681542Y-51998001D01*
X86669226Y-51775964D01*
X86669226Y-51605432D01*
X86683782Y-51392267D01*
X86723314Y-51219926D01*
X86787823Y-51088409D01*
X86932582Y-50963417D01*
X87135864Y-50921753D01*
X87322481Y-50946364D01*
X87454449Y-51020197D01*
X87537196Y-51148677D01*
X87576147Y-51337231D01*
X88041235Y-51337231D01*
X87994038Y-51103826D01*
X87902053Y-50907973D01*
X87765283Y-50749670D01*
X87589239Y-50633398D01*
X87379433Y-50563635D01*
X87135864Y-50540381D01*
X86955427Y-50555109D01*
X86790321Y-50599292D01*
X86640546Y-50672931D01*
X86451991Y-50834355D01*
X86312659Y-51053528D01*
X86248924Y-51227505D01*
X86210684Y-51418708D01*
X86197937Y-51627136D01*
X86197937Y-51765112D01*
X79735627Y-51765112D01*
X79692219Y-51700000D01*
G37*
G36*
X94194348Y-51882762D02*
G01*
X94301318Y-51987665D01*
X94336975Y-52160437D01*
X94244733Y-52376703D01*
X94134468Y-52435420D01*
X93988159Y-52454993D01*
X93589734Y-52454993D01*
X93589734Y-51845728D01*
X94016064Y-51845728D01*
X94194348Y-51882762D01*
G37*
G36*
X89492310Y-51986804D02*
G01*
X88928003Y-51986804D01*
X89208606Y-51141895D01*
X89492310Y-51986804D01*
G37*
%TO.C,kibuzzard-646C8AB8*%
G36*
X50629571Y-118500000D02*
G01*
X52419642Y-115814893D01*
X58033253Y-115814893D01*
X58033253Y-121185107D01*
X52419642Y-121185107D01*
X51758184Y-120192920D01*
X53411830Y-120192920D01*
X54109462Y-120192920D01*
X54109462Y-118953461D01*
X54665242Y-118953461D01*
X55300087Y-120192920D01*
X56048878Y-120192920D01*
X56048878Y-120160364D01*
X55316365Y-118776727D01*
X55582337Y-118615981D01*
X55770988Y-118408145D01*
X55883481Y-118147987D01*
X55920979Y-117830273D01*
X55884806Y-117529258D01*
X55776285Y-117277336D01*
X55595418Y-117074506D01*
X55347887Y-116925936D01*
X55039379Y-116836794D01*
X54669893Y-116807080D01*
X53411830Y-116807080D01*
X53411830Y-120192920D01*
X51758184Y-120192920D01*
X50629571Y-118500000D01*
G37*
G36*
X54914936Y-117406462D02*
G01*
X55087309Y-117509363D01*
X55189338Y-117672144D01*
X55223347Y-117886084D01*
X55187303Y-118095664D01*
X55079170Y-118254666D01*
X54905343Y-118354951D01*
X54672218Y-118388379D01*
X54109462Y-118388379D01*
X54109462Y-117372162D01*
X54669893Y-117372162D01*
X54914936Y-117406462D01*
G37*
%TO.C,kibuzzard-646BA8C3*%
G36*
X78166396Y-150886804D02*
G01*
X77602089Y-150886804D01*
X77882692Y-150041895D01*
X78166396Y-150886804D01*
G37*
G36*
X82179717Y-149892485D02*
G01*
X82355288Y-150025616D01*
X82434525Y-150162473D01*
X82482067Y-150336364D01*
X82497915Y-150547290D01*
X82497915Y-150666663D01*
X82480172Y-150870785D01*
X82431080Y-151040800D01*
X82350637Y-151176709D01*
X82174291Y-151310422D01*
X81933608Y-151354993D01*
X81708815Y-151354993D01*
X81708815Y-149848108D01*
X81938259Y-149848108D01*
X82179717Y-149892485D01*
G37*
G36*
X74664071Y-152412308D02*
G01*
X74487293Y-152386086D01*
X74313937Y-152342662D01*
X74145672Y-152282456D01*
X73984118Y-152206047D01*
X73830832Y-152114170D01*
X73687289Y-152007712D01*
X73554872Y-151887696D01*
X73434856Y-151755279D01*
X73415079Y-151728613D01*
X76826943Y-151728613D01*
X77321486Y-151728613D01*
X77476516Y-151263525D01*
X78291970Y-151263525D01*
X78448549Y-151728613D01*
X78943093Y-151728613D01*
X78661070Y-150975171D01*
X79132228Y-150975171D01*
X79160651Y-151201686D01*
X79239715Y-151393405D01*
X79369423Y-151550330D01*
X79542539Y-151666602D01*
X79751829Y-151736365D01*
X79997292Y-151759619D01*
X80246114Y-151735676D01*
X80266871Y-151728613D01*
X81243727Y-151728613D01*
X81942910Y-151728613D01*
X83336623Y-151728613D01*
X83801711Y-151728613D01*
X83801711Y-150663562D01*
X84164479Y-150663562D01*
X84178777Y-150872249D01*
X84219601Y-151064227D01*
X84286953Y-151239496D01*
X84378592Y-151393578D01*
X84492280Y-151521994D01*
X84628017Y-151624744D01*
X84781496Y-151699674D01*
X84948411Y-151744633D01*
X85128762Y-151759619D01*
X85310749Y-151744461D01*
X85478439Y-151698985D01*
X85631832Y-151623193D01*
X85766793Y-151519496D01*
X85879190Y-151390305D01*
X85969020Y-151235620D01*
X86034477Y-151059059D01*
X86073751Y-150864239D01*
X86086843Y-150651160D01*
X86086843Y-150550391D01*
X86073493Y-150337914D01*
X86033444Y-150142836D01*
X85966695Y-149965155D01*
X85875572Y-149809264D01*
X85762401Y-149679557D01*
X85627181Y-149576031D01*
X85473960Y-149500670D01*
X85306787Y-149455453D01*
X85125661Y-149440381D01*
X84944535Y-149455453D01*
X84777362Y-149500670D01*
X84624141Y-149576031D01*
X84488921Y-149679557D01*
X84375750Y-149809264D01*
X84284627Y-149965155D01*
X84217878Y-150143008D01*
X84177829Y-150338603D01*
X84164479Y-150551941D01*
X84164479Y-150663562D01*
X83801711Y-150663562D01*
X83801711Y-149471387D01*
X83336623Y-149471387D01*
X83336623Y-151728613D01*
X81942910Y-151728613D01*
X82133596Y-151712766D01*
X82310846Y-151667291D01*
X82474660Y-151592188D01*
X82619957Y-151490040D01*
X82741655Y-151363433D01*
X82839754Y-151212366D01*
X82911670Y-151041317D01*
X82954820Y-150854765D01*
X82969204Y-150652710D01*
X82969204Y-150548840D01*
X82954562Y-150346527D01*
X82910637Y-150159200D01*
X82837429Y-149986859D01*
X82738124Y-149834586D01*
X82615909Y-149707462D01*
X82470784Y-149605487D01*
X82307228Y-149530987D01*
X82129720Y-149486287D01*
X81938259Y-149471387D01*
X81243727Y-149471387D01*
X81243727Y-151728613D01*
X80266871Y-151728613D01*
X80457212Y-151663845D01*
X80630587Y-151544128D01*
X80759347Y-151383242D01*
X80836603Y-151187906D01*
X80862355Y-150958118D01*
X80862355Y-149471387D01*
X80395717Y-149471387D01*
X80395717Y-150973621D01*
X80368490Y-151154036D01*
X80293010Y-151282904D01*
X80169278Y-151360225D01*
X79997292Y-151385999D01*
X79830054Y-151360612D01*
X79703511Y-151284454D01*
X79623865Y-151152873D01*
X79597316Y-150961218D01*
X79597316Y-149471387D01*
X79132228Y-149471387D01*
X79132228Y-150975171D01*
X78661070Y-150975171D01*
X78098183Y-149471387D01*
X77667202Y-149471387D01*
X76826943Y-151728613D01*
X73415079Y-151728613D01*
X73328397Y-151611736D01*
X73236521Y-151458450D01*
X73160112Y-151296896D01*
X73099906Y-151128631D01*
X73056482Y-150955275D01*
X73030260Y-150778497D01*
X73021491Y-150600000D01*
X73030260Y-150421503D01*
X73056482Y-150244725D01*
X73099906Y-150071369D01*
X73160112Y-149903104D01*
X73236521Y-149741550D01*
X73328397Y-149588264D01*
X73434856Y-149444721D01*
X73554872Y-149312304D01*
X73687289Y-149192288D01*
X73830832Y-149085830D01*
X73984118Y-148993953D01*
X74145672Y-148917544D01*
X74313937Y-148857338D01*
X74487293Y-148813914D01*
X74664071Y-148787692D01*
X74842568Y-148778923D01*
X91378509Y-148778923D01*
X91378509Y-152421077D01*
X74842568Y-152421077D01*
X74664071Y-152412308D01*
G37*
G36*
X85334175Y-149870975D02*
G01*
X85488430Y-150009338D01*
X85559054Y-150151276D01*
X85601429Y-150331110D01*
X85615554Y-150548840D01*
X85615554Y-150658911D01*
X85600740Y-150874832D01*
X85558365Y-151053375D01*
X85488430Y-151194537D01*
X85335726Y-151332320D01*
X85128762Y-151378247D01*
X84917922Y-151330576D01*
X84762893Y-151187561D01*
X84692268Y-151043212D01*
X84649893Y-150864411D01*
X84635769Y-150651160D01*
X84635769Y-150541089D01*
X84650755Y-150325340D01*
X84693646Y-150147314D01*
X84764443Y-150007013D01*
X84918309Y-149870393D01*
X85125661Y-149824854D01*
X85334175Y-149870975D01*
G37*
%TO.C,kibuzzard-646C8B09*%
G36*
X126254228Y-117506462D02*
G01*
X126426601Y-117609363D01*
X126528630Y-117772144D01*
X126562639Y-117986084D01*
X126526595Y-118195664D01*
X126418462Y-118354666D01*
X126244635Y-118454951D01*
X126011510Y-118488379D01*
X125448754Y-118488379D01*
X125448754Y-117472162D01*
X126009185Y-117472162D01*
X126254228Y-117506462D01*
G37*
G36*
X122766747Y-115914893D02*
G01*
X128380358Y-115914893D01*
X130170429Y-118600000D01*
X128380358Y-121285107D01*
X122766747Y-121285107D01*
X122766747Y-120292920D01*
X124751122Y-120292920D01*
X125448754Y-120292920D01*
X125448754Y-119053461D01*
X126004534Y-119053461D01*
X126639379Y-120292920D01*
X127388170Y-120292920D01*
X127388170Y-120260364D01*
X126655657Y-118876727D01*
X126921629Y-118715981D01*
X127110280Y-118508145D01*
X127222773Y-118247987D01*
X127260271Y-117930273D01*
X127224097Y-117629258D01*
X127115577Y-117377336D01*
X126934709Y-117174506D01*
X126687179Y-117025936D01*
X126378671Y-116936794D01*
X126009185Y-116907080D01*
X124751122Y-116907080D01*
X124751122Y-120292920D01*
X122766747Y-120292920D01*
X122766747Y-115914893D01*
G37*
%TO.C,G\u002A\u002A\u002A*%
G36*
X98591435Y-32412170D02*
G01*
X98647904Y-32979967D01*
X98669139Y-33359991D01*
X98644306Y-33589936D01*
X98562569Y-33707496D01*
X98413093Y-33750368D01*
X98205083Y-33756250D01*
X97656712Y-33839233D01*
X97211285Y-34064868D01*
X96896202Y-34398186D01*
X96738859Y-34804216D01*
X96766654Y-35247989D01*
X96859127Y-35474197D01*
X97033491Y-35652484D01*
X97324957Y-35840826D01*
X97633899Y-35982494D01*
X97824843Y-36024107D01*
X97852682Y-35921958D01*
X97849778Y-35656252D01*
X97822855Y-35343750D01*
X97745881Y-34663393D01*
X99115384Y-34663393D01*
X99044123Y-35712277D01*
X99008723Y-36175220D01*
X98973008Y-36545049D01*
X98942457Y-36768849D01*
X98930459Y-36809916D01*
X98791669Y-36846004D01*
X98487821Y-36871660D01*
X98080428Y-36886308D01*
X97631004Y-36889372D01*
X97201061Y-36880274D01*
X96852113Y-36858439D01*
X96671327Y-36831085D01*
X95949756Y-36541365D01*
X95377817Y-36092925D01*
X94973031Y-35505561D01*
X94752923Y-34799068D01*
X94732106Y-34640392D01*
X94743888Y-33834976D01*
X94949417Y-33133899D01*
X95341785Y-32550882D01*
X95914080Y-32099643D01*
X96048352Y-32027009D01*
X96413223Y-31861258D01*
X96749948Y-31766168D01*
X97148249Y-31723605D01*
X97591233Y-31715179D01*
X98518585Y-31715179D01*
X98591435Y-32412170D01*
G37*
G36*
X76726455Y-34153125D02*
G01*
X76732151Y-33638671D01*
X76763084Y-33279079D01*
X76833346Y-33002700D01*
X76957030Y-32737884D01*
X77029951Y-32610060D01*
X77364306Y-32142521D01*
X77752305Y-31834795D01*
X78268290Y-31633376D01*
X78450554Y-31587653D01*
X79132144Y-31538973D01*
X79769654Y-31697501D01*
X80323619Y-32043702D01*
X80754576Y-32558046D01*
X80875252Y-32787720D01*
X81036503Y-33341756D01*
X81097024Y-34012041D01*
X81058685Y-34712576D01*
X80923360Y-35357361D01*
X80813032Y-35646919D01*
X80604303Y-36014218D01*
X80366246Y-36317993D01*
X80232274Y-36435126D01*
X79924661Y-36636682D01*
X80362129Y-37003959D01*
X80600794Y-37220138D01*
X80734711Y-37373031D01*
X80745558Y-37414749D01*
X80624831Y-37502067D01*
X80395553Y-37662254D01*
X80340000Y-37700635D01*
X79988482Y-37943006D01*
X79673261Y-37613987D01*
X79469465Y-37339844D01*
X79420813Y-37124743D01*
X79425908Y-37108109D01*
X79428739Y-37003508D01*
X79304410Y-36949593D01*
X79008987Y-36931497D01*
X78902021Y-36930826D01*
X78301911Y-36860960D01*
X77804926Y-36636310D01*
X77375664Y-36232876D01*
X76979034Y-35627232D01*
X76850763Y-35348036D01*
X76773751Y-35039790D01*
X76743924Y-34717192D01*
X78329166Y-34717192D01*
X78387478Y-35162091D01*
X78542370Y-35524084D01*
X78763776Y-35749473D01*
X78933928Y-35797322D01*
X79150365Y-35708802D01*
X79347088Y-35504900D01*
X79475287Y-35181996D01*
X79531462Y-34774070D01*
X79512692Y-34374899D01*
X79416059Y-34078257D01*
X79392514Y-34045774D01*
X79174734Y-33913038D01*
X78933928Y-33869643D01*
X78605038Y-33947779D01*
X78407662Y-34192294D01*
X78330985Y-34618347D01*
X78329166Y-34717192D01*
X76743924Y-34717192D01*
X76736196Y-34633602D01*
X76726455Y-34153125D01*
G37*
G36*
X99297329Y-33638671D02*
G01*
X99328262Y-33279079D01*
X99398525Y-33002700D01*
X99522208Y-32737884D01*
X99595129Y-32610060D01*
X99929484Y-32142521D01*
X100317483Y-31834795D01*
X100833468Y-31633376D01*
X101015733Y-31587653D01*
X101697323Y-31538973D01*
X102334833Y-31697501D01*
X102888798Y-32043702D01*
X103319754Y-32558046D01*
X103440431Y-32787720D01*
X103588704Y-33296808D01*
X103653949Y-33928820D01*
X103636899Y-34595928D01*
X103538284Y-35210302D01*
X103417257Y-35570536D01*
X103056944Y-36198224D01*
X102625724Y-36621920D01*
X102097436Y-36859957D01*
X101476390Y-36930826D01*
X100877234Y-36859673D01*
X100480576Y-36689687D01*
X100172162Y-36480424D01*
X99939902Y-36253396D01*
X99721838Y-35938298D01*
X99544213Y-35627232D01*
X99415941Y-35348036D01*
X99338930Y-35039790D01*
X99301375Y-34633602D01*
X99300551Y-34592951D01*
X100892684Y-34592951D01*
X100913585Y-34991576D01*
X101019622Y-35365157D01*
X101199219Y-35652498D01*
X101440801Y-35792401D01*
X101499107Y-35797322D01*
X101715543Y-35708802D01*
X101912267Y-35504900D01*
X102067220Y-35125747D01*
X102109845Y-34691532D01*
X102043723Y-34285030D01*
X101872439Y-33989019D01*
X101845622Y-33965366D01*
X101631867Y-33814414D01*
X101499107Y-33756250D01*
X101355409Y-33821014D01*
X101152592Y-33965366D01*
X100968494Y-34230482D01*
X100892684Y-34592951D01*
X99300551Y-34592951D01*
X99291633Y-34153125D01*
X99297329Y-33638671D01*
G37*
G36*
X86289865Y-35247890D02*
G01*
X86351292Y-34988099D01*
X86504692Y-34326296D01*
X86651667Y-33663360D01*
X86777350Y-33068238D01*
X86866875Y-32609878D01*
X86879720Y-32537277D01*
X87021141Y-31715179D01*
X89009814Y-31715179D01*
X89142318Y-32367188D01*
X89218769Y-32729297D01*
X89327234Y-33224506D01*
X89457408Y-33807718D01*
X89598986Y-34433836D01*
X89741663Y-35057762D01*
X89875135Y-35634399D01*
X89989097Y-36118650D01*
X90073245Y-36465417D01*
X90113948Y-36619420D01*
X90122036Y-36717488D01*
X90044497Y-36776827D01*
X89840113Y-36806901D01*
X89467671Y-36817172D01*
X89249704Y-36817857D01*
X88788382Y-36812488D01*
X88505414Y-36788871D01*
X88352477Y-36735741D01*
X88281246Y-36641833D01*
X88264228Y-36588128D01*
X88217013Y-36448731D01*
X88135009Y-36421001D01*
X87954902Y-36506397D01*
X87796518Y-36598909D01*
X87539240Y-36723423D01*
X87376140Y-36751091D01*
X87352852Y-36731326D01*
X87261274Y-36558340D01*
X87167605Y-36419167D01*
X87055502Y-36293314D01*
X86990279Y-36350332D01*
X86942748Y-36516480D01*
X86862649Y-36713713D01*
X86705836Y-36799658D01*
X86415696Y-36817857D01*
X86132429Y-36795457D01*
X85975445Y-36739531D01*
X85964285Y-36717340D01*
X85989291Y-36576644D01*
X86058100Y-36257091D01*
X86155608Y-35825894D01*
X87213525Y-35825894D01*
X87282297Y-35896395D01*
X87506019Y-35865661D01*
X87563424Y-35853452D01*
X87834367Y-35786768D01*
X87988649Y-35732705D01*
X87995344Y-35727942D01*
X87994609Y-35600893D01*
X87929706Y-35351014D01*
X87829482Y-35062309D01*
X87722785Y-34818781D01*
X87644940Y-34707582D01*
X87545523Y-34759914D01*
X87426309Y-34984972D01*
X87309567Y-35332629D01*
X87243342Y-35611564D01*
X87213525Y-35825894D01*
X86155608Y-35825894D01*
X86161396Y-35800300D01*
X86289865Y-35247890D01*
G37*
G36*
X83412946Y-33614482D02*
G01*
X83418311Y-34417462D01*
X83439326Y-35021449D01*
X83483369Y-35454087D01*
X83557820Y-35743020D01*
X83670059Y-35915889D01*
X83827465Y-36000339D01*
X84037417Y-36024011D01*
X84056199Y-36024107D01*
X84407991Y-36024107D01*
X84325974Y-33869643D01*
X84243958Y-31715179D01*
X85879241Y-31715179D01*
X85808370Y-32069531D01*
X85785517Y-32295387D01*
X85765730Y-32704060D01*
X85750287Y-33251590D01*
X85740470Y-33894017D01*
X85737500Y-34503488D01*
X85738161Y-35284737D01*
X85727577Y-35868922D01*
X85686892Y-36285641D01*
X85597253Y-36564487D01*
X85439805Y-36735058D01*
X85195696Y-36826947D01*
X84846070Y-36869751D01*
X84372075Y-36893065D01*
X84210584Y-36900316D01*
X83694088Y-36917320D01*
X83332808Y-36903485D01*
X83056140Y-36848896D01*
X82793483Y-36743638D01*
X82675893Y-36684798D01*
X82367769Y-36497351D01*
X82118260Y-36268882D01*
X81918400Y-35972194D01*
X81759225Y-35580089D01*
X81631768Y-35065369D01*
X81527063Y-34400836D01*
X81436147Y-33559292D01*
X81364770Y-32707366D01*
X81288355Y-31715179D01*
X82350650Y-31715152D01*
X83412946Y-31715125D01*
X83412946Y-33614482D01*
G37*
G36*
X93761667Y-31715108D02*
G01*
X94358601Y-31715179D01*
X94285117Y-33331027D01*
X94251971Y-34013722D01*
X94214592Y-34709647D01*
X94177349Y-35341439D01*
X94144610Y-35831732D01*
X94141754Y-35869975D01*
X94071875Y-36793075D01*
X92962007Y-35955020D01*
X92526645Y-35632655D01*
X92152825Y-35367761D01*
X91879343Y-35187011D01*
X91745000Y-35117079D01*
X91743034Y-35116964D01*
X91690727Y-35221152D01*
X91652159Y-35497090D01*
X91634378Y-35889843D01*
X91633928Y-35967411D01*
X91633928Y-36817857D01*
X90636997Y-36817857D01*
X90570403Y-35939063D01*
X90538396Y-35468151D01*
X90501823Y-34853714D01*
X90465407Y-34178820D01*
X90436571Y-33586161D01*
X90407075Y-33015454D01*
X90374791Y-32515157D01*
X90343390Y-32135215D01*
X90316544Y-31925571D01*
X90313632Y-31913616D01*
X90309074Y-31810413D01*
X90396579Y-31750520D01*
X90619586Y-31722576D01*
X91021531Y-31715220D01*
X91072274Y-31715179D01*
X91886616Y-31715179D01*
X93246282Y-32893077D01*
X93205507Y-32304057D01*
X93164732Y-31715038D01*
X93761667Y-31715108D01*
G37*
%TO.C,kibuzzard-646C8AA8*%
G36*
X50629571Y-73400000D02*
G01*
X52419643Y-70714893D01*
X57984419Y-70714893D01*
X57984419Y-76085107D01*
X52419643Y-76085107D01*
X51758185Y-75092920D01*
X53411830Y-75092920D01*
X54460603Y-75092920D01*
X54746632Y-75069149D01*
X55012507Y-75000936D01*
X55258229Y-74888281D01*
X55476174Y-74735061D01*
X55658721Y-74545150D01*
X55805870Y-74318549D01*
X55913744Y-74061975D01*
X55978469Y-73782147D01*
X56000044Y-73479065D01*
X56000044Y-73323260D01*
X55978082Y-73019791D01*
X55912194Y-72738800D01*
X55802382Y-72480289D01*
X55653424Y-72251879D01*
X55470102Y-72061193D01*
X55252415Y-71908231D01*
X55007081Y-71796480D01*
X54740819Y-71729430D01*
X54453627Y-71707080D01*
X53411830Y-71707080D01*
X53411830Y-75092920D01*
X51758185Y-75092920D01*
X50629571Y-73400000D01*
G37*
G36*
X54815814Y-72338728D02*
G01*
X55079170Y-72538425D01*
X55198026Y-72743709D01*
X55269339Y-73004546D01*
X55293111Y-73320935D01*
X55293111Y-73499994D01*
X55266497Y-73806177D01*
X55192858Y-74061200D01*
X55072194Y-74265063D01*
X54807675Y-74465633D01*
X54446651Y-74532489D01*
X54109462Y-74532489D01*
X54109462Y-72272162D01*
X54453627Y-72272162D01*
X54815814Y-72338728D01*
G37*
%TO.C,kibuzzard-646C8AF5*%
G36*
X126223125Y-51330206D02*
G01*
X125376665Y-51330206D01*
X125797570Y-50062842D01*
X126223125Y-51330206D01*
G37*
G36*
X122229571Y-48214893D02*
G01*
X128380358Y-48214893D01*
X130170429Y-50900000D01*
X128380358Y-53585107D01*
X122229571Y-53585107D01*
X122229571Y-52592920D01*
X124213946Y-52592920D01*
X124955761Y-52592920D01*
X125188305Y-51895288D01*
X126411486Y-51895288D01*
X126646355Y-52592920D01*
X127388170Y-52592920D01*
X126120806Y-49207080D01*
X125474334Y-49207080D01*
X124213946Y-52592920D01*
X122229571Y-52592920D01*
X122229571Y-48214893D01*
G37*
%TO.C,kibuzzard-646C865B*%
G36*
X92139919Y-123515606D02*
G01*
X92359382Y-123682021D01*
X92458429Y-123853091D01*
X92517857Y-124070455D01*
X92537666Y-124334113D01*
X92537666Y-124483328D01*
X92515488Y-124738481D01*
X92454123Y-124951000D01*
X92353569Y-125120886D01*
X92133137Y-125288027D01*
X91832283Y-125343741D01*
X91551292Y-125343741D01*
X91551292Y-123460135D01*
X91838096Y-123460135D01*
X92139919Y-123515606D01*
G37*
G36*
X79143450Y-129442706D02*
G01*
X78896314Y-129424476D01*
X78650371Y-129394142D01*
X78406212Y-129351776D01*
X78164427Y-129297482D01*
X77925596Y-129231388D01*
X77690297Y-129153656D01*
X77459095Y-129064471D01*
X77232547Y-128964050D01*
X77011200Y-128852633D01*
X76795586Y-128730489D01*
X76586226Y-128597913D01*
X76383623Y-128455224D01*
X76188265Y-128302765D01*
X76000624Y-128140905D01*
X75821150Y-127970032D01*
X75650277Y-127790558D01*
X75488417Y-127602917D01*
X75335958Y-127407559D01*
X75193269Y-127204956D01*
X75060693Y-126995595D01*
X74938549Y-126779982D01*
X74827132Y-126558635D01*
X74726711Y-126332087D01*
X74637526Y-126100885D01*
X74559794Y-125865586D01*
X74544623Y-125810767D01*
X86336494Y-125810767D01*
X86917854Y-125810767D01*
X86917854Y-125039496D01*
X86859718Y-123710120D01*
X87619362Y-125810767D01*
X88018562Y-125810767D01*
X88780144Y-123708182D01*
X88722008Y-125039496D01*
X88722008Y-125810767D01*
X89305305Y-125810767D01*
X89849846Y-125810767D01*
X90431206Y-125810767D01*
X90969932Y-125810767D01*
X91843910Y-125810767D01*
X93586052Y-125810767D01*
X94167412Y-125810767D01*
X94167412Y-122989233D01*
X93586052Y-122989233D01*
X93586052Y-125810767D01*
X91843910Y-125810767D01*
X92082268Y-125790957D01*
X92303830Y-125734113D01*
X92508598Y-125640234D01*
X92690219Y-125512551D01*
X92842342Y-125354291D01*
X92964966Y-125165457D01*
X93054861Y-124951646D01*
X93108798Y-124718456D01*
X93126778Y-124465887D01*
X93126778Y-124336050D01*
X93108475Y-124083159D01*
X93053569Y-123849000D01*
X92962059Y-123633574D01*
X92837928Y-123443232D01*
X92685159Y-123284327D01*
X92503754Y-123156859D01*
X92299309Y-123063734D01*
X92077423Y-123007858D01*
X91838096Y-122989233D01*
X90969932Y-122989233D01*
X90969932Y-125810767D01*
X90431206Y-125810767D01*
X90431206Y-122989233D01*
X89849846Y-122989233D01*
X89849846Y-125810767D01*
X89305305Y-125810767D01*
X89305305Y-122989233D01*
X88541786Y-122989233D01*
X87820900Y-125035620D01*
X87096138Y-122989233D01*
X86336494Y-122989233D01*
X86336494Y-125810767D01*
X74544623Y-125810767D01*
X74493700Y-125626755D01*
X74439406Y-125384970D01*
X74397040Y-125140811D01*
X74366706Y-124894868D01*
X74348476Y-124647732D01*
X74342395Y-124400000D01*
X74348476Y-124152268D01*
X74366706Y-123905132D01*
X74397040Y-123659189D01*
X74439406Y-123415030D01*
X74493700Y-123173245D01*
X74559794Y-122934414D01*
X74637526Y-122699115D01*
X74726711Y-122467913D01*
X74827132Y-122241365D01*
X74938549Y-122020018D01*
X75060693Y-121804405D01*
X75193269Y-121595044D01*
X75335958Y-121392441D01*
X75488417Y-121197083D01*
X75650277Y-121009442D01*
X75821150Y-120829968D01*
X76000624Y-120659095D01*
X76188265Y-120497235D01*
X76383623Y-120344776D01*
X76586226Y-120202087D01*
X76795586Y-120069511D01*
X77011200Y-119947367D01*
X77232547Y-119835950D01*
X77459095Y-119735529D01*
X77690297Y-119646344D01*
X77925596Y-119568612D01*
X78164427Y-119502518D01*
X78406212Y-119448224D01*
X78650371Y-119405858D01*
X78896314Y-119375524D01*
X79143450Y-119357294D01*
X79391182Y-119351213D01*
X101608818Y-119351213D01*
X101856550Y-119357294D01*
X102103686Y-119375524D01*
X102349629Y-119405858D01*
X102593787Y-119448224D01*
X102835573Y-119502518D01*
X103074404Y-119568612D01*
X103309703Y-119646344D01*
X103540905Y-119735529D01*
X103767453Y-119835950D01*
X103988800Y-119947367D01*
X104204413Y-120069511D01*
X104413774Y-120202087D01*
X104616377Y-120344776D01*
X104811735Y-120497235D01*
X104999376Y-120659095D01*
X105178850Y-120829968D01*
X105349723Y-121009442D01*
X105511583Y-121197083D01*
X105664042Y-121392441D01*
X105806731Y-121595044D01*
X105939307Y-121804405D01*
X106061451Y-122020018D01*
X106172868Y-122241365D01*
X106273289Y-122467913D01*
X106362474Y-122699115D01*
X106440206Y-122934414D01*
X106506300Y-123173245D01*
X106560594Y-123415030D01*
X106602960Y-123659189D01*
X106633294Y-123905132D01*
X106651524Y-124152268D01*
X106657605Y-124400000D01*
X106651524Y-124647732D01*
X106633294Y-124894868D01*
X106602960Y-125140811D01*
X106560594Y-125384970D01*
X106506300Y-125626755D01*
X106440206Y-125865586D01*
X106362474Y-126100885D01*
X106273289Y-126332087D01*
X106172868Y-126558635D01*
X106061451Y-126779982D01*
X105939307Y-126995595D01*
X105806731Y-127204956D01*
X105664042Y-127407559D01*
X105511583Y-127602917D01*
X105349723Y-127790558D01*
X105178850Y-127970032D01*
X104999376Y-128140905D01*
X104811735Y-128302765D01*
X104616377Y-128455224D01*
X104413774Y-128597913D01*
X104204413Y-128730489D01*
X103988800Y-128852633D01*
X103767453Y-128964050D01*
X103540905Y-129064471D01*
X103309703Y-129153656D01*
X103074404Y-129231388D01*
X102835573Y-129297482D01*
X102593787Y-129351776D01*
X102349629Y-129394142D01*
X102103686Y-129424476D01*
X101856550Y-129442706D01*
X101608818Y-129448787D01*
X79391182Y-129448787D01*
X79143450Y-129442706D01*
G37*
%TD*%
D17*
%TO.C,Ref\u002A\u002A*%
X80600000Y-42000000D03*
%TD*%
%TO.C,Ref\u002A\u002A*%
X95800000Y-42000000D03*
%TD*%
%TO.C,Ref\u002A\u002A*%
X100400000Y-42000000D03*
%TD*%
D18*
%TO.C,Ref\u002A\u002A*%
X64800000Y-50900000D03*
%TD*%
D19*
%TO.C,Ref\u002A\u002A*%
X123500000Y-33000000D03*
%TD*%
D18*
%TO.C,Ref\u002A\u002A*%
X116200000Y-96100000D03*
%TD*%
D20*
%TO.C,Ref\u002A\u002A*%
X80600000Y-124300000D03*
%TD*%
D18*
%TO.C,Ref\u002A\u002A*%
X64800000Y-118700000D03*
%TD*%
%TO.C,Ref\u002A\u002A*%
X116200000Y-73500000D03*
%TD*%
D17*
%TO.C,Ref\u002A\u002A*%
X71400000Y-42000000D03*
%TD*%
D19*
%TO.C,Ref\u002A\u002A*%
X57500000Y-155500000D03*
%TD*%
D17*
%TO.C,Ref\u002A\u002A*%
X105000000Y-42000000D03*
%TD*%
D18*
%TO.C,Ref\u002A\u002A*%
X116200000Y-50900000D03*
%TD*%
%TO.C,Ref\u002A\u002A*%
X116200000Y-118700000D03*
%TD*%
D19*
%TO.C,Ref\u002A\u002A*%
X123500000Y-155500000D03*
%TD*%
D18*
%TO.C,Ref\u002A\u002A*%
X64800000Y-96100000D03*
%TD*%
%TO.C,Ref\u002A\u002A*%
X64800000Y-73500000D03*
%TD*%
D17*
%TO.C,Ref\u002A\u002A*%
X109600000Y-42000000D03*
%TD*%
D19*
%TO.C,Ref\u002A\u002A*%
X57500000Y-33000000D03*
%TD*%
D17*
%TO.C,Ref\u002A\u002A*%
X76000000Y-42000000D03*
%TD*%
%TO.C,Ref\u002A\u002A*%
X85200000Y-42000000D03*
%TD*%
D21*
%TO.C,RESET*%
X80500000Y-51700000D03*
%TD*%
%TO.C,RESET*%
X100500000Y-51700000D03*
%TD*%
M02*
