%TF.GenerationSoftware,KiCad,Pcbnew,7.0.7*%
%TF.CreationDate,2023-08-18T12:28:13+01:00*%
%TF.ProjectId,Quango_Panel_3,5175616e-676f-45f5-9061-6e656c5f332e,rev?*%
%TF.SameCoordinates,Original*%
%TF.FileFunction,Copper,L2,Bot*%
%TF.FilePolarity,Positive*%
%FSLAX46Y46*%
G04 Gerber Fmt 4.6, Leading zero omitted, Abs format (unit mm)*
G04 Created by KiCad (PCBNEW 7.0.7) date 2023-08-18 12:28:13*
%MOMM*%
%LPD*%
G01*
G04 APERTURE LIST*
G04 APERTURE END LIST*
%TA.AperFunction,NonConductor*%
G36*
X130941621Y-30020502D02*
G01*
X130988114Y-30074158D01*
X130999500Y-30126500D01*
X130999500Y-158373500D01*
X130979498Y-158441621D01*
X130925842Y-158488114D01*
X130873500Y-158499500D01*
X50126500Y-158499500D01*
X50058379Y-158479498D01*
X50011886Y-158425842D01*
X50000500Y-158373500D01*
X50000500Y-155567765D01*
X54745788Y-155567765D01*
X54775412Y-155837014D01*
X54843928Y-156099090D01*
X54949869Y-156348389D01*
X54949870Y-156348390D01*
X55090982Y-156579610D01*
X55264255Y-156787820D01*
X55465998Y-156968582D01*
X55691910Y-157118044D01*
X55937176Y-157233020D01*
X56196569Y-157311060D01*
X56196572Y-157311060D01*
X56196574Y-157311061D01*
X56464557Y-157350500D01*
X56464561Y-157350500D01*
X58467633Y-157350500D01*
X58502363Y-157347957D01*
X58670156Y-157335677D01*
X58670160Y-157335676D01*
X58670161Y-157335676D01*
X58780665Y-157311060D01*
X58934553Y-157276780D01*
X59187558Y-157180014D01*
X59423777Y-157047441D01*
X59638177Y-156881888D01*
X59826186Y-156686881D01*
X59983799Y-156466579D01*
X60107656Y-156225675D01*
X60195118Y-155969305D01*
X60244319Y-155702933D01*
X60249259Y-155567765D01*
X120745788Y-155567765D01*
X120775412Y-155837014D01*
X120843928Y-156099090D01*
X120949869Y-156348389D01*
X120949870Y-156348390D01*
X121090982Y-156579610D01*
X121264255Y-156787820D01*
X121465998Y-156968582D01*
X121691910Y-157118044D01*
X121937176Y-157233020D01*
X122196569Y-157311060D01*
X122196572Y-157311060D01*
X122196574Y-157311061D01*
X122464557Y-157350500D01*
X122464561Y-157350500D01*
X124467633Y-157350500D01*
X124502363Y-157347957D01*
X124670156Y-157335677D01*
X124670160Y-157335676D01*
X124670161Y-157335676D01*
X124780665Y-157311060D01*
X124934553Y-157276780D01*
X125187558Y-157180014D01*
X125423777Y-157047441D01*
X125638177Y-156881888D01*
X125826186Y-156686881D01*
X125983799Y-156466579D01*
X126107656Y-156225675D01*
X126195118Y-155969305D01*
X126244319Y-155702933D01*
X126254212Y-155432235D01*
X126239338Y-155297058D01*
X126224587Y-155162985D01*
X126156071Y-154900909D01*
X126050130Y-154651610D01*
X126050129Y-154651609D01*
X125909018Y-154420390D01*
X125735745Y-154212180D01*
X125735741Y-154212177D01*
X125735740Y-154212175D01*
X125534012Y-154031427D01*
X125534002Y-154031418D01*
X125308090Y-153881956D01*
X125062824Y-153766980D01*
X124905392Y-153719615D01*
X124803425Y-153688938D01*
X124535442Y-153649500D01*
X124535439Y-153649500D01*
X122532369Y-153649500D01*
X122532367Y-153649500D01*
X122329839Y-153664323D01*
X122329838Y-153664323D01*
X122065456Y-153723217D01*
X122065441Y-153723222D01*
X121812441Y-153819986D01*
X121576229Y-153952555D01*
X121576225Y-153952557D01*
X121361818Y-154118116D01*
X121173815Y-154313117D01*
X121173810Y-154313123D01*
X121016203Y-154533417D01*
X121016196Y-154533427D01*
X120892343Y-154774324D01*
X120892342Y-154774327D01*
X120804883Y-155030689D01*
X120804880Y-155030702D01*
X120755681Y-155297058D01*
X120755680Y-155297069D01*
X120745788Y-155567765D01*
X60249259Y-155567765D01*
X60254212Y-155432235D01*
X60239338Y-155297058D01*
X60224587Y-155162985D01*
X60156071Y-154900909D01*
X60050130Y-154651610D01*
X60050129Y-154651609D01*
X59909018Y-154420390D01*
X59735745Y-154212180D01*
X59735741Y-154212177D01*
X59735740Y-154212175D01*
X59534012Y-154031427D01*
X59534002Y-154031418D01*
X59308090Y-153881956D01*
X59062824Y-153766980D01*
X58905392Y-153719615D01*
X58803425Y-153688938D01*
X58535442Y-153649500D01*
X58535439Y-153649500D01*
X56532369Y-153649500D01*
X56532367Y-153649500D01*
X56329839Y-153664323D01*
X56329838Y-153664323D01*
X56065456Y-153723217D01*
X56065441Y-153723222D01*
X55812441Y-153819986D01*
X55576229Y-153952555D01*
X55576225Y-153952557D01*
X55361818Y-154118116D01*
X55173815Y-154313117D01*
X55173810Y-154313123D01*
X55016203Y-154533417D01*
X55016196Y-154533427D01*
X54892343Y-154774324D01*
X54892342Y-154774327D01*
X54804883Y-155030689D01*
X54804880Y-155030702D01*
X54755681Y-155297058D01*
X54755680Y-155297069D01*
X54745788Y-155567765D01*
X50000500Y-155567765D01*
X50000500Y-147143765D01*
X54388814Y-147143765D01*
X54397079Y-147185315D01*
X54399500Y-147209897D01*
X54399500Y-147247595D01*
X54401051Y-147257387D01*
X54399354Y-147257655D01*
X54400008Y-147280641D01*
X54410237Y-147295949D01*
X54425305Y-147327016D01*
X54428913Y-147338122D01*
X54428916Y-147338128D01*
X54484865Y-147415134D01*
X54561871Y-147471083D01*
X54561877Y-147471086D01*
X54572984Y-147474695D01*
X54604051Y-147489763D01*
X54615874Y-147497663D01*
X54627726Y-147495459D01*
X54649249Y-147500000D01*
X54652404Y-147500500D01*
X54690106Y-147500500D01*
X54714687Y-147502921D01*
X54751541Y-147510251D01*
X54761249Y-147504469D01*
X54792626Y-147500500D01*
X70007373Y-147500500D01*
X70043764Y-147511185D01*
X70085312Y-147502921D01*
X70109893Y-147500500D01*
X70147596Y-147500500D01*
X70157387Y-147498949D01*
X70157655Y-147500647D01*
X70180642Y-147499989D01*
X70195946Y-147489764D01*
X70227009Y-147474696D01*
X70238125Y-147471085D01*
X70315134Y-147415134D01*
X70371085Y-147338125D01*
X70374696Y-147327009D01*
X70389764Y-147295946D01*
X70397665Y-147284121D01*
X70395461Y-147272267D01*
X70399999Y-147250758D01*
X70400500Y-147247595D01*
X70400500Y-147209892D01*
X70402921Y-147185310D01*
X70410251Y-147148456D01*
X70407457Y-147143765D01*
X73088814Y-147143765D01*
X73097079Y-147185315D01*
X73099500Y-147209897D01*
X73099500Y-147247595D01*
X73101051Y-147257387D01*
X73099354Y-147257655D01*
X73100008Y-147280641D01*
X73110237Y-147295949D01*
X73125305Y-147327016D01*
X73128913Y-147338122D01*
X73128916Y-147338128D01*
X73184865Y-147415134D01*
X73261871Y-147471083D01*
X73261877Y-147471086D01*
X73272984Y-147474695D01*
X73304051Y-147489763D01*
X73315874Y-147497663D01*
X73327726Y-147495459D01*
X73349249Y-147500000D01*
X73352404Y-147500500D01*
X73390106Y-147500500D01*
X73414687Y-147502921D01*
X73451541Y-147510251D01*
X73461249Y-147504469D01*
X73492626Y-147500500D01*
X88707373Y-147500500D01*
X88743764Y-147511185D01*
X88785312Y-147502921D01*
X88809893Y-147500500D01*
X88847596Y-147500500D01*
X88857387Y-147498949D01*
X88857655Y-147500647D01*
X88880642Y-147499989D01*
X88895946Y-147489764D01*
X88927009Y-147474696D01*
X88938125Y-147471085D01*
X89015134Y-147415134D01*
X89071085Y-147338125D01*
X89074696Y-147327009D01*
X89089764Y-147295946D01*
X89097665Y-147284121D01*
X89095461Y-147272267D01*
X89099999Y-147250758D01*
X89100500Y-147247595D01*
X89100500Y-147209892D01*
X89102921Y-147185310D01*
X89110251Y-147148456D01*
X89107457Y-147143765D01*
X91788814Y-147143765D01*
X91797079Y-147185315D01*
X91799500Y-147209897D01*
X91799500Y-147247595D01*
X91801051Y-147257387D01*
X91799354Y-147257655D01*
X91800008Y-147280641D01*
X91810237Y-147295949D01*
X91825305Y-147327016D01*
X91828913Y-147338122D01*
X91828916Y-147338128D01*
X91884865Y-147415134D01*
X91961871Y-147471083D01*
X91961877Y-147471086D01*
X91972984Y-147474695D01*
X92004051Y-147489763D01*
X92015874Y-147497663D01*
X92027726Y-147495459D01*
X92049249Y-147500000D01*
X92052404Y-147500500D01*
X92090106Y-147500500D01*
X92114687Y-147502921D01*
X92151541Y-147510251D01*
X92161249Y-147504469D01*
X92192626Y-147500500D01*
X107407373Y-147500500D01*
X107443764Y-147511185D01*
X107485312Y-147502921D01*
X107509893Y-147500500D01*
X107547596Y-147500500D01*
X107557387Y-147498949D01*
X107557655Y-147500647D01*
X107580642Y-147499989D01*
X107595946Y-147489764D01*
X107627009Y-147474696D01*
X107638125Y-147471085D01*
X107715134Y-147415134D01*
X107771085Y-147338125D01*
X107774696Y-147327009D01*
X107789764Y-147295946D01*
X107797665Y-147284121D01*
X107795461Y-147272267D01*
X107799999Y-147250758D01*
X107800500Y-147247595D01*
X107800500Y-147209892D01*
X107802921Y-147185310D01*
X107810251Y-147148456D01*
X107807457Y-147143765D01*
X110488814Y-147143765D01*
X110497079Y-147185315D01*
X110499500Y-147209897D01*
X110499500Y-147247595D01*
X110501051Y-147257387D01*
X110499354Y-147257655D01*
X110500008Y-147280641D01*
X110510237Y-147295949D01*
X110525305Y-147327016D01*
X110528913Y-147338122D01*
X110528916Y-147338128D01*
X110584865Y-147415134D01*
X110661871Y-147471083D01*
X110661877Y-147471086D01*
X110672984Y-147474695D01*
X110704051Y-147489763D01*
X110715874Y-147497663D01*
X110727726Y-147495459D01*
X110749249Y-147500000D01*
X110752404Y-147500500D01*
X110790106Y-147500500D01*
X110814687Y-147502921D01*
X110851541Y-147510251D01*
X110861249Y-147504469D01*
X110892626Y-147500500D01*
X126107373Y-147500500D01*
X126143764Y-147511185D01*
X126185312Y-147502921D01*
X126209893Y-147500500D01*
X126247596Y-147500500D01*
X126257387Y-147498949D01*
X126257655Y-147500647D01*
X126280642Y-147499989D01*
X126295946Y-147489764D01*
X126327009Y-147474696D01*
X126338125Y-147471085D01*
X126415134Y-147415134D01*
X126471085Y-147338125D01*
X126474696Y-147327009D01*
X126489764Y-147295946D01*
X126497665Y-147284121D01*
X126495461Y-147272267D01*
X126499999Y-147250758D01*
X126500500Y-147247595D01*
X126500500Y-147209892D01*
X126502921Y-147185310D01*
X126510251Y-147148456D01*
X126504469Y-147138750D01*
X126500500Y-147107373D01*
X126500500Y-131692625D01*
X126511184Y-131656236D01*
X126502920Y-131614689D01*
X126500500Y-131590113D01*
X126500500Y-131552405D01*
X126500498Y-131552400D01*
X126498949Y-131542613D01*
X126500646Y-131542344D01*
X126499988Y-131519354D01*
X126489763Y-131504051D01*
X126474695Y-131472984D01*
X126471086Y-131461877D01*
X126471083Y-131461871D01*
X126415134Y-131384865D01*
X126338128Y-131328916D01*
X126338122Y-131328913D01*
X126327016Y-131325305D01*
X126295949Y-131310237D01*
X126284120Y-131302333D01*
X126272265Y-131304538D01*
X126250760Y-131300001D01*
X126247596Y-131299500D01*
X126247595Y-131299500D01*
X126209898Y-131299500D01*
X126185317Y-131297079D01*
X126148457Y-131289747D01*
X126138751Y-131295530D01*
X126107373Y-131299500D01*
X110892625Y-131299500D01*
X110856232Y-131288814D01*
X110814683Y-131297079D01*
X110790101Y-131299500D01*
X110752404Y-131299500D01*
X110742613Y-131301051D01*
X110742344Y-131299355D01*
X110719354Y-131300010D01*
X110704047Y-131310238D01*
X110672982Y-131325306D01*
X110661875Y-131328914D01*
X110661871Y-131328916D01*
X110584865Y-131384865D01*
X110528916Y-131461871D01*
X110528914Y-131461875D01*
X110525306Y-131472982D01*
X110510238Y-131504047D01*
X110502334Y-131515875D01*
X110504539Y-131527730D01*
X110500000Y-131549246D01*
X110499500Y-131552404D01*
X110499500Y-131590099D01*
X110497079Y-131614681D01*
X110489746Y-131651541D01*
X110495530Y-131661249D01*
X110499500Y-131692628D01*
X110499500Y-147107373D01*
X110488814Y-147143765D01*
X107807457Y-147143765D01*
X107804469Y-147138750D01*
X107800500Y-147107373D01*
X107800500Y-131692625D01*
X107811185Y-131656234D01*
X107802921Y-131614687D01*
X107800500Y-131590106D01*
X107800500Y-131552404D01*
X107798949Y-131542613D01*
X107800646Y-131542344D01*
X107799988Y-131519354D01*
X107789763Y-131504051D01*
X107774695Y-131472984D01*
X107771086Y-131461877D01*
X107771083Y-131461871D01*
X107715134Y-131384865D01*
X107638128Y-131328916D01*
X107638122Y-131328913D01*
X107627016Y-131325305D01*
X107595949Y-131310237D01*
X107584120Y-131302333D01*
X107572265Y-131304538D01*
X107550760Y-131300001D01*
X107547596Y-131299500D01*
X107547595Y-131299500D01*
X107509898Y-131299500D01*
X107485317Y-131297079D01*
X107448457Y-131289747D01*
X107438751Y-131295530D01*
X107407373Y-131299500D01*
X92192625Y-131299500D01*
X92156232Y-131288814D01*
X92114683Y-131297079D01*
X92090101Y-131299500D01*
X92052404Y-131299500D01*
X92042613Y-131301051D01*
X92042344Y-131299355D01*
X92019354Y-131300010D01*
X92004047Y-131310238D01*
X91972982Y-131325306D01*
X91961875Y-131328914D01*
X91961871Y-131328916D01*
X91884865Y-131384865D01*
X91828916Y-131461871D01*
X91828914Y-131461875D01*
X91825306Y-131472982D01*
X91810238Y-131504047D01*
X91802334Y-131515875D01*
X91804539Y-131527730D01*
X91800000Y-131549246D01*
X91799500Y-131552404D01*
X91799500Y-131590100D01*
X91797079Y-131614682D01*
X91789743Y-131651557D01*
X91795529Y-131661267D01*
X91799500Y-131692650D01*
X91799500Y-147107373D01*
X91788814Y-147143765D01*
X89107457Y-147143765D01*
X89104469Y-147138750D01*
X89100500Y-147107373D01*
X89100500Y-131692625D01*
X89111185Y-131656234D01*
X89102921Y-131614687D01*
X89100500Y-131590106D01*
X89100500Y-131552404D01*
X89098949Y-131542613D01*
X89100646Y-131542344D01*
X89099988Y-131519354D01*
X89089763Y-131504051D01*
X89074695Y-131472984D01*
X89071086Y-131461877D01*
X89071083Y-131461871D01*
X89015134Y-131384865D01*
X88938128Y-131328916D01*
X88938122Y-131328913D01*
X88927016Y-131325305D01*
X88895949Y-131310237D01*
X88884120Y-131302333D01*
X88872265Y-131304538D01*
X88850760Y-131300001D01*
X88847596Y-131299500D01*
X88847595Y-131299500D01*
X88809898Y-131299500D01*
X88785317Y-131297079D01*
X88748457Y-131289747D01*
X88738751Y-131295530D01*
X88707373Y-131299500D01*
X73492625Y-131299500D01*
X73456232Y-131288814D01*
X73414683Y-131297079D01*
X73390101Y-131299500D01*
X73352404Y-131299500D01*
X73342613Y-131301051D01*
X73342344Y-131299355D01*
X73319354Y-131300010D01*
X73304047Y-131310238D01*
X73272982Y-131325306D01*
X73261875Y-131328914D01*
X73261871Y-131328916D01*
X73184865Y-131384865D01*
X73128916Y-131461871D01*
X73128914Y-131461875D01*
X73125306Y-131472982D01*
X73110238Y-131504047D01*
X73102334Y-131515875D01*
X73104539Y-131527730D01*
X73100000Y-131549246D01*
X73099500Y-131552404D01*
X73099500Y-131590099D01*
X73097079Y-131614681D01*
X73089746Y-131651541D01*
X73095530Y-131661249D01*
X73099500Y-131692628D01*
X73099500Y-147107373D01*
X73088814Y-147143765D01*
X70407457Y-147143765D01*
X70404469Y-147138750D01*
X70400500Y-147107373D01*
X70400500Y-131692625D01*
X70411185Y-131656234D01*
X70402921Y-131614687D01*
X70400500Y-131590106D01*
X70400500Y-131552404D01*
X70398949Y-131542613D01*
X70400646Y-131542344D01*
X70399988Y-131519354D01*
X70389763Y-131504051D01*
X70374695Y-131472984D01*
X70371086Y-131461877D01*
X70371083Y-131461871D01*
X70315134Y-131384865D01*
X70238128Y-131328916D01*
X70238122Y-131328913D01*
X70227016Y-131325305D01*
X70195949Y-131310237D01*
X70184120Y-131302333D01*
X70172265Y-131304538D01*
X70150760Y-131300001D01*
X70147596Y-131299500D01*
X70147595Y-131299500D01*
X70109898Y-131299500D01*
X70085317Y-131297079D01*
X70048457Y-131289747D01*
X70038751Y-131295530D01*
X70007373Y-131299500D01*
X54792625Y-131299500D01*
X54756232Y-131288814D01*
X54714683Y-131297079D01*
X54690101Y-131299500D01*
X54652404Y-131299500D01*
X54642613Y-131301051D01*
X54642344Y-131299355D01*
X54619354Y-131300010D01*
X54604047Y-131310238D01*
X54572982Y-131325306D01*
X54561875Y-131328914D01*
X54561871Y-131328916D01*
X54484865Y-131384865D01*
X54428916Y-131461871D01*
X54428914Y-131461875D01*
X54425306Y-131472982D01*
X54410238Y-131504047D01*
X54402334Y-131515875D01*
X54404539Y-131527730D01*
X54400000Y-131549246D01*
X54399500Y-131552404D01*
X54399500Y-131590100D01*
X54397079Y-131614681D01*
X54389747Y-131651540D01*
X54395530Y-131661247D01*
X54399500Y-131692625D01*
X54399500Y-147107373D01*
X54388814Y-147143765D01*
X50000500Y-147143765D01*
X50000500Y-124210307D01*
X77345792Y-124210307D01*
X77355676Y-124568825D01*
X77355677Y-124568841D01*
X77404941Y-124924106D01*
X77492985Y-125271788D01*
X77602859Y-125565249D01*
X77618752Y-125607697D01*
X77780704Y-125927721D01*
X77976878Y-126227988D01*
X78204893Y-126504852D01*
X78461981Y-126754951D01*
X78745022Y-126975251D01*
X79050580Y-127163077D01*
X79374946Y-127316149D01*
X79714182Y-127432608D01*
X79714183Y-127432609D01*
X79714186Y-127432610D01*
X80064157Y-127511040D01*
X80064161Y-127511040D01*
X80064172Y-127511043D01*
X80420665Y-127550500D01*
X80420666Y-127550500D01*
X80689589Y-127550500D01*
X80689595Y-127550500D01*
X80958125Y-127535685D01*
X81311904Y-127476650D01*
X81657041Y-127379054D01*
X81989346Y-127244083D01*
X82304787Y-127073375D01*
X82599534Y-126869002D01*
X82870010Y-126633445D01*
X83112931Y-126369562D01*
X83325348Y-126080559D01*
X83504683Y-125769941D01*
X83648759Y-125441481D01*
X83755827Y-125099164D01*
X83824588Y-124747147D01*
X83854207Y-124389702D01*
X83844324Y-124031168D01*
X83803385Y-123735940D01*
X95696854Y-123735940D01*
X95700603Y-123756243D01*
X95717539Y-124619611D01*
X95714775Y-124629755D01*
X95718407Y-124671274D01*
X95718634Y-124675507D01*
X95718739Y-124680737D01*
X95718737Y-124783118D01*
X95732766Y-124871709D01*
X95731756Y-124879517D01*
X95736393Y-124896822D01*
X95737765Y-124903276D01*
X95750754Y-124985298D01*
X95784415Y-125088901D01*
X95784662Y-125097562D01*
X95791496Y-125112218D01*
X95794317Y-125119382D01*
X95803564Y-125147843D01*
X95804501Y-125151005D01*
X95813999Y-125186453D01*
X95825954Y-125203433D01*
X95870445Y-125290754D01*
X95872297Y-125300615D01*
X95881417Y-125313641D01*
X95885949Y-125321184D01*
X95906940Y-125362380D01*
X95910126Y-125367580D01*
X95913510Y-125373876D01*
X95916574Y-125380448D01*
X95930108Y-125394268D01*
X95988317Y-125474386D01*
X95992164Y-125485169D01*
X95999729Y-125492734D01*
X96012567Y-125507764D01*
X96027262Y-125527990D01*
X96027264Y-125527992D01*
X96027266Y-125527995D01*
X96033628Y-125534357D01*
X96047746Y-125551181D01*
X96050234Y-125554735D01*
X96064520Y-125565249D01*
X96134749Y-125635478D01*
X96140870Y-125646688D01*
X96148816Y-125652252D01*
X96165641Y-125666370D01*
X96172004Y-125672733D01*
X96172007Y-125672735D01*
X96172010Y-125672738D01*
X96192234Y-125687432D01*
X96207265Y-125700270D01*
X96211408Y-125704413D01*
X96225607Y-125711678D01*
X96305730Y-125769891D01*
X96314264Y-125780958D01*
X96326115Y-125786484D01*
X96332418Y-125789871D01*
X96337612Y-125793054D01*
X96337620Y-125793060D01*
X96378823Y-125814053D01*
X96386363Y-125818584D01*
X96395887Y-125825253D01*
X96409244Y-125829553D01*
X96496564Y-125874043D01*
X96507509Y-125884381D01*
X96548973Y-125895491D01*
X96552101Y-125896416D01*
X96580631Y-125905686D01*
X96587789Y-125908506D01*
X96599066Y-125913765D01*
X96611094Y-125915583D01*
X96714701Y-125949245D01*
X96796738Y-125962236D01*
X96803190Y-125963607D01*
X96817191Y-125967359D01*
X96828291Y-125967233D01*
X96916887Y-125981263D01*
X97019239Y-125981261D01*
X97019739Y-125981261D01*
X97022201Y-125981261D01*
X97027694Y-125981501D01*
X97060289Y-125984353D01*
X97078014Y-125981261D01*
X103721985Y-125981261D01*
X103734167Y-125984838D01*
X103772305Y-125981501D01*
X103777798Y-125981261D01*
X103780261Y-125981261D01*
X103780761Y-125981261D01*
X103883113Y-125981263D01*
X103971694Y-125967235D01*
X103979503Y-125968244D01*
X103996803Y-125963609D01*
X104003252Y-125962237D01*
X104085299Y-125949245D01*
X104188889Y-125915588D01*
X104197546Y-125915341D01*
X104212197Y-125908510D01*
X104219346Y-125905693D01*
X104247899Y-125896416D01*
X104251028Y-125895490D01*
X104286459Y-125885996D01*
X104303435Y-125874044D01*
X104390753Y-125829554D01*
X104400611Y-125827703D01*
X104413631Y-125818587D01*
X104421172Y-125814055D01*
X104462380Y-125793060D01*
X104462394Y-125793049D01*
X104467579Y-125789872D01*
X104473885Y-125786483D01*
X104480453Y-125783420D01*
X104494267Y-125769892D01*
X104574381Y-125711686D01*
X104585160Y-125707840D01*
X104592725Y-125700276D01*
X104607756Y-125687438D01*
X104627990Y-125672738D01*
X104634358Y-125666369D01*
X104651183Y-125652252D01*
X104654736Y-125649763D01*
X104665254Y-125635474D01*
X104735474Y-125565254D01*
X104746686Y-125559131D01*
X104752252Y-125551183D01*
X104766371Y-125534357D01*
X104772738Y-125527990D01*
X104787438Y-125507756D01*
X104800276Y-125492725D01*
X104804417Y-125488584D01*
X104811685Y-125474383D01*
X104869891Y-125394269D01*
X104880957Y-125385736D01*
X104886483Y-125373885D01*
X104889872Y-125367579D01*
X104893049Y-125362394D01*
X104893060Y-125362380D01*
X104914055Y-125321172D01*
X104918587Y-125313631D01*
X104925252Y-125304112D01*
X104929555Y-125290752D01*
X104974042Y-125203437D01*
X104984380Y-125192492D01*
X104995490Y-125151028D01*
X104996416Y-125147899D01*
X105005693Y-125119346D01*
X105008510Y-125112197D01*
X105013768Y-125100921D01*
X105015588Y-125088890D01*
X105049245Y-124985299D01*
X105062237Y-124903252D01*
X105063609Y-124896803D01*
X105067360Y-124882803D01*
X105067235Y-124871696D01*
X105081263Y-124783113D01*
X105081261Y-124680761D01*
X105081261Y-124680261D01*
X105081261Y-124677797D01*
X105081501Y-124672305D01*
X105084352Y-124639712D01*
X105081261Y-124621990D01*
X105081261Y-123778009D01*
X105084837Y-123765828D01*
X105081501Y-123727693D01*
X105081261Y-123722200D01*
X105081261Y-123719140D01*
X105081261Y-123699905D01*
X105081263Y-123616887D01*
X105067235Y-123528304D01*
X105068244Y-123520496D01*
X105063608Y-123503193D01*
X105062236Y-123496736D01*
X105049245Y-123414701D01*
X105015589Y-123311111D01*
X105015341Y-123302451D01*
X105008508Y-123287797D01*
X105005691Y-123280648D01*
X104996423Y-123252121D01*
X104995491Y-123248972D01*
X104985997Y-123213541D01*
X104974042Y-123196560D01*
X104963961Y-123176776D01*
X104929554Y-123109246D01*
X104927703Y-123099387D01*
X104918585Y-123086365D01*
X104914051Y-123078819D01*
X104912869Y-123076500D01*
X104893060Y-123037620D01*
X104889871Y-123032417D01*
X104886486Y-123026118D01*
X104883424Y-123019552D01*
X104869889Y-123005728D01*
X104833325Y-122955402D01*
X104811685Y-122925616D01*
X104807837Y-122914833D01*
X104800272Y-122907268D01*
X104787435Y-122892239D01*
X104772738Y-122872010D01*
X104772735Y-122872007D01*
X104772733Y-122872004D01*
X104766371Y-122865642D01*
X104752252Y-122848817D01*
X104749764Y-122845263D01*
X104735474Y-122834745D01*
X104665253Y-122764524D01*
X104659130Y-122753311D01*
X104651179Y-122747744D01*
X104634355Y-122733626D01*
X104627995Y-122727266D01*
X104627992Y-122727264D01*
X104627990Y-122727262D01*
X104607763Y-122712566D01*
X104592731Y-122699727D01*
X104588588Y-122695584D01*
X104574381Y-122688313D01*
X104494268Y-122630108D01*
X104485732Y-122619039D01*
X104473882Y-122613513D01*
X104467585Y-122610129D01*
X104462380Y-122606939D01*
X104421184Y-122585950D01*
X104413640Y-122581417D01*
X104404117Y-122574749D01*
X104390752Y-122570444D01*
X104335194Y-122542137D01*
X104303436Y-122525956D01*
X104292488Y-122515616D01*
X104251012Y-122504503D01*
X104247851Y-122503567D01*
X104227452Y-122496939D01*
X104219363Y-122494311D01*
X104212201Y-122491490D01*
X104200923Y-122486231D01*
X104188888Y-122484410D01*
X104085301Y-122450755D01*
X104085299Y-122450754D01*
X104003265Y-122437764D01*
X103996809Y-122436392D01*
X103982803Y-122432639D01*
X103971695Y-122432764D01*
X103883113Y-122418737D01*
X103780859Y-122418737D01*
X103780592Y-122418737D01*
X103777409Y-122418725D01*
X103772165Y-122418485D01*
X103738932Y-122415578D01*
X103721642Y-122418569D01*
X97058290Y-122399664D01*
X97045889Y-122395984D01*
X97008446Y-122399260D01*
X97002952Y-122399500D01*
X97000500Y-122399500D01*
X97000000Y-122399500D01*
X96897648Y-122399500D01*
X96833129Y-122409718D01*
X96808770Y-122413577D01*
X96801027Y-122412576D01*
X96783891Y-122417168D01*
X96777443Y-122418538D01*
X96695466Y-122431523D01*
X96695460Y-122431524D01*
X96591610Y-122465267D01*
X96583008Y-122465512D01*
X96568465Y-122472294D01*
X96561304Y-122475114D01*
X96533123Y-122484271D01*
X96529959Y-122485209D01*
X96494369Y-122494745D01*
X96477401Y-122506692D01*
X96389799Y-122551328D01*
X96379985Y-122553171D01*
X96367037Y-122562237D01*
X96359496Y-122566768D01*
X96318384Y-122587715D01*
X96313293Y-122590835D01*
X96307003Y-122594214D01*
X96300405Y-122597290D01*
X96286595Y-122610812D01*
X96206211Y-122669214D01*
X96195471Y-122673046D01*
X96187961Y-122680556D01*
X96172929Y-122693394D01*
X96152784Y-122708029D01*
X96152783Y-122708031D01*
X96146471Y-122714343D01*
X96129652Y-122728455D01*
X96126128Y-122730921D01*
X96115639Y-122745174D01*
X96045174Y-122815639D01*
X96033991Y-122821745D01*
X96028455Y-122829652D01*
X96014343Y-122846471D01*
X96008031Y-122852783D01*
X96008029Y-122852784D01*
X95993394Y-122872929D01*
X95980556Y-122887961D01*
X95976456Y-122892060D01*
X95969214Y-122906211D01*
X95910812Y-122986595D01*
X95899754Y-122995121D01*
X95894214Y-123007003D01*
X95890835Y-123013293D01*
X95887715Y-123018384D01*
X95866768Y-123059496D01*
X95862237Y-123067037D01*
X95855611Y-123076500D01*
X95851328Y-123089799D01*
X95806692Y-123177401D01*
X95796361Y-123188339D01*
X95785209Y-123229959D01*
X95784271Y-123233123D01*
X95775114Y-123261304D01*
X95772294Y-123268465D01*
X95767075Y-123279656D01*
X95765267Y-123291610D01*
X95731524Y-123395460D01*
X95731523Y-123395465D01*
X95731523Y-123395466D01*
X95728477Y-123414701D01*
X95718540Y-123477438D01*
X95717168Y-123483891D01*
X95713452Y-123497758D01*
X95713577Y-123508770D01*
X95699500Y-123597650D01*
X95699500Y-123690455D01*
X95699334Y-123692658D01*
X95699498Y-123699911D01*
X95699500Y-123700000D01*
X95699500Y-123700500D01*
X95699510Y-123700500D01*
X95699522Y-123701131D01*
X95699300Y-123707988D01*
X95696854Y-123735940D01*
X83803385Y-123735940D01*
X83795059Y-123675897D01*
X83757684Y-123528305D01*
X83707014Y-123328211D01*
X83707011Y-123328202D01*
X83581248Y-122992303D01*
X83419296Y-122672279D01*
X83223122Y-122372012D01*
X82995107Y-122095148D01*
X82738019Y-121845049D01*
X82454978Y-121624749D01*
X82454975Y-121624747D01*
X82454974Y-121624746D01*
X82149418Y-121436922D01*
X81825058Y-121283853D01*
X81825059Y-121283853D01*
X81825054Y-121283851D01*
X81796735Y-121274129D01*
X81485816Y-121167390D01*
X81485813Y-121167389D01*
X81135842Y-121088959D01*
X81135829Y-121088957D01*
X81135828Y-121088957D01*
X81135824Y-121088956D01*
X81135820Y-121088956D01*
X80913188Y-121064315D01*
X80779335Y-121049500D01*
X80510405Y-121049500D01*
X80241875Y-121064315D01*
X80241873Y-121064315D01*
X79888093Y-121123350D01*
X79542961Y-121220945D01*
X79542958Y-121220946D01*
X79210658Y-121355915D01*
X79210647Y-121355920D01*
X78895214Y-121526623D01*
X78895213Y-121526624D01*
X78600464Y-121730998D01*
X78329991Y-121966552D01*
X78329986Y-121966558D01*
X78087079Y-122230425D01*
X78087071Y-122230435D01*
X77874654Y-122519437D01*
X77874642Y-122519456D01*
X77695319Y-122830054D01*
X77695318Y-122830056D01*
X77551247Y-123158503D01*
X77551240Y-123158521D01*
X77444174Y-123500829D01*
X77444173Y-123500834D01*
X77375412Y-123852850D01*
X77345792Y-124210307D01*
X50000500Y-124210307D01*
X50000500Y-118603303D01*
X61045765Y-118603303D01*
X61055721Y-118989827D01*
X61055721Y-118989830D01*
X61105368Y-119373292D01*
X61105368Y-119373293D01*
X61194175Y-119749594D01*
X61194177Y-119749602D01*
X61321210Y-120114794D01*
X61485118Y-120464988D01*
X61684165Y-120796473D01*
X61916241Y-121105734D01*
X62178885Y-121389495D01*
X62469314Y-121644745D01*
X62784449Y-121868781D01*
X63120949Y-122059227D01*
X63475247Y-122214065D01*
X63843588Y-122331652D01*
X64222067Y-122410743D01*
X64462280Y-122435574D01*
X64606670Y-122450500D01*
X64606673Y-122450500D01*
X64896580Y-122450500D01*
X64896589Y-122450500D01*
X65157186Y-122437066D01*
X65186143Y-122435574D01*
X65186149Y-122435573D01*
X65294242Y-122418738D01*
X65568191Y-122376072D01*
X65942097Y-122277602D01*
X66190256Y-122184049D01*
X66303881Y-122141215D01*
X66303885Y-122141212D01*
X66303896Y-122141209D01*
X66649754Y-121968338D01*
X66976004Y-121760822D01*
X67279187Y-121520860D01*
X67556091Y-121250997D01*
X67803779Y-120954092D01*
X68019627Y-120633294D01*
X68201346Y-120292002D01*
X68347009Y-119933834D01*
X68455074Y-119562587D01*
X68524394Y-119182197D01*
X68554234Y-118796696D01*
X68549253Y-118603303D01*
X112445765Y-118603303D01*
X112455721Y-118989827D01*
X112455721Y-118989830D01*
X112505368Y-119373292D01*
X112505368Y-119373293D01*
X112594175Y-119749594D01*
X112594177Y-119749602D01*
X112721210Y-120114794D01*
X112885118Y-120464988D01*
X113084165Y-120796473D01*
X113316241Y-121105734D01*
X113578885Y-121389495D01*
X113869314Y-121644745D01*
X114184449Y-121868781D01*
X114520949Y-122059227D01*
X114875247Y-122214065D01*
X115243588Y-122331652D01*
X115622067Y-122410743D01*
X115862280Y-122435574D01*
X116006670Y-122450500D01*
X116006673Y-122450500D01*
X116296580Y-122450500D01*
X116296589Y-122450500D01*
X116557186Y-122437066D01*
X116586143Y-122435574D01*
X116586149Y-122435573D01*
X116694242Y-122418738D01*
X116968191Y-122376072D01*
X117342097Y-122277602D01*
X117590256Y-122184049D01*
X117703881Y-122141215D01*
X117703885Y-122141212D01*
X117703896Y-122141209D01*
X118049754Y-121968338D01*
X118376004Y-121760822D01*
X118679187Y-121520860D01*
X118956091Y-121250997D01*
X119203779Y-120954092D01*
X119419627Y-120633294D01*
X119601346Y-120292002D01*
X119747009Y-119933834D01*
X119855074Y-119562587D01*
X119924394Y-119182197D01*
X119954234Y-118796696D01*
X119944278Y-118410169D01*
X119894633Y-118026715D01*
X119805823Y-117650398D01*
X119678790Y-117285206D01*
X119514882Y-116935012D01*
X119315835Y-116603527D01*
X119083759Y-116294266D01*
X118821115Y-116010505D01*
X118530686Y-115755255D01*
X118215551Y-115531219D01*
X117879051Y-115340773D01*
X117879048Y-115340772D01*
X117879047Y-115340771D01*
X117720524Y-115271492D01*
X117524753Y-115185935D01*
X117524750Y-115185934D01*
X117524749Y-115185933D01*
X117156417Y-115068349D01*
X116777936Y-114989257D01*
X116393330Y-114949500D01*
X116393327Y-114949500D01*
X116103411Y-114949500D01*
X116017691Y-114953918D01*
X115813856Y-114964425D01*
X115813850Y-114964426D01*
X115431810Y-115023927D01*
X115057906Y-115122396D01*
X115057904Y-115122397D01*
X114696118Y-115258784D01*
X114696098Y-115258793D01*
X114350253Y-115431658D01*
X114350247Y-115431661D01*
X114024006Y-115639170D01*
X114023991Y-115639181D01*
X113720814Y-115879138D01*
X113443909Y-116149003D01*
X113196219Y-116445909D01*
X112980377Y-116766698D01*
X112980365Y-116766720D01*
X112798658Y-117107988D01*
X112798654Y-117107998D01*
X112652992Y-117466163D01*
X112652987Y-117466178D01*
X112544926Y-117837412D01*
X112544926Y-117837413D01*
X112475606Y-118217803D01*
X112475606Y-118217806D01*
X112475604Y-118217821D01*
X112445765Y-118603303D01*
X68549253Y-118603303D01*
X68544278Y-118410169D01*
X68494633Y-118026715D01*
X68405823Y-117650398D01*
X68278790Y-117285206D01*
X68114882Y-116935012D01*
X67915835Y-116603527D01*
X67683759Y-116294266D01*
X67421115Y-116010505D01*
X67130686Y-115755255D01*
X66815551Y-115531219D01*
X66479051Y-115340773D01*
X66479048Y-115340772D01*
X66479047Y-115340771D01*
X66320524Y-115271492D01*
X66124753Y-115185935D01*
X66124750Y-115185934D01*
X66124749Y-115185933D01*
X65756417Y-115068349D01*
X65377936Y-114989257D01*
X64993330Y-114949500D01*
X64993327Y-114949500D01*
X64703411Y-114949500D01*
X64617691Y-114953918D01*
X64413856Y-114964425D01*
X64413850Y-114964426D01*
X64031810Y-115023927D01*
X63657906Y-115122396D01*
X63657904Y-115122397D01*
X63296118Y-115258784D01*
X63296098Y-115258793D01*
X62950253Y-115431658D01*
X62950247Y-115431661D01*
X62624006Y-115639170D01*
X62623991Y-115639181D01*
X62320814Y-115879138D01*
X62043909Y-116149003D01*
X61796219Y-116445909D01*
X61580377Y-116766698D01*
X61580365Y-116766720D01*
X61398658Y-117107988D01*
X61398654Y-117107998D01*
X61252992Y-117466163D01*
X61252987Y-117466178D01*
X61144926Y-117837412D01*
X61144926Y-117837413D01*
X61075606Y-118217803D01*
X61075606Y-118217806D01*
X61075604Y-118217821D01*
X61045765Y-118603303D01*
X50000500Y-118603303D01*
X50000500Y-112325500D01*
X79549415Y-112325500D01*
X79549458Y-112349998D01*
X79549458Y-112350000D01*
X79549459Y-112350000D01*
X79549500Y-112350099D01*
X79549617Y-112350383D01*
X79550000Y-112350541D01*
X79550002Y-112350539D01*
X79575014Y-112350524D01*
X79575014Y-112350528D01*
X79575158Y-112350500D01*
X81524842Y-112350500D01*
X81524985Y-112350528D01*
X81524986Y-112350524D01*
X81549997Y-112350539D01*
X81550000Y-112350541D01*
X81550383Y-112350383D01*
X81550500Y-112350099D01*
X81550541Y-112350000D01*
X81550540Y-112349998D01*
X81550541Y-112349998D01*
X81550584Y-112325500D01*
X99449415Y-112325500D01*
X99449458Y-112349998D01*
X99449458Y-112350000D01*
X99449459Y-112350000D01*
X99449500Y-112350099D01*
X99449617Y-112350383D01*
X99450000Y-112350541D01*
X99450002Y-112350539D01*
X99475014Y-112350524D01*
X99475014Y-112350528D01*
X99475158Y-112350500D01*
X101424842Y-112350500D01*
X101424985Y-112350528D01*
X101424986Y-112350524D01*
X101449997Y-112350539D01*
X101450000Y-112350541D01*
X101450383Y-112350383D01*
X101450500Y-112350099D01*
X101450541Y-112350000D01*
X101450540Y-112349998D01*
X101450541Y-112349998D01*
X101450584Y-112325501D01*
X101450500Y-112325077D01*
X101450500Y-96003303D01*
X112445765Y-96003303D01*
X112455721Y-96389827D01*
X112455721Y-96389830D01*
X112505368Y-96773292D01*
X112505368Y-96773293D01*
X112594175Y-97149594D01*
X112594177Y-97149602D01*
X112721210Y-97514794D01*
X112885118Y-97864988D01*
X113084165Y-98196473D01*
X113316241Y-98505734D01*
X113578885Y-98789495D01*
X113869314Y-99044745D01*
X114184449Y-99268781D01*
X114520949Y-99459227D01*
X114875247Y-99614065D01*
X115243588Y-99731652D01*
X115622067Y-99810743D01*
X115862280Y-99835574D01*
X116006670Y-99850500D01*
X116006673Y-99850500D01*
X116296580Y-99850500D01*
X116296589Y-99850500D01*
X116557186Y-99837066D01*
X116586143Y-99835574D01*
X116586149Y-99835573D01*
X116745576Y-99810743D01*
X116968191Y-99776072D01*
X117342097Y-99677602D01*
X117590256Y-99584049D01*
X117703881Y-99541215D01*
X117703885Y-99541212D01*
X117703896Y-99541209D01*
X118049754Y-99368338D01*
X118376004Y-99160822D01*
X118679187Y-98920860D01*
X118956091Y-98650997D01*
X119203779Y-98354092D01*
X119419627Y-98033294D01*
X119601346Y-97692002D01*
X119747009Y-97333834D01*
X119855074Y-96962587D01*
X119924394Y-96582197D01*
X119954234Y-96196696D01*
X119944278Y-95810169D01*
X119894633Y-95426715D01*
X119805823Y-95050398D01*
X119678790Y-94685206D01*
X119514882Y-94335012D01*
X119315835Y-94003527D01*
X119083759Y-93694266D01*
X118821115Y-93410505D01*
X118530686Y-93155255D01*
X118215551Y-92931219D01*
X117879051Y-92740773D01*
X117879048Y-92740772D01*
X117879047Y-92740771D01*
X117720524Y-92671492D01*
X117524753Y-92585935D01*
X117524750Y-92585934D01*
X117524749Y-92585933D01*
X117156417Y-92468349D01*
X116777936Y-92389257D01*
X116393330Y-92349500D01*
X116393327Y-92349500D01*
X116103411Y-92349500D01*
X116017691Y-92353918D01*
X115813856Y-92364425D01*
X115813850Y-92364426D01*
X115431810Y-92423927D01*
X115057906Y-92522396D01*
X115057904Y-92522397D01*
X114696118Y-92658784D01*
X114696098Y-92658793D01*
X114350253Y-92831658D01*
X114350247Y-92831661D01*
X114024006Y-93039170D01*
X114023991Y-93039181D01*
X113720814Y-93279138D01*
X113443909Y-93549003D01*
X113196219Y-93845909D01*
X112980377Y-94166698D01*
X112980365Y-94166720D01*
X112798658Y-94507988D01*
X112798654Y-94507998D01*
X112652992Y-94866163D01*
X112652987Y-94866178D01*
X112544926Y-95237412D01*
X112544926Y-95237413D01*
X112475606Y-95617803D01*
X112475606Y-95617806D01*
X112475604Y-95617821D01*
X112445765Y-96003303D01*
X101450500Y-96003303D01*
X101450500Y-73403303D01*
X112445765Y-73403303D01*
X112455721Y-73789827D01*
X112455721Y-73789830D01*
X112505368Y-74173292D01*
X112505368Y-74173293D01*
X112594175Y-74549594D01*
X112594177Y-74549602D01*
X112721210Y-74914794D01*
X112885118Y-75264988D01*
X113084165Y-75596473D01*
X113316241Y-75905734D01*
X113578885Y-76189495D01*
X113869314Y-76444745D01*
X114184449Y-76668781D01*
X114520949Y-76859227D01*
X114875247Y-77014065D01*
X115243588Y-77131652D01*
X115622067Y-77210743D01*
X115862280Y-77235574D01*
X116006670Y-77250500D01*
X116006673Y-77250500D01*
X116296580Y-77250500D01*
X116296589Y-77250500D01*
X116557186Y-77237066D01*
X116586143Y-77235574D01*
X116586149Y-77235573D01*
X116745576Y-77210743D01*
X116968191Y-77176072D01*
X117342097Y-77077602D01*
X117590256Y-76984049D01*
X117703881Y-76941215D01*
X117703885Y-76941212D01*
X117703896Y-76941209D01*
X118049754Y-76768338D01*
X118376004Y-76560822D01*
X118679187Y-76320860D01*
X118956091Y-76050997D01*
X119203779Y-75754092D01*
X119419627Y-75433294D01*
X119601346Y-75092002D01*
X119747009Y-74733834D01*
X119855074Y-74362587D01*
X119924394Y-73982197D01*
X119954234Y-73596696D01*
X119944278Y-73210169D01*
X119894633Y-72826715D01*
X119805823Y-72450398D01*
X119678790Y-72085206D01*
X119514882Y-71735012D01*
X119315835Y-71403527D01*
X119083759Y-71094266D01*
X118821115Y-70810505D01*
X118530686Y-70555255D01*
X118215551Y-70331219D01*
X117879051Y-70140773D01*
X117879048Y-70140772D01*
X117879047Y-70140771D01*
X117720524Y-70071492D01*
X117524753Y-69985935D01*
X117524750Y-69985934D01*
X117524749Y-69985933D01*
X117156417Y-69868349D01*
X116777936Y-69789257D01*
X116393330Y-69749500D01*
X116393327Y-69749500D01*
X116103411Y-69749500D01*
X116017691Y-69753918D01*
X115813856Y-69764425D01*
X115813850Y-69764426D01*
X115431810Y-69823927D01*
X115057906Y-69922396D01*
X115057904Y-69922397D01*
X114696118Y-70058784D01*
X114696098Y-70058793D01*
X114350253Y-70231658D01*
X114350247Y-70231661D01*
X114024006Y-70439170D01*
X114023991Y-70439181D01*
X113720814Y-70679138D01*
X113443909Y-70949003D01*
X113196219Y-71245909D01*
X112980377Y-71566698D01*
X112980365Y-71566720D01*
X112798658Y-71907988D01*
X112798654Y-71907998D01*
X112652992Y-72266163D01*
X112652987Y-72266178D01*
X112544926Y-72637412D01*
X112544926Y-72637413D01*
X112475606Y-73017803D01*
X112475606Y-73017806D01*
X112475604Y-73017821D01*
X112445765Y-73403303D01*
X101450500Y-73403303D01*
X101450500Y-62375157D01*
X101450528Y-62375014D01*
X101450524Y-62375014D01*
X101450539Y-62350002D01*
X101450541Y-62350000D01*
X101450383Y-62349617D01*
X101450099Y-62349500D01*
X101450000Y-62349459D01*
X101449999Y-62349459D01*
X101425048Y-62349459D01*
X101424842Y-62349500D01*
X99475158Y-62349500D01*
X99474952Y-62349459D01*
X99450001Y-62349459D01*
X99450000Y-62349459D01*
X99449901Y-62349500D01*
X99449617Y-62349617D01*
X99449459Y-62350000D01*
X99449476Y-62375014D01*
X99449471Y-62375014D01*
X99449500Y-62375157D01*
X99449500Y-112325072D01*
X99449415Y-112325500D01*
X81550584Y-112325500D01*
X81550500Y-112325072D01*
X81550500Y-62375157D01*
X81550528Y-62375014D01*
X81550524Y-62375014D01*
X81550539Y-62350002D01*
X81550541Y-62350000D01*
X81550383Y-62349617D01*
X81550099Y-62349500D01*
X81550000Y-62349459D01*
X81549999Y-62349459D01*
X81525048Y-62349459D01*
X81524842Y-62349500D01*
X79575158Y-62349500D01*
X79574952Y-62349459D01*
X79550001Y-62349459D01*
X79550000Y-62349459D01*
X79549901Y-62349500D01*
X79549617Y-62349617D01*
X79549459Y-62350000D01*
X79549476Y-62375014D01*
X79549471Y-62375014D01*
X79549500Y-62375157D01*
X79549500Y-112325072D01*
X79549415Y-112325500D01*
X50000500Y-112325500D01*
X50000500Y-96003303D01*
X61045765Y-96003303D01*
X61055721Y-96389827D01*
X61055721Y-96389830D01*
X61105368Y-96773292D01*
X61105368Y-96773293D01*
X61194175Y-97149594D01*
X61194177Y-97149602D01*
X61321210Y-97514794D01*
X61485118Y-97864988D01*
X61684165Y-98196473D01*
X61916241Y-98505734D01*
X62178885Y-98789495D01*
X62469314Y-99044745D01*
X62784449Y-99268781D01*
X63120949Y-99459227D01*
X63475247Y-99614065D01*
X63843588Y-99731652D01*
X64222067Y-99810743D01*
X64462280Y-99835574D01*
X64606670Y-99850500D01*
X64606673Y-99850500D01*
X64896580Y-99850500D01*
X64896589Y-99850500D01*
X65157186Y-99837066D01*
X65186143Y-99835574D01*
X65186149Y-99835573D01*
X65345576Y-99810743D01*
X65568191Y-99776072D01*
X65942097Y-99677602D01*
X66190256Y-99584049D01*
X66303881Y-99541215D01*
X66303885Y-99541212D01*
X66303896Y-99541209D01*
X66649754Y-99368338D01*
X66976004Y-99160822D01*
X67279187Y-98920860D01*
X67556091Y-98650997D01*
X67803779Y-98354092D01*
X68019627Y-98033294D01*
X68201346Y-97692002D01*
X68347009Y-97333834D01*
X68455074Y-96962587D01*
X68524394Y-96582197D01*
X68554234Y-96196696D01*
X68544278Y-95810169D01*
X68494633Y-95426715D01*
X68405823Y-95050398D01*
X68278790Y-94685206D01*
X68114882Y-94335012D01*
X67915835Y-94003527D01*
X67683759Y-93694266D01*
X67421115Y-93410505D01*
X67130686Y-93155255D01*
X66815551Y-92931219D01*
X66479051Y-92740773D01*
X66479048Y-92740772D01*
X66479047Y-92740771D01*
X66320524Y-92671492D01*
X66124753Y-92585935D01*
X66124750Y-92585934D01*
X66124749Y-92585933D01*
X65756417Y-92468349D01*
X65377936Y-92389257D01*
X64993330Y-92349500D01*
X64993327Y-92349500D01*
X64703411Y-92349500D01*
X64617691Y-92353918D01*
X64413856Y-92364425D01*
X64413850Y-92364426D01*
X64031810Y-92423927D01*
X63657906Y-92522396D01*
X63657904Y-92522397D01*
X63296118Y-92658784D01*
X63296098Y-92658793D01*
X62950253Y-92831658D01*
X62950247Y-92831661D01*
X62624006Y-93039170D01*
X62623991Y-93039181D01*
X62320814Y-93279138D01*
X62043909Y-93549003D01*
X61796219Y-93845909D01*
X61580377Y-94166698D01*
X61580365Y-94166720D01*
X61398658Y-94507988D01*
X61398654Y-94507998D01*
X61252992Y-94866163D01*
X61252987Y-94866178D01*
X61144926Y-95237412D01*
X61144926Y-95237413D01*
X61075606Y-95617803D01*
X61075606Y-95617806D01*
X61075604Y-95617821D01*
X61045765Y-96003303D01*
X50000500Y-96003303D01*
X50000500Y-73403303D01*
X61045765Y-73403303D01*
X61055721Y-73789827D01*
X61055721Y-73789830D01*
X61105368Y-74173292D01*
X61105368Y-74173293D01*
X61194175Y-74549594D01*
X61194177Y-74549602D01*
X61321210Y-74914794D01*
X61485118Y-75264988D01*
X61684165Y-75596473D01*
X61916241Y-75905734D01*
X62178885Y-76189495D01*
X62469314Y-76444745D01*
X62784449Y-76668781D01*
X63120949Y-76859227D01*
X63475247Y-77014065D01*
X63843588Y-77131652D01*
X64222067Y-77210743D01*
X64462280Y-77235574D01*
X64606670Y-77250500D01*
X64606673Y-77250500D01*
X64896580Y-77250500D01*
X64896589Y-77250500D01*
X65157186Y-77237066D01*
X65186143Y-77235574D01*
X65186149Y-77235573D01*
X65345576Y-77210743D01*
X65568191Y-77176072D01*
X65942097Y-77077602D01*
X66190256Y-76984049D01*
X66303881Y-76941215D01*
X66303885Y-76941212D01*
X66303896Y-76941209D01*
X66649754Y-76768338D01*
X66976004Y-76560822D01*
X67279187Y-76320860D01*
X67556091Y-76050997D01*
X67803779Y-75754092D01*
X68019627Y-75433294D01*
X68201346Y-75092002D01*
X68347009Y-74733834D01*
X68455074Y-74362587D01*
X68524394Y-73982197D01*
X68554234Y-73596696D01*
X68544278Y-73210169D01*
X68494633Y-72826715D01*
X68405823Y-72450398D01*
X68278790Y-72085206D01*
X68114882Y-71735012D01*
X67915835Y-71403527D01*
X67683759Y-71094266D01*
X67421115Y-70810505D01*
X67130686Y-70555255D01*
X66815551Y-70331219D01*
X66479051Y-70140773D01*
X66479048Y-70140772D01*
X66479047Y-70140771D01*
X66320524Y-70071492D01*
X66124753Y-69985935D01*
X66124750Y-69985934D01*
X66124749Y-69985933D01*
X65756417Y-69868349D01*
X65377936Y-69789257D01*
X64993330Y-69749500D01*
X64993327Y-69749500D01*
X64703411Y-69749500D01*
X64617691Y-69753918D01*
X64413856Y-69764425D01*
X64413850Y-69764426D01*
X64031810Y-69823927D01*
X63657906Y-69922396D01*
X63657904Y-69922397D01*
X63296118Y-70058784D01*
X63296098Y-70058793D01*
X62950253Y-70231658D01*
X62950247Y-70231661D01*
X62624006Y-70439170D01*
X62623991Y-70439181D01*
X62320814Y-70679138D01*
X62043909Y-70949003D01*
X61796219Y-71245909D01*
X61580377Y-71566698D01*
X61580365Y-71566720D01*
X61398658Y-71907988D01*
X61398654Y-71907998D01*
X61252992Y-72266163D01*
X61252987Y-72266178D01*
X61144926Y-72637412D01*
X61144926Y-72637413D01*
X61075606Y-73017803D01*
X61075606Y-73017806D01*
X61075604Y-73017821D01*
X61045765Y-73403303D01*
X50000500Y-73403303D01*
X50000500Y-60408928D01*
X87195735Y-60408928D01*
X87205771Y-60772961D01*
X87205772Y-60772979D01*
X87255793Y-61133704D01*
X87345194Y-61486742D01*
X87345195Y-61486745D01*
X87472887Y-61827797D01*
X87472892Y-61827807D01*
X87472894Y-61827812D01*
X87556265Y-61992556D01*
X87637337Y-62152760D01*
X87637339Y-62152763D01*
X87782636Y-62375157D01*
X87836528Y-62457645D01*
X87836532Y-62457649D01*
X87836535Y-62457654D01*
X88068048Y-62738764D01*
X88068056Y-62738772D01*
X88254510Y-62920157D01*
X88329094Y-62992714D01*
X88616489Y-63216402D01*
X88926747Y-63407117D01*
X89256102Y-63562544D01*
X89600556Y-63680795D01*
X89600557Y-63680795D01*
X89600560Y-63680796D01*
X89955914Y-63760433D01*
X89955918Y-63760433D01*
X89955929Y-63760436D01*
X90317906Y-63800500D01*
X90317907Y-63800500D01*
X90590966Y-63800500D01*
X90590972Y-63800500D01*
X90863634Y-63785457D01*
X91222855Y-63725513D01*
X91573300Y-63626417D01*
X91910718Y-63489370D01*
X92231011Y-63316036D01*
X92530292Y-63108519D01*
X92804928Y-62869338D01*
X93051585Y-62601397D01*
X93267270Y-62307948D01*
X93449363Y-61992552D01*
X93595656Y-61659039D01*
X93704371Y-61311457D01*
X93774190Y-60954025D01*
X93804264Y-60591081D01*
X93794229Y-60227032D01*
X93744207Y-59866297D01*
X93654804Y-59513254D01*
X93590290Y-59340945D01*
X93527112Y-59172202D01*
X93527107Y-59172192D01*
X93527106Y-59172188D01*
X93362663Y-58847241D01*
X93163472Y-58542355D01*
X93045086Y-58398607D01*
X92931951Y-58261235D01*
X92931943Y-58261227D01*
X92670907Y-58007287D01*
X92670906Y-58007286D01*
X92383511Y-57783598D01*
X92383508Y-57783596D01*
X92383507Y-57783595D01*
X92073251Y-57592882D01*
X91963468Y-57541074D01*
X91743898Y-57437456D01*
X91715146Y-57427585D01*
X91399442Y-57319204D01*
X91399439Y-57319203D01*
X91044085Y-57239566D01*
X91044072Y-57239564D01*
X91044071Y-57239564D01*
X91044067Y-57239563D01*
X91044063Y-57239563D01*
X90818007Y-57214543D01*
X90682094Y-57199500D01*
X90409028Y-57199500D01*
X90136366Y-57214543D01*
X90136364Y-57214543D01*
X89777142Y-57274487D01*
X89426701Y-57373582D01*
X89426699Y-57373583D01*
X89089285Y-57510628D01*
X89089275Y-57510633D01*
X88768990Y-57683962D01*
X88768989Y-57683963D01*
X88469707Y-57891481D01*
X88469706Y-57891482D01*
X88195066Y-58130666D01*
X87948422Y-58398594D01*
X87948412Y-58398607D01*
X87732732Y-58692048D01*
X87732720Y-58692067D01*
X87550639Y-59007443D01*
X87550638Y-59007445D01*
X87404350Y-59340945D01*
X87404343Y-59340963D01*
X87295630Y-59688536D01*
X87295629Y-59688541D01*
X87225810Y-60045972D01*
X87195735Y-60408928D01*
X50000500Y-60408928D01*
X50000500Y-50803303D01*
X61045765Y-50803303D01*
X61055721Y-51189827D01*
X61055721Y-51189830D01*
X61105368Y-51573292D01*
X61105368Y-51573293D01*
X61194175Y-51949594D01*
X61194177Y-51949602D01*
X61321210Y-52314794D01*
X61485118Y-52664988D01*
X61684165Y-52996473D01*
X61916241Y-53305734D01*
X62178885Y-53589495D01*
X62469314Y-53844745D01*
X62784449Y-54068781D01*
X63120949Y-54259227D01*
X63475247Y-54414065D01*
X63843588Y-54531652D01*
X64222067Y-54610743D01*
X64462280Y-54635574D01*
X64606670Y-54650500D01*
X64606673Y-54650500D01*
X64896580Y-54650500D01*
X64896589Y-54650500D01*
X65157186Y-54637066D01*
X65186143Y-54635574D01*
X65186149Y-54635573D01*
X65345576Y-54610743D01*
X65568191Y-54576072D01*
X65942097Y-54477602D01*
X66190256Y-54384049D01*
X66303881Y-54341215D01*
X66303885Y-54341212D01*
X66303896Y-54341209D01*
X66649754Y-54168338D01*
X66976004Y-53960822D01*
X67279187Y-53720860D01*
X67556091Y-53450997D01*
X67803779Y-53154092D01*
X68019627Y-52833294D01*
X68201346Y-52492002D01*
X68347009Y-52133834D01*
X68455074Y-51762587D01*
X68524394Y-51382197D01*
X68554234Y-50996696D01*
X68544278Y-50610169D01*
X68530015Y-50500000D01*
X78494390Y-50500000D01*
X78514803Y-50785424D01*
X78575631Y-51065046D01*
X78675632Y-51333160D01*
X78675637Y-51333170D01*
X78812768Y-51584307D01*
X78812772Y-51584312D01*
X78984262Y-51813396D01*
X78984270Y-51813405D01*
X79186594Y-52015729D01*
X79186603Y-52015737D01*
X79186605Y-52015739D01*
X79415685Y-52187226D01*
X79415687Y-52187227D01*
X79415692Y-52187231D01*
X79666829Y-52324362D01*
X79666839Y-52324367D01*
X79934954Y-52424369D01*
X80214572Y-52485196D01*
X80428552Y-52500500D01*
X80428558Y-52500500D01*
X80571442Y-52500500D01*
X80571448Y-52500500D01*
X80785428Y-52485196D01*
X81065046Y-52424369D01*
X81333161Y-52324367D01*
X81363144Y-52307994D01*
X81584307Y-52187231D01*
X81584309Y-52187229D01*
X81584315Y-52187226D01*
X81813395Y-52015739D01*
X82015739Y-51813395D01*
X82187226Y-51584315D01*
X82187229Y-51584309D01*
X82187231Y-51584307D01*
X82324362Y-51333170D01*
X82324367Y-51333161D01*
X82424369Y-51065046D01*
X82485196Y-50785428D01*
X82505610Y-50500000D01*
X98494390Y-50500000D01*
X98514803Y-50785424D01*
X98575631Y-51065046D01*
X98675632Y-51333160D01*
X98675637Y-51333170D01*
X98812768Y-51584307D01*
X98812772Y-51584312D01*
X98984262Y-51813396D01*
X98984270Y-51813405D01*
X99186594Y-52015729D01*
X99186603Y-52015737D01*
X99186605Y-52015739D01*
X99415685Y-52187226D01*
X99415687Y-52187227D01*
X99415692Y-52187231D01*
X99666829Y-52324362D01*
X99666839Y-52324367D01*
X99934954Y-52424369D01*
X100214572Y-52485196D01*
X100428552Y-52500500D01*
X100428558Y-52500500D01*
X100571442Y-52500500D01*
X100571448Y-52500500D01*
X100785428Y-52485196D01*
X101065046Y-52424369D01*
X101333161Y-52324367D01*
X101363144Y-52307994D01*
X101584307Y-52187231D01*
X101584309Y-52187229D01*
X101584315Y-52187226D01*
X101813395Y-52015739D01*
X102015739Y-51813395D01*
X102187226Y-51584315D01*
X102187229Y-51584309D01*
X102187231Y-51584307D01*
X102324362Y-51333170D01*
X102324367Y-51333161D01*
X102424369Y-51065046D01*
X102481308Y-50803303D01*
X112445765Y-50803303D01*
X112455721Y-51189827D01*
X112455721Y-51189830D01*
X112505368Y-51573292D01*
X112505368Y-51573293D01*
X112594175Y-51949594D01*
X112594177Y-51949602D01*
X112721210Y-52314794D01*
X112885118Y-52664988D01*
X113084165Y-52996473D01*
X113316241Y-53305734D01*
X113578885Y-53589495D01*
X113869314Y-53844745D01*
X114184449Y-54068781D01*
X114520949Y-54259227D01*
X114875247Y-54414065D01*
X115243588Y-54531652D01*
X115622067Y-54610743D01*
X115862280Y-54635574D01*
X116006670Y-54650500D01*
X116006673Y-54650500D01*
X116296580Y-54650500D01*
X116296589Y-54650500D01*
X116557186Y-54637066D01*
X116586143Y-54635574D01*
X116586149Y-54635573D01*
X116745576Y-54610743D01*
X116968191Y-54576072D01*
X117342097Y-54477602D01*
X117590256Y-54384049D01*
X117703881Y-54341215D01*
X117703885Y-54341212D01*
X117703896Y-54341209D01*
X118049754Y-54168338D01*
X118376004Y-53960822D01*
X118679187Y-53720860D01*
X118956091Y-53450997D01*
X119203779Y-53154092D01*
X119419627Y-52833294D01*
X119601346Y-52492002D01*
X119747009Y-52133834D01*
X119855074Y-51762587D01*
X119924394Y-51382197D01*
X119954234Y-50996696D01*
X119944278Y-50610169D01*
X119894633Y-50226715D01*
X119805823Y-49850398D01*
X119678790Y-49485206D01*
X119514882Y-49135012D01*
X119315835Y-48803527D01*
X119083759Y-48494266D01*
X118821115Y-48210505D01*
X118530686Y-47955255D01*
X118215551Y-47731219D01*
X117879051Y-47540773D01*
X117879048Y-47540772D01*
X117879047Y-47540771D01*
X117720524Y-47471492D01*
X117524753Y-47385935D01*
X117524750Y-47385934D01*
X117524749Y-47385933D01*
X117156417Y-47268349D01*
X116777936Y-47189257D01*
X116393330Y-47149500D01*
X116393327Y-47149500D01*
X116103411Y-47149500D01*
X116017691Y-47153918D01*
X115813856Y-47164425D01*
X115813850Y-47164426D01*
X115431810Y-47223927D01*
X115057906Y-47322396D01*
X115057904Y-47322397D01*
X114696118Y-47458784D01*
X114696098Y-47458793D01*
X114350253Y-47631658D01*
X114350247Y-47631661D01*
X114024006Y-47839170D01*
X114023991Y-47839181D01*
X113720814Y-48079138D01*
X113443909Y-48349003D01*
X113196219Y-48645909D01*
X112980377Y-48966698D01*
X112980365Y-48966720D01*
X112798658Y-49307988D01*
X112798654Y-49307998D01*
X112652992Y-49666163D01*
X112652987Y-49666178D01*
X112574750Y-49934954D01*
X112544926Y-50037413D01*
X112475606Y-50417803D01*
X112475606Y-50417806D01*
X112475604Y-50417821D01*
X112445765Y-50803303D01*
X102481308Y-50803303D01*
X102485196Y-50785428D01*
X102505610Y-50500000D01*
X102485196Y-50214572D01*
X102424369Y-49934954D01*
X102324367Y-49666839D01*
X102324362Y-49666829D01*
X102187231Y-49415692D01*
X102187227Y-49415687D01*
X102187226Y-49415685D01*
X102015739Y-49186605D01*
X102015737Y-49186603D01*
X102015729Y-49186594D01*
X101813405Y-48984270D01*
X101813396Y-48984262D01*
X101789933Y-48966698D01*
X101584315Y-48812774D01*
X101584313Y-48812773D01*
X101584312Y-48812772D01*
X101584307Y-48812768D01*
X101333170Y-48675637D01*
X101333160Y-48675632D01*
X101065046Y-48575631D01*
X100785424Y-48514803D01*
X100651775Y-48505245D01*
X100571448Y-48499500D01*
X100428552Y-48499500D01*
X100352954Y-48504906D01*
X100214575Y-48514803D01*
X99934953Y-48575631D01*
X99666839Y-48675632D01*
X99666829Y-48675637D01*
X99415692Y-48812768D01*
X99415687Y-48812772D01*
X99186603Y-48984262D01*
X99186594Y-48984270D01*
X98984270Y-49186594D01*
X98984262Y-49186603D01*
X98812772Y-49415687D01*
X98812768Y-49415692D01*
X98675637Y-49666829D01*
X98675632Y-49666839D01*
X98575631Y-49934953D01*
X98514803Y-50214575D01*
X98494390Y-50500000D01*
X82505610Y-50500000D01*
X82485196Y-50214572D01*
X82424369Y-49934954D01*
X82324367Y-49666839D01*
X82324362Y-49666829D01*
X82187231Y-49415692D01*
X82187227Y-49415687D01*
X82187226Y-49415685D01*
X82015739Y-49186605D01*
X82015737Y-49186603D01*
X82015729Y-49186594D01*
X81813405Y-48984270D01*
X81813396Y-48984262D01*
X81789933Y-48966698D01*
X81584315Y-48812774D01*
X81584313Y-48812773D01*
X81584312Y-48812772D01*
X81584307Y-48812768D01*
X81333170Y-48675637D01*
X81333160Y-48675632D01*
X81065046Y-48575631D01*
X80785424Y-48514803D01*
X80651775Y-48505245D01*
X80571448Y-48499500D01*
X80428552Y-48499500D01*
X80352954Y-48504906D01*
X80214575Y-48514803D01*
X79934953Y-48575631D01*
X79666839Y-48675632D01*
X79666829Y-48675637D01*
X79415692Y-48812768D01*
X79415687Y-48812772D01*
X79186603Y-48984262D01*
X79186594Y-48984270D01*
X78984270Y-49186594D01*
X78984262Y-49186603D01*
X78812772Y-49415687D01*
X78812768Y-49415692D01*
X78675637Y-49666829D01*
X78675632Y-49666839D01*
X78575631Y-49934953D01*
X78514803Y-50214575D01*
X78494390Y-50500000D01*
X68530015Y-50500000D01*
X68494633Y-50226715D01*
X68405823Y-49850398D01*
X68278790Y-49485206D01*
X68114882Y-49135012D01*
X67915835Y-48803527D01*
X67683759Y-48494266D01*
X67421115Y-48210505D01*
X67130686Y-47955255D01*
X66815551Y-47731219D01*
X66479051Y-47540773D01*
X66479048Y-47540772D01*
X66479047Y-47540771D01*
X66320524Y-47471492D01*
X66124753Y-47385935D01*
X66124750Y-47385934D01*
X66124749Y-47385933D01*
X65756417Y-47268349D01*
X65377936Y-47189257D01*
X64993330Y-47149500D01*
X64993327Y-47149500D01*
X64703411Y-47149500D01*
X64617691Y-47153918D01*
X64413856Y-47164425D01*
X64413850Y-47164426D01*
X64031810Y-47223927D01*
X63657906Y-47322396D01*
X63657904Y-47322397D01*
X63296118Y-47458784D01*
X63296098Y-47458793D01*
X62950253Y-47631658D01*
X62950247Y-47631661D01*
X62624006Y-47839170D01*
X62623991Y-47839181D01*
X62320814Y-48079138D01*
X62043909Y-48349003D01*
X61796219Y-48645909D01*
X61580377Y-48966698D01*
X61580365Y-48966720D01*
X61398658Y-49307988D01*
X61398654Y-49307998D01*
X61252992Y-49666163D01*
X61252987Y-49666178D01*
X61174750Y-49934954D01*
X61144926Y-50037413D01*
X61075606Y-50417803D01*
X61075606Y-50417806D01*
X61075604Y-50417821D01*
X61045765Y-50803303D01*
X50000500Y-50803303D01*
X50000500Y-41999999D01*
X70199999Y-41999999D01*
X70343025Y-42591728D01*
X70343025Y-42591729D01*
X70343026Y-42591730D01*
X70668617Y-43131383D01*
X71208933Y-43457659D01*
X71800000Y-43600000D01*
X72433527Y-43457644D01*
X72932199Y-43132199D01*
X73300523Y-42592178D01*
X73400000Y-42000000D01*
X73400000Y-41999999D01*
X74799999Y-41999999D01*
X74943025Y-42591728D01*
X74943025Y-42591729D01*
X74943026Y-42591730D01*
X75268617Y-43131383D01*
X75808933Y-43457659D01*
X76400000Y-43600000D01*
X77033527Y-43457644D01*
X77532199Y-43132199D01*
X77900523Y-42592178D01*
X78000000Y-42000000D01*
X78000000Y-41999999D01*
X79399999Y-41999999D01*
X79543025Y-42591728D01*
X79543025Y-42591729D01*
X79543026Y-42591730D01*
X79868617Y-43131383D01*
X80408933Y-43457659D01*
X81000000Y-43600000D01*
X81633527Y-43457644D01*
X82132199Y-43132199D01*
X82500523Y-42592178D01*
X82600000Y-42000000D01*
X82600000Y-41999999D01*
X83999999Y-41999999D01*
X84143025Y-42591728D01*
X84143025Y-42591729D01*
X84143026Y-42591730D01*
X84468617Y-43131383D01*
X85008933Y-43457659D01*
X85600000Y-43600000D01*
X86233527Y-43457644D01*
X86732199Y-43132199D01*
X87100523Y-42592178D01*
X87200000Y-42000000D01*
X87200000Y-41999999D01*
X93799999Y-41999999D01*
X93943025Y-42591728D01*
X93943025Y-42591729D01*
X93943026Y-42591730D01*
X94268617Y-43131383D01*
X94808933Y-43457659D01*
X95400000Y-43600000D01*
X96033527Y-43457644D01*
X96532199Y-43132199D01*
X96900523Y-42592178D01*
X97000000Y-42000000D01*
X97000000Y-41999999D01*
X98399999Y-41999999D01*
X98543025Y-42591728D01*
X98543025Y-42591729D01*
X98543026Y-42591730D01*
X98868617Y-43131383D01*
X99408933Y-43457659D01*
X100000000Y-43600000D01*
X100633527Y-43457644D01*
X101132199Y-43132199D01*
X101500523Y-42592178D01*
X101600000Y-42000000D01*
X101600000Y-41999999D01*
X102999999Y-41999999D01*
X103143025Y-42591728D01*
X103143025Y-42591729D01*
X103143026Y-42591730D01*
X103468617Y-43131383D01*
X104008933Y-43457659D01*
X104600000Y-43600000D01*
X105233527Y-43457644D01*
X105732199Y-43132199D01*
X106100523Y-42592178D01*
X106200000Y-42000000D01*
X106200000Y-41999999D01*
X107599999Y-41999999D01*
X107743025Y-42591728D01*
X107743025Y-42591729D01*
X107743026Y-42591730D01*
X108068617Y-43131383D01*
X108608933Y-43457659D01*
X109200000Y-43600000D01*
X109833527Y-43457644D01*
X110332199Y-43132199D01*
X110700523Y-42592178D01*
X110800000Y-42000000D01*
X110699441Y-41367143D01*
X110330809Y-40869191D01*
X110326396Y-40865934D01*
X109833224Y-40501963D01*
X109674916Y-40476472D01*
X109199999Y-40400000D01*
X109199997Y-40400000D01*
X109199996Y-40400000D01*
X108608938Y-40501229D01*
X108608937Y-40501230D01*
X108065934Y-40865933D01*
X108065931Y-40865937D01*
X107739506Y-41365682D01*
X107739504Y-41365686D01*
X107599999Y-41999999D01*
X106200000Y-41999999D01*
X106099441Y-41367143D01*
X105730809Y-40869191D01*
X105726396Y-40865934D01*
X105233224Y-40501963D01*
X105074916Y-40476472D01*
X104599999Y-40400000D01*
X104599997Y-40400000D01*
X104599996Y-40400000D01*
X104008938Y-40501229D01*
X104008937Y-40501230D01*
X103465934Y-40865933D01*
X103465931Y-40865937D01*
X103139506Y-41365682D01*
X103139504Y-41365686D01*
X102999999Y-41999999D01*
X101600000Y-41999999D01*
X101499441Y-41367143D01*
X101130809Y-40869191D01*
X101126396Y-40865934D01*
X100633224Y-40501963D01*
X100474916Y-40476472D01*
X99999999Y-40400000D01*
X99999997Y-40400000D01*
X99999996Y-40400000D01*
X99408938Y-40501229D01*
X99408937Y-40501230D01*
X98865934Y-40865933D01*
X98865931Y-40865937D01*
X98539506Y-41365682D01*
X98539504Y-41365686D01*
X98399999Y-41999999D01*
X97000000Y-41999999D01*
X96899441Y-41367143D01*
X96530809Y-40869191D01*
X96526396Y-40865934D01*
X96033224Y-40501963D01*
X95874917Y-40476472D01*
X95399999Y-40400000D01*
X95399997Y-40400000D01*
X95399996Y-40400000D01*
X94808938Y-40501229D01*
X94808937Y-40501230D01*
X94265934Y-40865933D01*
X94265931Y-40865937D01*
X93939506Y-41365682D01*
X93939504Y-41365686D01*
X93799999Y-41999999D01*
X87200000Y-41999999D01*
X87099441Y-41367143D01*
X86730809Y-40869191D01*
X86726396Y-40865934D01*
X86233224Y-40501963D01*
X86074916Y-40476472D01*
X85599999Y-40400000D01*
X85599997Y-40400000D01*
X85599996Y-40400000D01*
X85008938Y-40501229D01*
X85008937Y-40501230D01*
X84465934Y-40865933D01*
X84465931Y-40865937D01*
X84139506Y-41365682D01*
X84139504Y-41365686D01*
X83999999Y-41999999D01*
X82600000Y-41999999D01*
X82499441Y-41367143D01*
X82130809Y-40869191D01*
X82126396Y-40865934D01*
X81633224Y-40501963D01*
X81474917Y-40476472D01*
X80999999Y-40400000D01*
X80999997Y-40400000D01*
X80999996Y-40400000D01*
X80408938Y-40501229D01*
X80408937Y-40501230D01*
X79865934Y-40865933D01*
X79865931Y-40865937D01*
X79539506Y-41365682D01*
X79539504Y-41365686D01*
X79399999Y-41999999D01*
X78000000Y-41999999D01*
X77899441Y-41367143D01*
X77530809Y-40869191D01*
X77526396Y-40865934D01*
X77033224Y-40501963D01*
X76874916Y-40476472D01*
X76399999Y-40400000D01*
X76399997Y-40400000D01*
X76399996Y-40400000D01*
X75808938Y-40501229D01*
X75808937Y-40501230D01*
X75265934Y-40865933D01*
X75265931Y-40865937D01*
X74939506Y-41365682D01*
X74939504Y-41365686D01*
X74799999Y-41999999D01*
X73400000Y-41999999D01*
X73299441Y-41367143D01*
X72930809Y-40869191D01*
X72926396Y-40865934D01*
X72433224Y-40501963D01*
X72274916Y-40476472D01*
X71799999Y-40400000D01*
X71799997Y-40400000D01*
X71799996Y-40400000D01*
X71208938Y-40501229D01*
X71208937Y-40501230D01*
X70665934Y-40865933D01*
X70665931Y-40865937D01*
X70339506Y-41365682D01*
X70339504Y-41365686D01*
X70199999Y-41999999D01*
X50000500Y-41999999D01*
X50000500Y-33067765D01*
X54745788Y-33067765D01*
X54775412Y-33337014D01*
X54843928Y-33599090D01*
X54949869Y-33848389D01*
X54949870Y-33848390D01*
X55090982Y-34079610D01*
X55264255Y-34287820D01*
X55465998Y-34468582D01*
X55691910Y-34618044D01*
X55937176Y-34733020D01*
X56196569Y-34811060D01*
X56196572Y-34811060D01*
X56196574Y-34811061D01*
X56464557Y-34850500D01*
X56464561Y-34850500D01*
X58467633Y-34850500D01*
X58502363Y-34847957D01*
X58670156Y-34835677D01*
X58670160Y-34835676D01*
X58670161Y-34835676D01*
X58780665Y-34811060D01*
X58934553Y-34776780D01*
X59187558Y-34680014D01*
X59423777Y-34547441D01*
X59638177Y-34381888D01*
X59826186Y-34186881D01*
X59983799Y-33966579D01*
X60107656Y-33725675D01*
X60195118Y-33469305D01*
X60244319Y-33202933D01*
X60249259Y-33067765D01*
X120745788Y-33067765D01*
X120775412Y-33337014D01*
X120843928Y-33599090D01*
X120949869Y-33848389D01*
X120949870Y-33848390D01*
X121090982Y-34079610D01*
X121264255Y-34287820D01*
X121465998Y-34468582D01*
X121691910Y-34618044D01*
X121937176Y-34733020D01*
X122196569Y-34811060D01*
X122196572Y-34811060D01*
X122196574Y-34811061D01*
X122464557Y-34850500D01*
X122464561Y-34850500D01*
X124467633Y-34850500D01*
X124502363Y-34847957D01*
X124670156Y-34835677D01*
X124670160Y-34835676D01*
X124670161Y-34835676D01*
X124780665Y-34811060D01*
X124934553Y-34776780D01*
X125187558Y-34680014D01*
X125423777Y-34547441D01*
X125638177Y-34381888D01*
X125826186Y-34186881D01*
X125983799Y-33966579D01*
X126107656Y-33725675D01*
X126195118Y-33469305D01*
X126244319Y-33202933D01*
X126254212Y-32932235D01*
X126239338Y-32797058D01*
X126224587Y-32662985D01*
X126156071Y-32400909D01*
X126050130Y-32151610D01*
X125909018Y-31920390D01*
X125735745Y-31712180D01*
X125735741Y-31712177D01*
X125735740Y-31712175D01*
X125534012Y-31531427D01*
X125534002Y-31531418D01*
X125308090Y-31381956D01*
X125062824Y-31266980D01*
X124905392Y-31219615D01*
X124803425Y-31188938D01*
X124535442Y-31149500D01*
X124535439Y-31149500D01*
X122532369Y-31149500D01*
X122532367Y-31149500D01*
X122329839Y-31164323D01*
X122329838Y-31164323D01*
X122065456Y-31223217D01*
X122065441Y-31223222D01*
X121812441Y-31319986D01*
X121576229Y-31452555D01*
X121576225Y-31452557D01*
X121361818Y-31618116D01*
X121173815Y-31813117D01*
X121173810Y-31813123D01*
X121016203Y-32033417D01*
X121016196Y-32033427D01*
X120892343Y-32274324D01*
X120892342Y-32274327D01*
X120804883Y-32530689D01*
X120804880Y-32530702D01*
X120755681Y-32797058D01*
X120755680Y-32797069D01*
X120745788Y-33067765D01*
X60249259Y-33067765D01*
X60254212Y-32932235D01*
X60239338Y-32797058D01*
X60224587Y-32662985D01*
X60156071Y-32400909D01*
X60050130Y-32151610D01*
X60050130Y-32151609D01*
X59909018Y-31920390D01*
X59735745Y-31712180D01*
X59735741Y-31712177D01*
X59735740Y-31712175D01*
X59534012Y-31531427D01*
X59534002Y-31531418D01*
X59308090Y-31381956D01*
X59062824Y-31266980D01*
X58905392Y-31219615D01*
X58803425Y-31188938D01*
X58535442Y-31149500D01*
X58535439Y-31149500D01*
X56532369Y-31149500D01*
X56532367Y-31149500D01*
X56329839Y-31164323D01*
X56329838Y-31164323D01*
X56065456Y-31223217D01*
X56065441Y-31223222D01*
X55812441Y-31319986D01*
X55576229Y-31452555D01*
X55576225Y-31452557D01*
X55361818Y-31618116D01*
X55173815Y-31813117D01*
X55173810Y-31813123D01*
X55016203Y-32033417D01*
X55016196Y-32033427D01*
X54892343Y-32274324D01*
X54892342Y-32274327D01*
X54804883Y-32530689D01*
X54804880Y-32530702D01*
X54755681Y-32797058D01*
X54755680Y-32797069D01*
X54745788Y-33067765D01*
X50000500Y-33067765D01*
X50000500Y-30126500D01*
X50020502Y-30058379D01*
X50074158Y-30011886D01*
X50126500Y-30000500D01*
X130873500Y-30000500D01*
X130941621Y-30020502D01*
G37*
%TD.AperFunction*%
M02*
