%TF.GenerationSoftware,KiCad,Pcbnew,7.0.7*%
%TF.CreationDate,2023-08-18T12:28:13+01:00*%
%TF.ProjectId,Quango_Panel_3,5175616e-676f-45f5-9061-6e656c5f332e,rev?*%
%TF.SameCoordinates,Original*%
%TF.FileFunction,Soldermask,Top*%
%TF.FilePolarity,Negative*%
%FSLAX46Y46*%
G04 Gerber Fmt 4.6, Leading zero omitted, Abs format (unit mm)*
G04 Created by KiCad (PCBNEW 7.0.7) date 2023-08-18 12:28:13*
%MOMM*%
%LPD*%
G01*
G04 APERTURE LIST*
%ADD10C,0.150000*%
%ADD11C,7.853175*%
%ADD12C,2.776851*%
%ADD13C,4.000000*%
%ADD14C,4.500000*%
%ADD15C,0.200000*%
%ADD16C,0.400000*%
%ADD17C,7.000000*%
%ADD18O,5.000000X3.200000*%
%ADD19C,6.000000*%
%ADD20C,6.100000*%
%ADD21C,3.500000*%
G04 APERTURE END LIST*
D10*
X118250000Y-148800000D02*
X123350000Y-148800000D01*
D11*
X120126587Y-73500000D02*
G75*
G03*
X120126587Y-73500000I-3926587J0D01*
G01*
D12*
X81888425Y-50500000D02*
G75*
G03*
X81888425Y-50500000I-1388425J0D01*
G01*
D10*
X123350000Y-148800000D02*
X123350000Y-152300000D01*
D11*
X68726587Y-96100000D02*
G75*
G03*
X68726587Y-96100000I-3926587J0D01*
G01*
D10*
X67800000Y-148850000D02*
X67800000Y-152350000D01*
D11*
X68726587Y-50900000D02*
G75*
G03*
X68726587Y-50900000I-3926587J0D01*
G01*
D10*
X67800000Y-152350000D02*
X62700000Y-152350000D01*
D12*
X101888425Y-50500000D02*
G75*
G03*
X101888425Y-50500000I-1388425J0D01*
G01*
D10*
X79600000Y-36000000D02*
X77000000Y-34500000D01*
X79600000Y-33000000D01*
X79600000Y-36000000D01*
G36*
X79600000Y-36000000D02*
G01*
X77000000Y-34500000D01*
X79600000Y-33000000D01*
X79600000Y-36000000D01*
G37*
X62700000Y-148850000D02*
X67800000Y-148850000D01*
D11*
X120126587Y-50900000D02*
G75*
G03*
X120126587Y-50900000I-3926587J0D01*
G01*
D13*
X100450000Y-111450000D02*
X100450000Y-62350000D01*
D14*
X71800000Y-42000000D02*
X85600000Y-42000000D01*
D11*
X68726587Y-73500000D02*
G75*
G03*
X68726587Y-73500000I-3926587J0D01*
G01*
D14*
X109200000Y-42000000D02*
X95400000Y-42000000D01*
D11*
X120126587Y-96200000D02*
G75*
G03*
X120126587Y-96200000I-3926587J0D01*
G01*
D13*
X80550000Y-111450000D02*
X80550000Y-62350000D01*
D10*
X103500000Y-34500000D02*
X100900000Y-36000000D01*
X100900000Y-33000000D01*
X103500000Y-34500000D01*
G36*
X103500000Y-34500000D02*
G01*
X100900000Y-36000000D01*
X100900000Y-33000000D01*
X103500000Y-34500000D01*
G37*
X123350000Y-152300000D02*
X118250000Y-152300000D01*
D11*
X68726587Y-118700000D02*
G75*
G03*
X68726587Y-118700000I-3926587J0D01*
G01*
X120126587Y-118700000D02*
G75*
G03*
X120126587Y-118700000I-3926587J0D01*
G01*
D15*
X80928570Y-156383528D02*
X80928570Y-154883528D01*
X80928570Y-154883528D02*
X81428570Y-155954957D01*
X81428570Y-155954957D02*
X81928570Y-154883528D01*
X81928570Y-154883528D02*
X81928570Y-156383528D01*
X82857142Y-156383528D02*
X82714285Y-156312100D01*
X82714285Y-156312100D02*
X82642856Y-156240671D01*
X82642856Y-156240671D02*
X82571428Y-156097814D01*
X82571428Y-156097814D02*
X82571428Y-155669242D01*
X82571428Y-155669242D02*
X82642856Y-155526385D01*
X82642856Y-155526385D02*
X82714285Y-155454957D01*
X82714285Y-155454957D02*
X82857142Y-155383528D01*
X82857142Y-155383528D02*
X83071428Y-155383528D01*
X83071428Y-155383528D02*
X83214285Y-155454957D01*
X83214285Y-155454957D02*
X83285714Y-155526385D01*
X83285714Y-155526385D02*
X83357142Y-155669242D01*
X83357142Y-155669242D02*
X83357142Y-156097814D01*
X83357142Y-156097814D02*
X83285714Y-156240671D01*
X83285714Y-156240671D02*
X83214285Y-156312100D01*
X83214285Y-156312100D02*
X83071428Y-156383528D01*
X83071428Y-156383528D02*
X82857142Y-156383528D01*
X84642857Y-155383528D02*
X84642857Y-156383528D01*
X83999999Y-155383528D02*
X83999999Y-156169242D01*
X83999999Y-156169242D02*
X84071428Y-156312100D01*
X84071428Y-156312100D02*
X84214285Y-156383528D01*
X84214285Y-156383528D02*
X84428571Y-156383528D01*
X84428571Y-156383528D02*
X84571428Y-156312100D01*
X84571428Y-156312100D02*
X84642857Y-156240671D01*
X85357142Y-155383528D02*
X85357142Y-156383528D01*
X85357142Y-155526385D02*
X85428571Y-155454957D01*
X85428571Y-155454957D02*
X85571428Y-155383528D01*
X85571428Y-155383528D02*
X85785714Y-155383528D01*
X85785714Y-155383528D02*
X85928571Y-155454957D01*
X85928571Y-155454957D02*
X86000000Y-155597814D01*
X86000000Y-155597814D02*
X86000000Y-156383528D01*
X86500000Y-155383528D02*
X87071428Y-155383528D01*
X86714285Y-154883528D02*
X86714285Y-156169242D01*
X86714285Y-156169242D02*
X86785714Y-156312100D01*
X86785714Y-156312100D02*
X86928571Y-156383528D01*
X86928571Y-156383528D02*
X87071428Y-156383528D01*
X87571428Y-155383528D02*
X87571428Y-156669242D01*
X87571428Y-156669242D02*
X87500000Y-156812100D01*
X87500000Y-156812100D02*
X87357143Y-156883528D01*
X87357143Y-156883528D02*
X87285714Y-156883528D01*
X87571428Y-154883528D02*
X87500000Y-154954957D01*
X87500000Y-154954957D02*
X87571428Y-155026385D01*
X87571428Y-155026385D02*
X87642857Y-154954957D01*
X87642857Y-154954957D02*
X87571428Y-154883528D01*
X87571428Y-154883528D02*
X87571428Y-155026385D01*
X88500000Y-156383528D02*
X88357143Y-156312100D01*
X88357143Y-156312100D02*
X88285714Y-156240671D01*
X88285714Y-156240671D02*
X88214286Y-156097814D01*
X88214286Y-156097814D02*
X88214286Y-155669242D01*
X88214286Y-155669242D02*
X88285714Y-155526385D01*
X88285714Y-155526385D02*
X88357143Y-155454957D01*
X88357143Y-155454957D02*
X88500000Y-155383528D01*
X88500000Y-155383528D02*
X88714286Y-155383528D01*
X88714286Y-155383528D02*
X88857143Y-155454957D01*
X88857143Y-155454957D02*
X88928572Y-155526385D01*
X88928572Y-155526385D02*
X89000000Y-155669242D01*
X89000000Y-155669242D02*
X89000000Y-156097814D01*
X89000000Y-156097814D02*
X88928572Y-156240671D01*
X88928572Y-156240671D02*
X88857143Y-156312100D01*
X88857143Y-156312100D02*
X88714286Y-156383528D01*
X88714286Y-156383528D02*
X88500000Y-156383528D01*
X89500000Y-155383528D02*
X89857143Y-156383528D01*
X90214286Y-155383528D02*
X89857143Y-156383528D01*
X89857143Y-156383528D02*
X89714286Y-156740671D01*
X89714286Y-156740671D02*
X89642857Y-156812100D01*
X89642857Y-156812100D02*
X89500000Y-156883528D01*
X91928571Y-156383528D02*
X91928571Y-154883528D01*
X91928571Y-154883528D02*
X92428571Y-155954957D01*
X92428571Y-155954957D02*
X92928571Y-154883528D01*
X92928571Y-154883528D02*
X92928571Y-156383528D01*
X93857143Y-156383528D02*
X93714286Y-156312100D01*
X93714286Y-156312100D02*
X93642857Y-156240671D01*
X93642857Y-156240671D02*
X93571429Y-156097814D01*
X93571429Y-156097814D02*
X93571429Y-155669242D01*
X93571429Y-155669242D02*
X93642857Y-155526385D01*
X93642857Y-155526385D02*
X93714286Y-155454957D01*
X93714286Y-155454957D02*
X93857143Y-155383528D01*
X93857143Y-155383528D02*
X94071429Y-155383528D01*
X94071429Y-155383528D02*
X94214286Y-155454957D01*
X94214286Y-155454957D02*
X94285715Y-155526385D01*
X94285715Y-155526385D02*
X94357143Y-155669242D01*
X94357143Y-155669242D02*
X94357143Y-156097814D01*
X94357143Y-156097814D02*
X94285715Y-156240671D01*
X94285715Y-156240671D02*
X94214286Y-156312100D01*
X94214286Y-156312100D02*
X94071429Y-156383528D01*
X94071429Y-156383528D02*
X93857143Y-156383528D01*
X95642858Y-156383528D02*
X95642858Y-154883528D01*
X95642858Y-156312100D02*
X95500000Y-156383528D01*
X95500000Y-156383528D02*
X95214286Y-156383528D01*
X95214286Y-156383528D02*
X95071429Y-156312100D01*
X95071429Y-156312100D02*
X95000000Y-156240671D01*
X95000000Y-156240671D02*
X94928572Y-156097814D01*
X94928572Y-156097814D02*
X94928572Y-155669242D01*
X94928572Y-155669242D02*
X95000000Y-155526385D01*
X95000000Y-155526385D02*
X95071429Y-155454957D01*
X95071429Y-155454957D02*
X95214286Y-155383528D01*
X95214286Y-155383528D02*
X95500000Y-155383528D01*
X95500000Y-155383528D02*
X95642858Y-155454957D01*
X97000001Y-155383528D02*
X97000001Y-156383528D01*
X96357143Y-155383528D02*
X96357143Y-156169242D01*
X96357143Y-156169242D02*
X96428572Y-156312100D01*
X96428572Y-156312100D02*
X96571429Y-156383528D01*
X96571429Y-156383528D02*
X96785715Y-156383528D01*
X96785715Y-156383528D02*
X96928572Y-156312100D01*
X96928572Y-156312100D02*
X97000001Y-156240671D01*
X97928572Y-156383528D02*
X97785715Y-156312100D01*
X97785715Y-156312100D02*
X97714286Y-156169242D01*
X97714286Y-156169242D02*
X97714286Y-154883528D01*
X99142858Y-156383528D02*
X99142858Y-155597814D01*
X99142858Y-155597814D02*
X99071429Y-155454957D01*
X99071429Y-155454957D02*
X98928572Y-155383528D01*
X98928572Y-155383528D02*
X98642858Y-155383528D01*
X98642858Y-155383528D02*
X98500000Y-155454957D01*
X99142858Y-156312100D02*
X99000000Y-156383528D01*
X99000000Y-156383528D02*
X98642858Y-156383528D01*
X98642858Y-156383528D02*
X98500000Y-156312100D01*
X98500000Y-156312100D02*
X98428572Y-156169242D01*
X98428572Y-156169242D02*
X98428572Y-156026385D01*
X98428572Y-156026385D02*
X98500000Y-155883528D01*
X98500000Y-155883528D02*
X98642858Y-155812100D01*
X98642858Y-155812100D02*
X99000000Y-155812100D01*
X99000000Y-155812100D02*
X99142858Y-155740671D01*
X99857143Y-156383528D02*
X99857143Y-155383528D01*
X99857143Y-155669242D02*
X99928572Y-155526385D01*
X99928572Y-155526385D02*
X100000001Y-155454957D01*
X100000001Y-155454957D02*
X100142858Y-155383528D01*
X100142858Y-155383528D02*
X100285715Y-155383528D01*
D16*
X119802381Y-151554438D02*
X119802381Y-149554438D01*
X120754762Y-151554438D02*
X120754762Y-149554438D01*
X120754762Y-149554438D02*
X121897619Y-151554438D01*
X121897619Y-151554438D02*
X121897619Y-149554438D01*
X64252381Y-151604438D02*
X64252381Y-149604438D01*
X65204762Y-151604438D02*
X65204762Y-149604438D01*
X65204762Y-149604438D02*
X66347619Y-151604438D01*
X66347619Y-151604438D02*
X66347619Y-149604438D01*
%TO.C,G\u002A\u002A\u002A*%
G36*
X83346436Y-32648333D02*
G01*
X83715746Y-32879134D01*
X84003051Y-33222030D01*
X84083502Y-33375146D01*
X84191002Y-33744503D01*
X84231349Y-34191360D01*
X84205790Y-34658383D01*
X84115574Y-35088240D01*
X84042022Y-35281279D01*
X83902869Y-35526145D01*
X83744164Y-35728661D01*
X83654850Y-35806750D01*
X83449774Y-35941121D01*
X83741420Y-36185972D01*
X83900530Y-36330091D01*
X83989807Y-36432020D01*
X83997039Y-36459832D01*
X83916554Y-36518044D01*
X83763702Y-36624835D01*
X83726667Y-36650423D01*
X83492321Y-36812003D01*
X83282174Y-36592657D01*
X83146310Y-36409895D01*
X83113876Y-36266495D01*
X83117272Y-36255405D01*
X83119159Y-36185672D01*
X83036274Y-36149728D01*
X82839325Y-36137664D01*
X82768014Y-36137217D01*
X82367941Y-36090639D01*
X82036618Y-35940873D01*
X81750443Y-35671917D01*
X81486023Y-35268154D01*
X81400509Y-35082024D01*
X81349168Y-34876526D01*
X81329283Y-34661461D01*
X82386111Y-34661461D01*
X82424986Y-34958060D01*
X82528247Y-35199389D01*
X82675851Y-35349648D01*
X82789286Y-35381547D01*
X82933577Y-35322534D01*
X83064725Y-35186599D01*
X83150192Y-34971330D01*
X83187641Y-34699380D01*
X83175128Y-34433265D01*
X83110706Y-34235504D01*
X83095010Y-34213849D01*
X82949823Y-34125358D01*
X82789286Y-34096428D01*
X82570025Y-34148519D01*
X82438442Y-34311529D01*
X82387324Y-34595564D01*
X82386111Y-34661461D01*
X81329283Y-34661461D01*
X81324131Y-34605734D01*
X81317637Y-34285416D01*
X81321434Y-33942447D01*
X81342056Y-33702719D01*
X81388898Y-33518466D01*
X81471353Y-33341922D01*
X81519967Y-33256706D01*
X81742871Y-32945014D01*
X82001537Y-32739863D01*
X82345527Y-32605584D01*
X82467036Y-32575101D01*
X82921430Y-32542648D01*
X83346436Y-32648333D01*
G37*
G36*
X85775298Y-33926321D02*
G01*
X85778874Y-34461641D01*
X85792884Y-34864299D01*
X85822246Y-35152724D01*
X85871880Y-35345346D01*
X85946706Y-35460592D01*
X86051644Y-35516892D01*
X86191611Y-35532673D01*
X86204133Y-35532738D01*
X86438661Y-35532738D01*
X86383983Y-34096428D01*
X86329306Y-32660119D01*
X86874400Y-32660119D01*
X87419494Y-32660119D01*
X87372247Y-32896354D01*
X87357012Y-33046924D01*
X87343820Y-33319373D01*
X87333525Y-33684393D01*
X87326980Y-34112678D01*
X87325000Y-34518992D01*
X87325441Y-35039824D01*
X87318385Y-35429281D01*
X87291261Y-35707093D01*
X87231502Y-35892991D01*
X87126537Y-36006705D01*
X86963797Y-36067964D01*
X86730714Y-36096500D01*
X86414717Y-36112043D01*
X86307056Y-36116877D01*
X85962726Y-36128213D01*
X85721872Y-36118990D01*
X85537427Y-36082597D01*
X85362322Y-36012425D01*
X85283929Y-35973198D01*
X85078513Y-35848234D01*
X84912173Y-35695921D01*
X84778934Y-35498129D01*
X84672817Y-35236725D01*
X84587845Y-34893579D01*
X84518042Y-34450557D01*
X84457431Y-33889528D01*
X84409847Y-33321577D01*
X84358903Y-32660119D01*
X85067100Y-32660101D01*
X85775298Y-32660083D01*
X85775298Y-33926321D01*
G37*
G36*
X95894290Y-33124779D02*
G01*
X95931936Y-33503311D01*
X95946093Y-33756660D01*
X95929538Y-33909957D01*
X95875046Y-33988330D01*
X95775396Y-34016912D01*
X95636722Y-34020833D01*
X95271141Y-34076155D01*
X94974190Y-34226578D01*
X94764135Y-34448790D01*
X94659239Y-34719477D01*
X94677770Y-35015326D01*
X94739418Y-35166131D01*
X94855661Y-35284989D01*
X95049972Y-35410550D01*
X95255933Y-35504996D01*
X95383229Y-35532738D01*
X95401788Y-35464638D01*
X95399852Y-35287501D01*
X95381903Y-35079166D01*
X95330588Y-34625595D01*
X95787088Y-34625595D01*
X96243589Y-34625595D01*
X96196082Y-35324851D01*
X96172482Y-35633480D01*
X96148672Y-35880032D01*
X96128305Y-36029232D01*
X96120306Y-36056610D01*
X96027780Y-36080669D01*
X95825214Y-36097773D01*
X95553619Y-36107538D01*
X95254003Y-36109581D01*
X94967374Y-36103516D01*
X94734742Y-36088959D01*
X94614218Y-36070723D01*
X94133171Y-35877576D01*
X93751878Y-35578616D01*
X93482021Y-35187040D01*
X93335282Y-34716045D01*
X93321404Y-34610261D01*
X93329259Y-34073317D01*
X93466278Y-33605932D01*
X93727857Y-33217254D01*
X94109387Y-32916428D01*
X94198902Y-32868006D01*
X94442149Y-32757505D01*
X94666632Y-32694111D01*
X94932166Y-32665736D01*
X95227489Y-32660119D01*
X95845724Y-32660119D01*
X95894290Y-33124779D01*
G37*
G36*
X98389889Y-32648333D02*
G01*
X98759199Y-32879134D01*
X99046503Y-33222030D01*
X99126954Y-33375146D01*
X99225803Y-33714538D01*
X99269300Y-34135880D01*
X99257933Y-34580618D01*
X99192189Y-34990201D01*
X99111505Y-35230357D01*
X98871296Y-35648816D01*
X98583816Y-35931280D01*
X98231624Y-36089971D01*
X97817593Y-36137217D01*
X97418156Y-36089781D01*
X97153718Y-35976458D01*
X96948108Y-35836949D01*
X96793268Y-35685597D01*
X96647892Y-35475532D01*
X96529476Y-35268154D01*
X96443961Y-35082024D01*
X96392620Y-34876526D01*
X96367583Y-34605734D01*
X96367034Y-34578634D01*
X97428456Y-34578634D01*
X97442390Y-34844383D01*
X97513081Y-35093438D01*
X97632813Y-35284998D01*
X97793867Y-35378267D01*
X97832738Y-35381547D01*
X97977029Y-35322534D01*
X98108178Y-35186599D01*
X98211480Y-34933831D01*
X98239897Y-34644354D01*
X98195815Y-34373353D01*
X98081626Y-34176012D01*
X98063748Y-34160243D01*
X97921245Y-34059609D01*
X97832738Y-34020833D01*
X97736939Y-34064009D01*
X97601728Y-34160243D01*
X97478996Y-34336987D01*
X97428456Y-34578634D01*
X96367034Y-34578634D01*
X96361089Y-34285416D01*
X96364886Y-33942447D01*
X96385508Y-33702719D01*
X96432350Y-33518466D01*
X96514806Y-33341922D01*
X96563420Y-33256706D01*
X96786323Y-32945014D01*
X97044989Y-32739863D01*
X97388979Y-32605584D01*
X97510489Y-32575101D01*
X97964882Y-32542648D01*
X98389889Y-32648333D01*
G37*
G36*
X89594879Y-33094791D02*
G01*
X89645846Y-33336197D01*
X89718156Y-33666337D01*
X89804939Y-34055145D01*
X89899324Y-34472557D01*
X89994442Y-34888508D01*
X90083423Y-35272932D01*
X90159398Y-35595766D01*
X90215497Y-35826944D01*
X90242632Y-35929613D01*
X90248024Y-35994992D01*
X90196331Y-36034551D01*
X90060076Y-36054600D01*
X89811781Y-36061447D01*
X89666469Y-36061904D01*
X89358921Y-36058325D01*
X89170276Y-36042580D01*
X89068318Y-36007160D01*
X89020831Y-35944555D01*
X89009486Y-35908752D01*
X88978009Y-35815820D01*
X88923339Y-35797334D01*
X88803268Y-35854264D01*
X88697679Y-35915939D01*
X88526160Y-35998948D01*
X88417427Y-36017394D01*
X88401902Y-36004217D01*
X88340849Y-35888893D01*
X88278404Y-35796111D01*
X88203668Y-35712209D01*
X88160186Y-35750221D01*
X88128499Y-35860986D01*
X88075099Y-35992475D01*
X87970558Y-36049772D01*
X87777131Y-36061904D01*
X87588286Y-36046971D01*
X87483630Y-36009687D01*
X87476190Y-35994893D01*
X87492861Y-35901096D01*
X87538733Y-35688060D01*
X87603738Y-35400596D01*
X88309017Y-35400596D01*
X88354865Y-35447596D01*
X88504013Y-35427107D01*
X88542283Y-35418967D01*
X88722912Y-35374512D01*
X88825766Y-35338469D01*
X88830230Y-35335294D01*
X88829739Y-35250595D01*
X88786471Y-35084009D01*
X88719655Y-34891539D01*
X88648524Y-34729187D01*
X88596627Y-34655054D01*
X88530349Y-34689942D01*
X88450873Y-34839981D01*
X88373045Y-35071752D01*
X88328895Y-35257709D01*
X88309017Y-35400596D01*
X87603738Y-35400596D01*
X87607597Y-35383533D01*
X87693244Y-35015260D01*
X87734195Y-34842066D01*
X87836462Y-34400864D01*
X87934445Y-33958906D01*
X88018233Y-33562158D01*
X88077917Y-33256585D01*
X88086480Y-33208184D01*
X88180761Y-32660119D01*
X88843652Y-32660119D01*
X89506543Y-32660119D01*
X89594879Y-33094791D01*
G37*
G36*
X92674445Y-32660072D02*
G01*
X93072401Y-32660119D01*
X93023412Y-33737351D01*
X93001314Y-34192481D01*
X92976395Y-34656431D01*
X92951566Y-35077625D01*
X92929740Y-35404487D01*
X92927836Y-35429983D01*
X92881250Y-36045383D01*
X92141338Y-35486679D01*
X91851097Y-35271770D01*
X91601883Y-35095173D01*
X91419562Y-34974673D01*
X91330000Y-34928052D01*
X91328689Y-34927976D01*
X91293818Y-34997434D01*
X91268106Y-35181393D01*
X91256252Y-35443228D01*
X91255952Y-35494940D01*
X91255952Y-36061904D01*
X90923642Y-36061904D01*
X90591331Y-36061904D01*
X90546936Y-35476041D01*
X90525598Y-35162100D01*
X90501215Y-34752475D01*
X90476938Y-34302546D01*
X90457714Y-33907440D01*
X90438050Y-33526969D01*
X90416528Y-33193438D01*
X90395594Y-32940143D01*
X90377696Y-32800380D01*
X90375755Y-32792410D01*
X90372716Y-32723608D01*
X90431053Y-32683680D01*
X90579724Y-32665050D01*
X90847687Y-32660146D01*
X90881516Y-32660119D01*
X91424411Y-32660119D01*
X91877633Y-33052751D01*
X92330855Y-33445384D01*
X92303671Y-33052704D01*
X92276488Y-32660025D01*
X92674445Y-32660072D01*
G37*
%TO.C,kibuzzard-649D9B25*%
G36*
X58184101Y-98731616D02*
G01*
X56199726Y-98731616D01*
X54971894Y-98731616D01*
X53602210Y-98731616D01*
X53601813Y-98731616D01*
X53334068Y-98718463D01*
X53068901Y-98679129D01*
X52808867Y-98613994D01*
X52556469Y-98523684D01*
X52314138Y-98409070D01*
X52084209Y-98271256D01*
X51868894Y-98111568D01*
X51670269Y-97931544D01*
X51490245Y-97732919D01*
X51330557Y-97517605D01*
X51192743Y-97287675D01*
X51078129Y-97045344D01*
X50987820Y-96792946D01*
X50946470Y-96627869D01*
X53602210Y-96627869D01*
X53644359Y-96935989D01*
X53770804Y-97204578D01*
X53977478Y-97426948D01*
X54260309Y-97596414D01*
X54598661Y-97703675D01*
X54971894Y-97739429D01*
X55321485Y-97711653D01*
X55619916Y-97628324D01*
X55867188Y-97489444D01*
X56051931Y-97301729D01*
X56162777Y-97071898D01*
X56199726Y-96799951D01*
X56131707Y-96437183D01*
X55927649Y-96139526D01*
X55710350Y-95972353D01*
X55421220Y-95824300D01*
X55060260Y-95695367D01*
X54776266Y-95594211D01*
X54570755Y-95486078D01*
X54404487Y-95209351D01*
X54546338Y-94924484D01*
X54716677Y-94843385D01*
X54943988Y-94816351D01*
X55179439Y-94848617D01*
X55355591Y-94945413D01*
X55465468Y-95100346D01*
X55502094Y-95307019D01*
X56199726Y-95307019D01*
X56160484Y-95018665D01*
X56042759Y-94762866D01*
X55854107Y-94550379D01*
X55602088Y-94391959D01*
X55298618Y-94293418D01*
X54955616Y-94260571D01*
X54612904Y-94290802D01*
X54305655Y-94381494D01*
X54049857Y-94525962D01*
X53861496Y-94717520D01*
X53745515Y-94947448D01*
X53706855Y-95207025D01*
X53770933Y-95534912D01*
X53963170Y-95814740D01*
X54283564Y-96046509D01*
X54532967Y-96161327D01*
X54857947Y-96277890D01*
X55164905Y-96392418D01*
X55360242Y-96501132D01*
X55499769Y-96804602D01*
X55360242Y-97087143D01*
X55193392Y-97163010D01*
X54971894Y-97188300D01*
X54678888Y-97153273D01*
X54469599Y-97048192D01*
X54344025Y-96873057D01*
X54302167Y-96627869D01*
X53602210Y-96627869D01*
X50946470Y-96627869D01*
X50922684Y-96532912D01*
X50883351Y-96267745D01*
X50870197Y-96000000D01*
X50883351Y-95732255D01*
X50922684Y-95467088D01*
X50987820Y-95207054D01*
X51078129Y-94954656D01*
X51192743Y-94712325D01*
X51330557Y-94482395D01*
X51490245Y-94267081D01*
X51670269Y-94068456D01*
X51868894Y-93888432D01*
X52084209Y-93728744D01*
X52314138Y-93590930D01*
X52556469Y-93476316D01*
X52808867Y-93386006D01*
X53068901Y-93320871D01*
X53334068Y-93281537D01*
X53601813Y-93268384D01*
X53602210Y-93268384D01*
X56199726Y-93268384D01*
X58184101Y-93268384D01*
X58184101Y-98731616D01*
G37*
%TO.C,kibuzzard-649E93AB*%
G36*
X90686804Y-74027185D02*
G01*
X89841895Y-73746582D01*
X90686804Y-73462878D01*
X90686804Y-74027185D01*
G37*
G36*
X90674832Y-79477326D02*
G01*
X90853375Y-79519701D01*
X90994537Y-79589636D01*
X91132320Y-79742340D01*
X91178247Y-79949304D01*
X91130576Y-80160144D01*
X90987561Y-80315173D01*
X90843212Y-80385798D01*
X90664411Y-80428172D01*
X90451160Y-80442297D01*
X90341089Y-80442297D01*
X90125340Y-80427311D01*
X89947314Y-80384420D01*
X89807013Y-80313623D01*
X89670393Y-80159756D01*
X89624854Y-79952405D01*
X89670975Y-79743890D01*
X89809338Y-79589636D01*
X89951276Y-79519012D01*
X90131110Y-79476637D01*
X90348840Y-79462512D01*
X90458911Y-79462512D01*
X90674832Y-79477326D01*
G37*
G36*
X92221077Y-71397888D02*
G01*
X92221077Y-74307788D01*
X92221077Y-75568176D01*
X92221077Y-77789746D01*
X92221077Y-79949304D01*
X92221077Y-80913586D01*
X92221077Y-83559420D01*
X90400000Y-84773471D01*
X88578923Y-83559420D01*
X88578923Y-80913586D01*
X88578923Y-79952405D01*
X89240381Y-79952405D01*
X89255453Y-80133531D01*
X89300670Y-80300704D01*
X89376031Y-80453925D01*
X89479557Y-80589145D01*
X89609264Y-80702316D01*
X89765155Y-80793439D01*
X89943008Y-80860187D01*
X90138603Y-80900237D01*
X90351941Y-80913586D01*
X90463562Y-80913586D01*
X90672249Y-80899289D01*
X90864227Y-80858465D01*
X91039496Y-80791113D01*
X91193578Y-80699474D01*
X91321994Y-80585786D01*
X91424744Y-80450049D01*
X91499674Y-80296570D01*
X91544633Y-80129655D01*
X91559619Y-79949304D01*
X91544461Y-79767317D01*
X91498985Y-79599627D01*
X91423193Y-79446234D01*
X91319496Y-79311273D01*
X91190305Y-79198876D01*
X91035620Y-79109045D01*
X90859059Y-79043589D01*
X90664239Y-79004315D01*
X90451160Y-78991223D01*
X90350391Y-78991223D01*
X90137914Y-79004573D01*
X89942836Y-79044622D01*
X89765155Y-79111371D01*
X89609264Y-79202494D01*
X89479557Y-79315665D01*
X89376031Y-79450885D01*
X89300670Y-79604106D01*
X89255453Y-79771279D01*
X89240381Y-79952405D01*
X88578923Y-79952405D01*
X88578923Y-77783545D01*
X89240381Y-77783545D01*
X89255109Y-77963982D01*
X89299292Y-78129088D01*
X89372931Y-78278864D01*
X89534355Y-78467418D01*
X89753528Y-78606750D01*
X89927505Y-78670485D01*
X90118708Y-78708725D01*
X90327136Y-78721472D01*
X90465112Y-78721472D01*
X90706522Y-78705921D01*
X90920705Y-78659267D01*
X91107660Y-78581510D01*
X91267389Y-78472650D01*
X91395240Y-78336660D01*
X91486562Y-78177513D01*
X91541355Y-77995208D01*
X91559619Y-77789746D01*
X91536365Y-77542302D01*
X91466602Y-77329137D01*
X91350330Y-77150250D01*
X91193578Y-77012533D01*
X91002375Y-76922874D01*
X90776721Y-76881274D01*
X90776721Y-77346362D01*
X90955974Y-77384538D01*
X91081354Y-77468060D01*
X91155186Y-77601579D01*
X91179797Y-77789746D01*
X91137552Y-77996516D01*
X91010815Y-78139337D01*
X90876284Y-78200918D01*
X90698001Y-78237867D01*
X90475964Y-78250183D01*
X90305432Y-78250183D01*
X90092267Y-78235628D01*
X89919926Y-78196095D01*
X89788409Y-78131586D01*
X89663417Y-77986827D01*
X89621753Y-77783545D01*
X89646364Y-77596928D01*
X89720197Y-77464960D01*
X89848677Y-77382213D01*
X90037231Y-77343262D01*
X90037231Y-76878174D01*
X89803826Y-76925372D01*
X89607973Y-77017356D01*
X89449670Y-77154126D01*
X89333398Y-77330170D01*
X89263635Y-77539977D01*
X89240381Y-77783545D01*
X88578923Y-77783545D01*
X88578923Y-76715393D01*
X89271387Y-76715393D01*
X89648108Y-76715393D01*
X89648108Y-76033264D01*
X91528613Y-76033264D01*
X91528613Y-75568176D01*
X89648108Y-75568176D01*
X89648108Y-74876746D01*
X89271387Y-74876746D01*
X89271387Y-76715393D01*
X88578923Y-76715393D01*
X88578923Y-73962073D01*
X89271387Y-73962073D01*
X91528613Y-74802332D01*
X91528613Y-74307788D01*
X91063525Y-74152759D01*
X91063525Y-73337305D01*
X91528613Y-73180725D01*
X91528613Y-72686182D01*
X89271387Y-73531091D01*
X89271387Y-73962073D01*
X88578923Y-73962073D01*
X88578923Y-72666028D01*
X89271387Y-72666028D01*
X91528613Y-71883130D01*
X91528613Y-71397888D01*
X89271387Y-70611890D01*
X89271387Y-71129687D01*
X90968958Y-71641284D01*
X89271387Y-72149780D01*
X89271387Y-72666028D01*
X88578923Y-72666028D01*
X88578923Y-70399500D01*
X89271387Y-70399500D01*
X91528613Y-70399500D01*
X91528613Y-68886414D01*
X91154993Y-68886414D01*
X91154993Y-69934412D01*
X90550378Y-69934412D01*
X90550378Y-69041443D01*
X90186060Y-69041443D01*
X90186060Y-69934412D01*
X89648108Y-69934412D01*
X89648108Y-68889514D01*
X89271387Y-68889514D01*
X89271387Y-70399500D01*
X88578923Y-70399500D01*
X88578923Y-68886414D01*
X88578923Y-66240580D01*
X90400000Y-65026529D01*
X92221077Y-66240580D01*
X92221077Y-68886414D01*
X92221077Y-71397888D01*
G37*
%TO.C,kibuzzard-649D9B2C*%
G36*
X55066558Y-117306462D02*
G01*
X55238932Y-117409363D01*
X55340960Y-117572144D01*
X55374970Y-117786084D01*
X55338926Y-117995664D01*
X55230793Y-118154666D01*
X55056966Y-118254951D01*
X54823841Y-118288379D01*
X54261084Y-118288379D01*
X54261084Y-117272162D01*
X54821515Y-117272162D01*
X55066558Y-117306462D01*
G37*
G36*
X58184876Y-121085107D02*
G01*
X56200501Y-121085107D01*
X54261084Y-121085107D01*
X53563452Y-121085107D01*
X53563056Y-121085107D01*
X53299869Y-121072178D01*
X53039217Y-121033514D01*
X52783610Y-120969488D01*
X52535509Y-120880716D01*
X52297305Y-120768053D01*
X52071290Y-120632585D01*
X51859641Y-120475616D01*
X51664398Y-120298658D01*
X51487439Y-120103414D01*
X51330470Y-119891766D01*
X51195002Y-119665751D01*
X51082340Y-119427546D01*
X50993568Y-119179446D01*
X50929542Y-118923838D01*
X50890878Y-118663187D01*
X50877948Y-118400000D01*
X50890878Y-118136813D01*
X50929542Y-117876162D01*
X50993568Y-117620554D01*
X51082340Y-117372454D01*
X51195002Y-117134249D01*
X51330470Y-116908234D01*
X51479656Y-116707080D01*
X53563452Y-116707080D01*
X53563452Y-120092920D01*
X54261084Y-120092920D01*
X54261084Y-118853461D01*
X54816864Y-118853461D01*
X55451709Y-120092920D01*
X56200501Y-120092920D01*
X56200501Y-120060364D01*
X55467987Y-118676727D01*
X55733960Y-118515981D01*
X55922611Y-118308145D01*
X56035104Y-118047987D01*
X56072602Y-117730273D01*
X56036428Y-117429258D01*
X55927908Y-117177336D01*
X55747040Y-116974506D01*
X55499510Y-116825936D01*
X55191002Y-116736794D01*
X54821515Y-116707080D01*
X53563452Y-116707080D01*
X51479656Y-116707080D01*
X51487439Y-116696586D01*
X51664398Y-116501342D01*
X51859641Y-116324384D01*
X52071290Y-116167415D01*
X52297305Y-116031947D01*
X52535509Y-115919284D01*
X52783610Y-115830512D01*
X53039217Y-115766486D01*
X53299869Y-115727822D01*
X53563056Y-115714893D01*
X53563452Y-115714893D01*
X56200501Y-115714893D01*
X58184876Y-115714893D01*
X58184876Y-121085107D01*
G37*
%TO.C,kibuzzard-649D9B6F*%
G36*
X126302605Y-117506462D02*
G01*
X126474979Y-117609363D01*
X126577007Y-117772144D01*
X126611017Y-117986084D01*
X126574972Y-118195664D01*
X126466839Y-118354666D01*
X126293013Y-118454951D01*
X126059888Y-118488379D01*
X125497131Y-118488379D01*
X125497131Y-117472162D01*
X126057562Y-117472162D01*
X126302605Y-117506462D01*
G37*
G36*
X127700131Y-115927822D02*
G01*
X127960783Y-115966486D01*
X128216390Y-116030513D01*
X128464491Y-116119284D01*
X128702695Y-116231947D01*
X128928710Y-116367415D01*
X129140358Y-116524384D01*
X129335602Y-116701342D01*
X129512560Y-116896586D01*
X129669529Y-117108234D01*
X129804998Y-117334249D01*
X129917660Y-117572454D01*
X130006432Y-117820555D01*
X130070458Y-118076162D01*
X130109122Y-118336813D01*
X130122052Y-118600000D01*
X130109122Y-118863187D01*
X130070458Y-119123838D01*
X130006432Y-119379445D01*
X129917660Y-119627546D01*
X129804998Y-119865751D01*
X129669529Y-120091766D01*
X129512560Y-120303414D01*
X129335602Y-120498658D01*
X129140358Y-120675616D01*
X128928710Y-120832585D01*
X128702695Y-120968053D01*
X128464491Y-121080716D01*
X128216390Y-121169487D01*
X127960783Y-121233514D01*
X127700131Y-121272178D01*
X127436945Y-121285107D01*
X127436548Y-121285107D01*
X125497131Y-121285107D01*
X124799499Y-121285107D01*
X122815124Y-121285107D01*
X122815124Y-116907080D01*
X124799499Y-116907080D01*
X124799499Y-120292920D01*
X125497131Y-120292920D01*
X125497131Y-119053461D01*
X126052911Y-119053461D01*
X126687756Y-120292920D01*
X127436548Y-120292920D01*
X127436548Y-120260364D01*
X126704034Y-118876727D01*
X126970006Y-118715981D01*
X127158658Y-118508145D01*
X127271151Y-118247987D01*
X127308649Y-117930273D01*
X127272475Y-117629258D01*
X127163955Y-117377336D01*
X126983087Y-117174506D01*
X126735557Y-117025936D01*
X126427049Y-116936794D01*
X126057562Y-116907080D01*
X124799499Y-116907080D01*
X122815124Y-116907080D01*
X122815124Y-115914893D01*
X124799499Y-115914893D01*
X127436548Y-115914893D01*
X127436945Y-115914893D01*
X127700131Y-115927822D01*
G37*
%TO.C,kibuzzard-649DB643*%
G36*
X79267725Y-149870975D02*
G01*
X79421979Y-150009338D01*
X79492604Y-150151276D01*
X79534979Y-150331110D01*
X79549103Y-150548840D01*
X79549103Y-150658911D01*
X79534290Y-150874832D01*
X79491915Y-151053375D01*
X79421979Y-151194537D01*
X79269276Y-151332320D01*
X79062311Y-151378247D01*
X78851472Y-151330576D01*
X78696442Y-151187561D01*
X78625818Y-151043212D01*
X78583443Y-150864411D01*
X78569318Y-150651160D01*
X78569318Y-150541089D01*
X78584304Y-150325340D01*
X78627196Y-150147314D01*
X78697993Y-150007013D01*
X78851859Y-149870393D01*
X79059211Y-149824854D01*
X79267725Y-149870975D01*
G37*
G36*
X92084772Y-152421077D02*
G01*
X84147272Y-152421077D01*
X83455842Y-152421077D01*
X81201716Y-152421077D01*
X79062311Y-152421077D01*
X78098029Y-152421077D01*
X74129279Y-152421077D01*
X72957603Y-150663562D01*
X78098029Y-150663562D01*
X78112326Y-150872249D01*
X78153151Y-151064227D01*
X78220502Y-151239496D01*
X78312142Y-151393578D01*
X78425830Y-151521994D01*
X78561567Y-151624744D01*
X78715046Y-151699674D01*
X78881961Y-151744633D01*
X79062311Y-151759619D01*
X79244299Y-151744461D01*
X79411989Y-151698985D01*
X79565382Y-151623193D01*
X79700343Y-151519496D01*
X79812739Y-151390305D01*
X79902570Y-151235620D01*
X79968027Y-151059059D01*
X80007301Y-150864239D01*
X80020393Y-150651160D01*
X80020393Y-150550391D01*
X80007043Y-150337914D01*
X79966994Y-150142836D01*
X79900245Y-149965155D01*
X79809122Y-149809264D01*
X79695951Y-149679557D01*
X79560731Y-149576031D01*
X79407510Y-149500670D01*
X79299247Y-149471387D01*
X80336652Y-149471387D01*
X80336652Y-150975171D01*
X80365074Y-151201686D01*
X80444139Y-151393405D01*
X80573847Y-151550330D01*
X80746963Y-151666602D01*
X80956253Y-151736365D01*
X81201716Y-151759619D01*
X81450538Y-151735676D01*
X81661636Y-151663845D01*
X81835010Y-151544128D01*
X81963771Y-151383242D01*
X82041027Y-151187906D01*
X82066779Y-150958118D01*
X82066779Y-149471387D01*
X82308625Y-149471387D01*
X82308625Y-149848108D01*
X82990754Y-149848108D01*
X82990754Y-151728613D01*
X83455842Y-151728613D01*
X83455842Y-149848108D01*
X84147272Y-149848108D01*
X84147272Y-149471387D01*
X82308625Y-149471387D01*
X82066779Y-149471387D01*
X81600141Y-149471387D01*
X81600141Y-150973621D01*
X81572914Y-151154036D01*
X81497434Y-151282904D01*
X81373701Y-151360225D01*
X81201716Y-151385999D01*
X81034478Y-151360612D01*
X80907935Y-151284454D01*
X80828289Y-151152873D01*
X80801740Y-150961218D01*
X80801740Y-149471387D01*
X80336652Y-149471387D01*
X79299247Y-149471387D01*
X79240337Y-149455453D01*
X79059211Y-149440381D01*
X78878085Y-149455453D01*
X78710912Y-149500670D01*
X78557691Y-149576031D01*
X78422471Y-149679557D01*
X78309300Y-149809264D01*
X78218177Y-149965155D01*
X78151428Y-150143008D01*
X78111379Y-150338603D01*
X78098029Y-150551941D01*
X78098029Y-150663562D01*
X72957603Y-150663562D01*
X72915228Y-150600000D01*
X74129279Y-148778923D01*
X78098029Y-148778923D01*
X84147272Y-148778923D01*
X92084772Y-148778923D01*
X92084772Y-152421077D01*
G37*
%TO.C,kibuzzard-649D9A54*%
G36*
X62765987Y-152421077D02*
G01*
X62104529Y-152421077D01*
X61318530Y-152421077D01*
X59027197Y-152421077D01*
X58095471Y-152421077D01*
X57434013Y-152421077D01*
X57434013Y-150665112D01*
X58095471Y-150665112D01*
X58111023Y-150906522D01*
X58157677Y-151120705D01*
X58235434Y-151307660D01*
X58344293Y-151467389D01*
X58480283Y-151595240D01*
X58639430Y-151686562D01*
X58821735Y-151741355D01*
X59027197Y-151759619D01*
X59274641Y-151736365D01*
X59487807Y-151666602D01*
X59666693Y-151550330D01*
X59804411Y-151393578D01*
X59894069Y-151202375D01*
X59935669Y-150976721D01*
X59470581Y-150976721D01*
X59432405Y-151155974D01*
X59348883Y-151281354D01*
X59215364Y-151355186D01*
X59027197Y-151379797D01*
X58820427Y-151337552D01*
X58677606Y-151210815D01*
X58616025Y-151076284D01*
X58579076Y-150898001D01*
X58566760Y-150675964D01*
X58566760Y-150505432D01*
X58581316Y-150292267D01*
X58620848Y-150119926D01*
X58685358Y-149988409D01*
X58830116Y-149863417D01*
X59033398Y-149821753D01*
X59220015Y-149846364D01*
X59351984Y-149920197D01*
X59434731Y-150048677D01*
X59473682Y-150237231D01*
X59938770Y-150237231D01*
X59891572Y-150003826D01*
X59799588Y-149807973D01*
X59662817Y-149649670D01*
X59486773Y-149533398D01*
X59300280Y-149471387D01*
X60050391Y-149471387D01*
X60833289Y-151728613D01*
X61318530Y-151728613D01*
X62104529Y-149471387D01*
X61586731Y-149471387D01*
X61075134Y-151168958D01*
X60566638Y-149471387D01*
X60050391Y-149471387D01*
X59300280Y-149471387D01*
X59276967Y-149463635D01*
X59033398Y-149440381D01*
X58852962Y-149455109D01*
X58687855Y-149499292D01*
X58538080Y-149572931D01*
X58349525Y-149734355D01*
X58210193Y-149953528D01*
X58146459Y-150127505D01*
X58108218Y-150318708D01*
X58095471Y-150527136D01*
X58095471Y-150665112D01*
X57434013Y-150665112D01*
X57434013Y-148778923D01*
X58095471Y-148778923D01*
X62104529Y-148778923D01*
X62765987Y-148778923D01*
X62765987Y-152421077D01*
G37*
%TO.C,kibuzzard-649D9A6F*%
G36*
X98142836Y-150886804D02*
G01*
X97578529Y-150886804D01*
X97859132Y-150041895D01*
X98142836Y-150886804D01*
G37*
G36*
X107716067Y-150600000D02*
G01*
X106502016Y-152421077D01*
X104517641Y-152421077D01*
X103699086Y-152421077D01*
X102607680Y-152421077D01*
X100138063Y-152421077D01*
X97297926Y-152421077D01*
X95753834Y-152421077D01*
X94775600Y-152421077D01*
X89483933Y-152421077D01*
X89483933Y-150688367D01*
X94775600Y-150688367D01*
X94790672Y-150898001D01*
X94831755Y-151088687D01*
X94898848Y-151260425D01*
X95044188Y-151474947D01*
X95239912Y-151631720D01*
X95395200Y-151702775D01*
X95566507Y-151745408D01*
X95753834Y-151759619D01*
X96020485Y-151738884D01*
X96060417Y-151728613D01*
X96803383Y-151728613D01*
X97297926Y-151728613D01*
X97452955Y-151263525D01*
X98268410Y-151263525D01*
X98424989Y-151728613D01*
X98919533Y-151728613D01*
X98074623Y-149471387D01*
X98990846Y-149471387D01*
X98990846Y-149848108D01*
X99672975Y-149848108D01*
X99672975Y-151728613D01*
X100138063Y-151728613D01*
X100138063Y-149848108D01*
X100829494Y-149848108D01*
X100829494Y-149471387D01*
X101094594Y-149471387D01*
X101094594Y-151728613D01*
X102607680Y-151728613D01*
X102607680Y-151354993D01*
X101559682Y-151354993D01*
X101559682Y-151018579D01*
X102785963Y-151018579D01*
X102814062Y-151223993D01*
X102898360Y-151403052D01*
X103036142Y-151551299D01*
X103224696Y-151664276D01*
X103450264Y-151735783D01*
X103699086Y-151759619D01*
X103932147Y-151741102D01*
X104131101Y-151685550D01*
X104295949Y-151592963D01*
X104419111Y-151467820D01*
X104493008Y-151314599D01*
X104517641Y-151133301D01*
X104472294Y-150891455D01*
X104336256Y-150693018D01*
X104191390Y-150581569D01*
X103998637Y-150482867D01*
X103757997Y-150396912D01*
X103568667Y-150329474D01*
X103431660Y-150257385D01*
X103320814Y-150072900D01*
X103415382Y-149882990D01*
X103528941Y-149828923D01*
X103680482Y-149810901D01*
X103837449Y-149832411D01*
X103954884Y-149896942D01*
X104028136Y-150000230D01*
X104052553Y-150138013D01*
X104517641Y-150138013D01*
X104491479Y-149945776D01*
X104412996Y-149775244D01*
X104287228Y-149633586D01*
X104119215Y-149527972D01*
X103916902Y-149462279D01*
X103688234Y-149440381D01*
X103459759Y-149460535D01*
X103254927Y-149520996D01*
X103084395Y-149617308D01*
X102958821Y-149745013D01*
X102881500Y-149898299D01*
X102855726Y-150071350D01*
X102898446Y-150289941D01*
X103026603Y-150476493D01*
X103240199Y-150631006D01*
X103406468Y-150707552D01*
X103623121Y-150785260D01*
X103827760Y-150861612D01*
X103957985Y-150934088D01*
X104051002Y-151136401D01*
X103957985Y-151324762D01*
X103846751Y-151375340D01*
X103699086Y-151392200D01*
X103503749Y-151368848D01*
X103364223Y-151298795D01*
X103280507Y-151182038D01*
X103252601Y-151018579D01*
X102785963Y-151018579D01*
X101559682Y-151018579D01*
X101559682Y-150750378D01*
X102452650Y-150750378D01*
X102452650Y-150386060D01*
X101559682Y-150386060D01*
X101559682Y-149848108D01*
X102604579Y-149848108D01*
X102604579Y-149471387D01*
X101094594Y-149471387D01*
X100829494Y-149471387D01*
X98990846Y-149471387D01*
X98074623Y-149471387D01*
X97643641Y-149471387D01*
X96803383Y-151728613D01*
X96060417Y-151728613D01*
X96262330Y-151676678D01*
X96465806Y-151576878D01*
X96617348Y-151443359D01*
X96617348Y-150542639D01*
X95729030Y-150542639D01*
X95729030Y-150885254D01*
X96152260Y-150885254D01*
X96152260Y-151274377D01*
X96003044Y-151358093D01*
X95778639Y-151385999D01*
X95549583Y-151340652D01*
X95383314Y-151204614D01*
X95308384Y-151064399D01*
X95263425Y-150885598D01*
X95248439Y-150668213D01*
X95248439Y-150524036D01*
X95263081Y-150308717D01*
X95304938Y-150131984D01*
X95374013Y-149993835D01*
X95526329Y-149860123D01*
X95735231Y-149815552D01*
X95901306Y-149838031D01*
X96027461Y-149905469D01*
X96114859Y-150021353D01*
X96164662Y-150189172D01*
X96617348Y-150189172D01*
X96568944Y-149964638D01*
X96479544Y-149778861D01*
X96349147Y-149631842D01*
X96178787Y-149525475D01*
X95969497Y-149461654D01*
X95721278Y-149440381D01*
X95537224Y-149454936D01*
X95369534Y-149498603D01*
X95218208Y-149571381D01*
X95028685Y-149731448D01*
X94889546Y-149949652D01*
X94826242Y-150124577D01*
X94788260Y-150319655D01*
X94775600Y-150534888D01*
X94775600Y-150688367D01*
X89483933Y-150688367D01*
X89483933Y-148778923D01*
X94775600Y-148778923D01*
X104517641Y-148778923D01*
X106502016Y-148778923D01*
X107716067Y-150600000D01*
G37*
%TO.C,kibuzzard-649D9A54*%
G36*
X118315987Y-152371077D02*
G01*
X117654529Y-152371077D01*
X116868530Y-152371077D01*
X114577197Y-152371077D01*
X113645471Y-152371077D01*
X112984013Y-152371077D01*
X112984013Y-150615112D01*
X113645471Y-150615112D01*
X113661023Y-150856522D01*
X113707677Y-151070705D01*
X113785434Y-151257660D01*
X113894293Y-151417389D01*
X114030283Y-151545240D01*
X114189430Y-151636562D01*
X114371735Y-151691355D01*
X114577197Y-151709619D01*
X114824641Y-151686365D01*
X115037807Y-151616602D01*
X115216693Y-151500330D01*
X115354411Y-151343578D01*
X115444069Y-151152375D01*
X115485669Y-150926721D01*
X115020581Y-150926721D01*
X114982405Y-151105974D01*
X114898883Y-151231354D01*
X114765364Y-151305186D01*
X114577197Y-151329797D01*
X114370427Y-151287552D01*
X114227606Y-151160815D01*
X114166025Y-151026284D01*
X114129076Y-150848001D01*
X114116760Y-150625964D01*
X114116760Y-150455432D01*
X114131316Y-150242267D01*
X114170848Y-150069926D01*
X114235358Y-149938409D01*
X114380116Y-149813417D01*
X114583398Y-149771753D01*
X114770015Y-149796364D01*
X114901984Y-149870197D01*
X114984731Y-149998677D01*
X115023682Y-150187231D01*
X115488770Y-150187231D01*
X115441572Y-149953826D01*
X115349588Y-149757973D01*
X115212817Y-149599670D01*
X115036773Y-149483398D01*
X114850280Y-149421387D01*
X115600391Y-149421387D01*
X116383289Y-151678613D01*
X116868530Y-151678613D01*
X117654529Y-149421387D01*
X117136731Y-149421387D01*
X116625134Y-151118958D01*
X116116638Y-149421387D01*
X115600391Y-149421387D01*
X114850280Y-149421387D01*
X114826967Y-149413635D01*
X114583398Y-149390381D01*
X114402962Y-149405109D01*
X114237855Y-149449292D01*
X114088080Y-149522931D01*
X113899525Y-149684355D01*
X113760193Y-149903528D01*
X113696459Y-150077505D01*
X113658218Y-150268708D01*
X113645471Y-150477136D01*
X113645471Y-150615112D01*
X112984013Y-150615112D01*
X112984013Y-148728923D01*
X113645471Y-148728923D01*
X117654529Y-148728923D01*
X118315987Y-148728923D01*
X118315987Y-152371077D01*
G37*
%TO.C,kibuzzard-649D9B1E*%
G36*
X54967437Y-72238728D02*
G01*
X55230793Y-72438425D01*
X55349648Y-72643709D01*
X55420962Y-72904546D01*
X55444733Y-73220935D01*
X55444733Y-73399994D01*
X55418120Y-73706177D01*
X55344481Y-73961200D01*
X55223816Y-74165063D01*
X54959298Y-74365633D01*
X54598273Y-74432489D01*
X54261084Y-74432489D01*
X54261084Y-72172162D01*
X54605249Y-72172162D01*
X54967437Y-72238728D01*
G37*
G36*
X58136042Y-75985107D02*
G01*
X56151667Y-75985107D01*
X53563453Y-75985107D01*
X53563056Y-75985107D01*
X53299869Y-75972178D01*
X53039217Y-75933514D01*
X52783610Y-75869488D01*
X52535510Y-75780716D01*
X52297305Y-75668053D01*
X52071290Y-75532585D01*
X51859642Y-75375616D01*
X51664398Y-75198658D01*
X51487440Y-75003414D01*
X51330470Y-74791766D01*
X51195002Y-74565751D01*
X51082340Y-74327546D01*
X50993568Y-74079446D01*
X50929542Y-73823838D01*
X50890878Y-73563187D01*
X50877948Y-73300000D01*
X50890878Y-73036813D01*
X50929542Y-72776162D01*
X50993568Y-72520554D01*
X51082340Y-72272454D01*
X51195002Y-72034249D01*
X51330470Y-71808234D01*
X51479657Y-71607080D01*
X53563453Y-71607080D01*
X53563453Y-74992920D01*
X54612226Y-74992920D01*
X54898255Y-74969149D01*
X55164130Y-74900936D01*
X55409852Y-74788281D01*
X55627797Y-74635061D01*
X55810344Y-74445150D01*
X55957493Y-74218549D01*
X56065367Y-73961975D01*
X56130092Y-73682147D01*
X56151667Y-73379065D01*
X56151667Y-73223260D01*
X56129704Y-72919791D01*
X56063817Y-72638800D01*
X55954004Y-72380289D01*
X55805047Y-72151879D01*
X55621725Y-71961193D01*
X55404038Y-71808231D01*
X55158704Y-71696480D01*
X54892441Y-71629430D01*
X54605249Y-71607080D01*
X53563453Y-71607080D01*
X51479657Y-71607080D01*
X51487440Y-71596586D01*
X51664398Y-71401342D01*
X51859642Y-71224384D01*
X52071290Y-71067415D01*
X52297305Y-70931947D01*
X52535510Y-70819284D01*
X52783610Y-70730512D01*
X53039217Y-70666486D01*
X53299869Y-70627822D01*
X53563056Y-70614893D01*
X53563453Y-70614893D01*
X56151667Y-70614893D01*
X58136042Y-70614893D01*
X58136042Y-75985107D01*
G37*
%TO.C,kibuzzard-649D9B68*%
G36*
X127686086Y-93181537D02*
G01*
X127951253Y-93220871D01*
X128211287Y-93286006D01*
X128463685Y-93376316D01*
X128706016Y-93490930D01*
X128935945Y-93628744D01*
X129151260Y-93788432D01*
X129349885Y-93968456D01*
X129529909Y-94167081D01*
X129689597Y-94382395D01*
X129827411Y-94612325D01*
X129942025Y-94854656D01*
X130032335Y-95107054D01*
X130097470Y-95367088D01*
X130136803Y-95632255D01*
X130149957Y-95900000D01*
X130136803Y-96167745D01*
X130097470Y-96432912D01*
X130032335Y-96692946D01*
X129942025Y-96945344D01*
X129827411Y-97187675D01*
X129689597Y-97417605D01*
X129529909Y-97632919D01*
X129349885Y-97831544D01*
X129151260Y-98011568D01*
X128935945Y-98171256D01*
X128706016Y-98309070D01*
X128463685Y-98423684D01*
X128211287Y-98513994D01*
X127951253Y-98579129D01*
X127686086Y-98618463D01*
X127418341Y-98631616D01*
X127417944Y-98631616D01*
X126190112Y-98631616D01*
X124820428Y-98631616D01*
X122836053Y-98631616D01*
X122836053Y-96527869D01*
X124820428Y-96527869D01*
X124862577Y-96835989D01*
X124989022Y-97104578D01*
X125195696Y-97326948D01*
X125478527Y-97496414D01*
X125816879Y-97603675D01*
X126190112Y-97639429D01*
X126539703Y-97611653D01*
X126838134Y-97528324D01*
X127085406Y-97389444D01*
X127270149Y-97201729D01*
X127380995Y-96971898D01*
X127417944Y-96699951D01*
X127349925Y-96337183D01*
X127145867Y-96039526D01*
X126928568Y-95872353D01*
X126639438Y-95724300D01*
X126278479Y-95595367D01*
X125994484Y-95494211D01*
X125788974Y-95386078D01*
X125622705Y-95109351D01*
X125764556Y-94824484D01*
X125934895Y-94743385D01*
X126162207Y-94716351D01*
X126397657Y-94748617D01*
X126573809Y-94845413D01*
X126683686Y-95000346D01*
X126720312Y-95207019D01*
X127417944Y-95207019D01*
X127378702Y-94918665D01*
X127260977Y-94662866D01*
X127072325Y-94450379D01*
X126820306Y-94291959D01*
X126516836Y-94193418D01*
X126173834Y-94160571D01*
X125831122Y-94190802D01*
X125523873Y-94281494D01*
X125268075Y-94425962D01*
X125079715Y-94617520D01*
X124963733Y-94847448D01*
X124925073Y-95107025D01*
X124989152Y-95434912D01*
X125181388Y-95714740D01*
X125501782Y-95946509D01*
X125751185Y-96061327D01*
X126076165Y-96177890D01*
X126383123Y-96292418D01*
X126578460Y-96401132D01*
X126717987Y-96704602D01*
X126578460Y-96987143D01*
X126411610Y-97063010D01*
X126190112Y-97088300D01*
X125897106Y-97053273D01*
X125687817Y-96948192D01*
X125562243Y-96773057D01*
X125520385Y-96527869D01*
X124820428Y-96527869D01*
X122836053Y-96527869D01*
X122836053Y-93168384D01*
X124820428Y-93168384D01*
X127417944Y-93168384D01*
X127418341Y-93168384D01*
X127686086Y-93181537D01*
G37*
%TO.C,kibuzzard-646BA165*%
G36*
X89492310Y-50786804D02*
G01*
X88928003Y-50786804D01*
X89208606Y-49941895D01*
X89492310Y-50786804D01*
G37*
G36*
X94194348Y-50682762D02*
G01*
X94301318Y-50787665D01*
X94336975Y-50960437D01*
X94244733Y-51176703D01*
X94134468Y-51235420D01*
X93988159Y-51254993D01*
X93589734Y-51254993D01*
X93589734Y-50645728D01*
X94016064Y-50645728D01*
X94194348Y-50682762D01*
G37*
G36*
X94081758Y-49764967D02*
G01*
X94196674Y-49815546D01*
X94263530Y-49904494D01*
X94285815Y-50036462D01*
X94246714Y-50189597D01*
X94129408Y-50283131D01*
X93933899Y-50317065D01*
X93589734Y-50317065D01*
X93589734Y-49748108D01*
X93915295Y-49748108D01*
X94081758Y-49764967D01*
G37*
G36*
X101307781Y-50500000D02*
G01*
X100093730Y-52321077D01*
X94802063Y-52321077D01*
X93124646Y-52321077D01*
X92693665Y-52321077D01*
X91932471Y-52321077D01*
X88647400Y-52321077D01*
X87129663Y-52321077D01*
X86197937Y-52321077D01*
X80906270Y-52321077D01*
X79735627Y-50565112D01*
X86197937Y-50565112D01*
X86213488Y-50806522D01*
X86260143Y-51020705D01*
X86337899Y-51207660D01*
X86446759Y-51367389D01*
X86582749Y-51495240D01*
X86741896Y-51586562D01*
X86924201Y-51641355D01*
X87129663Y-51659619D01*
X87377107Y-51636365D01*
X87400794Y-51628613D01*
X88152856Y-51628613D01*
X88647400Y-51628613D01*
X88802429Y-51163525D01*
X89617883Y-51163525D01*
X89774463Y-51628613D01*
X90269006Y-51628613D01*
X89424097Y-49371387D01*
X90479846Y-49371387D01*
X90479846Y-51628613D01*
X91932471Y-51628613D01*
X91932471Y-51254993D01*
X90944934Y-51254993D01*
X90944934Y-49371387D01*
X92228577Y-49371387D01*
X92228577Y-51628613D01*
X92693665Y-51628613D01*
X92693665Y-49371387D01*
X93124646Y-49371387D01*
X93124646Y-51628613D01*
X94002112Y-51628613D01*
X94238790Y-51608287D01*
X94436194Y-51551443D01*
X94594324Y-51458081D01*
X94709734Y-51328890D01*
X94778981Y-51164559D01*
X94802063Y-50965088D01*
X94777065Y-50789130D01*
X94702069Y-50642627D01*
X94583665Y-50532944D01*
X94428442Y-50467444D01*
X94563705Y-50391673D01*
X94665637Y-50282184D01*
X94729587Y-50145952D01*
X94750903Y-49989954D01*
X94727304Y-49803660D01*
X94656508Y-49649923D01*
X94538513Y-49528741D01*
X94374871Y-49441322D01*
X94167132Y-49388871D01*
X93915295Y-49371387D01*
X93124646Y-49371387D01*
X92693665Y-49371387D01*
X92228577Y-49371387D01*
X90944934Y-49371387D01*
X90479846Y-49371387D01*
X89424097Y-49371387D01*
X88993115Y-49371387D01*
X88152856Y-51628613D01*
X87400794Y-51628613D01*
X87590272Y-51566602D01*
X87769159Y-51450330D01*
X87906877Y-51293578D01*
X87996535Y-51102375D01*
X88038135Y-50876721D01*
X87573047Y-50876721D01*
X87534871Y-51055974D01*
X87451349Y-51181354D01*
X87317830Y-51255186D01*
X87129663Y-51279797D01*
X86922893Y-51237552D01*
X86780072Y-51110815D01*
X86718491Y-50976284D01*
X86681542Y-50798001D01*
X86669226Y-50575964D01*
X86669226Y-50405432D01*
X86683782Y-50192267D01*
X86723314Y-50019926D01*
X86787823Y-49888409D01*
X86932582Y-49763417D01*
X87135864Y-49721753D01*
X87322481Y-49746364D01*
X87454449Y-49820197D01*
X87537196Y-49948677D01*
X87576147Y-50137231D01*
X88041235Y-50137231D01*
X87994038Y-49903826D01*
X87902053Y-49707973D01*
X87765283Y-49549670D01*
X87589239Y-49433398D01*
X87379433Y-49363635D01*
X87135864Y-49340381D01*
X86955427Y-49355109D01*
X86790321Y-49399292D01*
X86640546Y-49472931D01*
X86451991Y-49634355D01*
X86312659Y-49853528D01*
X86248924Y-50027505D01*
X86210684Y-50218708D01*
X86197937Y-50427136D01*
X86197937Y-50565112D01*
X79735627Y-50565112D01*
X79692219Y-50500000D01*
X80906270Y-48678923D01*
X86197937Y-48678923D01*
X94802063Y-48678923D01*
X100093730Y-48678923D01*
X101307781Y-50500000D01*
G37*
%TO.C,kibuzzard-649D9B19*%
G36*
X55572632Y-51130206D02*
G01*
X54726172Y-51130206D01*
X55147076Y-49862842D01*
X55572632Y-51130206D01*
G37*
G36*
X58722052Y-53385107D02*
G01*
X56737677Y-53385107D01*
X54305267Y-53385107D01*
X53563452Y-53385107D01*
X53563055Y-53385107D01*
X53299869Y-53372178D01*
X53039217Y-53333514D01*
X52783610Y-53269488D01*
X52535509Y-53180716D01*
X52297304Y-53068053D01*
X52071290Y-52932585D01*
X51859641Y-52775616D01*
X51664398Y-52598658D01*
X51487439Y-52403414D01*
X51479656Y-52392920D01*
X53563452Y-52392920D01*
X54305267Y-52392920D01*
X54537811Y-51695288D01*
X55760993Y-51695288D01*
X55995862Y-52392920D01*
X56737677Y-52392920D01*
X55470313Y-49007080D01*
X54823840Y-49007080D01*
X53563452Y-52392920D01*
X51479656Y-52392920D01*
X51330470Y-52191766D01*
X51195002Y-51965751D01*
X51082340Y-51727546D01*
X50993568Y-51479446D01*
X50929542Y-51223838D01*
X50890877Y-50963187D01*
X50877948Y-50700000D01*
X50890877Y-50436813D01*
X50929542Y-50176162D01*
X50993568Y-49920554D01*
X51082340Y-49672454D01*
X51195002Y-49434249D01*
X51330470Y-49208234D01*
X51487439Y-48996586D01*
X51664398Y-48801342D01*
X51859641Y-48624384D01*
X52071290Y-48467415D01*
X52297304Y-48331947D01*
X52535509Y-48219284D01*
X52783610Y-48130512D01*
X53039217Y-48066486D01*
X53299869Y-48027822D01*
X53563055Y-48014893D01*
X53563452Y-48014893D01*
X56737677Y-48014893D01*
X58722052Y-48014893D01*
X58722052Y-53385107D01*
G37*
%TO.C,kibuzzard-649D9B57*%
G36*
X126271503Y-51330206D02*
G01*
X125425043Y-51330206D01*
X125845947Y-50062842D01*
X126271503Y-51330206D01*
G37*
G36*
X127700131Y-48227822D02*
G01*
X127960783Y-48266486D01*
X128216390Y-48330513D01*
X128464491Y-48419284D01*
X128702696Y-48531947D01*
X128928710Y-48667415D01*
X129140359Y-48824384D01*
X129335602Y-49001342D01*
X129512561Y-49196586D01*
X129669530Y-49408234D01*
X129804998Y-49634249D01*
X129917660Y-49872454D01*
X130006432Y-50120555D01*
X130070458Y-50376162D01*
X130109122Y-50636813D01*
X130122052Y-50900000D01*
X130109122Y-51163187D01*
X130070458Y-51423838D01*
X130006432Y-51679445D01*
X129917660Y-51927546D01*
X129804998Y-52165751D01*
X129669530Y-52391766D01*
X129512561Y-52603414D01*
X129335602Y-52798658D01*
X129140359Y-52975616D01*
X128928710Y-53132585D01*
X128702696Y-53268053D01*
X128464491Y-53380716D01*
X128216390Y-53469487D01*
X127960783Y-53533514D01*
X127700131Y-53572178D01*
X127436945Y-53585107D01*
X127436548Y-53585107D01*
X125004138Y-53585107D01*
X124262323Y-53585107D01*
X122277948Y-53585107D01*
X122277948Y-52592920D01*
X124262323Y-52592920D01*
X125004138Y-52592920D01*
X125236682Y-51895288D01*
X126459863Y-51895288D01*
X126694733Y-52592920D01*
X127436548Y-52592920D01*
X126169183Y-49207080D01*
X125522711Y-49207080D01*
X124262323Y-52592920D01*
X122277948Y-52592920D01*
X122277948Y-48214893D01*
X124262323Y-48214893D01*
X127436548Y-48214893D01*
X127436945Y-48214893D01*
X127700131Y-48227822D01*
G37*
%TO.C,kibuzzard-649D9B5F*%
G36*
X126252318Y-72538728D02*
G01*
X126515674Y-72738425D01*
X126634529Y-72943709D01*
X126705843Y-73204546D01*
X126729614Y-73520935D01*
X126729614Y-73699994D01*
X126703001Y-74006177D01*
X126629362Y-74261200D01*
X126508697Y-74465063D01*
X126244179Y-74665633D01*
X125883154Y-74732489D01*
X125545965Y-74732489D01*
X125545965Y-72472162D01*
X125890130Y-72472162D01*
X126252318Y-72538728D01*
G37*
G36*
X127700131Y-70927822D02*
G01*
X127960783Y-70966486D01*
X128216390Y-71030513D01*
X128464490Y-71119284D01*
X128702695Y-71231947D01*
X128928710Y-71367415D01*
X129140358Y-71524384D01*
X129335602Y-71701342D01*
X129512560Y-71896586D01*
X129669529Y-72108234D01*
X129804997Y-72334249D01*
X129917660Y-72572454D01*
X130006432Y-72820555D01*
X130070458Y-73076162D01*
X130109122Y-73336813D01*
X130122051Y-73600000D01*
X130109122Y-73863187D01*
X130070458Y-74123838D01*
X130006432Y-74379445D01*
X129917660Y-74627546D01*
X129804997Y-74865751D01*
X129669529Y-75091766D01*
X129512560Y-75303414D01*
X129335602Y-75498658D01*
X129140358Y-75675616D01*
X128928710Y-75832585D01*
X128702695Y-75968053D01*
X128464490Y-76080716D01*
X128216390Y-76169487D01*
X127960783Y-76233514D01*
X127700131Y-76272178D01*
X127436944Y-76285107D01*
X127436548Y-76285107D01*
X124848334Y-76285107D01*
X122863959Y-76285107D01*
X122863959Y-71907080D01*
X124848334Y-71907080D01*
X124848334Y-75292920D01*
X125897107Y-75292920D01*
X126183136Y-75269149D01*
X126449011Y-75200936D01*
X126694732Y-75088281D01*
X126912678Y-74935061D01*
X127095225Y-74745150D01*
X127242373Y-74518549D01*
X127350248Y-74261975D01*
X127414973Y-73982147D01*
X127436548Y-73679065D01*
X127436548Y-73523260D01*
X127414585Y-73219791D01*
X127348698Y-72938800D01*
X127238885Y-72680289D01*
X127089928Y-72451879D01*
X126906606Y-72261193D01*
X126688919Y-72108231D01*
X126443585Y-71996480D01*
X126177322Y-71929430D01*
X125890130Y-71907080D01*
X124848334Y-71907080D01*
X122863959Y-71907080D01*
X122863959Y-70914893D01*
X124848334Y-70914893D01*
X127436548Y-70914893D01*
X127436944Y-70914893D01*
X127700131Y-70927822D01*
G37*
%TO.C,kibuzzard-646C865B*%
G36*
X92139919Y-123515606D02*
G01*
X92359382Y-123682021D01*
X92458429Y-123853091D01*
X92517857Y-124070455D01*
X92537666Y-124334113D01*
X92537666Y-124483328D01*
X92515488Y-124738481D01*
X92454123Y-124951000D01*
X92353569Y-125120886D01*
X92133137Y-125288027D01*
X91832283Y-125343741D01*
X91551292Y-125343741D01*
X91551292Y-123460135D01*
X91838096Y-123460135D01*
X92139919Y-123515606D01*
G37*
G36*
X101856550Y-119357294D02*
G01*
X102103686Y-119375524D01*
X102349629Y-119405858D01*
X102593787Y-119448224D01*
X102835573Y-119502518D01*
X103074404Y-119568612D01*
X103309703Y-119646344D01*
X103540905Y-119735529D01*
X103767453Y-119835950D01*
X103988800Y-119947367D01*
X104204413Y-120069511D01*
X104413774Y-120202087D01*
X104616377Y-120344776D01*
X104811735Y-120497235D01*
X104999376Y-120659095D01*
X105178850Y-120829968D01*
X105349723Y-121009442D01*
X105511583Y-121197083D01*
X105664042Y-121392441D01*
X105806731Y-121595044D01*
X105939307Y-121804405D01*
X106061451Y-122020018D01*
X106172868Y-122241365D01*
X106273289Y-122467913D01*
X106362474Y-122699115D01*
X106440206Y-122934414D01*
X106506300Y-123173245D01*
X106560594Y-123415030D01*
X106602960Y-123659189D01*
X106633294Y-123905132D01*
X106651524Y-124152268D01*
X106657605Y-124400000D01*
X106651524Y-124647732D01*
X106633294Y-124894868D01*
X106602960Y-125140811D01*
X106560594Y-125384970D01*
X106506300Y-125626755D01*
X106440206Y-125865586D01*
X106362474Y-126100885D01*
X106273289Y-126332087D01*
X106172868Y-126558635D01*
X106061451Y-126779982D01*
X105939307Y-126995595D01*
X105806731Y-127204956D01*
X105664042Y-127407559D01*
X105511583Y-127602917D01*
X105349723Y-127790558D01*
X105178850Y-127970032D01*
X104999376Y-128140905D01*
X104811735Y-128302765D01*
X104616377Y-128455224D01*
X104413774Y-128597913D01*
X104204413Y-128730489D01*
X103988800Y-128852633D01*
X103767453Y-128964050D01*
X103540905Y-129064471D01*
X103309703Y-129153656D01*
X103074404Y-129231388D01*
X102835573Y-129297482D01*
X102593787Y-129351776D01*
X102349629Y-129394142D01*
X102103686Y-129424476D01*
X101856550Y-129442706D01*
X101608818Y-129448787D01*
X94167412Y-129448787D01*
X90969932Y-129448787D01*
X90431206Y-129448787D01*
X89305305Y-129448787D01*
X86336494Y-129448787D01*
X79391182Y-129448787D01*
X79143450Y-129442706D01*
X78896314Y-129424476D01*
X78650371Y-129394142D01*
X78406212Y-129351776D01*
X78164427Y-129297482D01*
X77925596Y-129231388D01*
X77690297Y-129153656D01*
X77459095Y-129064471D01*
X77232547Y-128964050D01*
X77011200Y-128852633D01*
X76795586Y-128730489D01*
X76586226Y-128597913D01*
X76383623Y-128455224D01*
X76188265Y-128302765D01*
X76000624Y-128140905D01*
X75821150Y-127970032D01*
X75650277Y-127790558D01*
X75488417Y-127602917D01*
X75335958Y-127407559D01*
X75193269Y-127204956D01*
X75060693Y-126995595D01*
X74938549Y-126779982D01*
X74827132Y-126558635D01*
X74726711Y-126332087D01*
X74637526Y-126100885D01*
X74559794Y-125865586D01*
X74493700Y-125626755D01*
X74439406Y-125384970D01*
X74397040Y-125140811D01*
X74366706Y-124894868D01*
X74348476Y-124647732D01*
X74342395Y-124400000D01*
X74348476Y-124152268D01*
X74366706Y-123905132D01*
X74397040Y-123659189D01*
X74439406Y-123415030D01*
X74493700Y-123173245D01*
X74544623Y-122989233D01*
X86336494Y-122989233D01*
X86336494Y-125810767D01*
X86917854Y-125810767D01*
X86917854Y-125039496D01*
X86859718Y-123710120D01*
X87619362Y-125810767D01*
X88018562Y-125810767D01*
X88780144Y-123708182D01*
X88722008Y-125039496D01*
X88722008Y-125810767D01*
X89305305Y-125810767D01*
X89305305Y-122989233D01*
X89849846Y-122989233D01*
X89849846Y-125810767D01*
X90431206Y-125810767D01*
X90431206Y-122989233D01*
X90969932Y-122989233D01*
X90969932Y-125810767D01*
X91843910Y-125810767D01*
X92082268Y-125790957D01*
X92303830Y-125734113D01*
X92508598Y-125640234D01*
X92690219Y-125512551D01*
X92842342Y-125354291D01*
X92964966Y-125165457D01*
X93054861Y-124951646D01*
X93108798Y-124718456D01*
X93126778Y-124465887D01*
X93126778Y-124336050D01*
X93108475Y-124083159D01*
X93053569Y-123849000D01*
X92962059Y-123633574D01*
X92837928Y-123443232D01*
X92685159Y-123284327D01*
X92503754Y-123156859D01*
X92299309Y-123063734D01*
X92077423Y-123007858D01*
X91838096Y-122989233D01*
X93586052Y-122989233D01*
X93586052Y-125810767D01*
X94167412Y-125810767D01*
X94167412Y-122989233D01*
X93586052Y-122989233D01*
X91838096Y-122989233D01*
X90969932Y-122989233D01*
X90431206Y-122989233D01*
X89849846Y-122989233D01*
X89305305Y-122989233D01*
X88541786Y-122989233D01*
X87820900Y-125035620D01*
X87096138Y-122989233D01*
X86336494Y-122989233D01*
X74544623Y-122989233D01*
X74559794Y-122934414D01*
X74637526Y-122699115D01*
X74726711Y-122467913D01*
X74827132Y-122241365D01*
X74938549Y-122020018D01*
X75060693Y-121804405D01*
X75193269Y-121595044D01*
X75335958Y-121392441D01*
X75488417Y-121197083D01*
X75650277Y-121009442D01*
X75821150Y-120829968D01*
X76000624Y-120659095D01*
X76188265Y-120497235D01*
X76383623Y-120344776D01*
X76586226Y-120202087D01*
X76795586Y-120069511D01*
X77011200Y-119947367D01*
X77232547Y-119835950D01*
X77459095Y-119735529D01*
X77690297Y-119646344D01*
X77925596Y-119568612D01*
X78164427Y-119502518D01*
X78406212Y-119448224D01*
X78650371Y-119405858D01*
X78896314Y-119375524D01*
X79143450Y-119357294D01*
X79391182Y-119351213D01*
X86336494Y-119351213D01*
X94167412Y-119351213D01*
X101608818Y-119351213D01*
X101856550Y-119357294D01*
G37*
%TD*%
D17*
%TO.C,Ref\u002A\u002A*%
X64800000Y-50900000D03*
%TD*%
D18*
%TO.C,Ref\u002A\u002A*%
X123500000Y-33000000D03*
%TD*%
D17*
%TO.C,Ref\u002A\u002A*%
X116200000Y-96100000D03*
%TD*%
D19*
%TO.C,Ref\u002A\u002A*%
X80600000Y-124300000D03*
%TD*%
D17*
%TO.C,Ref\u002A\u002A*%
X64800000Y-118700000D03*
%TD*%
%TO.C,Ref\u002A\u002A*%
X116200000Y-73500000D03*
%TD*%
D18*
%TO.C,Ref\u002A\u002A*%
X57500000Y-155500000D03*
%TD*%
D20*
%TO.C,Ref\u002A\u002A*%
X90500000Y-60500000D03*
%TD*%
D17*
%TO.C,Ref\u002A\u002A*%
X116200000Y-50900000D03*
%TD*%
%TO.C,Ref\u002A\u002A*%
X116200000Y-118700000D03*
%TD*%
D18*
%TO.C,Ref\u002A\u002A*%
X123500000Y-155500000D03*
%TD*%
D17*
%TO.C,Ref\u002A\u002A*%
X64800000Y-96100000D03*
%TD*%
%TO.C,Ref\u002A\u002A*%
X64800000Y-73500000D03*
%TD*%
D18*
%TO.C,Ref\u002A\u002A*%
X57500000Y-33000000D03*
%TD*%
D21*
%TO.C,RESET*%
X80500000Y-50500000D03*
%TD*%
%TO.C,RESET*%
X100500000Y-50500000D03*
%TD*%
G36*
X72093472Y-40447468D02*
G01*
X72098541Y-40448071D01*
X72125510Y-40452414D01*
X72130333Y-40453388D01*
X72314642Y-40498298D01*
X72333313Y-40504452D01*
X72501377Y-40575057D01*
X72518842Y-40584084D01*
X72673904Y-40680531D01*
X72689261Y-40691806D01*
X72907502Y-40879476D01*
X72920552Y-40892508D01*
X73108717Y-41110674D01*
X73120054Y-41126077D01*
X73216881Y-41281445D01*
X73225981Y-41299036D01*
X73296602Y-41467278D01*
X73302784Y-41486093D01*
X73347469Y-41670662D01*
X73348442Y-41675524D01*
X73352489Y-41700995D01*
X73353075Y-41705983D01*
X73374857Y-41989856D01*
X73374768Y-42009922D01*
X73351072Y-42286620D01*
X73348015Y-42305329D01*
X73305876Y-42478683D01*
X73300424Y-42495677D01*
X73233620Y-42661723D01*
X73225784Y-42677757D01*
X73132473Y-42838279D01*
X73130091Y-42842057D01*
X73101688Y-42883701D01*
X73098002Y-42888572D01*
X72919471Y-43101791D01*
X72902052Y-43118859D01*
X72691969Y-43287608D01*
X72672554Y-43300406D01*
X72432958Y-43427871D01*
X72412585Y-43436476D01*
X72145671Y-43522072D01*
X72140329Y-43523526D01*
X72098894Y-43532837D01*
X72094245Y-43533697D01*
X71909122Y-43560693D01*
X71890281Y-43561987D01*
X71710310Y-43560611D01*
X71691491Y-43559029D01*
X71513851Y-43530345D01*
X71495431Y-43525904D01*
X71226885Y-43438977D01*
X71209299Y-43431753D01*
X70950841Y-43301593D01*
X70946684Y-43299296D01*
X70940545Y-43295590D01*
X70936358Y-43292826D01*
X70779562Y-43179931D01*
X70764319Y-43166965D01*
X70633067Y-43035662D01*
X70620107Y-43020414D01*
X70507298Y-42863609D01*
X70504561Y-42859462D01*
X70501524Y-42854437D01*
X70499212Y-42850254D01*
X70368852Y-42591346D01*
X70361653Y-42573832D01*
X70274425Y-42304846D01*
X70269993Y-42286542D01*
X70240975Y-42108489D01*
X70239367Y-42089825D01*
X70237502Y-41909385D01*
X70238723Y-41890692D01*
X70265052Y-41705044D01*
X70265885Y-41700432D01*
X70274795Y-41659915D01*
X70276248Y-41654491D01*
X70361084Y-41386902D01*
X70369765Y-41366230D01*
X70497157Y-41126286D01*
X70510165Y-41106579D01*
X70679457Y-40896713D01*
X70696884Y-40879061D01*
X70911300Y-40701511D01*
X70916277Y-40697793D01*
X70957313Y-40670231D01*
X70962927Y-40666876D01*
X71209123Y-40536824D01*
X71233361Y-40527129D01*
X71493231Y-40453787D01*
X71516099Y-40449597D01*
X71789935Y-40425628D01*
X71810327Y-40425527D01*
X72093472Y-40447468D01*
G37*
G36*
X76693472Y-40447468D02*
G01*
X76698541Y-40448071D01*
X76725510Y-40452414D01*
X76730333Y-40453388D01*
X76914642Y-40498298D01*
X76933313Y-40504452D01*
X77101377Y-40575057D01*
X77118842Y-40584084D01*
X77273904Y-40680531D01*
X77289261Y-40691806D01*
X77507502Y-40879476D01*
X77520552Y-40892508D01*
X77708717Y-41110674D01*
X77720054Y-41126077D01*
X77816881Y-41281445D01*
X77825981Y-41299036D01*
X77896602Y-41467278D01*
X77902784Y-41486093D01*
X77947469Y-41670662D01*
X77948442Y-41675524D01*
X77952489Y-41700995D01*
X77953075Y-41705983D01*
X77974857Y-41989856D01*
X77974768Y-42009922D01*
X77951072Y-42286620D01*
X77948015Y-42305329D01*
X77905876Y-42478683D01*
X77900424Y-42495677D01*
X77833620Y-42661723D01*
X77825784Y-42677757D01*
X77732473Y-42838279D01*
X77730091Y-42842057D01*
X77701688Y-42883701D01*
X77698002Y-42888572D01*
X77519471Y-43101791D01*
X77502052Y-43118859D01*
X77291969Y-43287608D01*
X77272554Y-43300406D01*
X77032958Y-43427871D01*
X77012585Y-43436476D01*
X76745671Y-43522072D01*
X76740329Y-43523526D01*
X76698894Y-43532837D01*
X76694245Y-43533697D01*
X76509122Y-43560693D01*
X76490281Y-43561987D01*
X76310310Y-43560611D01*
X76291491Y-43559029D01*
X76113851Y-43530345D01*
X76095431Y-43525904D01*
X75826885Y-43438977D01*
X75809299Y-43431753D01*
X75550841Y-43301593D01*
X75546684Y-43299296D01*
X75540545Y-43295590D01*
X75536358Y-43292826D01*
X75379562Y-43179931D01*
X75364319Y-43166965D01*
X75233067Y-43035662D01*
X75220107Y-43020414D01*
X75107298Y-42863609D01*
X75104561Y-42859462D01*
X75101524Y-42854437D01*
X75099212Y-42850254D01*
X74968852Y-42591346D01*
X74961653Y-42573832D01*
X74874425Y-42304846D01*
X74869993Y-42286542D01*
X74840975Y-42108489D01*
X74839367Y-42089825D01*
X74837502Y-41909385D01*
X74838723Y-41890692D01*
X74865052Y-41705044D01*
X74865885Y-41700432D01*
X74874795Y-41659915D01*
X74876248Y-41654491D01*
X74961084Y-41386902D01*
X74969765Y-41366230D01*
X75097157Y-41126286D01*
X75110165Y-41106579D01*
X75279457Y-40896713D01*
X75296884Y-40879061D01*
X75511300Y-40701511D01*
X75516277Y-40697793D01*
X75557313Y-40670231D01*
X75562927Y-40666876D01*
X75809123Y-40536824D01*
X75833361Y-40527129D01*
X76093231Y-40453787D01*
X76116099Y-40449597D01*
X76389935Y-40425628D01*
X76410327Y-40425527D01*
X76693472Y-40447468D01*
G37*
G36*
X81293472Y-40447468D02*
G01*
X81298541Y-40448071D01*
X81325510Y-40452414D01*
X81330333Y-40453388D01*
X81514642Y-40498298D01*
X81533313Y-40504452D01*
X81701377Y-40575057D01*
X81718842Y-40584084D01*
X81873904Y-40680531D01*
X81889261Y-40691806D01*
X82107502Y-40879476D01*
X82120552Y-40892508D01*
X82308717Y-41110674D01*
X82320054Y-41126077D01*
X82416881Y-41281445D01*
X82425981Y-41299036D01*
X82496602Y-41467278D01*
X82502784Y-41486093D01*
X82547469Y-41670662D01*
X82548442Y-41675524D01*
X82552489Y-41700995D01*
X82553075Y-41705983D01*
X82574857Y-41989856D01*
X82574768Y-42009922D01*
X82551072Y-42286620D01*
X82548015Y-42305329D01*
X82505876Y-42478683D01*
X82500424Y-42495677D01*
X82433620Y-42661723D01*
X82425784Y-42677757D01*
X82332473Y-42838279D01*
X82330091Y-42842057D01*
X82301688Y-42883701D01*
X82298002Y-42888572D01*
X82119471Y-43101791D01*
X82102052Y-43118859D01*
X81891969Y-43287608D01*
X81872554Y-43300406D01*
X81632958Y-43427871D01*
X81612585Y-43436476D01*
X81345671Y-43522072D01*
X81340329Y-43523526D01*
X81298894Y-43532837D01*
X81294245Y-43533697D01*
X81109122Y-43560693D01*
X81090281Y-43561987D01*
X80910310Y-43560611D01*
X80891491Y-43559029D01*
X80713851Y-43530345D01*
X80695431Y-43525904D01*
X80426885Y-43438977D01*
X80409299Y-43431753D01*
X80150841Y-43301593D01*
X80146684Y-43299296D01*
X80140545Y-43295590D01*
X80136358Y-43292826D01*
X79979562Y-43179931D01*
X79964319Y-43166965D01*
X79833067Y-43035662D01*
X79820107Y-43020414D01*
X79707298Y-42863609D01*
X79704561Y-42859462D01*
X79701524Y-42854437D01*
X79699212Y-42850254D01*
X79568852Y-42591346D01*
X79561653Y-42573832D01*
X79474425Y-42304846D01*
X79469993Y-42286542D01*
X79440975Y-42108489D01*
X79439367Y-42089825D01*
X79437502Y-41909385D01*
X79438723Y-41890692D01*
X79465052Y-41705044D01*
X79465885Y-41700432D01*
X79474795Y-41659915D01*
X79476248Y-41654491D01*
X79561084Y-41386902D01*
X79569765Y-41366230D01*
X79697157Y-41126286D01*
X79710165Y-41106579D01*
X79879457Y-40896713D01*
X79896884Y-40879061D01*
X80111300Y-40701511D01*
X80116277Y-40697793D01*
X80157313Y-40670231D01*
X80162927Y-40666876D01*
X80409123Y-40536824D01*
X80433361Y-40527129D01*
X80693231Y-40453787D01*
X80716099Y-40449597D01*
X80989935Y-40425628D01*
X81010327Y-40425527D01*
X81293472Y-40447468D01*
G37*
G36*
X85893472Y-40447468D02*
G01*
X85898541Y-40448071D01*
X85925510Y-40452414D01*
X85930333Y-40453388D01*
X86114642Y-40498298D01*
X86133313Y-40504452D01*
X86301377Y-40575057D01*
X86318842Y-40584084D01*
X86473904Y-40680531D01*
X86489261Y-40691806D01*
X86707502Y-40879476D01*
X86720552Y-40892508D01*
X86908717Y-41110674D01*
X86920054Y-41126077D01*
X87016881Y-41281445D01*
X87025981Y-41299036D01*
X87096602Y-41467278D01*
X87102784Y-41486093D01*
X87147469Y-41670662D01*
X87148442Y-41675524D01*
X87152489Y-41700995D01*
X87153075Y-41705983D01*
X87174857Y-41989856D01*
X87174768Y-42009922D01*
X87151072Y-42286620D01*
X87148015Y-42305329D01*
X87105876Y-42478683D01*
X87100424Y-42495677D01*
X87033620Y-42661723D01*
X87025784Y-42677757D01*
X86932473Y-42838279D01*
X86930091Y-42842057D01*
X86901688Y-42883701D01*
X86898002Y-42888572D01*
X86719471Y-43101791D01*
X86702052Y-43118859D01*
X86491969Y-43287608D01*
X86472554Y-43300406D01*
X86232958Y-43427871D01*
X86212585Y-43436476D01*
X85945671Y-43522072D01*
X85940329Y-43523526D01*
X85898894Y-43532837D01*
X85894245Y-43533697D01*
X85709122Y-43560693D01*
X85690281Y-43561987D01*
X85510310Y-43560611D01*
X85491491Y-43559029D01*
X85313851Y-43530345D01*
X85295431Y-43525904D01*
X85026885Y-43438977D01*
X85009299Y-43431753D01*
X84750841Y-43301593D01*
X84746684Y-43299296D01*
X84740545Y-43295590D01*
X84736358Y-43292826D01*
X84579562Y-43179931D01*
X84564319Y-43166965D01*
X84433067Y-43035662D01*
X84420107Y-43020414D01*
X84307298Y-42863609D01*
X84304561Y-42859462D01*
X84301524Y-42854437D01*
X84299212Y-42850254D01*
X84168852Y-42591346D01*
X84161653Y-42573832D01*
X84074425Y-42304846D01*
X84069993Y-42286542D01*
X84040975Y-42108489D01*
X84039367Y-42089825D01*
X84037502Y-41909385D01*
X84038723Y-41890692D01*
X84065052Y-41705044D01*
X84065885Y-41700432D01*
X84074795Y-41659915D01*
X84076248Y-41654491D01*
X84161084Y-41386902D01*
X84169765Y-41366230D01*
X84297157Y-41126286D01*
X84310165Y-41106579D01*
X84479457Y-40896713D01*
X84496884Y-40879061D01*
X84711300Y-40701511D01*
X84716277Y-40697793D01*
X84757313Y-40670231D01*
X84762927Y-40666876D01*
X85009123Y-40536824D01*
X85033361Y-40527129D01*
X85293231Y-40453787D01*
X85316099Y-40449597D01*
X85589935Y-40425628D01*
X85610327Y-40425527D01*
X85893472Y-40447468D01*
G37*
G36*
X95693472Y-40447468D02*
G01*
X95698541Y-40448071D01*
X95725510Y-40452414D01*
X95730333Y-40453388D01*
X95914642Y-40498298D01*
X95933313Y-40504452D01*
X96101377Y-40575057D01*
X96118842Y-40584084D01*
X96273904Y-40680531D01*
X96289261Y-40691806D01*
X96507502Y-40879476D01*
X96520552Y-40892508D01*
X96708717Y-41110674D01*
X96720054Y-41126077D01*
X96816881Y-41281445D01*
X96825981Y-41299036D01*
X96896602Y-41467278D01*
X96902784Y-41486093D01*
X96947469Y-41670662D01*
X96948442Y-41675524D01*
X96952489Y-41700995D01*
X96953075Y-41705983D01*
X96974857Y-41989856D01*
X96974768Y-42009922D01*
X96951072Y-42286620D01*
X96948015Y-42305329D01*
X96905876Y-42478683D01*
X96900424Y-42495677D01*
X96833620Y-42661723D01*
X96825784Y-42677757D01*
X96732473Y-42838279D01*
X96730091Y-42842057D01*
X96701688Y-42883701D01*
X96698002Y-42888572D01*
X96519471Y-43101791D01*
X96502052Y-43118859D01*
X96291969Y-43287608D01*
X96272554Y-43300406D01*
X96032958Y-43427871D01*
X96012585Y-43436476D01*
X95745671Y-43522072D01*
X95740329Y-43523526D01*
X95698894Y-43532837D01*
X95694245Y-43533697D01*
X95509122Y-43560693D01*
X95490281Y-43561987D01*
X95310310Y-43560611D01*
X95291491Y-43559029D01*
X95113851Y-43530345D01*
X95095431Y-43525904D01*
X94826885Y-43438977D01*
X94809299Y-43431753D01*
X94550841Y-43301593D01*
X94546684Y-43299296D01*
X94540545Y-43295590D01*
X94536358Y-43292826D01*
X94379562Y-43179931D01*
X94364319Y-43166965D01*
X94233067Y-43035662D01*
X94220107Y-43020414D01*
X94107298Y-42863609D01*
X94104561Y-42859462D01*
X94101524Y-42854437D01*
X94099212Y-42850254D01*
X93968852Y-42591346D01*
X93961653Y-42573832D01*
X93874425Y-42304846D01*
X93869993Y-42286542D01*
X93840975Y-42108489D01*
X93839367Y-42089825D01*
X93837502Y-41909385D01*
X93838723Y-41890692D01*
X93865052Y-41705044D01*
X93865885Y-41700432D01*
X93874795Y-41659915D01*
X93876248Y-41654491D01*
X93961084Y-41386902D01*
X93969765Y-41366230D01*
X94097157Y-41126286D01*
X94110165Y-41106579D01*
X94279457Y-40896713D01*
X94296884Y-40879061D01*
X94511300Y-40701511D01*
X94516277Y-40697793D01*
X94557313Y-40670231D01*
X94562927Y-40666876D01*
X94809123Y-40536824D01*
X94833361Y-40527129D01*
X95093231Y-40453787D01*
X95116099Y-40449597D01*
X95389935Y-40425628D01*
X95410327Y-40425527D01*
X95693472Y-40447468D01*
G37*
G36*
X100293472Y-40447468D02*
G01*
X100298541Y-40448071D01*
X100325510Y-40452414D01*
X100330333Y-40453388D01*
X100514642Y-40498298D01*
X100533313Y-40504452D01*
X100701377Y-40575057D01*
X100718842Y-40584084D01*
X100873904Y-40680531D01*
X100889261Y-40691806D01*
X101107502Y-40879476D01*
X101120552Y-40892508D01*
X101308717Y-41110674D01*
X101320054Y-41126077D01*
X101416881Y-41281445D01*
X101425981Y-41299036D01*
X101496602Y-41467278D01*
X101502784Y-41486093D01*
X101547469Y-41670662D01*
X101548442Y-41675524D01*
X101552489Y-41700995D01*
X101553075Y-41705983D01*
X101574857Y-41989856D01*
X101574768Y-42009922D01*
X101551072Y-42286620D01*
X101548015Y-42305329D01*
X101505876Y-42478683D01*
X101500424Y-42495677D01*
X101433620Y-42661723D01*
X101425784Y-42677757D01*
X101332473Y-42838279D01*
X101330091Y-42842057D01*
X101301688Y-42883701D01*
X101298002Y-42888572D01*
X101119471Y-43101791D01*
X101102052Y-43118859D01*
X100891969Y-43287608D01*
X100872554Y-43300406D01*
X100632958Y-43427871D01*
X100612585Y-43436476D01*
X100345671Y-43522072D01*
X100340329Y-43523526D01*
X100298894Y-43532837D01*
X100294245Y-43533697D01*
X100109122Y-43560693D01*
X100090281Y-43561987D01*
X99910310Y-43560611D01*
X99891491Y-43559029D01*
X99713851Y-43530345D01*
X99695431Y-43525904D01*
X99426885Y-43438977D01*
X99409299Y-43431753D01*
X99150841Y-43301593D01*
X99146684Y-43299296D01*
X99140545Y-43295590D01*
X99136358Y-43292826D01*
X98979562Y-43179931D01*
X98964319Y-43166965D01*
X98833067Y-43035662D01*
X98820107Y-43020414D01*
X98707298Y-42863609D01*
X98704561Y-42859462D01*
X98701524Y-42854437D01*
X98699212Y-42850254D01*
X98568852Y-42591346D01*
X98561653Y-42573832D01*
X98474425Y-42304846D01*
X98469993Y-42286542D01*
X98440975Y-42108489D01*
X98439367Y-42089825D01*
X98437502Y-41909385D01*
X98438723Y-41890692D01*
X98465052Y-41705044D01*
X98465885Y-41700432D01*
X98474795Y-41659915D01*
X98476248Y-41654491D01*
X98561084Y-41386902D01*
X98569765Y-41366230D01*
X98697157Y-41126286D01*
X98710165Y-41106579D01*
X98879457Y-40896713D01*
X98896884Y-40879061D01*
X99111300Y-40701511D01*
X99116277Y-40697793D01*
X99157313Y-40670231D01*
X99162927Y-40666876D01*
X99409123Y-40536824D01*
X99433361Y-40527129D01*
X99693231Y-40453787D01*
X99716099Y-40449597D01*
X99989935Y-40425628D01*
X100010327Y-40425527D01*
X100293472Y-40447468D01*
G37*
G36*
X104893472Y-40447468D02*
G01*
X104898541Y-40448071D01*
X104925510Y-40452414D01*
X104930333Y-40453388D01*
X105114642Y-40498298D01*
X105133313Y-40504452D01*
X105301377Y-40575057D01*
X105318842Y-40584084D01*
X105473904Y-40680531D01*
X105489261Y-40691806D01*
X105707502Y-40879476D01*
X105720552Y-40892508D01*
X105908717Y-41110674D01*
X105920054Y-41126077D01*
X106016881Y-41281445D01*
X106025981Y-41299036D01*
X106096602Y-41467278D01*
X106102784Y-41486093D01*
X106147469Y-41670662D01*
X106148442Y-41675524D01*
X106152489Y-41700995D01*
X106153075Y-41705983D01*
X106174857Y-41989856D01*
X106174768Y-42009922D01*
X106151072Y-42286620D01*
X106148015Y-42305329D01*
X106105876Y-42478683D01*
X106100424Y-42495677D01*
X106033620Y-42661723D01*
X106025784Y-42677757D01*
X105932473Y-42838279D01*
X105930091Y-42842057D01*
X105901688Y-42883701D01*
X105898002Y-42888572D01*
X105719471Y-43101791D01*
X105702052Y-43118859D01*
X105491969Y-43287608D01*
X105472554Y-43300406D01*
X105232958Y-43427871D01*
X105212585Y-43436476D01*
X104945671Y-43522072D01*
X104940329Y-43523526D01*
X104898894Y-43532837D01*
X104894245Y-43533697D01*
X104709122Y-43560693D01*
X104690281Y-43561987D01*
X104510310Y-43560611D01*
X104491491Y-43559029D01*
X104313851Y-43530345D01*
X104295431Y-43525904D01*
X104026885Y-43438977D01*
X104009299Y-43431753D01*
X103750841Y-43301593D01*
X103746684Y-43299296D01*
X103740545Y-43295590D01*
X103736358Y-43292826D01*
X103579562Y-43179931D01*
X103564319Y-43166965D01*
X103433067Y-43035662D01*
X103420107Y-43020414D01*
X103307298Y-42863609D01*
X103304561Y-42859462D01*
X103301524Y-42854437D01*
X103299212Y-42850254D01*
X103168852Y-42591346D01*
X103161653Y-42573832D01*
X103074425Y-42304846D01*
X103069993Y-42286542D01*
X103040975Y-42108489D01*
X103039367Y-42089825D01*
X103037502Y-41909385D01*
X103038723Y-41890692D01*
X103065052Y-41705044D01*
X103065885Y-41700432D01*
X103074795Y-41659915D01*
X103076248Y-41654491D01*
X103161084Y-41386902D01*
X103169765Y-41366230D01*
X103297157Y-41126286D01*
X103310165Y-41106579D01*
X103479457Y-40896713D01*
X103496884Y-40879061D01*
X103711300Y-40701511D01*
X103716277Y-40697793D01*
X103757313Y-40670231D01*
X103762927Y-40666876D01*
X104009123Y-40536824D01*
X104033361Y-40527129D01*
X104293231Y-40453787D01*
X104316099Y-40449597D01*
X104589935Y-40425628D01*
X104610327Y-40425527D01*
X104893472Y-40447468D01*
G37*
G36*
X109493472Y-40447468D02*
G01*
X109498541Y-40448071D01*
X109525510Y-40452414D01*
X109530333Y-40453388D01*
X109714642Y-40498298D01*
X109733313Y-40504452D01*
X109901377Y-40575057D01*
X109918842Y-40584084D01*
X110073904Y-40680531D01*
X110089261Y-40691806D01*
X110307502Y-40879476D01*
X110320552Y-40892508D01*
X110508717Y-41110674D01*
X110520054Y-41126077D01*
X110616881Y-41281445D01*
X110625981Y-41299036D01*
X110696602Y-41467278D01*
X110702784Y-41486093D01*
X110747469Y-41670662D01*
X110748442Y-41675524D01*
X110752489Y-41700995D01*
X110753075Y-41705983D01*
X110774857Y-41989856D01*
X110774768Y-42009922D01*
X110751072Y-42286620D01*
X110748015Y-42305329D01*
X110705876Y-42478683D01*
X110700424Y-42495677D01*
X110633620Y-42661723D01*
X110625784Y-42677757D01*
X110532473Y-42838279D01*
X110530091Y-42842057D01*
X110501688Y-42883701D01*
X110498002Y-42888572D01*
X110319471Y-43101791D01*
X110302052Y-43118859D01*
X110091969Y-43287608D01*
X110072554Y-43300406D01*
X109832958Y-43427871D01*
X109812585Y-43436476D01*
X109545671Y-43522072D01*
X109540329Y-43523526D01*
X109498894Y-43532837D01*
X109494245Y-43533697D01*
X109309122Y-43560693D01*
X109290281Y-43561987D01*
X109110310Y-43560611D01*
X109091491Y-43559029D01*
X108913851Y-43530345D01*
X108895431Y-43525904D01*
X108626885Y-43438977D01*
X108609299Y-43431753D01*
X108350841Y-43301593D01*
X108346684Y-43299296D01*
X108340545Y-43295590D01*
X108336358Y-43292826D01*
X108179562Y-43179931D01*
X108164319Y-43166965D01*
X108033067Y-43035662D01*
X108020107Y-43020414D01*
X107907298Y-42863609D01*
X107904561Y-42859462D01*
X107901524Y-42854437D01*
X107899212Y-42850254D01*
X107768852Y-42591346D01*
X107761653Y-42573832D01*
X107674425Y-42304846D01*
X107669993Y-42286542D01*
X107640975Y-42108489D01*
X107639367Y-42089825D01*
X107637502Y-41909385D01*
X107638723Y-41890692D01*
X107665052Y-41705044D01*
X107665885Y-41700432D01*
X107674795Y-41659915D01*
X107676248Y-41654491D01*
X107761084Y-41386902D01*
X107769765Y-41366230D01*
X107897157Y-41126286D01*
X107910165Y-41106579D01*
X108079457Y-40896713D01*
X108096884Y-40879061D01*
X108311300Y-40701511D01*
X108316277Y-40697793D01*
X108357313Y-40670231D01*
X108362927Y-40666876D01*
X108609123Y-40536824D01*
X108633361Y-40527129D01*
X108893231Y-40453787D01*
X108916099Y-40449597D01*
X109189935Y-40425628D01*
X109210327Y-40425527D01*
X109493472Y-40447468D01*
G37*
G36*
X92505203Y-72705649D02*
G01*
X92511681Y-72711681D01*
X94112319Y-74312319D01*
X94145804Y-74373642D01*
X94140820Y-74443334D01*
X94112319Y-74487681D01*
X92511681Y-76088319D01*
X92450358Y-76121804D01*
X92380666Y-76116820D01*
X92324733Y-76074948D01*
X92300316Y-76009484D01*
X92300000Y-76000638D01*
X92300000Y-72799362D01*
X92319685Y-72732323D01*
X92372489Y-72686568D01*
X92441647Y-72676624D01*
X92505203Y-72705649D01*
G37*
M02*
