%TF.GenerationSoftware,KiCad,Pcbnew,(6.0.11)*%
%TF.CreationDate,2023-07-06T11:07:26+01:00*%
%TF.ProjectId,Quango_Panel,5175616e-676f-45f5-9061-6e656c2e6b69,rev?*%
%TF.SameCoordinates,Original*%
%TF.FileFunction,Profile,NP*%
%FSLAX46Y46*%
G04 Gerber Fmt 4.6, Leading zero omitted, Abs format (unit mm)*
G04 Created by KiCad (PCBNEW (6.0.11)) date 2023-07-06 11:07:26*
%MOMM*%
%LPD*%
G01*
G04 APERTURE LIST*
%TA.AperFunction,Profile*%
%ADD10C,0.100000*%
%TD*%
%TA.AperFunction,Profile*%
%ADD11C,0.120000*%
%TD*%
G04 APERTURE END LIST*
D10*
X50000000Y-30000000D02*
X131000000Y-30000000D01*
X131000000Y-30000000D02*
X131000000Y-158500000D01*
X131000000Y-158500000D02*
X50000000Y-158500000D01*
X50000000Y-158500000D02*
X50000000Y-30000000D01*
D11*
%TO.C,REF\u002A\u002A*%
X70280000Y-131080000D02*
X54520000Y-131080000D01*
X54240000Y-131380000D02*
X54240000Y-147420000D01*
X70280000Y-147720000D02*
X54520000Y-147720000D01*
X70590000Y-131380000D02*
X70590000Y-147420000D01*
X54239999Y-147420000D02*
G75*
G03*
X54520000Y-147720000I291316J-8772D01*
G01*
X54520000Y-131079999D02*
G75*
G03*
X54240000Y-131380000I12375J-292217D01*
G01*
X70589942Y-131380001D02*
G75*
G03*
X70280000Y-131080000I-306742J-6799D01*
G01*
X70280001Y-147719990D02*
G75*
G03*
X70590000Y-147420000I17299J292290D01*
G01*
X107680000Y-147720000D02*
X91920000Y-147720000D01*
X91640000Y-131380000D02*
X91640000Y-147420000D01*
X107990000Y-131380000D02*
X107990000Y-147420000D01*
X107680000Y-131080000D02*
X91920000Y-131080000D01*
X107989942Y-131380001D02*
G75*
G03*
X107680000Y-131080000I-306742J-6799D01*
G01*
X91920000Y-131079999D02*
G75*
G03*
X91640000Y-131380000I12375J-292217D01*
G01*
X91639999Y-147420000D02*
G75*
G03*
X91920000Y-147720000I291316J-8772D01*
G01*
X107680001Y-147719990D02*
G75*
G03*
X107990000Y-147420000I17299J292290D01*
G01*
X95700000Y-123700000D02*
X95719239Y-124680761D01*
X105080761Y-124680761D02*
X105080761Y-123719239D01*
X97000000Y-122400000D02*
X103780761Y-122419239D01*
X97019239Y-125980761D02*
X103780761Y-125980761D01*
X97000000Y-122400000D02*
G75*
G03*
X95700000Y-123700000I-1J-1299999D01*
G01*
X95719239Y-124680761D02*
G75*
G03*
X97019239Y-125980761I1299999J-1D01*
G01*
X103780761Y-125980761D02*
G75*
G03*
X105080761Y-124680761I-1J1300001D01*
G01*
X105080761Y-123719239D02*
G75*
G03*
X103780761Y-122419239I-1300001J-1D01*
G01*
X126380000Y-147720000D02*
X110620000Y-147720000D01*
X126380000Y-131080000D02*
X110620000Y-131080000D01*
X110340000Y-131380000D02*
X110340000Y-147420000D01*
X126690000Y-131380000D02*
X126690000Y-147420000D01*
X110620000Y-131079999D02*
G75*
G03*
X110340000Y-131380000I12375J-292217D01*
G01*
X126380001Y-147719990D02*
G75*
G03*
X126690000Y-147420000I17299J292290D01*
G01*
X110339999Y-147420000D02*
G75*
G03*
X110620000Y-147720000I291316J-8772D01*
G01*
X126689942Y-131380001D02*
G75*
G03*
X126380000Y-131080000I-306742J-6799D01*
G01*
%TO.C,Level1*%
X81550000Y-62350000D02*
X79550000Y-62350000D01*
X79550000Y-62350000D02*
X79550000Y-112350000D01*
X79550000Y-112350000D02*
X81550000Y-112350000D01*
X81550000Y-112350000D02*
X81550000Y-62350000D01*
X101450000Y-62350000D02*
X99450000Y-62350000D01*
X99450000Y-62350000D02*
X99450000Y-112350000D01*
X99450000Y-112350000D02*
X101450000Y-112350000D01*
X101450000Y-112350000D02*
X101450000Y-62350000D01*
%TO.C,REF\u002A\u002A*%
X88980000Y-131080000D02*
X73220000Y-131080000D01*
X88980000Y-147720000D02*
X73220000Y-147720000D01*
X72940000Y-131380000D02*
X72940000Y-147420000D01*
X89290000Y-131380000D02*
X89290000Y-147420000D01*
X88980001Y-147719990D02*
G75*
G03*
X89290000Y-147420000I17299J292290D01*
G01*
X73220000Y-131079999D02*
G75*
G03*
X72940000Y-131380000I12375J-292217D01*
G01*
X72939999Y-147420000D02*
G75*
G03*
X73220000Y-147720000I291316J-8772D01*
G01*
X89289942Y-131380001D02*
G75*
G03*
X88980000Y-131080000I-306742J-6799D01*
G01*
%TD*%
M02*
