M48
; DRILL file {KiCad 7.0.7} date Fri Aug 18 12:28:15 2023
; FORMAT={-:-/ absolute / inch / decimal}
; #@! TF.CreationDate,2023-08-18T12:28:15+01:00
; #@! TF.GenerationSoftware,Kicad,Pcbnew,7.0.7
; #@! TF.FileFunction,NonPlated,1,2,NPTH
FMAT,2
INCH
; #@! TA.AperFunction,NonPlated,NPTH,ComponentDrill
T1C0.1260
; #@! TA.AperFunction,NonPlated,NPTH,ComponentDrill
T2C0.1378
; #@! TA.AperFunction,NonPlated,NPTH,ComponentDrill
T3C0.2362
; #@! TA.AperFunction,NonPlated,NPTH,ComponentDrill
T4C0.2402
; #@! TA.AperFunction,NonPlated,NPTH,ComponentDrill
T5C0.2756
%
G90
G05
T2
X3.1693Y-1.9882
X3.9567Y-1.9882
T3
X3.1732Y-4.8937
T4
X3.563Y-2.3819
T5
X2.5512Y-2.0039
X2.5512Y-2.8937
X2.5512Y-3.7835
X2.5512Y-4.6732
X4.5748Y-2.0039
X4.5748Y-2.8937
X4.5748Y-3.7835
X4.5748Y-4.6732
T1
G00X2.2283Y-1.2992
M15
G01X2.2992Y-1.2992
M16
G05
G00X2.2283Y-6.122
M15
G01X2.2992Y-6.122
M16
G05
G00X4.8268Y-1.2992
M15
G01X4.8976Y-1.2992
M16
G05
G00X4.8268Y-6.122
M15
G01X4.8976Y-6.122
M16
G05
T0
M30
