%TF.GenerationSoftware,KiCad,Pcbnew,(6.0.11)*%
%TF.CreationDate,2023-05-23T14:51:42+01:00*%
%TF.ProjectId,Quango_Panel,5175616e-676f-45f5-9061-6e656c2e6b69,rev?*%
%TF.SameCoordinates,Original*%
%TF.FileFunction,Legend,Bot*%
%TF.FilePolarity,Positive*%
%FSLAX46Y46*%
G04 Gerber Fmt 4.6, Leading zero omitted, Abs format (unit mm)*
G04 Created by KiCad (PCBNEW (6.0.11)) date 2023-05-23 14:51:42*
%MOMM*%
%LPD*%
G01*
G04 APERTURE LIST*
%ADD10C,0.150000*%
%ADD11C,0.200000*%
G04 APERTURE END LIST*
D10*
X104800000Y-37950000D02*
X76600000Y-37950000D01*
X76600000Y-37950000D02*
X76600000Y-31950000D01*
X76600000Y-31950000D02*
X104800000Y-31950000D01*
X104800000Y-31950000D02*
X104800000Y-37950000D01*
X95119047Y-153502380D02*
X95119047Y-154216666D01*
X95166666Y-154359523D01*
X95261904Y-154454761D01*
X95404761Y-154502380D01*
X95500000Y-154502380D01*
X94166666Y-154502380D02*
X94642857Y-154502380D01*
X94642857Y-153502380D01*
X93261904Y-154407142D02*
X93309523Y-154454761D01*
X93452380Y-154502380D01*
X93547619Y-154502380D01*
X93690476Y-154454761D01*
X93785714Y-154359523D01*
X93833333Y-154264285D01*
X93880952Y-154073809D01*
X93880952Y-153930952D01*
X93833333Y-153740476D01*
X93785714Y-153645238D01*
X93690476Y-153550000D01*
X93547619Y-153502380D01*
X93452380Y-153502380D01*
X93309523Y-153550000D01*
X93261904Y-153597619D01*
X92547619Y-153502380D02*
X92547619Y-154216666D01*
X92595238Y-154359523D01*
X92690476Y-154454761D01*
X92833333Y-154502380D01*
X92928571Y-154502380D01*
X91595238Y-154502380D02*
X92071428Y-154502380D01*
X92071428Y-153502380D01*
X90690476Y-154407142D02*
X90738095Y-154454761D01*
X90880952Y-154502380D01*
X90976190Y-154502380D01*
X91119047Y-154454761D01*
X91214285Y-154359523D01*
X91261904Y-154264285D01*
X91309523Y-154073809D01*
X91309523Y-153930952D01*
X91261904Y-153740476D01*
X91214285Y-153645238D01*
X91119047Y-153550000D01*
X90976190Y-153502380D01*
X90880952Y-153502380D01*
X90738095Y-153550000D01*
X90690476Y-153597619D01*
X89976190Y-153502380D02*
X89976190Y-154216666D01*
X90023809Y-154359523D01*
X90119047Y-154454761D01*
X90261904Y-154502380D01*
X90357142Y-154502380D01*
X89023809Y-154502380D02*
X89500000Y-154502380D01*
X89500000Y-153502380D01*
X88119047Y-154407142D02*
X88166666Y-154454761D01*
X88309523Y-154502380D01*
X88404761Y-154502380D01*
X88547619Y-154454761D01*
X88642857Y-154359523D01*
X88690476Y-154264285D01*
X88738095Y-154073809D01*
X88738095Y-153930952D01*
X88690476Y-153740476D01*
X88642857Y-153645238D01*
X88547619Y-153550000D01*
X88404761Y-153502380D01*
X88309523Y-153502380D01*
X88166666Y-153550000D01*
X88119047Y-153597619D01*
X87404761Y-153502380D02*
X87404761Y-154216666D01*
X87452380Y-154359523D01*
X87547619Y-154454761D01*
X87690476Y-154502380D01*
X87785714Y-154502380D01*
X86452380Y-154502380D02*
X86928571Y-154502380D01*
X86928571Y-153502380D01*
X85547619Y-154407142D02*
X85595238Y-154454761D01*
X85738095Y-154502380D01*
X85833333Y-154502380D01*
X85976190Y-154454761D01*
X86071428Y-154359523D01*
X86119047Y-154264285D01*
X86166666Y-154073809D01*
X86166666Y-153930952D01*
X86119047Y-153740476D01*
X86071428Y-153645238D01*
X85976190Y-153550000D01*
X85833333Y-153502380D01*
X85738095Y-153502380D01*
X85595238Y-153550000D01*
X85547619Y-153597619D01*
D11*
X103500000Y-34321071D02*
X103500000Y-32821071D01*
X103000000Y-33892500D01*
X102500000Y-32821071D01*
X102500000Y-34321071D01*
X101571428Y-34321071D02*
X101714285Y-34249642D01*
X101785714Y-34178214D01*
X101857142Y-34035357D01*
X101857142Y-33606785D01*
X101785714Y-33463928D01*
X101714285Y-33392500D01*
X101571428Y-33321071D01*
X101357142Y-33321071D01*
X101214285Y-33392500D01*
X101142857Y-33463928D01*
X101071428Y-33606785D01*
X101071428Y-34035357D01*
X101142857Y-34178214D01*
X101214285Y-34249642D01*
X101357142Y-34321071D01*
X101571428Y-34321071D01*
X99785714Y-33321071D02*
X99785714Y-34321071D01*
X100428571Y-33321071D02*
X100428571Y-34106785D01*
X100357142Y-34249642D01*
X100214285Y-34321071D01*
X100000000Y-34321071D01*
X99857142Y-34249642D01*
X99785714Y-34178214D01*
X99071428Y-33321071D02*
X99071428Y-34321071D01*
X99071428Y-33463928D02*
X99000000Y-33392500D01*
X98857142Y-33321071D01*
X98642857Y-33321071D01*
X98500000Y-33392500D01*
X98428571Y-33535357D01*
X98428571Y-34321071D01*
X97928571Y-33321071D02*
X97357142Y-33321071D01*
X97714285Y-32821071D02*
X97714285Y-34106785D01*
X97642857Y-34249642D01*
X97500000Y-34321071D01*
X97357142Y-34321071D01*
X96857142Y-33321071D02*
X96857142Y-34606785D01*
X96928571Y-34749642D01*
X97071428Y-34821071D01*
X97142857Y-34821071D01*
X96857142Y-32821071D02*
X96928571Y-32892500D01*
X96857142Y-32963928D01*
X96785714Y-32892500D01*
X96857142Y-32821071D01*
X96857142Y-32963928D01*
X95928571Y-34321071D02*
X96071428Y-34249642D01*
X96142857Y-34178214D01*
X96214285Y-34035357D01*
X96214285Y-33606785D01*
X96142857Y-33463928D01*
X96071428Y-33392500D01*
X95928571Y-33321071D01*
X95714285Y-33321071D01*
X95571428Y-33392500D01*
X95500000Y-33463928D01*
X95428571Y-33606785D01*
X95428571Y-34035357D01*
X95500000Y-34178214D01*
X95571428Y-34249642D01*
X95714285Y-34321071D01*
X95928571Y-34321071D01*
X94928571Y-33321071D02*
X94571428Y-34321071D01*
X94214285Y-33321071D02*
X94571428Y-34321071D01*
X94714285Y-34678214D01*
X94785714Y-34749642D01*
X94928571Y-34821071D01*
X92500000Y-34321071D02*
X92500000Y-32821071D01*
X92000000Y-33892500D01*
X91500000Y-32821071D01*
X91500000Y-34321071D01*
X90571428Y-34321071D02*
X90714285Y-34249642D01*
X90785714Y-34178214D01*
X90857142Y-34035357D01*
X90857142Y-33606785D01*
X90785714Y-33463928D01*
X90714285Y-33392500D01*
X90571428Y-33321071D01*
X90357142Y-33321071D01*
X90214285Y-33392500D01*
X90142857Y-33463928D01*
X90071428Y-33606785D01*
X90071428Y-34035357D01*
X90142857Y-34178214D01*
X90214285Y-34249642D01*
X90357142Y-34321071D01*
X90571428Y-34321071D01*
X88785714Y-34321071D02*
X88785714Y-32821071D01*
X88785714Y-34249642D02*
X88928571Y-34321071D01*
X89214285Y-34321071D01*
X89357142Y-34249642D01*
X89428571Y-34178214D01*
X89500000Y-34035357D01*
X89500000Y-33606785D01*
X89428571Y-33463928D01*
X89357142Y-33392500D01*
X89214285Y-33321071D01*
X88928571Y-33321071D01*
X88785714Y-33392500D01*
X87428571Y-33321071D02*
X87428571Y-34321071D01*
X88071428Y-33321071D02*
X88071428Y-34106785D01*
X88000000Y-34249642D01*
X87857142Y-34321071D01*
X87642857Y-34321071D01*
X87500000Y-34249642D01*
X87428571Y-34178214D01*
X86500000Y-34321071D02*
X86642857Y-34249642D01*
X86714285Y-34106785D01*
X86714285Y-32821071D01*
X85285714Y-34321071D02*
X85285714Y-33535357D01*
X85357142Y-33392500D01*
X85500000Y-33321071D01*
X85785714Y-33321071D01*
X85928571Y-33392500D01*
X85285714Y-34249642D02*
X85428571Y-34321071D01*
X85785714Y-34321071D01*
X85928571Y-34249642D01*
X86000000Y-34106785D01*
X86000000Y-33963928D01*
X85928571Y-33821071D01*
X85785714Y-33749642D01*
X85428571Y-33749642D01*
X85285714Y-33678214D01*
X84571428Y-34321071D02*
X84571428Y-33321071D01*
X84571428Y-33606785D02*
X84500000Y-33463928D01*
X84428571Y-33392500D01*
X84285714Y-33321071D01*
X84142857Y-33321071D01*
X82571428Y-32963928D02*
X82500000Y-32892500D01*
X82357142Y-32821071D01*
X82000000Y-32821071D01*
X81857142Y-32892500D01*
X81785714Y-32963928D01*
X81714285Y-33106785D01*
X81714285Y-33249642D01*
X81785714Y-33463928D01*
X82642857Y-34321071D01*
X81714285Y-34321071D01*
X80785714Y-32821071D02*
X80642857Y-32821071D01*
X80500000Y-32892500D01*
X80428571Y-32963928D01*
X80357142Y-33106785D01*
X80285714Y-33392500D01*
X80285714Y-33749642D01*
X80357142Y-34035357D01*
X80428571Y-34178214D01*
X80500000Y-34249642D01*
X80642857Y-34321071D01*
X80785714Y-34321071D01*
X80928571Y-34249642D01*
X81000000Y-34178214D01*
X81071428Y-34035357D01*
X81142857Y-33749642D01*
X81142857Y-33392500D01*
X81071428Y-33106785D01*
X81000000Y-32963928D01*
X80928571Y-32892500D01*
X80785714Y-32821071D01*
X79714285Y-32963928D02*
X79642857Y-32892500D01*
X79500000Y-32821071D01*
X79142857Y-32821071D01*
X79000000Y-32892500D01*
X78928571Y-32963928D01*
X78857142Y-33106785D01*
X78857142Y-33249642D01*
X78928571Y-33463928D01*
X79785714Y-34321071D01*
X78857142Y-34321071D01*
X78357142Y-32821071D02*
X77428571Y-32821071D01*
X77928571Y-33392500D01*
X77714285Y-33392500D01*
X77571428Y-33463928D01*
X77500000Y-33535357D01*
X77428571Y-33678214D01*
X77428571Y-34035357D01*
X77500000Y-34178214D01*
X77571428Y-34249642D01*
X77714285Y-34321071D01*
X78142857Y-34321071D01*
X78285714Y-34249642D01*
X78357142Y-34178214D01*
X99964285Y-36878928D02*
X100107142Y-36807500D01*
X100250000Y-36664642D01*
X100464285Y-36450357D01*
X100607142Y-36378928D01*
X100750000Y-36378928D01*
X100678571Y-36736071D02*
X100821428Y-36664642D01*
X100964285Y-36521785D01*
X101035714Y-36236071D01*
X101035714Y-35736071D01*
X100964285Y-35450357D01*
X100821428Y-35307500D01*
X100678571Y-35236071D01*
X100392857Y-35236071D01*
X100250000Y-35307500D01*
X100107142Y-35450357D01*
X100035714Y-35736071D01*
X100035714Y-36236071D01*
X100107142Y-36521785D01*
X100250000Y-36664642D01*
X100392857Y-36736071D01*
X100678571Y-36736071D01*
X98750000Y-35736071D02*
X98750000Y-36736071D01*
X99392857Y-35736071D02*
X99392857Y-36521785D01*
X99321428Y-36664642D01*
X99178571Y-36736071D01*
X98964285Y-36736071D01*
X98821428Y-36664642D01*
X98750000Y-36593214D01*
X97392857Y-36736071D02*
X97392857Y-35950357D01*
X97464285Y-35807500D01*
X97607142Y-35736071D01*
X97892857Y-35736071D01*
X98035714Y-35807500D01*
X97392857Y-36664642D02*
X97535714Y-36736071D01*
X97892857Y-36736071D01*
X98035714Y-36664642D01*
X98107142Y-36521785D01*
X98107142Y-36378928D01*
X98035714Y-36236071D01*
X97892857Y-36164642D01*
X97535714Y-36164642D01*
X97392857Y-36093214D01*
X96678571Y-35736071D02*
X96678571Y-36736071D01*
X96678571Y-35878928D02*
X96607142Y-35807500D01*
X96464285Y-35736071D01*
X96250000Y-35736071D01*
X96107142Y-35807500D01*
X96035714Y-35950357D01*
X96035714Y-36736071D01*
X94678571Y-35736071D02*
X94678571Y-36950357D01*
X94750000Y-37093214D01*
X94821428Y-37164642D01*
X94964285Y-37236071D01*
X95178571Y-37236071D01*
X95321428Y-37164642D01*
X94678571Y-36664642D02*
X94821428Y-36736071D01*
X95107142Y-36736071D01*
X95250000Y-36664642D01*
X95321428Y-36593214D01*
X95392857Y-36450357D01*
X95392857Y-36021785D01*
X95321428Y-35878928D01*
X95250000Y-35807500D01*
X95107142Y-35736071D01*
X94821428Y-35736071D01*
X94678571Y-35807500D01*
X93750000Y-36736071D02*
X93892857Y-36664642D01*
X93964285Y-36593214D01*
X94035714Y-36450357D01*
X94035714Y-36021785D01*
X93964285Y-35878928D01*
X93892857Y-35807500D01*
X93750000Y-35736071D01*
X93535714Y-35736071D01*
X93392857Y-35807500D01*
X93321428Y-35878928D01*
X93250000Y-36021785D01*
X93250000Y-36450357D01*
X93321428Y-36593214D01*
X93392857Y-36664642D01*
X93535714Y-36736071D01*
X93750000Y-36736071D01*
X91464285Y-36736071D02*
X91464285Y-35236071D01*
X90892857Y-35236071D01*
X90750000Y-35307500D01*
X90678571Y-35378928D01*
X90607142Y-35521785D01*
X90607142Y-35736071D01*
X90678571Y-35878928D01*
X90750000Y-35950357D01*
X90892857Y-36021785D01*
X91464285Y-36021785D01*
X89321428Y-36736071D02*
X89321428Y-35950357D01*
X89392857Y-35807500D01*
X89535714Y-35736071D01*
X89821428Y-35736071D01*
X89964285Y-35807500D01*
X89321428Y-36664642D02*
X89464285Y-36736071D01*
X89821428Y-36736071D01*
X89964285Y-36664642D01*
X90035714Y-36521785D01*
X90035714Y-36378928D01*
X89964285Y-36236071D01*
X89821428Y-36164642D01*
X89464285Y-36164642D01*
X89321428Y-36093214D01*
X88607142Y-35736071D02*
X88607142Y-36736071D01*
X88607142Y-35878928D02*
X88535714Y-35807500D01*
X88392857Y-35736071D01*
X88178571Y-35736071D01*
X88035714Y-35807500D01*
X87964285Y-35950357D01*
X87964285Y-36736071D01*
X86678571Y-36664642D02*
X86821428Y-36736071D01*
X87107142Y-36736071D01*
X87250000Y-36664642D01*
X87321428Y-36521785D01*
X87321428Y-35950357D01*
X87250000Y-35807500D01*
X87107142Y-35736071D01*
X86821428Y-35736071D01*
X86678571Y-35807500D01*
X86607142Y-35950357D01*
X86607142Y-36093214D01*
X87321428Y-36236071D01*
X85750000Y-36736071D02*
X85892857Y-36664642D01*
X85964285Y-36521785D01*
X85964285Y-35236071D01*
X84178571Y-35736071D02*
X83821428Y-36736071D01*
X83464285Y-35736071D01*
X82107142Y-36736071D02*
X82964285Y-36736071D01*
X82535714Y-36736071D02*
X82535714Y-35236071D01*
X82678571Y-35450357D01*
X82821428Y-35593214D01*
X82964285Y-35664642D01*
X81464285Y-36593214D02*
X81392857Y-36664642D01*
X81464285Y-36736071D01*
X81535714Y-36664642D01*
X81464285Y-36593214D01*
X81464285Y-36736071D01*
X80464285Y-35236071D02*
X80321428Y-35236071D01*
X80178571Y-35307500D01*
X80107142Y-35378928D01*
X80035714Y-35521785D01*
X79964285Y-35807500D01*
X79964285Y-36164642D01*
X80035714Y-36450357D01*
X80107142Y-36593214D01*
X80178571Y-36664642D01*
X80321428Y-36736071D01*
X80464285Y-36736071D01*
X80607142Y-36664642D01*
X80678571Y-36593214D01*
X80750000Y-36450357D01*
X80821428Y-36164642D01*
X80821428Y-35807500D01*
X80750000Y-35521785D01*
X80678571Y-35378928D01*
X80607142Y-35307500D01*
X80464285Y-35236071D01*
M02*
