%TF.GenerationSoftware,KiCad,Pcbnew,7.0.7*%
%TF.CreationDate,2023-08-18T12:28:13+01:00*%
%TF.ProjectId,Quango_Panel_3,5175616e-676f-45f5-9061-6e656c5f332e,rev?*%
%TF.SameCoordinates,Original*%
%TF.FileFunction,Profile,NP*%
%FSLAX46Y46*%
G04 Gerber Fmt 4.6, Leading zero omitted, Abs format (unit mm)*
G04 Created by KiCad (PCBNEW 7.0.7) date 2023-08-18 12:28:13*
%MOMM*%
%LPD*%
G01*
G04 APERTURE LIST*
%TA.AperFunction,Profile*%
%ADD10C,0.100000*%
%TD*%
%TA.AperFunction,Profile*%
%ADD11C,0.120000*%
%TD*%
G04 APERTURE END LIST*
D10*
X50000000Y-30000000D02*
X131000000Y-30000000D01*
X131000000Y-158500000D01*
X50000000Y-158500000D01*
X50000000Y-30000000D01*
D11*
%TO.C,REF\u002A\u002A*%
X54400000Y-131600000D02*
X54400000Y-147200000D01*
X70100000Y-131300000D02*
X54700000Y-131300000D01*
X70100000Y-147500000D02*
X54700000Y-147500000D01*
X70400000Y-131600000D02*
X70400000Y-147200000D01*
X54700000Y-131300000D02*
G75*
G03*
X54400000Y-131600000I0J-300000D01*
G01*
X54400000Y-147200000D02*
G75*
G03*
X54700000Y-147500000I300000J0D01*
G01*
X70400000Y-131600000D02*
G75*
G03*
X70100000Y-131300000I-300000J0D01*
G01*
X70100000Y-147500000D02*
G75*
G03*
X70400000Y-147200000I0J300000D01*
G01*
X91800000Y-131600000D02*
X91800000Y-147200000D01*
X107500000Y-131300000D02*
X92100000Y-131300000D01*
X107500000Y-147500000D02*
X92100000Y-147500000D01*
X107800000Y-131600000D02*
X107800000Y-147200000D01*
X92100000Y-131300000D02*
G75*
G03*
X91800000Y-131600000I0J-300000D01*
G01*
X91800000Y-147200000D02*
G75*
G03*
X92100000Y-147500000I300000J0D01*
G01*
X107800000Y-131600000D02*
G75*
G03*
X107500000Y-131300000I-300000J0D01*
G01*
X107500000Y-147500000D02*
G75*
G03*
X107800000Y-147200000I0J300000D01*
G01*
X110500000Y-131600000D02*
X110500000Y-147200000D01*
X126200000Y-131300000D02*
X110800000Y-131300000D01*
X126200000Y-147500000D02*
X110800000Y-147500000D01*
X126500000Y-131600000D02*
X126500000Y-147200000D01*
X110800000Y-131300000D02*
G75*
G03*
X110500000Y-131600000I0J-300000D01*
G01*
X110500000Y-147200000D02*
G75*
G03*
X110800000Y-147500000I300000J0D01*
G01*
X126500000Y-131600000D02*
G75*
G03*
X126200000Y-131300000I-300000J0D01*
G01*
X126200000Y-147500000D02*
G75*
G03*
X126500000Y-147200000I0J300000D01*
G01*
X73100000Y-131600000D02*
X73100000Y-147200000D01*
X88800000Y-131300000D02*
X73400000Y-131300000D01*
X88800000Y-147500000D02*
X73400000Y-147500000D01*
X89100000Y-131600000D02*
X89100000Y-147200000D01*
X73400000Y-131300000D02*
G75*
G03*
X73100000Y-131600000I0J-300000D01*
G01*
X73100000Y-147200000D02*
G75*
G03*
X73400000Y-147500000I300000J0D01*
G01*
X89100000Y-131600000D02*
G75*
G03*
X88800000Y-131300000I-300000J0D01*
G01*
X88800000Y-147500000D02*
G75*
G03*
X89100000Y-147200000I0J300000D01*
G01*
X95700000Y-123700000D02*
X95719239Y-124680761D01*
X97000000Y-122400000D02*
X103780761Y-122419239D01*
X97019239Y-125980761D02*
X103780761Y-125980761D01*
X105080761Y-124680761D02*
X105080761Y-123719239D01*
X97000000Y-122400000D02*
G75*
G03*
X95700000Y-123700000I-1J-1299999D01*
G01*
X95719239Y-124680761D02*
G75*
G03*
X97019239Y-125980761I1299999J-1D01*
G01*
X105080761Y-123719239D02*
G75*
G03*
X103780761Y-122419239I-1300001J-1D01*
G01*
X103780761Y-125980761D02*
G75*
G03*
X105080761Y-124680761I-1J1300001D01*
G01*
%TO.C,Level1*%
X81550000Y-62350000D02*
X79550000Y-62350000D01*
X79550000Y-62350000D02*
X79550000Y-112350000D01*
X79550000Y-112350000D02*
X81550000Y-112350000D01*
X81550000Y-112350000D02*
X81550000Y-62350000D01*
X101450000Y-62350000D02*
X99450000Y-62350000D01*
X99450000Y-62350000D02*
X99450000Y-112350000D01*
X99450000Y-112350000D02*
X101450000Y-112350000D01*
X101450000Y-112350000D02*
X101450000Y-62350000D01*
%TD*%
M02*
