%TF.GenerationSoftware,KiCad,Pcbnew,7.0.7*%
%TF.CreationDate,2023-08-18T12:28:13+01:00*%
%TF.ProjectId,Quango_Panel_3,5175616e-676f-45f5-9061-6e656c5f332e,rev?*%
%TF.SameCoordinates,Original*%
%TF.FileFunction,Legend,Bot*%
%TF.FilePolarity,Positive*%
%FSLAX46Y46*%
G04 Gerber Fmt 4.6, Leading zero omitted, Abs format (unit mm)*
G04 Created by KiCad (PCBNEW 7.0.7) date 2023-08-18 12:28:13*
%MOMM*%
%LPD*%
G01*
G04 APERTURE LIST*
%ADD10C,0.150000*%
%ADD11C,0.200000*%
G04 APERTURE END LIST*
D10*
X76600000Y-31950000D02*
X104800000Y-31950000D01*
X104800000Y-37950000D01*
X76600000Y-37950000D01*
X76600000Y-31950000D01*
X95119048Y-153504819D02*
X95119048Y-154219104D01*
X95119048Y-154219104D02*
X95166667Y-154361961D01*
X95166667Y-154361961D02*
X95261905Y-154457200D01*
X95261905Y-154457200D02*
X95404762Y-154504819D01*
X95404762Y-154504819D02*
X95500000Y-154504819D01*
X94166667Y-154504819D02*
X94642857Y-154504819D01*
X94642857Y-154504819D02*
X94642857Y-153504819D01*
X93261905Y-154409580D02*
X93309524Y-154457200D01*
X93309524Y-154457200D02*
X93452381Y-154504819D01*
X93452381Y-154504819D02*
X93547619Y-154504819D01*
X93547619Y-154504819D02*
X93690476Y-154457200D01*
X93690476Y-154457200D02*
X93785714Y-154361961D01*
X93785714Y-154361961D02*
X93833333Y-154266723D01*
X93833333Y-154266723D02*
X93880952Y-154076247D01*
X93880952Y-154076247D02*
X93880952Y-153933390D01*
X93880952Y-153933390D02*
X93833333Y-153742914D01*
X93833333Y-153742914D02*
X93785714Y-153647676D01*
X93785714Y-153647676D02*
X93690476Y-153552438D01*
X93690476Y-153552438D02*
X93547619Y-153504819D01*
X93547619Y-153504819D02*
X93452381Y-153504819D01*
X93452381Y-153504819D02*
X93309524Y-153552438D01*
X93309524Y-153552438D02*
X93261905Y-153600057D01*
X92547619Y-153504819D02*
X92547619Y-154219104D01*
X92547619Y-154219104D02*
X92595238Y-154361961D01*
X92595238Y-154361961D02*
X92690476Y-154457200D01*
X92690476Y-154457200D02*
X92833333Y-154504819D01*
X92833333Y-154504819D02*
X92928571Y-154504819D01*
X91595238Y-154504819D02*
X92071428Y-154504819D01*
X92071428Y-154504819D02*
X92071428Y-153504819D01*
X90690476Y-154409580D02*
X90738095Y-154457200D01*
X90738095Y-154457200D02*
X90880952Y-154504819D01*
X90880952Y-154504819D02*
X90976190Y-154504819D01*
X90976190Y-154504819D02*
X91119047Y-154457200D01*
X91119047Y-154457200D02*
X91214285Y-154361961D01*
X91214285Y-154361961D02*
X91261904Y-154266723D01*
X91261904Y-154266723D02*
X91309523Y-154076247D01*
X91309523Y-154076247D02*
X91309523Y-153933390D01*
X91309523Y-153933390D02*
X91261904Y-153742914D01*
X91261904Y-153742914D02*
X91214285Y-153647676D01*
X91214285Y-153647676D02*
X91119047Y-153552438D01*
X91119047Y-153552438D02*
X90976190Y-153504819D01*
X90976190Y-153504819D02*
X90880952Y-153504819D01*
X90880952Y-153504819D02*
X90738095Y-153552438D01*
X90738095Y-153552438D02*
X90690476Y-153600057D01*
X89976190Y-153504819D02*
X89976190Y-154219104D01*
X89976190Y-154219104D02*
X90023809Y-154361961D01*
X90023809Y-154361961D02*
X90119047Y-154457200D01*
X90119047Y-154457200D02*
X90261904Y-154504819D01*
X90261904Y-154504819D02*
X90357142Y-154504819D01*
X89023809Y-154504819D02*
X89499999Y-154504819D01*
X89499999Y-154504819D02*
X89499999Y-153504819D01*
X88119047Y-154409580D02*
X88166666Y-154457200D01*
X88166666Y-154457200D02*
X88309523Y-154504819D01*
X88309523Y-154504819D02*
X88404761Y-154504819D01*
X88404761Y-154504819D02*
X88547618Y-154457200D01*
X88547618Y-154457200D02*
X88642856Y-154361961D01*
X88642856Y-154361961D02*
X88690475Y-154266723D01*
X88690475Y-154266723D02*
X88738094Y-154076247D01*
X88738094Y-154076247D02*
X88738094Y-153933390D01*
X88738094Y-153933390D02*
X88690475Y-153742914D01*
X88690475Y-153742914D02*
X88642856Y-153647676D01*
X88642856Y-153647676D02*
X88547618Y-153552438D01*
X88547618Y-153552438D02*
X88404761Y-153504819D01*
X88404761Y-153504819D02*
X88309523Y-153504819D01*
X88309523Y-153504819D02*
X88166666Y-153552438D01*
X88166666Y-153552438D02*
X88119047Y-153600057D01*
X87404761Y-153504819D02*
X87404761Y-154219104D01*
X87404761Y-154219104D02*
X87452380Y-154361961D01*
X87452380Y-154361961D02*
X87547618Y-154457200D01*
X87547618Y-154457200D02*
X87690475Y-154504819D01*
X87690475Y-154504819D02*
X87785713Y-154504819D01*
X86452380Y-154504819D02*
X86928570Y-154504819D01*
X86928570Y-154504819D02*
X86928570Y-153504819D01*
X85547618Y-154409580D02*
X85595237Y-154457200D01*
X85595237Y-154457200D02*
X85738094Y-154504819D01*
X85738094Y-154504819D02*
X85833332Y-154504819D01*
X85833332Y-154504819D02*
X85976189Y-154457200D01*
X85976189Y-154457200D02*
X86071427Y-154361961D01*
X86071427Y-154361961D02*
X86119046Y-154266723D01*
X86119046Y-154266723D02*
X86166665Y-154076247D01*
X86166665Y-154076247D02*
X86166665Y-153933390D01*
X86166665Y-153933390D02*
X86119046Y-153742914D01*
X86119046Y-153742914D02*
X86071427Y-153647676D01*
X86071427Y-153647676D02*
X85976189Y-153552438D01*
X85976189Y-153552438D02*
X85833332Y-153504819D01*
X85833332Y-153504819D02*
X85738094Y-153504819D01*
X85738094Y-153504819D02*
X85595237Y-153552438D01*
X85595237Y-153552438D02*
X85547618Y-153600057D01*
D11*
X103499999Y-34326028D02*
X103499999Y-32826028D01*
X103499999Y-32826028D02*
X102999999Y-33897457D01*
X102999999Y-33897457D02*
X102499999Y-32826028D01*
X102499999Y-32826028D02*
X102499999Y-34326028D01*
X101571427Y-34326028D02*
X101714284Y-34254600D01*
X101714284Y-34254600D02*
X101785713Y-34183171D01*
X101785713Y-34183171D02*
X101857141Y-34040314D01*
X101857141Y-34040314D02*
X101857141Y-33611742D01*
X101857141Y-33611742D02*
X101785713Y-33468885D01*
X101785713Y-33468885D02*
X101714284Y-33397457D01*
X101714284Y-33397457D02*
X101571427Y-33326028D01*
X101571427Y-33326028D02*
X101357141Y-33326028D01*
X101357141Y-33326028D02*
X101214284Y-33397457D01*
X101214284Y-33397457D02*
X101142856Y-33468885D01*
X101142856Y-33468885D02*
X101071427Y-33611742D01*
X101071427Y-33611742D02*
X101071427Y-34040314D01*
X101071427Y-34040314D02*
X101142856Y-34183171D01*
X101142856Y-34183171D02*
X101214284Y-34254600D01*
X101214284Y-34254600D02*
X101357141Y-34326028D01*
X101357141Y-34326028D02*
X101571427Y-34326028D01*
X99785713Y-33326028D02*
X99785713Y-34326028D01*
X100428570Y-33326028D02*
X100428570Y-34111742D01*
X100428570Y-34111742D02*
X100357141Y-34254600D01*
X100357141Y-34254600D02*
X100214284Y-34326028D01*
X100214284Y-34326028D02*
X99999998Y-34326028D01*
X99999998Y-34326028D02*
X99857141Y-34254600D01*
X99857141Y-34254600D02*
X99785713Y-34183171D01*
X99071427Y-33326028D02*
X99071427Y-34326028D01*
X99071427Y-33468885D02*
X98999998Y-33397457D01*
X98999998Y-33397457D02*
X98857141Y-33326028D01*
X98857141Y-33326028D02*
X98642855Y-33326028D01*
X98642855Y-33326028D02*
X98499998Y-33397457D01*
X98499998Y-33397457D02*
X98428570Y-33540314D01*
X98428570Y-33540314D02*
X98428570Y-34326028D01*
X97928569Y-33326028D02*
X97357141Y-33326028D01*
X97714284Y-32826028D02*
X97714284Y-34111742D01*
X97714284Y-34111742D02*
X97642855Y-34254600D01*
X97642855Y-34254600D02*
X97499998Y-34326028D01*
X97499998Y-34326028D02*
X97357141Y-34326028D01*
X96857141Y-33326028D02*
X96857141Y-34611742D01*
X96857141Y-34611742D02*
X96928569Y-34754600D01*
X96928569Y-34754600D02*
X97071426Y-34826028D01*
X97071426Y-34826028D02*
X97142855Y-34826028D01*
X96857141Y-32826028D02*
X96928569Y-32897457D01*
X96928569Y-32897457D02*
X96857141Y-32968885D01*
X96857141Y-32968885D02*
X96785712Y-32897457D01*
X96785712Y-32897457D02*
X96857141Y-32826028D01*
X96857141Y-32826028D02*
X96857141Y-32968885D01*
X95928569Y-34326028D02*
X96071426Y-34254600D01*
X96071426Y-34254600D02*
X96142855Y-34183171D01*
X96142855Y-34183171D02*
X96214283Y-34040314D01*
X96214283Y-34040314D02*
X96214283Y-33611742D01*
X96214283Y-33611742D02*
X96142855Y-33468885D01*
X96142855Y-33468885D02*
X96071426Y-33397457D01*
X96071426Y-33397457D02*
X95928569Y-33326028D01*
X95928569Y-33326028D02*
X95714283Y-33326028D01*
X95714283Y-33326028D02*
X95571426Y-33397457D01*
X95571426Y-33397457D02*
X95499998Y-33468885D01*
X95499998Y-33468885D02*
X95428569Y-33611742D01*
X95428569Y-33611742D02*
X95428569Y-34040314D01*
X95428569Y-34040314D02*
X95499998Y-34183171D01*
X95499998Y-34183171D02*
X95571426Y-34254600D01*
X95571426Y-34254600D02*
X95714283Y-34326028D01*
X95714283Y-34326028D02*
X95928569Y-34326028D01*
X94928569Y-33326028D02*
X94571426Y-34326028D01*
X94214283Y-33326028D02*
X94571426Y-34326028D01*
X94571426Y-34326028D02*
X94714283Y-34683171D01*
X94714283Y-34683171D02*
X94785712Y-34754600D01*
X94785712Y-34754600D02*
X94928569Y-34826028D01*
X92499998Y-34326028D02*
X92499998Y-32826028D01*
X92499998Y-32826028D02*
X91999998Y-33897457D01*
X91999998Y-33897457D02*
X91499998Y-32826028D01*
X91499998Y-32826028D02*
X91499998Y-34326028D01*
X90571426Y-34326028D02*
X90714283Y-34254600D01*
X90714283Y-34254600D02*
X90785712Y-34183171D01*
X90785712Y-34183171D02*
X90857140Y-34040314D01*
X90857140Y-34040314D02*
X90857140Y-33611742D01*
X90857140Y-33611742D02*
X90785712Y-33468885D01*
X90785712Y-33468885D02*
X90714283Y-33397457D01*
X90714283Y-33397457D02*
X90571426Y-33326028D01*
X90571426Y-33326028D02*
X90357140Y-33326028D01*
X90357140Y-33326028D02*
X90214283Y-33397457D01*
X90214283Y-33397457D02*
X90142855Y-33468885D01*
X90142855Y-33468885D02*
X90071426Y-33611742D01*
X90071426Y-33611742D02*
X90071426Y-34040314D01*
X90071426Y-34040314D02*
X90142855Y-34183171D01*
X90142855Y-34183171D02*
X90214283Y-34254600D01*
X90214283Y-34254600D02*
X90357140Y-34326028D01*
X90357140Y-34326028D02*
X90571426Y-34326028D01*
X88785712Y-34326028D02*
X88785712Y-32826028D01*
X88785712Y-34254600D02*
X88928569Y-34326028D01*
X88928569Y-34326028D02*
X89214283Y-34326028D01*
X89214283Y-34326028D02*
X89357140Y-34254600D01*
X89357140Y-34254600D02*
X89428569Y-34183171D01*
X89428569Y-34183171D02*
X89499997Y-34040314D01*
X89499997Y-34040314D02*
X89499997Y-33611742D01*
X89499997Y-33611742D02*
X89428569Y-33468885D01*
X89428569Y-33468885D02*
X89357140Y-33397457D01*
X89357140Y-33397457D02*
X89214283Y-33326028D01*
X89214283Y-33326028D02*
X88928569Y-33326028D01*
X88928569Y-33326028D02*
X88785712Y-33397457D01*
X87428569Y-33326028D02*
X87428569Y-34326028D01*
X88071426Y-33326028D02*
X88071426Y-34111742D01*
X88071426Y-34111742D02*
X87999997Y-34254600D01*
X87999997Y-34254600D02*
X87857140Y-34326028D01*
X87857140Y-34326028D02*
X87642854Y-34326028D01*
X87642854Y-34326028D02*
X87499997Y-34254600D01*
X87499997Y-34254600D02*
X87428569Y-34183171D01*
X86499997Y-34326028D02*
X86642854Y-34254600D01*
X86642854Y-34254600D02*
X86714283Y-34111742D01*
X86714283Y-34111742D02*
X86714283Y-32826028D01*
X85285712Y-34326028D02*
X85285712Y-33540314D01*
X85285712Y-33540314D02*
X85357140Y-33397457D01*
X85357140Y-33397457D02*
X85499997Y-33326028D01*
X85499997Y-33326028D02*
X85785712Y-33326028D01*
X85785712Y-33326028D02*
X85928569Y-33397457D01*
X85285712Y-34254600D02*
X85428569Y-34326028D01*
X85428569Y-34326028D02*
X85785712Y-34326028D01*
X85785712Y-34326028D02*
X85928569Y-34254600D01*
X85928569Y-34254600D02*
X85999997Y-34111742D01*
X85999997Y-34111742D02*
X85999997Y-33968885D01*
X85999997Y-33968885D02*
X85928569Y-33826028D01*
X85928569Y-33826028D02*
X85785712Y-33754600D01*
X85785712Y-33754600D02*
X85428569Y-33754600D01*
X85428569Y-33754600D02*
X85285712Y-33683171D01*
X84571426Y-34326028D02*
X84571426Y-33326028D01*
X84571426Y-33611742D02*
X84499997Y-33468885D01*
X84499997Y-33468885D02*
X84428569Y-33397457D01*
X84428569Y-33397457D02*
X84285711Y-33326028D01*
X84285711Y-33326028D02*
X84142854Y-33326028D01*
X82571426Y-32968885D02*
X82499998Y-32897457D01*
X82499998Y-32897457D02*
X82357141Y-32826028D01*
X82357141Y-32826028D02*
X81999998Y-32826028D01*
X81999998Y-32826028D02*
X81857141Y-32897457D01*
X81857141Y-32897457D02*
X81785712Y-32968885D01*
X81785712Y-32968885D02*
X81714283Y-33111742D01*
X81714283Y-33111742D02*
X81714283Y-33254600D01*
X81714283Y-33254600D02*
X81785712Y-33468885D01*
X81785712Y-33468885D02*
X82642855Y-34326028D01*
X82642855Y-34326028D02*
X81714283Y-34326028D01*
X80785712Y-32826028D02*
X80642855Y-32826028D01*
X80642855Y-32826028D02*
X80499998Y-32897457D01*
X80499998Y-32897457D02*
X80428570Y-32968885D01*
X80428570Y-32968885D02*
X80357141Y-33111742D01*
X80357141Y-33111742D02*
X80285712Y-33397457D01*
X80285712Y-33397457D02*
X80285712Y-33754600D01*
X80285712Y-33754600D02*
X80357141Y-34040314D01*
X80357141Y-34040314D02*
X80428570Y-34183171D01*
X80428570Y-34183171D02*
X80499998Y-34254600D01*
X80499998Y-34254600D02*
X80642855Y-34326028D01*
X80642855Y-34326028D02*
X80785712Y-34326028D01*
X80785712Y-34326028D02*
X80928570Y-34254600D01*
X80928570Y-34254600D02*
X80999998Y-34183171D01*
X80999998Y-34183171D02*
X81071427Y-34040314D01*
X81071427Y-34040314D02*
X81142855Y-33754600D01*
X81142855Y-33754600D02*
X81142855Y-33397457D01*
X81142855Y-33397457D02*
X81071427Y-33111742D01*
X81071427Y-33111742D02*
X80999998Y-32968885D01*
X80999998Y-32968885D02*
X80928570Y-32897457D01*
X80928570Y-32897457D02*
X80785712Y-32826028D01*
X79714284Y-32968885D02*
X79642856Y-32897457D01*
X79642856Y-32897457D02*
X79499999Y-32826028D01*
X79499999Y-32826028D02*
X79142856Y-32826028D01*
X79142856Y-32826028D02*
X78999999Y-32897457D01*
X78999999Y-32897457D02*
X78928570Y-32968885D01*
X78928570Y-32968885D02*
X78857141Y-33111742D01*
X78857141Y-33111742D02*
X78857141Y-33254600D01*
X78857141Y-33254600D02*
X78928570Y-33468885D01*
X78928570Y-33468885D02*
X79785713Y-34326028D01*
X79785713Y-34326028D02*
X78857141Y-34326028D01*
X78357142Y-32826028D02*
X77428570Y-32826028D01*
X77428570Y-32826028D02*
X77928570Y-33397457D01*
X77928570Y-33397457D02*
X77714285Y-33397457D01*
X77714285Y-33397457D02*
X77571428Y-33468885D01*
X77571428Y-33468885D02*
X77499999Y-33540314D01*
X77499999Y-33540314D02*
X77428570Y-33683171D01*
X77428570Y-33683171D02*
X77428570Y-34040314D01*
X77428570Y-34040314D02*
X77499999Y-34183171D01*
X77499999Y-34183171D02*
X77571428Y-34254600D01*
X77571428Y-34254600D02*
X77714285Y-34326028D01*
X77714285Y-34326028D02*
X78142856Y-34326028D01*
X78142856Y-34326028D02*
X78285713Y-34254600D01*
X78285713Y-34254600D02*
X78357142Y-34183171D01*
X99964285Y-36883885D02*
X100107142Y-36812457D01*
X100107142Y-36812457D02*
X100249999Y-36669600D01*
X100249999Y-36669600D02*
X100464285Y-36455314D01*
X100464285Y-36455314D02*
X100607142Y-36383885D01*
X100607142Y-36383885D02*
X100749999Y-36383885D01*
X100678570Y-36741028D02*
X100821428Y-36669600D01*
X100821428Y-36669600D02*
X100964285Y-36526742D01*
X100964285Y-36526742D02*
X101035713Y-36241028D01*
X101035713Y-36241028D02*
X101035713Y-35741028D01*
X101035713Y-35741028D02*
X100964285Y-35455314D01*
X100964285Y-35455314D02*
X100821428Y-35312457D01*
X100821428Y-35312457D02*
X100678570Y-35241028D01*
X100678570Y-35241028D02*
X100392856Y-35241028D01*
X100392856Y-35241028D02*
X100249999Y-35312457D01*
X100249999Y-35312457D02*
X100107142Y-35455314D01*
X100107142Y-35455314D02*
X100035713Y-35741028D01*
X100035713Y-35741028D02*
X100035713Y-36241028D01*
X100035713Y-36241028D02*
X100107142Y-36526742D01*
X100107142Y-36526742D02*
X100249999Y-36669600D01*
X100249999Y-36669600D02*
X100392856Y-36741028D01*
X100392856Y-36741028D02*
X100678570Y-36741028D01*
X98749999Y-35741028D02*
X98749999Y-36741028D01*
X99392856Y-35741028D02*
X99392856Y-36526742D01*
X99392856Y-36526742D02*
X99321427Y-36669600D01*
X99321427Y-36669600D02*
X99178570Y-36741028D01*
X99178570Y-36741028D02*
X98964284Y-36741028D01*
X98964284Y-36741028D02*
X98821427Y-36669600D01*
X98821427Y-36669600D02*
X98749999Y-36598171D01*
X97392856Y-36741028D02*
X97392856Y-35955314D01*
X97392856Y-35955314D02*
X97464284Y-35812457D01*
X97464284Y-35812457D02*
X97607141Y-35741028D01*
X97607141Y-35741028D02*
X97892856Y-35741028D01*
X97892856Y-35741028D02*
X98035713Y-35812457D01*
X97392856Y-36669600D02*
X97535713Y-36741028D01*
X97535713Y-36741028D02*
X97892856Y-36741028D01*
X97892856Y-36741028D02*
X98035713Y-36669600D01*
X98035713Y-36669600D02*
X98107141Y-36526742D01*
X98107141Y-36526742D02*
X98107141Y-36383885D01*
X98107141Y-36383885D02*
X98035713Y-36241028D01*
X98035713Y-36241028D02*
X97892856Y-36169600D01*
X97892856Y-36169600D02*
X97535713Y-36169600D01*
X97535713Y-36169600D02*
X97392856Y-36098171D01*
X96678570Y-35741028D02*
X96678570Y-36741028D01*
X96678570Y-35883885D02*
X96607141Y-35812457D01*
X96607141Y-35812457D02*
X96464284Y-35741028D01*
X96464284Y-35741028D02*
X96249998Y-35741028D01*
X96249998Y-35741028D02*
X96107141Y-35812457D01*
X96107141Y-35812457D02*
X96035713Y-35955314D01*
X96035713Y-35955314D02*
X96035713Y-36741028D01*
X94678570Y-35741028D02*
X94678570Y-36955314D01*
X94678570Y-36955314D02*
X94749998Y-37098171D01*
X94749998Y-37098171D02*
X94821427Y-37169600D01*
X94821427Y-37169600D02*
X94964284Y-37241028D01*
X94964284Y-37241028D02*
X95178570Y-37241028D01*
X95178570Y-37241028D02*
X95321427Y-37169600D01*
X94678570Y-36669600D02*
X94821427Y-36741028D01*
X94821427Y-36741028D02*
X95107141Y-36741028D01*
X95107141Y-36741028D02*
X95249998Y-36669600D01*
X95249998Y-36669600D02*
X95321427Y-36598171D01*
X95321427Y-36598171D02*
X95392855Y-36455314D01*
X95392855Y-36455314D02*
X95392855Y-36026742D01*
X95392855Y-36026742D02*
X95321427Y-35883885D01*
X95321427Y-35883885D02*
X95249998Y-35812457D01*
X95249998Y-35812457D02*
X95107141Y-35741028D01*
X95107141Y-35741028D02*
X94821427Y-35741028D01*
X94821427Y-35741028D02*
X94678570Y-35812457D01*
X93749998Y-36741028D02*
X93892855Y-36669600D01*
X93892855Y-36669600D02*
X93964284Y-36598171D01*
X93964284Y-36598171D02*
X94035712Y-36455314D01*
X94035712Y-36455314D02*
X94035712Y-36026742D01*
X94035712Y-36026742D02*
X93964284Y-35883885D01*
X93964284Y-35883885D02*
X93892855Y-35812457D01*
X93892855Y-35812457D02*
X93749998Y-35741028D01*
X93749998Y-35741028D02*
X93535712Y-35741028D01*
X93535712Y-35741028D02*
X93392855Y-35812457D01*
X93392855Y-35812457D02*
X93321427Y-35883885D01*
X93321427Y-35883885D02*
X93249998Y-36026742D01*
X93249998Y-36026742D02*
X93249998Y-36455314D01*
X93249998Y-36455314D02*
X93321427Y-36598171D01*
X93321427Y-36598171D02*
X93392855Y-36669600D01*
X93392855Y-36669600D02*
X93535712Y-36741028D01*
X93535712Y-36741028D02*
X93749998Y-36741028D01*
X91464284Y-36741028D02*
X91464284Y-35241028D01*
X91464284Y-35241028D02*
X90892855Y-35241028D01*
X90892855Y-35241028D02*
X90749998Y-35312457D01*
X90749998Y-35312457D02*
X90678569Y-35383885D01*
X90678569Y-35383885D02*
X90607141Y-35526742D01*
X90607141Y-35526742D02*
X90607141Y-35741028D01*
X90607141Y-35741028D02*
X90678569Y-35883885D01*
X90678569Y-35883885D02*
X90749998Y-35955314D01*
X90749998Y-35955314D02*
X90892855Y-36026742D01*
X90892855Y-36026742D02*
X91464284Y-36026742D01*
X89321427Y-36741028D02*
X89321427Y-35955314D01*
X89321427Y-35955314D02*
X89392855Y-35812457D01*
X89392855Y-35812457D02*
X89535712Y-35741028D01*
X89535712Y-35741028D02*
X89821427Y-35741028D01*
X89821427Y-35741028D02*
X89964284Y-35812457D01*
X89321427Y-36669600D02*
X89464284Y-36741028D01*
X89464284Y-36741028D02*
X89821427Y-36741028D01*
X89821427Y-36741028D02*
X89964284Y-36669600D01*
X89964284Y-36669600D02*
X90035712Y-36526742D01*
X90035712Y-36526742D02*
X90035712Y-36383885D01*
X90035712Y-36383885D02*
X89964284Y-36241028D01*
X89964284Y-36241028D02*
X89821427Y-36169600D01*
X89821427Y-36169600D02*
X89464284Y-36169600D01*
X89464284Y-36169600D02*
X89321427Y-36098171D01*
X88607141Y-35741028D02*
X88607141Y-36741028D01*
X88607141Y-35883885D02*
X88535712Y-35812457D01*
X88535712Y-35812457D02*
X88392855Y-35741028D01*
X88392855Y-35741028D02*
X88178569Y-35741028D01*
X88178569Y-35741028D02*
X88035712Y-35812457D01*
X88035712Y-35812457D02*
X87964284Y-35955314D01*
X87964284Y-35955314D02*
X87964284Y-36741028D01*
X86678569Y-36669600D02*
X86821426Y-36741028D01*
X86821426Y-36741028D02*
X87107141Y-36741028D01*
X87107141Y-36741028D02*
X87249998Y-36669600D01*
X87249998Y-36669600D02*
X87321426Y-36526742D01*
X87321426Y-36526742D02*
X87321426Y-35955314D01*
X87321426Y-35955314D02*
X87249998Y-35812457D01*
X87249998Y-35812457D02*
X87107141Y-35741028D01*
X87107141Y-35741028D02*
X86821426Y-35741028D01*
X86821426Y-35741028D02*
X86678569Y-35812457D01*
X86678569Y-35812457D02*
X86607141Y-35955314D01*
X86607141Y-35955314D02*
X86607141Y-36098171D01*
X86607141Y-36098171D02*
X87321426Y-36241028D01*
X85749998Y-36741028D02*
X85892855Y-36669600D01*
X85892855Y-36669600D02*
X85964284Y-36526742D01*
X85964284Y-36526742D02*
X85964284Y-35241028D01*
X84178570Y-35741028D02*
X83821427Y-36741028D01*
X83821427Y-36741028D02*
X83464284Y-35741028D01*
X82964284Y-35383885D02*
X82892856Y-35312457D01*
X82892856Y-35312457D02*
X82749999Y-35241028D01*
X82749999Y-35241028D02*
X82392856Y-35241028D01*
X82392856Y-35241028D02*
X82249999Y-35312457D01*
X82249999Y-35312457D02*
X82178570Y-35383885D01*
X82178570Y-35383885D02*
X82107141Y-35526742D01*
X82107141Y-35526742D02*
X82107141Y-35669600D01*
X82107141Y-35669600D02*
X82178570Y-35883885D01*
X82178570Y-35883885D02*
X83035713Y-36741028D01*
X83035713Y-36741028D02*
X82107141Y-36741028D01*
X81464285Y-36598171D02*
X81392856Y-36669600D01*
X81392856Y-36669600D02*
X81464285Y-36741028D01*
X81464285Y-36741028D02*
X81535713Y-36669600D01*
X81535713Y-36669600D02*
X81464285Y-36598171D01*
X81464285Y-36598171D02*
X81464285Y-36741028D01*
X80464284Y-35241028D02*
X80321427Y-35241028D01*
X80321427Y-35241028D02*
X80178570Y-35312457D01*
X80178570Y-35312457D02*
X80107142Y-35383885D01*
X80107142Y-35383885D02*
X80035713Y-35526742D01*
X80035713Y-35526742D02*
X79964284Y-35812457D01*
X79964284Y-35812457D02*
X79964284Y-36169600D01*
X79964284Y-36169600D02*
X80035713Y-36455314D01*
X80035713Y-36455314D02*
X80107142Y-36598171D01*
X80107142Y-36598171D02*
X80178570Y-36669600D01*
X80178570Y-36669600D02*
X80321427Y-36741028D01*
X80321427Y-36741028D02*
X80464284Y-36741028D01*
X80464284Y-36741028D02*
X80607142Y-36669600D01*
X80607142Y-36669600D02*
X80678570Y-36598171D01*
X80678570Y-36598171D02*
X80749999Y-36455314D01*
X80749999Y-36455314D02*
X80821427Y-36169600D01*
X80821427Y-36169600D02*
X80821427Y-35812457D01*
X80821427Y-35812457D02*
X80749999Y-35526742D01*
X80749999Y-35526742D02*
X80678570Y-35383885D01*
X80678570Y-35383885D02*
X80607142Y-35312457D01*
X80607142Y-35312457D02*
X80464284Y-35241028D01*
M02*
