%TF.GenerationSoftware,KiCad,Pcbnew,(6.0.11)*%
%TF.CreationDate,2023-07-06T11:07:26+01:00*%
%TF.ProjectId,Quango_Panel,5175616e-676f-45f5-9061-6e656c2e6b69,rev?*%
%TF.SameCoordinates,Original*%
%TF.FileFunction,Copper,L2,Bot*%
%TF.FilePolarity,Positive*%
%FSLAX46Y46*%
G04 Gerber Fmt 4.6, Leading zero omitted, Abs format (unit mm)*
G04 Created by KiCad (PCBNEW (6.0.11)) date 2023-07-06 11:07:26*
%MOMM*%
%LPD*%
G01*
G04 APERTURE LIST*
G04 APERTURE END LIST*
%TA.AperFunction,NonConductor*%
G36*
X130941121Y-30021002D02*
G01*
X130987614Y-30074658D01*
X130999000Y-30127000D01*
X130999000Y-158373000D01*
X130978998Y-158441121D01*
X130925342Y-158487614D01*
X130873000Y-158499000D01*
X50127000Y-158499000D01*
X50058879Y-158478998D01*
X50012386Y-158425342D01*
X50001000Y-158373000D01*
X50001000Y-155542095D01*
X54745028Y-155542095D01*
X54770534Y-155809431D01*
X54834364Y-156070285D01*
X54935182Y-156319192D01*
X55070875Y-156550938D01*
X55073728Y-156554505D01*
X55185225Y-156693925D01*
X55238601Y-156760669D01*
X55434846Y-156943991D01*
X55527039Y-157007948D01*
X55651746Y-157094461D01*
X55651751Y-157094464D01*
X55655499Y-157097064D01*
X55659584Y-157099096D01*
X55659587Y-157099098D01*
X55775719Y-157156872D01*
X55895938Y-157216680D01*
X55900272Y-157218101D01*
X55900275Y-157218102D01*
X56146793Y-157298915D01*
X56146798Y-157298916D01*
X56151126Y-157300335D01*
X56155617Y-157301115D01*
X56155618Y-157301115D01*
X56411936Y-157345620D01*
X56411944Y-157345621D01*
X56415717Y-157346276D01*
X56419554Y-157346467D01*
X56498996Y-157350422D01*
X56499004Y-157350422D01*
X56500567Y-157350500D01*
X58468223Y-157350500D01*
X58470491Y-157350335D01*
X58470503Y-157350335D01*
X58600823Y-157340879D01*
X58667846Y-157336016D01*
X58672301Y-157335032D01*
X58672304Y-157335032D01*
X58925620Y-157279105D01*
X58925624Y-157279104D01*
X58930080Y-157278120D01*
X59097617Y-157214646D01*
X59176941Y-157184593D01*
X59176944Y-157184592D01*
X59181211Y-157182975D01*
X59415976Y-157052574D01*
X59558254Y-156943991D01*
X59625833Y-156892417D01*
X59625837Y-156892413D01*
X59629458Y-156889650D01*
X59817185Y-156697614D01*
X59975225Y-156480491D01*
X60062313Y-156314963D01*
X60098140Y-156246868D01*
X60098143Y-156246862D01*
X60100265Y-156242828D01*
X60159703Y-156074515D01*
X60188165Y-155993916D01*
X60188165Y-155993915D01*
X60189688Y-155989603D01*
X60241620Y-155726122D01*
X60241847Y-155721566D01*
X60250781Y-155542095D01*
X120745028Y-155542095D01*
X120770534Y-155809431D01*
X120834364Y-156070285D01*
X120935182Y-156319192D01*
X121070875Y-156550938D01*
X121073728Y-156554505D01*
X121185225Y-156693925D01*
X121238601Y-156760669D01*
X121434846Y-156943991D01*
X121527039Y-157007948D01*
X121651746Y-157094461D01*
X121651751Y-157094464D01*
X121655499Y-157097064D01*
X121659584Y-157099096D01*
X121659587Y-157099098D01*
X121775719Y-157156872D01*
X121895938Y-157216680D01*
X121900272Y-157218101D01*
X121900275Y-157218102D01*
X122146793Y-157298915D01*
X122146798Y-157298916D01*
X122151126Y-157300335D01*
X122155617Y-157301115D01*
X122155618Y-157301115D01*
X122411936Y-157345620D01*
X122411944Y-157345621D01*
X122415717Y-157346276D01*
X122419554Y-157346467D01*
X122498996Y-157350422D01*
X122499004Y-157350422D01*
X122500567Y-157350500D01*
X124468223Y-157350500D01*
X124470491Y-157350335D01*
X124470503Y-157350335D01*
X124600823Y-157340879D01*
X124667846Y-157336016D01*
X124672301Y-157335032D01*
X124672304Y-157335032D01*
X124925620Y-157279105D01*
X124925624Y-157279104D01*
X124930080Y-157278120D01*
X125097617Y-157214646D01*
X125176941Y-157184593D01*
X125176944Y-157184592D01*
X125181211Y-157182975D01*
X125415976Y-157052574D01*
X125558254Y-156943991D01*
X125625833Y-156892417D01*
X125625837Y-156892413D01*
X125629458Y-156889650D01*
X125817185Y-156697614D01*
X125975225Y-156480491D01*
X126062313Y-156314963D01*
X126098140Y-156246868D01*
X126098143Y-156246862D01*
X126100265Y-156242828D01*
X126159703Y-156074515D01*
X126188165Y-155993916D01*
X126188165Y-155993915D01*
X126189688Y-155989603D01*
X126241620Y-155726122D01*
X126241847Y-155721566D01*
X126254745Y-155462474D01*
X126254745Y-155462468D01*
X126254972Y-155457905D01*
X126229466Y-155190569D01*
X126165636Y-154929715D01*
X126064818Y-154680808D01*
X125929125Y-154449062D01*
X125818211Y-154310371D01*
X125764251Y-154242897D01*
X125764250Y-154242895D01*
X125761399Y-154239331D01*
X125565154Y-154056009D01*
X125405436Y-153945208D01*
X125348254Y-153905539D01*
X125348249Y-153905536D01*
X125344501Y-153902936D01*
X125340416Y-153900904D01*
X125340413Y-153900902D01*
X125168560Y-153815407D01*
X125104062Y-153783320D01*
X125099728Y-153781899D01*
X125099725Y-153781898D01*
X124853207Y-153701085D01*
X124853202Y-153701084D01*
X124848874Y-153699665D01*
X124844382Y-153698885D01*
X124588064Y-153654380D01*
X124588056Y-153654379D01*
X124584283Y-153653724D01*
X124575622Y-153653293D01*
X124501004Y-153649578D01*
X124500996Y-153649578D01*
X124499433Y-153649500D01*
X122531777Y-153649500D01*
X122529509Y-153649665D01*
X122529497Y-153649665D01*
X122399177Y-153659121D01*
X122332154Y-153663984D01*
X122327699Y-153664968D01*
X122327696Y-153664968D01*
X122074380Y-153720895D01*
X122074376Y-153720896D01*
X122069920Y-153721880D01*
X121944355Y-153769452D01*
X121823059Y-153815407D01*
X121823056Y-153815408D01*
X121818789Y-153817025D01*
X121584024Y-153947426D01*
X121580392Y-153950198D01*
X121374167Y-154107583D01*
X121374163Y-154107587D01*
X121370542Y-154110350D01*
X121182815Y-154302386D01*
X121024775Y-154519509D01*
X121022651Y-154523547D01*
X120901860Y-154753132D01*
X120901857Y-154753138D01*
X120899735Y-154757172D01*
X120898215Y-154761477D01*
X120898213Y-154761481D01*
X120838804Y-154929715D01*
X120810312Y-155010397D01*
X120758380Y-155273878D01*
X120758153Y-155278431D01*
X120758153Y-155278434D01*
X120748992Y-155462474D01*
X120745028Y-155542095D01*
X60250781Y-155542095D01*
X60254745Y-155462474D01*
X60254745Y-155462468D01*
X60254972Y-155457905D01*
X60229466Y-155190569D01*
X60165636Y-154929715D01*
X60064818Y-154680808D01*
X59929125Y-154449062D01*
X59818211Y-154310371D01*
X59764251Y-154242897D01*
X59764250Y-154242895D01*
X59761399Y-154239331D01*
X59565154Y-154056009D01*
X59405436Y-153945208D01*
X59348254Y-153905539D01*
X59348249Y-153905536D01*
X59344501Y-153902936D01*
X59340416Y-153900904D01*
X59340413Y-153900902D01*
X59168560Y-153815407D01*
X59104062Y-153783320D01*
X59099728Y-153781899D01*
X59099725Y-153781898D01*
X58853207Y-153701085D01*
X58853202Y-153701084D01*
X58848874Y-153699665D01*
X58844382Y-153698885D01*
X58588064Y-153654380D01*
X58588056Y-153654379D01*
X58584283Y-153653724D01*
X58575622Y-153653293D01*
X58501004Y-153649578D01*
X58500996Y-153649578D01*
X58499433Y-153649500D01*
X56531777Y-153649500D01*
X56529509Y-153649665D01*
X56529497Y-153649665D01*
X56399177Y-153659121D01*
X56332154Y-153663984D01*
X56327699Y-153664968D01*
X56327696Y-153664968D01*
X56074380Y-153720895D01*
X56074376Y-153720896D01*
X56069920Y-153721880D01*
X55944355Y-153769452D01*
X55823059Y-153815407D01*
X55823056Y-153815408D01*
X55818789Y-153817025D01*
X55584024Y-153947426D01*
X55580392Y-153950198D01*
X55374167Y-154107583D01*
X55374163Y-154107587D01*
X55370542Y-154110350D01*
X55182815Y-154302386D01*
X55024775Y-154519509D01*
X55022651Y-154523547D01*
X54901860Y-154753132D01*
X54901857Y-154753138D01*
X54899735Y-154757172D01*
X54898215Y-154761477D01*
X54898213Y-154761481D01*
X54838804Y-154929715D01*
X54810312Y-155010397D01*
X54758380Y-155273878D01*
X54758153Y-155278431D01*
X54758153Y-155278434D01*
X54748992Y-155462474D01*
X54745028Y-155542095D01*
X50001000Y-155542095D01*
X50001000Y-131380124D01*
X54235343Y-131380124D01*
X54238918Y-131380029D01*
X54238976Y-131380158D01*
X54239000Y-131380466D01*
X54239000Y-147419585D01*
X54238972Y-147419847D01*
X54238918Y-147419967D01*
X54238918Y-147419968D01*
X54235371Y-147419860D01*
X54246950Y-147511257D01*
X54251136Y-147520185D01*
X54251137Y-147520187D01*
X54266506Y-147552963D01*
X54286063Y-147594669D01*
X54348921Y-147662021D01*
X54429439Y-147706790D01*
X54439116Y-147708701D01*
X54439118Y-147708702D01*
X54463925Y-147713601D01*
X54519820Y-147724641D01*
X54519895Y-147722715D01*
X54520177Y-147722771D01*
X54520177Y-147721000D01*
X70275828Y-147721000D01*
X70279918Y-147721391D01*
X70279702Y-147725043D01*
X70297847Y-147723103D01*
X70300953Y-147722771D01*
X70316302Y-147721130D01*
X70366963Y-147715714D01*
X70366965Y-147715713D01*
X70377360Y-147714602D01*
X70466313Y-147672969D01*
X70477627Y-147662021D01*
X70529378Y-147611941D01*
X70536892Y-147604670D01*
X70581421Y-147517130D01*
X70595060Y-147419867D01*
X70591137Y-147419970D01*
X70591000Y-147418095D01*
X70591000Y-131380187D01*
X70593371Y-131380187D01*
X70593361Y-131380124D01*
X72935343Y-131380124D01*
X72938918Y-131380029D01*
X72938976Y-131380158D01*
X72939000Y-131380466D01*
X72939000Y-147419585D01*
X72938972Y-147419847D01*
X72938918Y-147419967D01*
X72938918Y-147419968D01*
X72935371Y-147419860D01*
X72946950Y-147511257D01*
X72951136Y-147520185D01*
X72951137Y-147520187D01*
X72966506Y-147552963D01*
X72986063Y-147594669D01*
X73048921Y-147662021D01*
X73129439Y-147706790D01*
X73139116Y-147708701D01*
X73139118Y-147708702D01*
X73163925Y-147713601D01*
X73219820Y-147724641D01*
X73219895Y-147722715D01*
X73220177Y-147722771D01*
X73220177Y-147721000D01*
X88975828Y-147721000D01*
X88979918Y-147721391D01*
X88979702Y-147725043D01*
X88997847Y-147723103D01*
X89000953Y-147722771D01*
X89016302Y-147721130D01*
X89066963Y-147715714D01*
X89066965Y-147715713D01*
X89077360Y-147714602D01*
X89166313Y-147672969D01*
X89177627Y-147662021D01*
X89229378Y-147611941D01*
X89236892Y-147604670D01*
X89281421Y-147517130D01*
X89295060Y-147419867D01*
X89291137Y-147419970D01*
X89291000Y-147418095D01*
X89291000Y-131380187D01*
X89293371Y-131380187D01*
X89293361Y-131380124D01*
X91635343Y-131380124D01*
X91638918Y-131380029D01*
X91638976Y-131380158D01*
X91639000Y-131380466D01*
X91639000Y-147419585D01*
X91638972Y-147419847D01*
X91638918Y-147419967D01*
X91638918Y-147419968D01*
X91635371Y-147419860D01*
X91646950Y-147511257D01*
X91651136Y-147520185D01*
X91651137Y-147520187D01*
X91666506Y-147552963D01*
X91686063Y-147594669D01*
X91748921Y-147662021D01*
X91829439Y-147706790D01*
X91839116Y-147708701D01*
X91839118Y-147708702D01*
X91863925Y-147713601D01*
X91919820Y-147724641D01*
X91919895Y-147722715D01*
X91920177Y-147722771D01*
X91920177Y-147721000D01*
X107675828Y-147721000D01*
X107679918Y-147721391D01*
X107679702Y-147725043D01*
X107697847Y-147723103D01*
X107700953Y-147722771D01*
X107716302Y-147721130D01*
X107766963Y-147715714D01*
X107766965Y-147715713D01*
X107777360Y-147714602D01*
X107866313Y-147672969D01*
X107877627Y-147662021D01*
X107929378Y-147611941D01*
X107936892Y-147604670D01*
X107981421Y-147517130D01*
X107995060Y-147419867D01*
X107991137Y-147419970D01*
X107991000Y-147418095D01*
X107991000Y-131380187D01*
X107993371Y-131380187D01*
X107993361Y-131380124D01*
X110335343Y-131380124D01*
X110338918Y-131380029D01*
X110338976Y-131380158D01*
X110339000Y-131380466D01*
X110339000Y-147419585D01*
X110338972Y-147419847D01*
X110338918Y-147419967D01*
X110338918Y-147419968D01*
X110335371Y-147419860D01*
X110346950Y-147511257D01*
X110351136Y-147520185D01*
X110351137Y-147520187D01*
X110366506Y-147552963D01*
X110386063Y-147594669D01*
X110448921Y-147662021D01*
X110529439Y-147706790D01*
X110539116Y-147708701D01*
X110539118Y-147708702D01*
X110563925Y-147713601D01*
X110619820Y-147724641D01*
X110619895Y-147722715D01*
X110620177Y-147722771D01*
X110620177Y-147721000D01*
X126375828Y-147721000D01*
X126379918Y-147721391D01*
X126379702Y-147725043D01*
X126397847Y-147723103D01*
X126400953Y-147722771D01*
X126416302Y-147721130D01*
X126466963Y-147715714D01*
X126466965Y-147715713D01*
X126477360Y-147714602D01*
X126566313Y-147672969D01*
X126577627Y-147662021D01*
X126629378Y-147611941D01*
X126636892Y-147604670D01*
X126681421Y-147517130D01*
X126695060Y-147419867D01*
X126691137Y-147419970D01*
X126691000Y-147418095D01*
X126691000Y-131380187D01*
X126693371Y-131380187D01*
X126693329Y-131379925D01*
X126694875Y-131379890D01*
X126677702Y-131284631D01*
X126632139Y-131199230D01*
X126562577Y-131131921D01*
X126475723Y-131089192D01*
X126440582Y-131084044D01*
X126397872Y-131077788D01*
X126397871Y-131077788D01*
X126379950Y-131075163D01*
X126379951Y-131075300D01*
X126379797Y-131075277D01*
X126379797Y-131079000D01*
X110620176Y-131079000D01*
X110620176Y-131077583D01*
X110619899Y-131077630D01*
X110619801Y-131075304D01*
X110601635Y-131078947D01*
X110601634Y-131078947D01*
X110539172Y-131091474D01*
X110539171Y-131091474D01*
X110529549Y-131093404D01*
X110449165Y-131138254D01*
X110442466Y-131145433D01*
X110398649Y-131192387D01*
X110386364Y-131205551D01*
X110347169Y-131288838D01*
X110335343Y-131380124D01*
X107993361Y-131380124D01*
X107993329Y-131379925D01*
X107994875Y-131379890D01*
X107977702Y-131284631D01*
X107932139Y-131199230D01*
X107862577Y-131131921D01*
X107775723Y-131089192D01*
X107740582Y-131084044D01*
X107697872Y-131077788D01*
X107697871Y-131077788D01*
X107679950Y-131075163D01*
X107679951Y-131075300D01*
X107679797Y-131075277D01*
X107679797Y-131079000D01*
X91920176Y-131079000D01*
X91920176Y-131077583D01*
X91919899Y-131077630D01*
X91919801Y-131075304D01*
X91901635Y-131078947D01*
X91901634Y-131078947D01*
X91839172Y-131091474D01*
X91839171Y-131091474D01*
X91829549Y-131093404D01*
X91749165Y-131138254D01*
X91742466Y-131145433D01*
X91698649Y-131192387D01*
X91686364Y-131205551D01*
X91647169Y-131288838D01*
X91635343Y-131380124D01*
X89293361Y-131380124D01*
X89293329Y-131379925D01*
X89294875Y-131379890D01*
X89277702Y-131284631D01*
X89232139Y-131199230D01*
X89162577Y-131131921D01*
X89075723Y-131089192D01*
X89040582Y-131084044D01*
X88997872Y-131077788D01*
X88997871Y-131077788D01*
X88979950Y-131075163D01*
X88979951Y-131075300D01*
X88979797Y-131075277D01*
X88979797Y-131079000D01*
X73220176Y-131079000D01*
X73220176Y-131077583D01*
X73219899Y-131077630D01*
X73219801Y-131075304D01*
X73201635Y-131078947D01*
X73201634Y-131078947D01*
X73139172Y-131091474D01*
X73139171Y-131091474D01*
X73129549Y-131093404D01*
X73049165Y-131138254D01*
X73042466Y-131145433D01*
X72998649Y-131192387D01*
X72986364Y-131205551D01*
X72947169Y-131288838D01*
X72935343Y-131380124D01*
X70593361Y-131380124D01*
X70593329Y-131379925D01*
X70594875Y-131379890D01*
X70577702Y-131284631D01*
X70532139Y-131199230D01*
X70462577Y-131131921D01*
X70375723Y-131089192D01*
X70340582Y-131084044D01*
X70297872Y-131077788D01*
X70297871Y-131077788D01*
X70279950Y-131075163D01*
X70279951Y-131075300D01*
X70279797Y-131075277D01*
X70279797Y-131079000D01*
X54520176Y-131079000D01*
X54520176Y-131077583D01*
X54519899Y-131077630D01*
X54519801Y-131075304D01*
X54501635Y-131078947D01*
X54501634Y-131078947D01*
X54439172Y-131091474D01*
X54439171Y-131091474D01*
X54429549Y-131093404D01*
X54349165Y-131138254D01*
X54342466Y-131145433D01*
X54298649Y-131192387D01*
X54286364Y-131205551D01*
X54247169Y-131288838D01*
X54235343Y-131380124D01*
X50001000Y-131380124D01*
X50001000Y-124197744D01*
X77346163Y-124197744D01*
X77346245Y-124201212D01*
X77350983Y-124402256D01*
X77354592Y-124555419D01*
X77402220Y-124910009D01*
X77403056Y-124913373D01*
X77403056Y-124913375D01*
X77452620Y-125112906D01*
X77488470Y-125257232D01*
X77489670Y-125260485D01*
X77489671Y-125260488D01*
X77494374Y-125273236D01*
X77612302Y-125592892D01*
X77681654Y-125731686D01*
X77770674Y-125909844D01*
X77770678Y-125909851D01*
X77772220Y-125912937D01*
X77966291Y-126213501D01*
X78062193Y-126331298D01*
X78189988Y-126488271D01*
X78189995Y-126488278D01*
X78192173Y-126490954D01*
X78447137Y-126741944D01*
X78728103Y-126963440D01*
X79031678Y-127152766D01*
X79034804Y-127154267D01*
X79034813Y-127154272D01*
X79204241Y-127235630D01*
X79354196Y-127307637D01*
X79357465Y-127308785D01*
X79688501Y-127425037D01*
X79688509Y-127425039D01*
X79691760Y-127426181D01*
X79695122Y-127426960D01*
X79695128Y-127426962D01*
X79833671Y-127459074D01*
X80040295Y-127506967D01*
X80043712Y-127507371D01*
X80043721Y-127507373D01*
X80392885Y-127548699D01*
X80395589Y-127549019D01*
X80398304Y-127549104D01*
X80398313Y-127549105D01*
X80423269Y-127549889D01*
X80442714Y-127550500D01*
X80689817Y-127550500D01*
X80691536Y-127550405D01*
X80691551Y-127550405D01*
X80833689Y-127542582D01*
X80957234Y-127535783D01*
X80960646Y-127535215D01*
X80960656Y-127535214D01*
X81203955Y-127494717D01*
X81310153Y-127477041D01*
X81654495Y-127379927D01*
X81986100Y-127245613D01*
X82161589Y-127150924D01*
X82297914Y-127077367D01*
X82297918Y-127077364D01*
X82300964Y-127075721D01*
X82463422Y-126963440D01*
X82592443Y-126874269D01*
X82592449Y-126874265D01*
X82595284Y-126872305D01*
X82865504Y-126637819D01*
X82999019Y-126493384D01*
X83106014Y-126377637D01*
X83108362Y-126375097D01*
X83225738Y-126216183D01*
X83318860Y-126090106D01*
X83318865Y-126090098D01*
X83320923Y-126087312D01*
X83500621Y-125777940D01*
X83645285Y-125450717D01*
X83753167Y-125109596D01*
X83757340Y-125088620D01*
X83822291Y-124762089D01*
X83822966Y-124758696D01*
X83828174Y-124698573D01*
X83853538Y-124405712D01*
X83853538Y-124405706D01*
X83853837Y-124402256D01*
X83849099Y-124201212D01*
X83845490Y-124048045D01*
X83845489Y-124048038D01*
X83845408Y-124044581D01*
X83799124Y-123700000D01*
X95694977Y-123700000D01*
X95698474Y-123700000D01*
X95699109Y-123705582D01*
X95718004Y-124668800D01*
X95717073Y-124680761D01*
X95714216Y-124680761D01*
X95715475Y-124696764D01*
X95720615Y-124762089D01*
X95730278Y-124884914D01*
X95778079Y-125084040D01*
X95779976Y-125088620D01*
X95851164Y-125260488D01*
X95856444Y-125273236D01*
X95859030Y-125277456D01*
X95859033Y-125277462D01*
X95960855Y-125443624D01*
X95963441Y-125447844D01*
X96096437Y-125603563D01*
X96252156Y-125736559D01*
X96256376Y-125739145D01*
X96422538Y-125840967D01*
X96422544Y-125840970D01*
X96426764Y-125843556D01*
X96431339Y-125845451D01*
X96431343Y-125845453D01*
X96594270Y-125912937D01*
X96615960Y-125921921D01*
X96815086Y-125969722D01*
X96820018Y-125970110D01*
X96820024Y-125970111D01*
X97001427Y-125984383D01*
X97001429Y-125984383D01*
X97019239Y-125985784D01*
X97019239Y-125982532D01*
X97026657Y-125981761D01*
X103770078Y-125981761D01*
X103780761Y-125982698D01*
X103780761Y-125985784D01*
X103796764Y-125984525D01*
X103796765Y-125984525D01*
X103979976Y-125970111D01*
X103979982Y-125970110D01*
X103984914Y-125969722D01*
X104184040Y-125921921D01*
X104205730Y-125912937D01*
X104368657Y-125845453D01*
X104368661Y-125845451D01*
X104373236Y-125843556D01*
X104377456Y-125840970D01*
X104377462Y-125840967D01*
X104543624Y-125739145D01*
X104547844Y-125736559D01*
X104703563Y-125603563D01*
X104836559Y-125447844D01*
X104839145Y-125443624D01*
X104940967Y-125277462D01*
X104940970Y-125277456D01*
X104943556Y-125273236D01*
X104948837Y-125260488D01*
X105020024Y-125088620D01*
X105021921Y-125084040D01*
X105069722Y-124884914D01*
X105079386Y-124762089D01*
X105084383Y-124698573D01*
X105084383Y-124698571D01*
X105085784Y-124680761D01*
X105082532Y-124680761D01*
X105081761Y-124673343D01*
X105081761Y-123729922D01*
X105082698Y-123719239D01*
X105085784Y-123719239D01*
X105069722Y-123515086D01*
X105021921Y-123315960D01*
X104954258Y-123152601D01*
X104945453Y-123131343D01*
X104945451Y-123131339D01*
X104943556Y-123126764D01*
X104940970Y-123122544D01*
X104940967Y-123122538D01*
X104839145Y-122956376D01*
X104836559Y-122952156D01*
X104703563Y-122796437D01*
X104547844Y-122663441D01*
X104512251Y-122641630D01*
X104377462Y-122559033D01*
X104377456Y-122559030D01*
X104373236Y-122556444D01*
X104368661Y-122554549D01*
X104368657Y-122554547D01*
X104188620Y-122479976D01*
X104184040Y-122478079D01*
X103984914Y-122430278D01*
X103979982Y-122429890D01*
X103979976Y-122429889D01*
X103881373Y-122422132D01*
X103780761Y-122414216D01*
X103780761Y-122417431D01*
X103773083Y-122418218D01*
X100274643Y-122408291D01*
X97010494Y-122399029D01*
X97000000Y-122398094D01*
X97000000Y-122394977D01*
X96983999Y-122396236D01*
X96983998Y-122396236D01*
X96883337Y-122404159D01*
X96795849Y-122411044D01*
X96791042Y-122412198D01*
X96791036Y-122412199D01*
X96692928Y-122435753D01*
X96596726Y-122458849D01*
X96592155Y-122460742D01*
X96592153Y-122460743D01*
X96412106Y-122535321D01*
X96412102Y-122535323D01*
X96407532Y-122537216D01*
X96232927Y-122644214D01*
X96077209Y-122777209D01*
X95944214Y-122932927D01*
X95837216Y-123107532D01*
X95835323Y-123112102D01*
X95835321Y-123112106D01*
X95760743Y-123292153D01*
X95758849Y-123296726D01*
X95753785Y-123317821D01*
X95713146Y-123487094D01*
X95711044Y-123495849D01*
X95694977Y-123700000D01*
X83799124Y-123700000D01*
X83797780Y-123689991D01*
X83795781Y-123681943D01*
X83712367Y-123346136D01*
X83712365Y-123346129D01*
X83711530Y-123342768D01*
X83696320Y-123301538D01*
X83588898Y-123010361D01*
X83587698Y-123007108D01*
X83496822Y-122825238D01*
X83429326Y-122690156D01*
X83429322Y-122690149D01*
X83427780Y-122687063D01*
X83233709Y-122386499D01*
X83104419Y-122227691D01*
X83010012Y-122111729D01*
X83010005Y-122111722D01*
X83007827Y-122109046D01*
X82955950Y-122057977D01*
X82763917Y-121868938D01*
X82752863Y-121858056D01*
X82471897Y-121636560D01*
X82168322Y-121447234D01*
X82165196Y-121445733D01*
X82165187Y-121445728D01*
X81995759Y-121364370D01*
X81845804Y-121292363D01*
X81842535Y-121291215D01*
X81511499Y-121174963D01*
X81511491Y-121174961D01*
X81508240Y-121173819D01*
X81504878Y-121173040D01*
X81504872Y-121173038D01*
X81292887Y-121123903D01*
X81159705Y-121093033D01*
X81156288Y-121092629D01*
X81156279Y-121092627D01*
X80807115Y-121051301D01*
X80807114Y-121051301D01*
X80804411Y-121050981D01*
X80801696Y-121050896D01*
X80801687Y-121050895D01*
X80776731Y-121050111D01*
X80757286Y-121049500D01*
X80510183Y-121049500D01*
X80508464Y-121049595D01*
X80508449Y-121049595D01*
X80366311Y-121057418D01*
X80242766Y-121064217D01*
X80239354Y-121064785D01*
X80239344Y-121064786D01*
X80019847Y-121101321D01*
X79889847Y-121122959D01*
X79545505Y-121220073D01*
X79213900Y-121354387D01*
X79152033Y-121387769D01*
X78902086Y-121522633D01*
X78902082Y-121522636D01*
X78899036Y-121524279D01*
X78896188Y-121526248D01*
X78896187Y-121526248D01*
X78607557Y-121725731D01*
X78607551Y-121725735D01*
X78604716Y-121727695D01*
X78334496Y-121962181D01*
X78332148Y-121964721D01*
X78332146Y-121964723D01*
X78198735Y-122109046D01*
X78091638Y-122224903D01*
X78089579Y-122227691D01*
X77881140Y-122509894D01*
X77881135Y-122509902D01*
X77879077Y-122512688D01*
X77877338Y-122515682D01*
X77877336Y-122515685D01*
X77804181Y-122641630D01*
X77699379Y-122822060D01*
X77554715Y-123149283D01*
X77446833Y-123490404D01*
X77446158Y-123493797D01*
X77446156Y-123493805D01*
X77407802Y-123686625D01*
X77377034Y-123841304D01*
X77346163Y-124197744D01*
X50001000Y-124197744D01*
X50001000Y-118601693D01*
X61045808Y-118601693D01*
X61055589Y-118988117D01*
X61056004Y-118991332D01*
X61056004Y-118991336D01*
X61080816Y-119183689D01*
X61105040Y-119371488D01*
X61193637Y-119747745D01*
X61320441Y-120112902D01*
X61321814Y-120115839D01*
X61482732Y-120460146D01*
X61482737Y-120460155D01*
X61484109Y-120463091D01*
X61682906Y-120794600D01*
X61914727Y-121103919D01*
X61916926Y-121106298D01*
X61916927Y-121106299D01*
X62048965Y-121249136D01*
X62177116Y-121387769D01*
X62467293Y-121643144D01*
X62469935Y-121645025D01*
X62469940Y-121645029D01*
X62630270Y-121759180D01*
X62782183Y-121867339D01*
X63118450Y-122057977D01*
X63121414Y-122059275D01*
X63121418Y-122059277D01*
X63224632Y-122104477D01*
X63472533Y-122213040D01*
X63475616Y-122214027D01*
X63475619Y-122214028D01*
X63607325Y-122256187D01*
X63840679Y-122330885D01*
X64029834Y-122370574D01*
X64215808Y-122409596D01*
X64215812Y-122409597D01*
X64218988Y-122410263D01*
X64603453Y-122450332D01*
X64605879Y-122450396D01*
X64605886Y-122450396D01*
X64607477Y-122450437D01*
X64609868Y-122450500D01*
X64896620Y-122450500D01*
X64898229Y-122450417D01*
X64898232Y-122450417D01*
X64955810Y-122447450D01*
X65186035Y-122435586D01*
X65446846Y-122394977D01*
X65564771Y-122376616D01*
X65564775Y-122376615D01*
X65567981Y-122376116D01*
X65941790Y-122277700D01*
X65944815Y-122276560D01*
X66300465Y-122142526D01*
X66300472Y-122142523D01*
X66303502Y-122141381D01*
X66649286Y-121968603D01*
X66975478Y-121761195D01*
X67278622Y-121521357D01*
X67356258Y-121445728D01*
X67553187Y-121253888D01*
X67555507Y-121251628D01*
X67803199Y-120954866D01*
X67805004Y-120952185D01*
X67805010Y-120952177D01*
X68017264Y-120636904D01*
X68017267Y-120636899D01*
X68019074Y-120634215D01*
X68200845Y-120293072D01*
X68275434Y-120109842D01*
X68345362Y-119938059D01*
X68345362Y-119938058D01*
X68346586Y-119935052D01*
X68454753Y-119563947D01*
X68524200Y-119183689D01*
X68554192Y-118798307D01*
X68549215Y-118601693D01*
X112445808Y-118601693D01*
X112455589Y-118988117D01*
X112456004Y-118991332D01*
X112456004Y-118991336D01*
X112480816Y-119183689D01*
X112505040Y-119371488D01*
X112593637Y-119747745D01*
X112720441Y-120112902D01*
X112721814Y-120115839D01*
X112882732Y-120460146D01*
X112882737Y-120460155D01*
X112884109Y-120463091D01*
X113082906Y-120794600D01*
X113314727Y-121103919D01*
X113316926Y-121106298D01*
X113316927Y-121106299D01*
X113448965Y-121249136D01*
X113577116Y-121387769D01*
X113867293Y-121643144D01*
X113869935Y-121645025D01*
X113869940Y-121645029D01*
X114030270Y-121759180D01*
X114182183Y-121867339D01*
X114518450Y-122057977D01*
X114521414Y-122059275D01*
X114521418Y-122059277D01*
X114624632Y-122104477D01*
X114872533Y-122213040D01*
X114875616Y-122214027D01*
X114875619Y-122214028D01*
X115007325Y-122256187D01*
X115240679Y-122330885D01*
X115429834Y-122370574D01*
X115615808Y-122409596D01*
X115615812Y-122409597D01*
X115618988Y-122410263D01*
X116003453Y-122450332D01*
X116005879Y-122450396D01*
X116005886Y-122450396D01*
X116007477Y-122450437D01*
X116009868Y-122450500D01*
X116296620Y-122450500D01*
X116298229Y-122450417D01*
X116298232Y-122450417D01*
X116355810Y-122447450D01*
X116586035Y-122435586D01*
X116846846Y-122394977D01*
X116964771Y-122376616D01*
X116964775Y-122376615D01*
X116967981Y-122376116D01*
X117341790Y-122277700D01*
X117344815Y-122276560D01*
X117700465Y-122142526D01*
X117700472Y-122142523D01*
X117703502Y-122141381D01*
X118049286Y-121968603D01*
X118375478Y-121761195D01*
X118678622Y-121521357D01*
X118756258Y-121445728D01*
X118953187Y-121253888D01*
X118955507Y-121251628D01*
X119203199Y-120954866D01*
X119205004Y-120952185D01*
X119205010Y-120952177D01*
X119417264Y-120636904D01*
X119417267Y-120636899D01*
X119419074Y-120634215D01*
X119600845Y-120293072D01*
X119675434Y-120109842D01*
X119745362Y-119938059D01*
X119745362Y-119938058D01*
X119746586Y-119935052D01*
X119854753Y-119563947D01*
X119924200Y-119183689D01*
X119954192Y-118798307D01*
X119944411Y-118411883D01*
X119919602Y-118219548D01*
X119895374Y-118031718D01*
X119895372Y-118031709D01*
X119894960Y-118028512D01*
X119806363Y-117652255D01*
X119679559Y-117287098D01*
X119594012Y-117104059D01*
X119517268Y-116939854D01*
X119517263Y-116939845D01*
X119515891Y-116936909D01*
X119317094Y-116605400D01*
X119085273Y-116296081D01*
X118822884Y-116012231D01*
X118532707Y-115756856D01*
X118530065Y-115754975D01*
X118530060Y-115754971D01*
X118220463Y-115534545D01*
X118217817Y-115532661D01*
X117881550Y-115342023D01*
X117878586Y-115340725D01*
X117878582Y-115340723D01*
X117694412Y-115260070D01*
X117527467Y-115186960D01*
X117159321Y-115069115D01*
X116941371Y-115023384D01*
X116784192Y-114990404D01*
X116784188Y-114990403D01*
X116781012Y-114989737D01*
X116396547Y-114949668D01*
X116394121Y-114949604D01*
X116394114Y-114949604D01*
X116392523Y-114949563D01*
X116390132Y-114949500D01*
X116103380Y-114949500D01*
X116101771Y-114949583D01*
X116101768Y-114949583D01*
X116044190Y-114952550D01*
X115813965Y-114964414D01*
X115569326Y-115002505D01*
X115435229Y-115023384D01*
X115435225Y-115023385D01*
X115432019Y-115023884D01*
X115058210Y-115122300D01*
X115055186Y-115123440D01*
X115055185Y-115123440D01*
X114699535Y-115257474D01*
X114699528Y-115257477D01*
X114696498Y-115258619D01*
X114350714Y-115431397D01*
X114024522Y-115638805D01*
X113721378Y-115878643D01*
X113444493Y-116148372D01*
X113196801Y-116445134D01*
X113194996Y-116447815D01*
X113194990Y-116447823D01*
X112982736Y-116763096D01*
X112980926Y-116765785D01*
X112799155Y-117106928D01*
X112797932Y-117109933D01*
X112797928Y-117109941D01*
X112654638Y-117461941D01*
X112653414Y-117464948D01*
X112545247Y-117836053D01*
X112475800Y-118216311D01*
X112445808Y-118601693D01*
X68549215Y-118601693D01*
X68544411Y-118411883D01*
X68519602Y-118219548D01*
X68495374Y-118031718D01*
X68495372Y-118031709D01*
X68494960Y-118028512D01*
X68406363Y-117652255D01*
X68279559Y-117287098D01*
X68194012Y-117104059D01*
X68117268Y-116939854D01*
X68117263Y-116939845D01*
X68115891Y-116936909D01*
X67917094Y-116605400D01*
X67685273Y-116296081D01*
X67422884Y-116012231D01*
X67132707Y-115756856D01*
X67130065Y-115754975D01*
X67130060Y-115754971D01*
X66820463Y-115534545D01*
X66817817Y-115532661D01*
X66481550Y-115342023D01*
X66478586Y-115340725D01*
X66478582Y-115340723D01*
X66294412Y-115260070D01*
X66127467Y-115186960D01*
X65759321Y-115069115D01*
X65541371Y-115023384D01*
X65384192Y-114990404D01*
X65384188Y-114990403D01*
X65381012Y-114989737D01*
X64996547Y-114949668D01*
X64994121Y-114949604D01*
X64994114Y-114949604D01*
X64992523Y-114949563D01*
X64990132Y-114949500D01*
X64703380Y-114949500D01*
X64701771Y-114949583D01*
X64701768Y-114949583D01*
X64644190Y-114952550D01*
X64413965Y-114964414D01*
X64169326Y-115002505D01*
X64035229Y-115023384D01*
X64035225Y-115023385D01*
X64032019Y-115023884D01*
X63658210Y-115122300D01*
X63655186Y-115123440D01*
X63655185Y-115123440D01*
X63299535Y-115257474D01*
X63299528Y-115257477D01*
X63296498Y-115258619D01*
X62950714Y-115431397D01*
X62624522Y-115638805D01*
X62321378Y-115878643D01*
X62044493Y-116148372D01*
X61796801Y-116445134D01*
X61794996Y-116447815D01*
X61794990Y-116447823D01*
X61582736Y-116763096D01*
X61580926Y-116765785D01*
X61399155Y-117106928D01*
X61397932Y-117109933D01*
X61397928Y-117109941D01*
X61254638Y-117461941D01*
X61253414Y-117464948D01*
X61145247Y-117836053D01*
X61075800Y-118216311D01*
X61045808Y-118601693D01*
X50001000Y-118601693D01*
X50001000Y-112350000D01*
X79548918Y-112350000D01*
X79549000Y-112350198D01*
X79549235Y-112350765D01*
X79550000Y-112351082D01*
X79550198Y-112351000D01*
X81549802Y-112351000D01*
X81550000Y-112351082D01*
X81550765Y-112350765D01*
X81551000Y-112350198D01*
X81551082Y-112350000D01*
X99448918Y-112350000D01*
X99449000Y-112350198D01*
X99449235Y-112350765D01*
X99450000Y-112351082D01*
X99450198Y-112351000D01*
X101449802Y-112351000D01*
X101450000Y-112351082D01*
X101450765Y-112350765D01*
X101451000Y-112350198D01*
X101451082Y-112350000D01*
X101451000Y-112349802D01*
X101451000Y-96001693D01*
X112445808Y-96001693D01*
X112455589Y-96388117D01*
X112456004Y-96391332D01*
X112456004Y-96391336D01*
X112480816Y-96583689D01*
X112505040Y-96771488D01*
X112593637Y-97147745D01*
X112720441Y-97512902D01*
X112721814Y-97515839D01*
X112882732Y-97860146D01*
X112882737Y-97860155D01*
X112884109Y-97863091D01*
X113082906Y-98194600D01*
X113314727Y-98503919D01*
X113577116Y-98787769D01*
X113867293Y-99043144D01*
X113869935Y-99045025D01*
X113869940Y-99045029D01*
X114030270Y-99159180D01*
X114182183Y-99267339D01*
X114518450Y-99457977D01*
X114521414Y-99459275D01*
X114521418Y-99459277D01*
X114624632Y-99504477D01*
X114872533Y-99613040D01*
X115240679Y-99730885D01*
X115429833Y-99770574D01*
X115615808Y-99809596D01*
X115615812Y-99809597D01*
X115618988Y-99810263D01*
X116003453Y-99850332D01*
X116005879Y-99850396D01*
X116005886Y-99850396D01*
X116007477Y-99850437D01*
X116009868Y-99850500D01*
X116296620Y-99850500D01*
X116298229Y-99850417D01*
X116298232Y-99850417D01*
X116355810Y-99847450D01*
X116586035Y-99835586D01*
X116830674Y-99797495D01*
X116964771Y-99776616D01*
X116964775Y-99776615D01*
X116967981Y-99776116D01*
X117341790Y-99677700D01*
X117510739Y-99614028D01*
X117700465Y-99542526D01*
X117700472Y-99542523D01*
X117703502Y-99541381D01*
X118049286Y-99368603D01*
X118375478Y-99161195D01*
X118678622Y-98921357D01*
X118955507Y-98651628D01*
X119203199Y-98354866D01*
X119205004Y-98352185D01*
X119205010Y-98352177D01*
X119417264Y-98036904D01*
X119417267Y-98036899D01*
X119419074Y-98034215D01*
X119600845Y-97693072D01*
X119675434Y-97509842D01*
X119745362Y-97338059D01*
X119745362Y-97338058D01*
X119746586Y-97335052D01*
X119854753Y-96963947D01*
X119924200Y-96583689D01*
X119954192Y-96198307D01*
X119944411Y-95811883D01*
X119919602Y-95619548D01*
X119895374Y-95431718D01*
X119895372Y-95431709D01*
X119894960Y-95428512D01*
X119806363Y-95052255D01*
X119679559Y-94687098D01*
X119594012Y-94504059D01*
X119517268Y-94339854D01*
X119517263Y-94339845D01*
X119515891Y-94336909D01*
X119317094Y-94005400D01*
X119085273Y-93696081D01*
X118822884Y-93412231D01*
X118532707Y-93156856D01*
X118530065Y-93154975D01*
X118530060Y-93154971D01*
X118220463Y-92934545D01*
X118217817Y-92932661D01*
X117881550Y-92742023D01*
X117878586Y-92740725D01*
X117878582Y-92740723D01*
X117694412Y-92660070D01*
X117527467Y-92586960D01*
X117159321Y-92469115D01*
X116941371Y-92423384D01*
X116784192Y-92390404D01*
X116784188Y-92390403D01*
X116781012Y-92389737D01*
X116396547Y-92349668D01*
X116394121Y-92349604D01*
X116394114Y-92349604D01*
X116392523Y-92349563D01*
X116390132Y-92349500D01*
X116103380Y-92349500D01*
X116101771Y-92349583D01*
X116101768Y-92349583D01*
X116044190Y-92352550D01*
X115813965Y-92364414D01*
X115569326Y-92402505D01*
X115435229Y-92423384D01*
X115435225Y-92423385D01*
X115432019Y-92423884D01*
X115058210Y-92522300D01*
X115055186Y-92523440D01*
X115055185Y-92523440D01*
X114699535Y-92657474D01*
X114699528Y-92657477D01*
X114696498Y-92658619D01*
X114350714Y-92831397D01*
X114024522Y-93038805D01*
X113721378Y-93278643D01*
X113444493Y-93548372D01*
X113196801Y-93845134D01*
X113194996Y-93847815D01*
X113194990Y-93847823D01*
X112982736Y-94163096D01*
X112980926Y-94165785D01*
X112799155Y-94506928D01*
X112797932Y-94509933D01*
X112797928Y-94509941D01*
X112654638Y-94861941D01*
X112653414Y-94864948D01*
X112545247Y-95236053D01*
X112475800Y-95616311D01*
X112445808Y-96001693D01*
X101451000Y-96001693D01*
X101451000Y-73401693D01*
X112445808Y-73401693D01*
X112455589Y-73788117D01*
X112456004Y-73791332D01*
X112456004Y-73791336D01*
X112480816Y-73983689D01*
X112505040Y-74171488D01*
X112593637Y-74547745D01*
X112720441Y-74912902D01*
X112721814Y-74915839D01*
X112882732Y-75260146D01*
X112882737Y-75260155D01*
X112884109Y-75263091D01*
X113082906Y-75594600D01*
X113314727Y-75903919D01*
X113577116Y-76187769D01*
X113867293Y-76443144D01*
X113869935Y-76445025D01*
X113869940Y-76445029D01*
X114030270Y-76559180D01*
X114182183Y-76667339D01*
X114518450Y-76857977D01*
X114521414Y-76859275D01*
X114521418Y-76859277D01*
X114624632Y-76904477D01*
X114872533Y-77013040D01*
X115240679Y-77130885D01*
X115429834Y-77170574D01*
X115615808Y-77209596D01*
X115615812Y-77209597D01*
X115618988Y-77210263D01*
X116003453Y-77250332D01*
X116005879Y-77250396D01*
X116005886Y-77250396D01*
X116007477Y-77250437D01*
X116009868Y-77250500D01*
X116296620Y-77250500D01*
X116298229Y-77250417D01*
X116298232Y-77250417D01*
X116355810Y-77247450D01*
X116586035Y-77235586D01*
X116830674Y-77197495D01*
X116964771Y-77176616D01*
X116964775Y-77176615D01*
X116967981Y-77176116D01*
X117341790Y-77077700D01*
X117510739Y-77014028D01*
X117700465Y-76942526D01*
X117700472Y-76942523D01*
X117703502Y-76941381D01*
X118049286Y-76768603D01*
X118375478Y-76561195D01*
X118678622Y-76321357D01*
X118955507Y-76051628D01*
X119203199Y-75754866D01*
X119205004Y-75752185D01*
X119205010Y-75752177D01*
X119417264Y-75436904D01*
X119417267Y-75436899D01*
X119419074Y-75434215D01*
X119600845Y-75093072D01*
X119675434Y-74909842D01*
X119745362Y-74738059D01*
X119745362Y-74738058D01*
X119746586Y-74735052D01*
X119854753Y-74363947D01*
X119924200Y-73983689D01*
X119954192Y-73598307D01*
X119944411Y-73211883D01*
X119919602Y-73019548D01*
X119895374Y-72831718D01*
X119895372Y-72831709D01*
X119894960Y-72828512D01*
X119806363Y-72452255D01*
X119679559Y-72087098D01*
X119594012Y-71904059D01*
X119517268Y-71739854D01*
X119517263Y-71739845D01*
X119515891Y-71736909D01*
X119317094Y-71405400D01*
X119085273Y-71096081D01*
X118822884Y-70812231D01*
X118532707Y-70556856D01*
X118530065Y-70554975D01*
X118530060Y-70554971D01*
X118220463Y-70334545D01*
X118217817Y-70332661D01*
X117881550Y-70142023D01*
X117878586Y-70140725D01*
X117878582Y-70140723D01*
X117694412Y-70060070D01*
X117527467Y-69986960D01*
X117159321Y-69869115D01*
X116941371Y-69823384D01*
X116784192Y-69790404D01*
X116784188Y-69790403D01*
X116781012Y-69789737D01*
X116396547Y-69749668D01*
X116394121Y-69749604D01*
X116394114Y-69749604D01*
X116392523Y-69749563D01*
X116390132Y-69749500D01*
X116103380Y-69749500D01*
X116101771Y-69749583D01*
X116101768Y-69749583D01*
X116044190Y-69752550D01*
X115813965Y-69764414D01*
X115569326Y-69802505D01*
X115435229Y-69823384D01*
X115435225Y-69823385D01*
X115432019Y-69823884D01*
X115058210Y-69922300D01*
X115055186Y-69923440D01*
X115055185Y-69923440D01*
X114699535Y-70057474D01*
X114699528Y-70057477D01*
X114696498Y-70058619D01*
X114350714Y-70231397D01*
X114024522Y-70438805D01*
X113721378Y-70678643D01*
X113444493Y-70948372D01*
X113196801Y-71245134D01*
X113194996Y-71247815D01*
X113194990Y-71247823D01*
X112982736Y-71563096D01*
X112980926Y-71565785D01*
X112799155Y-71906928D01*
X112797932Y-71909933D01*
X112797928Y-71909941D01*
X112654638Y-72261941D01*
X112653414Y-72264948D01*
X112545247Y-72636053D01*
X112475800Y-73016311D01*
X112445808Y-73401693D01*
X101451000Y-73401693D01*
X101451000Y-62350198D01*
X101451082Y-62350000D01*
X101450765Y-62349235D01*
X101450198Y-62349000D01*
X101450000Y-62348918D01*
X101449802Y-62349000D01*
X99450198Y-62349000D01*
X99450000Y-62348918D01*
X99449802Y-62349000D01*
X99449235Y-62349235D01*
X99448918Y-62350000D01*
X99449000Y-62350198D01*
X99449000Y-112349802D01*
X99448918Y-112350000D01*
X81551082Y-112350000D01*
X81551000Y-112349802D01*
X81551000Y-62350198D01*
X81551082Y-62350000D01*
X81550765Y-62349235D01*
X81550198Y-62349000D01*
X81550000Y-62348918D01*
X81549802Y-62349000D01*
X79550198Y-62349000D01*
X79550000Y-62348918D01*
X79549802Y-62349000D01*
X79549235Y-62349235D01*
X79548918Y-62350000D01*
X79549000Y-62350198D01*
X79549000Y-112349802D01*
X79548918Y-112350000D01*
X50001000Y-112350000D01*
X50001000Y-96001693D01*
X61045808Y-96001693D01*
X61055589Y-96388117D01*
X61056004Y-96391332D01*
X61056004Y-96391336D01*
X61080816Y-96583689D01*
X61105040Y-96771488D01*
X61193637Y-97147745D01*
X61320441Y-97512902D01*
X61321814Y-97515839D01*
X61482732Y-97860146D01*
X61482737Y-97860155D01*
X61484109Y-97863091D01*
X61682906Y-98194600D01*
X61914727Y-98503919D01*
X62177116Y-98787769D01*
X62467293Y-99043144D01*
X62469935Y-99045025D01*
X62469940Y-99045029D01*
X62630270Y-99159180D01*
X62782183Y-99267339D01*
X63118450Y-99457977D01*
X63121414Y-99459275D01*
X63121418Y-99459277D01*
X63224632Y-99504477D01*
X63472533Y-99613040D01*
X63840679Y-99730885D01*
X64029833Y-99770574D01*
X64215808Y-99809596D01*
X64215812Y-99809597D01*
X64218988Y-99810263D01*
X64603453Y-99850332D01*
X64605879Y-99850396D01*
X64605886Y-99850396D01*
X64607477Y-99850437D01*
X64609868Y-99850500D01*
X64896620Y-99850500D01*
X64898229Y-99850417D01*
X64898232Y-99850417D01*
X64955810Y-99847450D01*
X65186035Y-99835586D01*
X65430674Y-99797495D01*
X65564771Y-99776616D01*
X65564775Y-99776615D01*
X65567981Y-99776116D01*
X65941790Y-99677700D01*
X66110739Y-99614028D01*
X66300465Y-99542526D01*
X66300472Y-99542523D01*
X66303502Y-99541381D01*
X66649286Y-99368603D01*
X66975478Y-99161195D01*
X67278622Y-98921357D01*
X67555507Y-98651628D01*
X67803199Y-98354866D01*
X67805004Y-98352185D01*
X67805010Y-98352177D01*
X68017264Y-98036904D01*
X68017267Y-98036899D01*
X68019074Y-98034215D01*
X68200845Y-97693072D01*
X68275434Y-97509842D01*
X68345362Y-97338059D01*
X68345362Y-97338058D01*
X68346586Y-97335052D01*
X68454753Y-96963947D01*
X68524200Y-96583689D01*
X68554192Y-96198307D01*
X68544411Y-95811883D01*
X68519602Y-95619548D01*
X68495374Y-95431718D01*
X68495372Y-95431709D01*
X68494960Y-95428512D01*
X68406363Y-95052255D01*
X68279559Y-94687098D01*
X68194012Y-94504059D01*
X68117268Y-94339854D01*
X68117263Y-94339845D01*
X68115891Y-94336909D01*
X67917094Y-94005400D01*
X67685273Y-93696081D01*
X67422884Y-93412231D01*
X67132707Y-93156856D01*
X67130065Y-93154975D01*
X67130060Y-93154971D01*
X66820463Y-92934545D01*
X66817817Y-92932661D01*
X66481550Y-92742023D01*
X66478586Y-92740725D01*
X66478582Y-92740723D01*
X66294412Y-92660070D01*
X66127467Y-92586960D01*
X65759321Y-92469115D01*
X65541371Y-92423384D01*
X65384192Y-92390404D01*
X65384188Y-92390403D01*
X65381012Y-92389737D01*
X64996547Y-92349668D01*
X64994121Y-92349604D01*
X64994114Y-92349604D01*
X64992523Y-92349563D01*
X64990132Y-92349500D01*
X64703380Y-92349500D01*
X64701771Y-92349583D01*
X64701768Y-92349583D01*
X64644190Y-92352550D01*
X64413965Y-92364414D01*
X64169326Y-92402505D01*
X64035229Y-92423384D01*
X64035225Y-92423385D01*
X64032019Y-92423884D01*
X63658210Y-92522300D01*
X63655186Y-92523440D01*
X63655185Y-92523440D01*
X63299535Y-92657474D01*
X63299528Y-92657477D01*
X63296498Y-92658619D01*
X62950714Y-92831397D01*
X62624522Y-93038805D01*
X62321378Y-93278643D01*
X62044493Y-93548372D01*
X61796801Y-93845134D01*
X61794996Y-93847815D01*
X61794990Y-93847823D01*
X61582736Y-94163096D01*
X61580926Y-94165785D01*
X61399155Y-94506928D01*
X61397932Y-94509933D01*
X61397928Y-94509941D01*
X61254638Y-94861941D01*
X61253414Y-94864948D01*
X61145247Y-95236053D01*
X61075800Y-95616311D01*
X61045808Y-96001693D01*
X50001000Y-96001693D01*
X50001000Y-73401693D01*
X61045808Y-73401693D01*
X61055589Y-73788117D01*
X61056004Y-73791332D01*
X61056004Y-73791336D01*
X61080816Y-73983689D01*
X61105040Y-74171488D01*
X61193637Y-74547745D01*
X61320441Y-74912902D01*
X61321814Y-74915839D01*
X61482732Y-75260146D01*
X61482737Y-75260155D01*
X61484109Y-75263091D01*
X61682906Y-75594600D01*
X61914727Y-75903919D01*
X62177116Y-76187769D01*
X62467293Y-76443144D01*
X62469935Y-76445025D01*
X62469940Y-76445029D01*
X62630270Y-76559180D01*
X62782183Y-76667339D01*
X63118450Y-76857977D01*
X63121414Y-76859275D01*
X63121418Y-76859277D01*
X63224632Y-76904477D01*
X63472533Y-77013040D01*
X63840679Y-77130885D01*
X64029834Y-77170574D01*
X64215808Y-77209596D01*
X64215812Y-77209597D01*
X64218988Y-77210263D01*
X64603453Y-77250332D01*
X64605879Y-77250396D01*
X64605886Y-77250396D01*
X64607477Y-77250437D01*
X64609868Y-77250500D01*
X64896620Y-77250500D01*
X64898229Y-77250417D01*
X64898232Y-77250417D01*
X64955810Y-77247450D01*
X65186035Y-77235586D01*
X65430674Y-77197495D01*
X65564771Y-77176616D01*
X65564775Y-77176615D01*
X65567981Y-77176116D01*
X65941790Y-77077700D01*
X66110739Y-77014028D01*
X66300465Y-76942526D01*
X66300472Y-76942523D01*
X66303502Y-76941381D01*
X66649286Y-76768603D01*
X66975478Y-76561195D01*
X67278622Y-76321357D01*
X67555507Y-76051628D01*
X67803199Y-75754866D01*
X67805004Y-75752185D01*
X67805010Y-75752177D01*
X68017264Y-75436904D01*
X68017267Y-75436899D01*
X68019074Y-75434215D01*
X68200845Y-75093072D01*
X68275434Y-74909842D01*
X68345362Y-74738059D01*
X68345362Y-74738058D01*
X68346586Y-74735052D01*
X68454753Y-74363947D01*
X68524200Y-73983689D01*
X68554192Y-73598307D01*
X68544411Y-73211883D01*
X68519602Y-73019548D01*
X68495374Y-72831718D01*
X68495372Y-72831709D01*
X68494960Y-72828512D01*
X68406363Y-72452255D01*
X68279559Y-72087098D01*
X68194012Y-71904059D01*
X68117268Y-71739854D01*
X68117263Y-71739845D01*
X68115891Y-71736909D01*
X67917094Y-71405400D01*
X67685273Y-71096081D01*
X67422884Y-70812231D01*
X67132707Y-70556856D01*
X67130065Y-70554975D01*
X67130060Y-70554971D01*
X66820463Y-70334545D01*
X66817817Y-70332661D01*
X66481550Y-70142023D01*
X66478586Y-70140725D01*
X66478582Y-70140723D01*
X66294412Y-70060070D01*
X66127467Y-69986960D01*
X65759321Y-69869115D01*
X65541371Y-69823384D01*
X65384192Y-69790404D01*
X65384188Y-69790403D01*
X65381012Y-69789737D01*
X64996547Y-69749668D01*
X64994121Y-69749604D01*
X64994114Y-69749604D01*
X64992523Y-69749563D01*
X64990132Y-69749500D01*
X64703380Y-69749500D01*
X64701771Y-69749583D01*
X64701768Y-69749583D01*
X64644190Y-69752550D01*
X64413965Y-69764414D01*
X64169326Y-69802505D01*
X64035229Y-69823384D01*
X64035225Y-69823385D01*
X64032019Y-69823884D01*
X63658210Y-69922300D01*
X63655186Y-69923440D01*
X63655185Y-69923440D01*
X63299535Y-70057474D01*
X63299528Y-70057477D01*
X63296498Y-70058619D01*
X62950714Y-70231397D01*
X62624522Y-70438805D01*
X62321378Y-70678643D01*
X62044493Y-70948372D01*
X61796801Y-71245134D01*
X61794996Y-71247815D01*
X61794990Y-71247823D01*
X61582736Y-71563096D01*
X61580926Y-71565785D01*
X61399155Y-71906928D01*
X61397932Y-71909933D01*
X61397928Y-71909941D01*
X61254638Y-72261941D01*
X61253414Y-72264948D01*
X61145247Y-72636053D01*
X61075800Y-73016311D01*
X61045808Y-73401693D01*
X50001000Y-73401693D01*
X50001000Y-60396171D01*
X87196112Y-60396171D01*
X87204671Y-60759348D01*
X87253031Y-61119392D01*
X87340608Y-61471956D01*
X87466345Y-61812780D01*
X87467894Y-61815880D01*
X87627179Y-62134661D01*
X87627183Y-62134668D01*
X87628722Y-62137748D01*
X87630591Y-62140643D01*
X87630593Y-62140646D01*
X87765899Y-62350198D01*
X87825779Y-62442935D01*
X88055135Y-62724656D01*
X88314021Y-62979506D01*
X88599309Y-63204409D01*
X88907554Y-63396648D01*
X89235033Y-63553901D01*
X89238300Y-63555048D01*
X89238309Y-63555052D01*
X89574509Y-63673117D01*
X89574512Y-63673118D01*
X89577790Y-63674269D01*
X89931685Y-63756298D01*
X89935119Y-63756704D01*
X89935128Y-63756706D01*
X90289738Y-63798676D01*
X90289747Y-63798677D01*
X90292445Y-63798996D01*
X90295163Y-63799081D01*
X90295171Y-63799082D01*
X90318616Y-63799818D01*
X90340301Y-63800500D01*
X90591200Y-63800500D01*
X90592919Y-63800405D01*
X90592934Y-63800405D01*
X90737706Y-63792437D01*
X90862729Y-63785557D01*
X90866143Y-63784989D01*
X90866150Y-63784988D01*
X91086334Y-63748339D01*
X91221077Y-63725911D01*
X91570715Y-63627303D01*
X91907422Y-63490923D01*
X92085548Y-63394811D01*
X92224079Y-63320064D01*
X92224083Y-63320061D01*
X92227129Y-63318418D01*
X92525976Y-63111872D01*
X92528582Y-63109611D01*
X92528588Y-63109606D01*
X92797737Y-62876050D01*
X92800353Y-62873780D01*
X93046946Y-62607017D01*
X93105549Y-62527675D01*
X93260714Y-62317599D01*
X93260719Y-62317591D01*
X93262777Y-62314805D01*
X93445239Y-62000674D01*
X93592128Y-61668418D01*
X93701670Y-61322049D01*
X93772542Y-60965752D01*
X93772841Y-60962300D01*
X93803589Y-60607285D01*
X93803589Y-60607279D01*
X93803888Y-60603829D01*
X93795329Y-60240652D01*
X93746969Y-59880608D01*
X93659392Y-59528044D01*
X93533655Y-59187220D01*
X93439770Y-58999326D01*
X93372821Y-58865339D01*
X93372817Y-58865332D01*
X93371278Y-58862252D01*
X93174221Y-58557065D01*
X92944865Y-58275344D01*
X92685979Y-58020494D01*
X92400691Y-57795591D01*
X92092446Y-57603352D01*
X91764967Y-57446099D01*
X91761700Y-57444952D01*
X91761691Y-57444948D01*
X91425491Y-57326883D01*
X91425488Y-57326882D01*
X91422210Y-57325731D01*
X91068315Y-57243702D01*
X91064881Y-57243296D01*
X91064872Y-57243294D01*
X90710262Y-57201324D01*
X90710253Y-57201323D01*
X90707555Y-57201004D01*
X90704837Y-57200919D01*
X90704829Y-57200918D01*
X90681384Y-57200181D01*
X90659699Y-57199500D01*
X90408800Y-57199500D01*
X90407081Y-57199595D01*
X90407066Y-57199595D01*
X90262294Y-57207563D01*
X90137271Y-57214443D01*
X90133857Y-57215011D01*
X90133850Y-57215012D01*
X89961485Y-57243702D01*
X89778923Y-57274089D01*
X89429285Y-57372697D01*
X89092578Y-57509077D01*
X89089526Y-57510724D01*
X88775921Y-57679936D01*
X88775917Y-57679939D01*
X88772871Y-57681582D01*
X88474024Y-57888128D01*
X88471418Y-57890389D01*
X88471412Y-57890394D01*
X88318690Y-58022920D01*
X88199647Y-58126220D01*
X87953054Y-58392983D01*
X87950995Y-58395771D01*
X87739286Y-58682401D01*
X87739281Y-58682409D01*
X87737223Y-58685195D01*
X87554761Y-58999326D01*
X87407872Y-59331582D01*
X87298330Y-59677951D01*
X87227458Y-60034248D01*
X87227159Y-60037700D01*
X87209879Y-60237222D01*
X87196112Y-60396171D01*
X50001000Y-60396171D01*
X50001000Y-50801693D01*
X61045808Y-50801693D01*
X61055589Y-51188117D01*
X61056004Y-51191332D01*
X61056004Y-51191336D01*
X61080816Y-51383689D01*
X61105040Y-51571488D01*
X61105780Y-51574631D01*
X61105781Y-51574636D01*
X61192892Y-51944582D01*
X61193637Y-51947745D01*
X61320441Y-52312902D01*
X61372568Y-52424435D01*
X61482732Y-52660146D01*
X61482737Y-52660155D01*
X61484109Y-52663091D01*
X61682906Y-52994600D01*
X61914727Y-53303919D01*
X62177116Y-53587769D01*
X62467293Y-53843144D01*
X62469935Y-53845025D01*
X62469940Y-53845029D01*
X62630270Y-53959180D01*
X62782183Y-54067339D01*
X63118450Y-54257977D01*
X63121414Y-54259275D01*
X63121418Y-54259277D01*
X63224632Y-54304477D01*
X63472533Y-54413040D01*
X63840679Y-54530885D01*
X64029833Y-54570574D01*
X64215808Y-54609596D01*
X64215812Y-54609597D01*
X64218988Y-54610263D01*
X64603453Y-54650332D01*
X64605879Y-54650396D01*
X64605886Y-54650396D01*
X64607477Y-54650437D01*
X64609868Y-54650500D01*
X64896620Y-54650500D01*
X64898229Y-54650417D01*
X64898232Y-54650417D01*
X64955810Y-54647450D01*
X65186035Y-54635586D01*
X65430674Y-54597495D01*
X65564771Y-54576616D01*
X65564775Y-54576615D01*
X65567981Y-54576116D01*
X65941790Y-54477700D01*
X66110739Y-54414028D01*
X66300465Y-54342526D01*
X66300472Y-54342523D01*
X66303502Y-54341381D01*
X66649286Y-54168603D01*
X66975478Y-53961195D01*
X67278622Y-53721357D01*
X67555507Y-53451628D01*
X67803199Y-53154866D01*
X67805004Y-53152185D01*
X67805010Y-53152177D01*
X68017264Y-52836904D01*
X68017267Y-52836899D01*
X68019074Y-52834215D01*
X68200845Y-52493072D01*
X68203759Y-52485916D01*
X68345362Y-52138059D01*
X68345362Y-52138058D01*
X68346586Y-52135052D01*
X68378641Y-52025078D01*
X68453846Y-51767059D01*
X68453846Y-51767058D01*
X68454753Y-51763947D01*
X68524200Y-51383689D01*
X68526839Y-51349784D01*
X68553940Y-51001548D01*
X68553940Y-51001544D01*
X68554192Y-50998307D01*
X68549521Y-50813747D01*
X68544493Y-50615128D01*
X68544411Y-50611883D01*
X68543996Y-50608664D01*
X68525916Y-50468497D01*
X78494637Y-50468497D01*
X78494881Y-50472932D01*
X78494881Y-50472936D01*
X78502707Y-50615128D01*
X78510205Y-50751370D01*
X78537632Y-50889257D01*
X78559969Y-51001548D01*
X78565474Y-51029226D01*
X78566950Y-51033429D01*
X78588181Y-51093885D01*
X78659342Y-51296524D01*
X78661395Y-51300477D01*
X78661398Y-51300483D01*
X78706278Y-51386880D01*
X78789936Y-51547928D01*
X78792519Y-51551543D01*
X78792523Y-51551549D01*
X78825176Y-51597242D01*
X78954651Y-51778424D01*
X78957729Y-51781651D01*
X78957731Y-51781653D01*
X79116175Y-51947745D01*
X79150199Y-51983412D01*
X79372680Y-52158801D01*
X79482927Y-52222837D01*
X79613807Y-52298859D01*
X79613813Y-52298862D01*
X79617654Y-52301093D01*
X79880232Y-52407448D01*
X79884545Y-52408519D01*
X79884550Y-52408521D01*
X80150856Y-52474672D01*
X80150861Y-52474673D01*
X80155177Y-52475745D01*
X80159605Y-52476199D01*
X80159607Y-52476199D01*
X80235307Y-52483955D01*
X80396790Y-52500500D01*
X80572170Y-52500500D01*
X80782593Y-52485601D01*
X80786948Y-52484663D01*
X80786951Y-52484663D01*
X81055200Y-52426911D01*
X81055202Y-52426911D01*
X81059547Y-52425975D01*
X81325337Y-52327920D01*
X81574660Y-52193393D01*
X81802540Y-52025078D01*
X82004430Y-51826334D01*
X82007131Y-51822794D01*
X82007137Y-51822788D01*
X82173602Y-51604667D01*
X82173605Y-51604663D01*
X82176304Y-51601126D01*
X82314730Y-51353947D01*
X82336946Y-51296524D01*
X82415341Y-51093885D01*
X82415343Y-51093879D01*
X82416948Y-51089730D01*
X82480918Y-50813747D01*
X82505363Y-50531503D01*
X82502140Y-50472936D01*
X82501896Y-50468497D01*
X98494637Y-50468497D01*
X98494881Y-50472932D01*
X98494881Y-50472936D01*
X98502707Y-50615128D01*
X98510205Y-50751370D01*
X98537632Y-50889257D01*
X98559969Y-51001548D01*
X98565474Y-51029226D01*
X98566950Y-51033429D01*
X98588181Y-51093885D01*
X98659342Y-51296524D01*
X98661395Y-51300477D01*
X98661398Y-51300483D01*
X98706278Y-51386880D01*
X98789936Y-51547928D01*
X98792519Y-51551543D01*
X98792523Y-51551549D01*
X98825176Y-51597242D01*
X98954651Y-51778424D01*
X98957729Y-51781651D01*
X98957731Y-51781653D01*
X99116175Y-51947745D01*
X99150199Y-51983412D01*
X99372680Y-52158801D01*
X99482927Y-52222837D01*
X99613807Y-52298859D01*
X99613813Y-52298862D01*
X99617654Y-52301093D01*
X99880232Y-52407448D01*
X99884545Y-52408519D01*
X99884550Y-52408521D01*
X100150856Y-52474672D01*
X100150861Y-52474673D01*
X100155177Y-52475745D01*
X100159605Y-52476199D01*
X100159607Y-52476199D01*
X100235307Y-52483955D01*
X100396790Y-52500500D01*
X100572170Y-52500500D01*
X100782593Y-52485601D01*
X100786948Y-52484663D01*
X100786951Y-52484663D01*
X101055200Y-52426911D01*
X101055202Y-52426911D01*
X101059547Y-52425975D01*
X101325337Y-52327920D01*
X101574660Y-52193393D01*
X101802540Y-52025078D01*
X102004430Y-51826334D01*
X102007131Y-51822794D01*
X102007137Y-51822788D01*
X102173602Y-51604667D01*
X102173605Y-51604663D01*
X102176304Y-51601126D01*
X102314730Y-51353947D01*
X102336946Y-51296524D01*
X102415341Y-51093885D01*
X102415343Y-51093879D01*
X102416948Y-51089730D01*
X102480918Y-50813747D01*
X102481962Y-50801693D01*
X112445808Y-50801693D01*
X112455589Y-51188117D01*
X112456004Y-51191332D01*
X112456004Y-51191336D01*
X112480816Y-51383689D01*
X112505040Y-51571488D01*
X112505780Y-51574631D01*
X112505781Y-51574636D01*
X112592892Y-51944582D01*
X112593637Y-51947745D01*
X112720441Y-52312902D01*
X112772568Y-52424435D01*
X112882732Y-52660146D01*
X112882737Y-52660155D01*
X112884109Y-52663091D01*
X113082906Y-52994600D01*
X113314727Y-53303919D01*
X113577116Y-53587769D01*
X113867293Y-53843144D01*
X113869935Y-53845025D01*
X113869940Y-53845029D01*
X114030270Y-53959180D01*
X114182183Y-54067339D01*
X114518450Y-54257977D01*
X114521414Y-54259275D01*
X114521418Y-54259277D01*
X114624632Y-54304477D01*
X114872533Y-54413040D01*
X115240679Y-54530885D01*
X115429833Y-54570574D01*
X115615808Y-54609596D01*
X115615812Y-54609597D01*
X115618988Y-54610263D01*
X116003453Y-54650332D01*
X116005879Y-54650396D01*
X116005886Y-54650396D01*
X116007477Y-54650437D01*
X116009868Y-54650500D01*
X116296620Y-54650500D01*
X116298229Y-54650417D01*
X116298232Y-54650417D01*
X116355810Y-54647450D01*
X116586035Y-54635586D01*
X116830674Y-54597495D01*
X116964771Y-54576616D01*
X116964775Y-54576615D01*
X116967981Y-54576116D01*
X117341790Y-54477700D01*
X117510739Y-54414028D01*
X117700465Y-54342526D01*
X117700472Y-54342523D01*
X117703502Y-54341381D01*
X118049286Y-54168603D01*
X118375478Y-53961195D01*
X118678622Y-53721357D01*
X118955507Y-53451628D01*
X119203199Y-53154866D01*
X119205004Y-53152185D01*
X119205010Y-53152177D01*
X119417264Y-52836904D01*
X119417267Y-52836899D01*
X119419074Y-52834215D01*
X119600845Y-52493072D01*
X119603759Y-52485916D01*
X119745362Y-52138059D01*
X119745362Y-52138058D01*
X119746586Y-52135052D01*
X119778641Y-52025078D01*
X119853846Y-51767059D01*
X119853846Y-51767058D01*
X119854753Y-51763947D01*
X119924200Y-51383689D01*
X119926839Y-51349784D01*
X119953940Y-51001548D01*
X119953940Y-51001544D01*
X119954192Y-50998307D01*
X119949521Y-50813747D01*
X119944493Y-50615128D01*
X119944411Y-50611883D01*
X119943996Y-50608664D01*
X119895374Y-50231718D01*
X119895372Y-50231709D01*
X119894960Y-50228512D01*
X119885010Y-50186253D01*
X119807108Y-49855418D01*
X119807107Y-49855414D01*
X119806363Y-49852255D01*
X119679559Y-49487098D01*
X119594012Y-49304059D01*
X119517268Y-49139854D01*
X119517263Y-49139845D01*
X119515891Y-49136909D01*
X119462587Y-49048020D01*
X119318765Y-48808186D01*
X119318762Y-48808182D01*
X119317094Y-48805400D01*
X119085273Y-48496081D01*
X118822884Y-48212231D01*
X118532707Y-47956856D01*
X118530065Y-47954975D01*
X118530060Y-47954971D01*
X118220463Y-47734545D01*
X118217817Y-47732661D01*
X117881550Y-47542023D01*
X117878586Y-47540725D01*
X117878582Y-47540723D01*
X117694412Y-47460070D01*
X117527467Y-47386960D01*
X117159321Y-47269115D01*
X116941371Y-47223384D01*
X116784192Y-47190404D01*
X116784188Y-47190403D01*
X116781012Y-47189737D01*
X116396547Y-47149668D01*
X116394121Y-47149604D01*
X116394114Y-47149604D01*
X116392523Y-47149563D01*
X116390132Y-47149500D01*
X116103380Y-47149500D01*
X116101771Y-47149583D01*
X116101768Y-47149583D01*
X116044190Y-47152550D01*
X115813965Y-47164414D01*
X115569326Y-47202505D01*
X115435229Y-47223384D01*
X115435225Y-47223385D01*
X115432019Y-47223884D01*
X115058210Y-47322300D01*
X115055186Y-47323440D01*
X115055185Y-47323440D01*
X114699535Y-47457474D01*
X114699528Y-47457477D01*
X114696498Y-47458619D01*
X114350714Y-47631397D01*
X114024522Y-47838805D01*
X113721378Y-48078643D01*
X113444493Y-48348372D01*
X113196801Y-48645134D01*
X113194996Y-48647815D01*
X113194990Y-48647823D01*
X112982736Y-48963096D01*
X112980926Y-48965785D01*
X112799155Y-49306928D01*
X112797932Y-49309933D01*
X112797928Y-49309941D01*
X112662689Y-49642163D01*
X112653414Y-49664948D01*
X112652506Y-49668063D01*
X112652505Y-49668066D01*
X112599713Y-49849188D01*
X112545247Y-50036053D01*
X112475800Y-50416311D01*
X112475548Y-50419546D01*
X112475548Y-50419548D01*
X112472084Y-50464065D01*
X112445808Y-50801693D01*
X102481962Y-50801693D01*
X102505363Y-50531503D01*
X102502140Y-50472936D01*
X102490040Y-50253073D01*
X102490039Y-50253066D01*
X102489795Y-50248630D01*
X102434526Y-49970774D01*
X102413279Y-49910270D01*
X102342136Y-49707684D01*
X102342135Y-49707681D01*
X102340658Y-49703476D01*
X102338605Y-49699523D01*
X102338602Y-49699517D01*
X102229848Y-49490158D01*
X102210064Y-49452072D01*
X102207481Y-49448457D01*
X102207477Y-49448451D01*
X102127858Y-49337037D01*
X102045349Y-49221576D01*
X102003028Y-49177212D01*
X101852876Y-49019811D01*
X101852873Y-49019808D01*
X101849801Y-49016588D01*
X101627320Y-48841199D01*
X101517073Y-48777163D01*
X101386193Y-48701141D01*
X101386187Y-48701138D01*
X101382346Y-48698907D01*
X101249587Y-48645134D01*
X101123894Y-48594223D01*
X101123891Y-48594222D01*
X101119768Y-48592552D01*
X101115455Y-48591481D01*
X101115450Y-48591479D01*
X100849144Y-48525328D01*
X100849139Y-48525327D01*
X100844823Y-48524255D01*
X100840395Y-48523801D01*
X100840393Y-48523801D01*
X100745552Y-48514084D01*
X100603210Y-48499500D01*
X100427830Y-48499500D01*
X100217407Y-48514399D01*
X100213052Y-48515337D01*
X100213049Y-48515337D01*
X99944800Y-48573089D01*
X99944798Y-48573089D01*
X99940453Y-48574025D01*
X99674663Y-48672080D01*
X99425340Y-48806607D01*
X99197460Y-48974922D01*
X98995570Y-49173666D01*
X98992869Y-49177206D01*
X98992863Y-49177212D01*
X98826398Y-49395333D01*
X98823696Y-49398874D01*
X98821521Y-49402758D01*
X98774289Y-49487098D01*
X98685270Y-49646053D01*
X98683662Y-49650211D01*
X98683659Y-49650216D01*
X98584659Y-49906115D01*
X98583052Y-49910270D01*
X98519082Y-50186253D01*
X98494637Y-50468497D01*
X82501896Y-50468497D01*
X82490040Y-50253073D01*
X82490039Y-50253066D01*
X82489795Y-50248630D01*
X82434526Y-49970774D01*
X82413279Y-49910270D01*
X82342136Y-49707684D01*
X82342135Y-49707681D01*
X82340658Y-49703476D01*
X82338605Y-49699523D01*
X82338602Y-49699517D01*
X82229848Y-49490158D01*
X82210064Y-49452072D01*
X82207481Y-49448457D01*
X82207477Y-49448451D01*
X82127858Y-49337037D01*
X82045349Y-49221576D01*
X82003028Y-49177212D01*
X81852876Y-49019811D01*
X81852873Y-49019808D01*
X81849801Y-49016588D01*
X81627320Y-48841199D01*
X81517073Y-48777163D01*
X81386193Y-48701141D01*
X81386187Y-48701138D01*
X81382346Y-48698907D01*
X81249587Y-48645134D01*
X81123894Y-48594223D01*
X81123891Y-48594222D01*
X81119768Y-48592552D01*
X81115455Y-48591481D01*
X81115450Y-48591479D01*
X80849144Y-48525328D01*
X80849139Y-48525327D01*
X80844823Y-48524255D01*
X80840395Y-48523801D01*
X80840393Y-48523801D01*
X80745552Y-48514084D01*
X80603210Y-48499500D01*
X80427830Y-48499500D01*
X80217407Y-48514399D01*
X80213052Y-48515337D01*
X80213049Y-48515337D01*
X79944800Y-48573089D01*
X79944798Y-48573089D01*
X79940453Y-48574025D01*
X79674663Y-48672080D01*
X79425340Y-48806607D01*
X79197460Y-48974922D01*
X78995570Y-49173666D01*
X78992869Y-49177206D01*
X78992863Y-49177212D01*
X78826398Y-49395333D01*
X78823696Y-49398874D01*
X78821521Y-49402758D01*
X78774289Y-49487098D01*
X78685270Y-49646053D01*
X78683662Y-49650211D01*
X78683659Y-49650216D01*
X78584659Y-49906115D01*
X78583052Y-49910270D01*
X78519082Y-50186253D01*
X78494637Y-50468497D01*
X68525916Y-50468497D01*
X68495374Y-50231718D01*
X68495372Y-50231709D01*
X68494960Y-50228512D01*
X68485010Y-50186253D01*
X68407108Y-49855418D01*
X68407107Y-49855414D01*
X68406363Y-49852255D01*
X68279559Y-49487098D01*
X68194012Y-49304059D01*
X68117268Y-49139854D01*
X68117263Y-49139845D01*
X68115891Y-49136909D01*
X68062587Y-49048020D01*
X67918765Y-48808186D01*
X67918762Y-48808182D01*
X67917094Y-48805400D01*
X67685273Y-48496081D01*
X67422884Y-48212231D01*
X67132707Y-47956856D01*
X67130065Y-47954975D01*
X67130060Y-47954971D01*
X66820463Y-47734545D01*
X66817817Y-47732661D01*
X66481550Y-47542023D01*
X66478586Y-47540725D01*
X66478582Y-47540723D01*
X66294412Y-47460070D01*
X66127467Y-47386960D01*
X65759321Y-47269115D01*
X65541371Y-47223384D01*
X65384192Y-47190404D01*
X65384188Y-47190403D01*
X65381012Y-47189737D01*
X64996547Y-47149668D01*
X64994121Y-47149604D01*
X64994114Y-47149604D01*
X64992523Y-47149563D01*
X64990132Y-47149500D01*
X64703380Y-47149500D01*
X64701771Y-47149583D01*
X64701768Y-47149583D01*
X64644190Y-47152550D01*
X64413965Y-47164414D01*
X64169326Y-47202505D01*
X64035229Y-47223384D01*
X64035225Y-47223385D01*
X64032019Y-47223884D01*
X63658210Y-47322300D01*
X63655186Y-47323440D01*
X63655185Y-47323440D01*
X63299535Y-47457474D01*
X63299528Y-47457477D01*
X63296498Y-47458619D01*
X62950714Y-47631397D01*
X62624522Y-47838805D01*
X62321378Y-48078643D01*
X62044493Y-48348372D01*
X61796801Y-48645134D01*
X61794996Y-48647815D01*
X61794990Y-48647823D01*
X61582736Y-48963096D01*
X61580926Y-48965785D01*
X61399155Y-49306928D01*
X61397932Y-49309933D01*
X61397928Y-49309941D01*
X61262689Y-49642163D01*
X61253414Y-49664948D01*
X61252506Y-49668063D01*
X61252505Y-49668066D01*
X61199713Y-49849188D01*
X61145247Y-50036053D01*
X61075800Y-50416311D01*
X61075548Y-50419546D01*
X61075548Y-50419548D01*
X61072084Y-50464065D01*
X61045808Y-50801693D01*
X50001000Y-50801693D01*
X50001000Y-42107165D01*
X70047866Y-42107165D01*
X70082952Y-42364970D01*
X70155758Y-42614757D01*
X70264686Y-42851039D01*
X70267246Y-42854944D01*
X70267249Y-42854949D01*
X70404775Y-43064712D01*
X70404779Y-43064717D01*
X70407341Y-43068625D01*
X70580591Y-43262735D01*
X70780629Y-43429105D01*
X71003061Y-43564080D01*
X71007375Y-43565889D01*
X71007377Y-43565890D01*
X71238686Y-43662886D01*
X71238691Y-43662888D01*
X71243001Y-43664695D01*
X71247533Y-43665846D01*
X71247536Y-43665847D01*
X71372815Y-43697663D01*
X71495177Y-43728739D01*
X71711286Y-43750500D01*
X71866044Y-43750500D01*
X71868369Y-43750327D01*
X71868375Y-43750327D01*
X72054814Y-43736472D01*
X72054818Y-43736471D01*
X72059466Y-43736126D01*
X72313232Y-43678705D01*
X72317586Y-43677012D01*
X72551370Y-43586098D01*
X72551372Y-43586097D01*
X72555723Y-43584405D01*
X72591285Y-43564080D01*
X72639038Y-43536786D01*
X72781612Y-43455299D01*
X72985936Y-43294223D01*
X73164208Y-43104714D01*
X73312511Y-42890937D01*
X73330258Y-42854949D01*
X73425521Y-42661775D01*
X73425522Y-42661772D01*
X73427586Y-42657587D01*
X73506906Y-42409792D01*
X73548728Y-42152994D01*
X73549328Y-42107165D01*
X74647866Y-42107165D01*
X74682952Y-42364970D01*
X74755758Y-42614757D01*
X74864686Y-42851039D01*
X74867246Y-42854944D01*
X74867249Y-42854949D01*
X75004775Y-43064712D01*
X75004779Y-43064717D01*
X75007341Y-43068625D01*
X75180591Y-43262735D01*
X75380629Y-43429105D01*
X75603061Y-43564080D01*
X75607375Y-43565889D01*
X75607377Y-43565890D01*
X75838686Y-43662886D01*
X75838691Y-43662888D01*
X75843001Y-43664695D01*
X75847533Y-43665846D01*
X75847536Y-43665847D01*
X75972815Y-43697663D01*
X76095177Y-43728739D01*
X76311286Y-43750500D01*
X76466044Y-43750500D01*
X76468369Y-43750327D01*
X76468375Y-43750327D01*
X76654814Y-43736472D01*
X76654818Y-43736471D01*
X76659466Y-43736126D01*
X76913232Y-43678705D01*
X76917586Y-43677012D01*
X77151370Y-43586098D01*
X77151372Y-43586097D01*
X77155723Y-43584405D01*
X77191285Y-43564080D01*
X77239038Y-43536786D01*
X77381612Y-43455299D01*
X77585936Y-43294223D01*
X77764208Y-43104714D01*
X77912511Y-42890937D01*
X77930258Y-42854949D01*
X78025521Y-42661775D01*
X78025522Y-42661772D01*
X78027586Y-42657587D01*
X78106906Y-42409792D01*
X78148728Y-42152994D01*
X78149328Y-42107165D01*
X79247866Y-42107165D01*
X79282952Y-42364970D01*
X79355758Y-42614757D01*
X79464686Y-42851039D01*
X79467246Y-42854944D01*
X79467249Y-42854949D01*
X79604775Y-43064712D01*
X79604779Y-43064717D01*
X79607341Y-43068625D01*
X79780591Y-43262735D01*
X79980629Y-43429105D01*
X80203061Y-43564080D01*
X80207375Y-43565889D01*
X80207377Y-43565890D01*
X80438686Y-43662886D01*
X80438691Y-43662888D01*
X80443001Y-43664695D01*
X80447533Y-43665846D01*
X80447536Y-43665847D01*
X80572815Y-43697663D01*
X80695177Y-43728739D01*
X80911286Y-43750500D01*
X81066044Y-43750500D01*
X81068369Y-43750327D01*
X81068375Y-43750327D01*
X81254814Y-43736472D01*
X81254818Y-43736471D01*
X81259466Y-43736126D01*
X81513232Y-43678705D01*
X81517586Y-43677012D01*
X81751370Y-43586098D01*
X81751372Y-43586097D01*
X81755723Y-43584405D01*
X81791285Y-43564080D01*
X81839038Y-43536786D01*
X81981612Y-43455299D01*
X82185936Y-43294223D01*
X82364208Y-43104714D01*
X82512511Y-42890937D01*
X82530258Y-42854949D01*
X82625521Y-42661775D01*
X82625522Y-42661772D01*
X82627586Y-42657587D01*
X82706906Y-42409792D01*
X82748728Y-42152994D01*
X82749328Y-42107165D01*
X83847866Y-42107165D01*
X83882952Y-42364970D01*
X83955758Y-42614757D01*
X84064686Y-42851039D01*
X84067246Y-42854944D01*
X84067249Y-42854949D01*
X84204775Y-43064712D01*
X84204779Y-43064717D01*
X84207341Y-43068625D01*
X84380591Y-43262735D01*
X84580629Y-43429105D01*
X84803061Y-43564080D01*
X84807375Y-43565889D01*
X84807377Y-43565890D01*
X85038686Y-43662886D01*
X85038691Y-43662888D01*
X85043001Y-43664695D01*
X85047533Y-43665846D01*
X85047536Y-43665847D01*
X85172815Y-43697663D01*
X85295177Y-43728739D01*
X85511286Y-43750500D01*
X85666044Y-43750500D01*
X85668369Y-43750327D01*
X85668375Y-43750327D01*
X85854814Y-43736472D01*
X85854818Y-43736471D01*
X85859466Y-43736126D01*
X86113232Y-43678705D01*
X86117586Y-43677012D01*
X86351370Y-43586098D01*
X86351372Y-43586097D01*
X86355723Y-43584405D01*
X86391285Y-43564080D01*
X86439038Y-43536786D01*
X86581612Y-43455299D01*
X86785936Y-43294223D01*
X86964208Y-43104714D01*
X87112511Y-42890937D01*
X87130258Y-42854949D01*
X87225521Y-42661775D01*
X87225522Y-42661772D01*
X87227586Y-42657587D01*
X87306906Y-42409792D01*
X87348728Y-42152994D01*
X87349328Y-42107165D01*
X93647866Y-42107165D01*
X93682952Y-42364970D01*
X93755758Y-42614757D01*
X93864686Y-42851039D01*
X93867246Y-42854944D01*
X93867249Y-42854949D01*
X94004775Y-43064712D01*
X94004779Y-43064717D01*
X94007341Y-43068625D01*
X94180591Y-43262735D01*
X94380629Y-43429105D01*
X94603061Y-43564080D01*
X94607375Y-43565889D01*
X94607377Y-43565890D01*
X94838686Y-43662886D01*
X94838691Y-43662888D01*
X94843001Y-43664695D01*
X94847533Y-43665846D01*
X94847536Y-43665847D01*
X94972815Y-43697663D01*
X95095177Y-43728739D01*
X95311286Y-43750500D01*
X95466044Y-43750500D01*
X95468369Y-43750327D01*
X95468375Y-43750327D01*
X95654814Y-43736472D01*
X95654818Y-43736471D01*
X95659466Y-43736126D01*
X95913232Y-43678705D01*
X95917586Y-43677012D01*
X96151370Y-43586098D01*
X96151372Y-43586097D01*
X96155723Y-43584405D01*
X96191285Y-43564080D01*
X96239038Y-43536786D01*
X96381612Y-43455299D01*
X96585936Y-43294223D01*
X96764208Y-43104714D01*
X96912511Y-42890937D01*
X96930258Y-42854949D01*
X97025521Y-42661775D01*
X97025522Y-42661772D01*
X97027586Y-42657587D01*
X97106906Y-42409792D01*
X97148728Y-42152994D01*
X97149328Y-42107165D01*
X98247866Y-42107165D01*
X98282952Y-42364970D01*
X98355758Y-42614757D01*
X98464686Y-42851039D01*
X98467246Y-42854944D01*
X98467249Y-42854949D01*
X98604775Y-43064712D01*
X98604779Y-43064717D01*
X98607341Y-43068625D01*
X98780591Y-43262735D01*
X98980629Y-43429105D01*
X99203061Y-43564080D01*
X99207375Y-43565889D01*
X99207377Y-43565890D01*
X99438686Y-43662886D01*
X99438691Y-43662888D01*
X99443001Y-43664695D01*
X99447533Y-43665846D01*
X99447536Y-43665847D01*
X99572815Y-43697663D01*
X99695177Y-43728739D01*
X99911286Y-43750500D01*
X100066044Y-43750500D01*
X100068369Y-43750327D01*
X100068375Y-43750327D01*
X100254814Y-43736472D01*
X100254818Y-43736471D01*
X100259466Y-43736126D01*
X100513232Y-43678705D01*
X100517586Y-43677012D01*
X100751370Y-43586098D01*
X100751372Y-43586097D01*
X100755723Y-43584405D01*
X100791285Y-43564080D01*
X100839038Y-43536786D01*
X100981612Y-43455299D01*
X101185936Y-43294223D01*
X101364208Y-43104714D01*
X101512511Y-42890937D01*
X101530258Y-42854949D01*
X101625521Y-42661775D01*
X101625522Y-42661772D01*
X101627586Y-42657587D01*
X101706906Y-42409792D01*
X101748728Y-42152994D01*
X101749328Y-42107165D01*
X102847866Y-42107165D01*
X102882952Y-42364970D01*
X102955758Y-42614757D01*
X103064686Y-42851039D01*
X103067246Y-42854944D01*
X103067249Y-42854949D01*
X103204775Y-43064712D01*
X103204779Y-43064717D01*
X103207341Y-43068625D01*
X103380591Y-43262735D01*
X103580629Y-43429105D01*
X103803061Y-43564080D01*
X103807375Y-43565889D01*
X103807377Y-43565890D01*
X104038686Y-43662886D01*
X104038691Y-43662888D01*
X104043001Y-43664695D01*
X104047533Y-43665846D01*
X104047536Y-43665847D01*
X104172815Y-43697663D01*
X104295177Y-43728739D01*
X104511286Y-43750500D01*
X104666044Y-43750500D01*
X104668369Y-43750327D01*
X104668375Y-43750327D01*
X104854814Y-43736472D01*
X104854818Y-43736471D01*
X104859466Y-43736126D01*
X105113232Y-43678705D01*
X105117586Y-43677012D01*
X105351370Y-43586098D01*
X105351372Y-43586097D01*
X105355723Y-43584405D01*
X105391285Y-43564080D01*
X105439038Y-43536786D01*
X105581612Y-43455299D01*
X105785936Y-43294223D01*
X105964208Y-43104714D01*
X106112511Y-42890937D01*
X106130258Y-42854949D01*
X106225521Y-42661775D01*
X106225522Y-42661772D01*
X106227586Y-42657587D01*
X106306906Y-42409792D01*
X106348728Y-42152994D01*
X106349328Y-42107165D01*
X107447866Y-42107165D01*
X107482952Y-42364970D01*
X107555758Y-42614757D01*
X107664686Y-42851039D01*
X107667246Y-42854944D01*
X107667249Y-42854949D01*
X107804775Y-43064712D01*
X107804779Y-43064717D01*
X107807341Y-43068625D01*
X107980591Y-43262735D01*
X108180629Y-43429105D01*
X108403061Y-43564080D01*
X108407375Y-43565889D01*
X108407377Y-43565890D01*
X108638686Y-43662886D01*
X108638691Y-43662888D01*
X108643001Y-43664695D01*
X108647533Y-43665846D01*
X108647536Y-43665847D01*
X108772815Y-43697663D01*
X108895177Y-43728739D01*
X109111286Y-43750500D01*
X109266044Y-43750500D01*
X109268369Y-43750327D01*
X109268375Y-43750327D01*
X109454814Y-43736472D01*
X109454818Y-43736471D01*
X109459466Y-43736126D01*
X109713232Y-43678705D01*
X109717586Y-43677012D01*
X109951370Y-43586098D01*
X109951372Y-43586097D01*
X109955723Y-43584405D01*
X109991285Y-43564080D01*
X110039038Y-43536786D01*
X110181612Y-43455299D01*
X110385936Y-43294223D01*
X110564208Y-43104714D01*
X110712511Y-42890937D01*
X110730258Y-42854949D01*
X110825521Y-42661775D01*
X110825522Y-42661772D01*
X110827586Y-42657587D01*
X110906906Y-42409792D01*
X110948728Y-42152994D01*
X110952134Y-41892835D01*
X110917048Y-41635030D01*
X110844242Y-41385243D01*
X110735314Y-41148961D01*
X110706637Y-41105221D01*
X110595225Y-40935288D01*
X110595221Y-40935283D01*
X110592659Y-40931375D01*
X110419409Y-40737265D01*
X110219371Y-40570895D01*
X109996939Y-40435920D01*
X109992623Y-40434110D01*
X109761314Y-40337114D01*
X109761309Y-40337112D01*
X109756999Y-40335305D01*
X109752467Y-40334154D01*
X109752464Y-40334153D01*
X109627185Y-40302337D01*
X109504823Y-40271261D01*
X109288714Y-40249500D01*
X109133956Y-40249500D01*
X109131631Y-40249673D01*
X109131625Y-40249673D01*
X108945186Y-40263528D01*
X108945182Y-40263529D01*
X108940534Y-40263874D01*
X108686768Y-40321295D01*
X108682416Y-40322987D01*
X108682414Y-40322988D01*
X108448630Y-40413902D01*
X108448628Y-40413903D01*
X108444277Y-40415595D01*
X108440223Y-40417912D01*
X108440221Y-40417913D01*
X108404467Y-40438348D01*
X108218388Y-40544701D01*
X108014064Y-40705777D01*
X107835792Y-40895286D01*
X107687489Y-41109063D01*
X107685423Y-41113253D01*
X107685421Y-41113256D01*
X107665720Y-41153207D01*
X107572414Y-41342413D01*
X107493094Y-41590208D01*
X107451272Y-41847006D01*
X107447866Y-42107165D01*
X106349328Y-42107165D01*
X106352134Y-41892835D01*
X106317048Y-41635030D01*
X106244242Y-41385243D01*
X106135314Y-41148961D01*
X106106637Y-41105221D01*
X105995225Y-40935288D01*
X105995221Y-40935283D01*
X105992659Y-40931375D01*
X105819409Y-40737265D01*
X105619371Y-40570895D01*
X105396939Y-40435920D01*
X105392623Y-40434110D01*
X105161314Y-40337114D01*
X105161309Y-40337112D01*
X105156999Y-40335305D01*
X105152467Y-40334154D01*
X105152464Y-40334153D01*
X105027185Y-40302337D01*
X104904823Y-40271261D01*
X104688714Y-40249500D01*
X104533956Y-40249500D01*
X104531631Y-40249673D01*
X104531625Y-40249673D01*
X104345186Y-40263528D01*
X104345182Y-40263529D01*
X104340534Y-40263874D01*
X104086768Y-40321295D01*
X104082416Y-40322987D01*
X104082414Y-40322988D01*
X103848630Y-40413902D01*
X103848628Y-40413903D01*
X103844277Y-40415595D01*
X103840223Y-40417912D01*
X103840221Y-40417913D01*
X103804467Y-40438348D01*
X103618388Y-40544701D01*
X103414064Y-40705777D01*
X103235792Y-40895286D01*
X103087489Y-41109063D01*
X103085423Y-41113253D01*
X103085421Y-41113256D01*
X103065720Y-41153207D01*
X102972414Y-41342413D01*
X102893094Y-41590208D01*
X102851272Y-41847006D01*
X102847866Y-42107165D01*
X101749328Y-42107165D01*
X101752134Y-41892835D01*
X101717048Y-41635030D01*
X101644242Y-41385243D01*
X101535314Y-41148961D01*
X101506637Y-41105221D01*
X101395225Y-40935288D01*
X101395221Y-40935283D01*
X101392659Y-40931375D01*
X101219409Y-40737265D01*
X101019371Y-40570895D01*
X100796939Y-40435920D01*
X100792623Y-40434110D01*
X100561314Y-40337114D01*
X100561309Y-40337112D01*
X100556999Y-40335305D01*
X100552467Y-40334154D01*
X100552464Y-40334153D01*
X100427185Y-40302337D01*
X100304823Y-40271261D01*
X100088714Y-40249500D01*
X99933956Y-40249500D01*
X99931631Y-40249673D01*
X99931625Y-40249673D01*
X99745186Y-40263528D01*
X99745182Y-40263529D01*
X99740534Y-40263874D01*
X99486768Y-40321295D01*
X99482416Y-40322987D01*
X99482414Y-40322988D01*
X99248630Y-40413902D01*
X99248628Y-40413903D01*
X99244277Y-40415595D01*
X99240223Y-40417912D01*
X99240221Y-40417913D01*
X99204467Y-40438348D01*
X99018388Y-40544701D01*
X98814064Y-40705777D01*
X98635792Y-40895286D01*
X98487489Y-41109063D01*
X98485423Y-41113253D01*
X98485421Y-41113256D01*
X98465720Y-41153207D01*
X98372414Y-41342413D01*
X98293094Y-41590208D01*
X98251272Y-41847006D01*
X98247866Y-42107165D01*
X97149328Y-42107165D01*
X97152134Y-41892835D01*
X97117048Y-41635030D01*
X97044242Y-41385243D01*
X96935314Y-41148961D01*
X96906637Y-41105221D01*
X96795225Y-40935288D01*
X96795221Y-40935283D01*
X96792659Y-40931375D01*
X96619409Y-40737265D01*
X96419371Y-40570895D01*
X96196939Y-40435920D01*
X96192623Y-40434110D01*
X95961314Y-40337114D01*
X95961309Y-40337112D01*
X95956999Y-40335305D01*
X95952467Y-40334154D01*
X95952464Y-40334153D01*
X95827185Y-40302337D01*
X95704823Y-40271261D01*
X95488714Y-40249500D01*
X95333956Y-40249500D01*
X95331631Y-40249673D01*
X95331625Y-40249673D01*
X95145186Y-40263528D01*
X95145182Y-40263529D01*
X95140534Y-40263874D01*
X94886768Y-40321295D01*
X94882416Y-40322987D01*
X94882414Y-40322988D01*
X94648630Y-40413902D01*
X94648628Y-40413903D01*
X94644277Y-40415595D01*
X94640223Y-40417912D01*
X94640221Y-40417913D01*
X94604467Y-40438348D01*
X94418388Y-40544701D01*
X94214064Y-40705777D01*
X94035792Y-40895286D01*
X93887489Y-41109063D01*
X93885423Y-41113253D01*
X93885421Y-41113256D01*
X93865720Y-41153207D01*
X93772414Y-41342413D01*
X93693094Y-41590208D01*
X93651272Y-41847006D01*
X93647866Y-42107165D01*
X87349328Y-42107165D01*
X87352134Y-41892835D01*
X87317048Y-41635030D01*
X87244242Y-41385243D01*
X87135314Y-41148961D01*
X87106637Y-41105221D01*
X86995225Y-40935288D01*
X86995221Y-40935283D01*
X86992659Y-40931375D01*
X86819409Y-40737265D01*
X86619371Y-40570895D01*
X86396939Y-40435920D01*
X86392623Y-40434110D01*
X86161314Y-40337114D01*
X86161309Y-40337112D01*
X86156999Y-40335305D01*
X86152467Y-40334154D01*
X86152464Y-40334153D01*
X86027185Y-40302337D01*
X85904823Y-40271261D01*
X85688714Y-40249500D01*
X85533956Y-40249500D01*
X85531631Y-40249673D01*
X85531625Y-40249673D01*
X85345186Y-40263528D01*
X85345182Y-40263529D01*
X85340534Y-40263874D01*
X85086768Y-40321295D01*
X85082416Y-40322987D01*
X85082414Y-40322988D01*
X84848630Y-40413902D01*
X84848628Y-40413903D01*
X84844277Y-40415595D01*
X84840223Y-40417912D01*
X84840221Y-40417913D01*
X84804467Y-40438348D01*
X84618388Y-40544701D01*
X84414064Y-40705777D01*
X84235792Y-40895286D01*
X84087489Y-41109063D01*
X84085423Y-41113253D01*
X84085421Y-41113256D01*
X84065720Y-41153207D01*
X83972414Y-41342413D01*
X83893094Y-41590208D01*
X83851272Y-41847006D01*
X83847866Y-42107165D01*
X82749328Y-42107165D01*
X82752134Y-41892835D01*
X82717048Y-41635030D01*
X82644242Y-41385243D01*
X82535314Y-41148961D01*
X82506637Y-41105221D01*
X82395225Y-40935288D01*
X82395221Y-40935283D01*
X82392659Y-40931375D01*
X82219409Y-40737265D01*
X82019371Y-40570895D01*
X81796939Y-40435920D01*
X81792623Y-40434110D01*
X81561314Y-40337114D01*
X81561309Y-40337112D01*
X81556999Y-40335305D01*
X81552467Y-40334154D01*
X81552464Y-40334153D01*
X81427185Y-40302337D01*
X81304823Y-40271261D01*
X81088714Y-40249500D01*
X80933956Y-40249500D01*
X80931631Y-40249673D01*
X80931625Y-40249673D01*
X80745186Y-40263528D01*
X80745182Y-40263529D01*
X80740534Y-40263874D01*
X80486768Y-40321295D01*
X80482416Y-40322987D01*
X80482414Y-40322988D01*
X80248630Y-40413902D01*
X80248628Y-40413903D01*
X80244277Y-40415595D01*
X80240223Y-40417912D01*
X80240221Y-40417913D01*
X80204467Y-40438348D01*
X80018388Y-40544701D01*
X79814064Y-40705777D01*
X79635792Y-40895286D01*
X79487489Y-41109063D01*
X79485423Y-41113253D01*
X79485421Y-41113256D01*
X79465720Y-41153207D01*
X79372414Y-41342413D01*
X79293094Y-41590208D01*
X79251272Y-41847006D01*
X79247866Y-42107165D01*
X78149328Y-42107165D01*
X78152134Y-41892835D01*
X78117048Y-41635030D01*
X78044242Y-41385243D01*
X77935314Y-41148961D01*
X77906637Y-41105221D01*
X77795225Y-40935288D01*
X77795221Y-40935283D01*
X77792659Y-40931375D01*
X77619409Y-40737265D01*
X77419371Y-40570895D01*
X77196939Y-40435920D01*
X77192623Y-40434110D01*
X76961314Y-40337114D01*
X76961309Y-40337112D01*
X76956999Y-40335305D01*
X76952467Y-40334154D01*
X76952464Y-40334153D01*
X76827185Y-40302337D01*
X76704823Y-40271261D01*
X76488714Y-40249500D01*
X76333956Y-40249500D01*
X76331631Y-40249673D01*
X76331625Y-40249673D01*
X76145186Y-40263528D01*
X76145182Y-40263529D01*
X76140534Y-40263874D01*
X75886768Y-40321295D01*
X75882416Y-40322987D01*
X75882414Y-40322988D01*
X75648630Y-40413902D01*
X75648628Y-40413903D01*
X75644277Y-40415595D01*
X75640223Y-40417912D01*
X75640221Y-40417913D01*
X75604467Y-40438348D01*
X75418388Y-40544701D01*
X75214064Y-40705777D01*
X75035792Y-40895286D01*
X74887489Y-41109063D01*
X74885423Y-41113253D01*
X74885421Y-41113256D01*
X74865720Y-41153207D01*
X74772414Y-41342413D01*
X74693094Y-41590208D01*
X74651272Y-41847006D01*
X74647866Y-42107165D01*
X73549328Y-42107165D01*
X73552134Y-41892835D01*
X73517048Y-41635030D01*
X73444242Y-41385243D01*
X73335314Y-41148961D01*
X73306637Y-41105221D01*
X73195225Y-40935288D01*
X73195221Y-40935283D01*
X73192659Y-40931375D01*
X73019409Y-40737265D01*
X72819371Y-40570895D01*
X72596939Y-40435920D01*
X72592623Y-40434110D01*
X72361314Y-40337114D01*
X72361309Y-40337112D01*
X72356999Y-40335305D01*
X72352467Y-40334154D01*
X72352464Y-40334153D01*
X72227185Y-40302337D01*
X72104823Y-40271261D01*
X71888714Y-40249500D01*
X71733956Y-40249500D01*
X71731631Y-40249673D01*
X71731625Y-40249673D01*
X71545186Y-40263528D01*
X71545182Y-40263529D01*
X71540534Y-40263874D01*
X71286768Y-40321295D01*
X71282416Y-40322987D01*
X71282414Y-40322988D01*
X71048630Y-40413902D01*
X71048628Y-40413903D01*
X71044277Y-40415595D01*
X71040223Y-40417912D01*
X71040221Y-40417913D01*
X71004467Y-40438348D01*
X70818388Y-40544701D01*
X70614064Y-40705777D01*
X70435792Y-40895286D01*
X70287489Y-41109063D01*
X70285423Y-41113253D01*
X70285421Y-41113256D01*
X70265720Y-41153207D01*
X70172414Y-41342413D01*
X70093094Y-41590208D01*
X70051272Y-41847006D01*
X70047866Y-42107165D01*
X50001000Y-42107165D01*
X50001000Y-33042095D01*
X54745028Y-33042095D01*
X54770534Y-33309431D01*
X54834364Y-33570285D01*
X54935182Y-33819192D01*
X55070875Y-34050938D01*
X55073728Y-34054505D01*
X55185225Y-34193925D01*
X55238601Y-34260669D01*
X55434846Y-34443991D01*
X55527039Y-34507948D01*
X55651746Y-34594461D01*
X55651751Y-34594464D01*
X55655499Y-34597064D01*
X55659584Y-34599096D01*
X55659587Y-34599098D01*
X55775719Y-34656872D01*
X55895938Y-34716680D01*
X55900272Y-34718101D01*
X55900275Y-34718102D01*
X56146793Y-34798915D01*
X56146798Y-34798916D01*
X56151126Y-34800335D01*
X56155617Y-34801115D01*
X56155618Y-34801115D01*
X56411936Y-34845620D01*
X56411944Y-34845621D01*
X56415717Y-34846276D01*
X56419554Y-34846467D01*
X56498996Y-34850422D01*
X56499004Y-34850422D01*
X56500567Y-34850500D01*
X58468223Y-34850500D01*
X58470491Y-34850335D01*
X58470503Y-34850335D01*
X58600823Y-34840879D01*
X58667846Y-34836016D01*
X58672301Y-34835032D01*
X58672304Y-34835032D01*
X58925620Y-34779105D01*
X58925624Y-34779104D01*
X58930080Y-34778120D01*
X59097617Y-34714646D01*
X59176941Y-34684593D01*
X59176944Y-34684592D01*
X59181211Y-34682975D01*
X59415976Y-34552574D01*
X59558254Y-34443991D01*
X59625833Y-34392417D01*
X59625837Y-34392413D01*
X59629458Y-34389650D01*
X59817185Y-34197614D01*
X59975225Y-33980491D01*
X60062313Y-33814963D01*
X60098140Y-33746868D01*
X60098143Y-33746862D01*
X60100265Y-33742828D01*
X60159703Y-33574515D01*
X60188165Y-33493916D01*
X60188165Y-33493915D01*
X60189688Y-33489603D01*
X60241620Y-33226122D01*
X60241847Y-33221566D01*
X60250781Y-33042095D01*
X120745028Y-33042095D01*
X120770534Y-33309431D01*
X120834364Y-33570285D01*
X120935182Y-33819192D01*
X121070875Y-34050938D01*
X121073728Y-34054505D01*
X121185225Y-34193925D01*
X121238601Y-34260669D01*
X121434846Y-34443991D01*
X121527039Y-34507948D01*
X121651746Y-34594461D01*
X121651751Y-34594464D01*
X121655499Y-34597064D01*
X121659584Y-34599096D01*
X121659587Y-34599098D01*
X121775719Y-34656872D01*
X121895938Y-34716680D01*
X121900272Y-34718101D01*
X121900275Y-34718102D01*
X122146793Y-34798915D01*
X122146798Y-34798916D01*
X122151126Y-34800335D01*
X122155617Y-34801115D01*
X122155618Y-34801115D01*
X122411936Y-34845620D01*
X122411944Y-34845621D01*
X122415717Y-34846276D01*
X122419554Y-34846467D01*
X122498996Y-34850422D01*
X122499004Y-34850422D01*
X122500567Y-34850500D01*
X124468223Y-34850500D01*
X124470491Y-34850335D01*
X124470503Y-34850335D01*
X124600823Y-34840879D01*
X124667846Y-34836016D01*
X124672301Y-34835032D01*
X124672304Y-34835032D01*
X124925620Y-34779105D01*
X124925624Y-34779104D01*
X124930080Y-34778120D01*
X125097617Y-34714646D01*
X125176941Y-34684593D01*
X125176944Y-34684592D01*
X125181211Y-34682975D01*
X125415976Y-34552574D01*
X125558254Y-34443991D01*
X125625833Y-34392417D01*
X125625837Y-34392413D01*
X125629458Y-34389650D01*
X125817185Y-34197614D01*
X125975225Y-33980491D01*
X126062313Y-33814963D01*
X126098140Y-33746868D01*
X126098143Y-33746862D01*
X126100265Y-33742828D01*
X126159703Y-33574515D01*
X126188165Y-33493916D01*
X126188165Y-33493915D01*
X126189688Y-33489603D01*
X126241620Y-33226122D01*
X126241847Y-33221566D01*
X126254745Y-32962474D01*
X126254745Y-32962468D01*
X126254972Y-32957905D01*
X126229466Y-32690569D01*
X126165636Y-32429715D01*
X126064818Y-32180808D01*
X125929125Y-31949062D01*
X125818211Y-31810371D01*
X125764251Y-31742897D01*
X125764250Y-31742895D01*
X125761399Y-31739331D01*
X125565154Y-31556009D01*
X125405436Y-31445208D01*
X125348254Y-31405539D01*
X125348249Y-31405536D01*
X125344501Y-31402936D01*
X125340416Y-31400904D01*
X125340413Y-31400902D01*
X125168560Y-31315407D01*
X125104062Y-31283320D01*
X125099728Y-31281899D01*
X125099725Y-31281898D01*
X124853207Y-31201085D01*
X124853202Y-31201084D01*
X124848874Y-31199665D01*
X124844382Y-31198885D01*
X124588064Y-31154380D01*
X124588056Y-31154379D01*
X124584283Y-31153724D01*
X124575622Y-31153293D01*
X124501004Y-31149578D01*
X124500996Y-31149578D01*
X124499433Y-31149500D01*
X122531777Y-31149500D01*
X122529509Y-31149665D01*
X122529497Y-31149665D01*
X122399177Y-31159121D01*
X122332154Y-31163984D01*
X122327699Y-31164968D01*
X122327696Y-31164968D01*
X122074380Y-31220895D01*
X122074376Y-31220896D01*
X122069920Y-31221880D01*
X121944354Y-31269453D01*
X121823059Y-31315407D01*
X121823056Y-31315408D01*
X121818789Y-31317025D01*
X121584024Y-31447426D01*
X121580392Y-31450198D01*
X121374167Y-31607583D01*
X121374163Y-31607587D01*
X121370542Y-31610350D01*
X121182815Y-31802386D01*
X121024775Y-32019509D01*
X121022651Y-32023547D01*
X120901860Y-32253132D01*
X120901857Y-32253138D01*
X120899735Y-32257172D01*
X120898215Y-32261477D01*
X120898213Y-32261481D01*
X120838804Y-32429715D01*
X120810312Y-32510397D01*
X120758380Y-32773878D01*
X120758153Y-32778431D01*
X120758153Y-32778434D01*
X120748992Y-32962474D01*
X120745028Y-33042095D01*
X60250781Y-33042095D01*
X60254745Y-32962474D01*
X60254745Y-32962468D01*
X60254972Y-32957905D01*
X60229466Y-32690569D01*
X60165636Y-32429715D01*
X60064818Y-32180808D01*
X59929125Y-31949062D01*
X59818211Y-31810371D01*
X59764251Y-31742897D01*
X59764250Y-31742895D01*
X59761399Y-31739331D01*
X59565154Y-31556009D01*
X59405436Y-31445208D01*
X59348254Y-31405539D01*
X59348249Y-31405536D01*
X59344501Y-31402936D01*
X59340416Y-31400904D01*
X59340413Y-31400902D01*
X59168560Y-31315407D01*
X59104062Y-31283320D01*
X59099728Y-31281899D01*
X59099725Y-31281898D01*
X58853207Y-31201085D01*
X58853202Y-31201084D01*
X58848874Y-31199665D01*
X58844382Y-31198885D01*
X58588064Y-31154380D01*
X58588056Y-31154379D01*
X58584283Y-31153724D01*
X58575622Y-31153293D01*
X58501004Y-31149578D01*
X58500996Y-31149578D01*
X58499433Y-31149500D01*
X56531777Y-31149500D01*
X56529509Y-31149665D01*
X56529497Y-31149665D01*
X56399177Y-31159121D01*
X56332154Y-31163984D01*
X56327699Y-31164968D01*
X56327696Y-31164968D01*
X56074380Y-31220895D01*
X56074376Y-31220896D01*
X56069920Y-31221880D01*
X55944354Y-31269453D01*
X55823059Y-31315407D01*
X55823056Y-31315408D01*
X55818789Y-31317025D01*
X55584024Y-31447426D01*
X55580392Y-31450198D01*
X55374167Y-31607583D01*
X55374163Y-31607587D01*
X55370542Y-31610350D01*
X55182815Y-31802386D01*
X55024775Y-32019509D01*
X55022651Y-32023547D01*
X54901860Y-32253132D01*
X54901857Y-32253138D01*
X54899735Y-32257172D01*
X54898215Y-32261477D01*
X54898213Y-32261481D01*
X54838804Y-32429715D01*
X54810312Y-32510397D01*
X54758380Y-32773878D01*
X54758153Y-32778431D01*
X54758153Y-32778434D01*
X54748992Y-32962474D01*
X54745028Y-33042095D01*
X50001000Y-33042095D01*
X50001000Y-30127000D01*
X50021002Y-30058879D01*
X50074658Y-30012386D01*
X50127000Y-30001000D01*
X130873000Y-30001000D01*
X130941121Y-30021002D01*
G37*
%TD.AperFunction*%
M02*
