M48
; DRILL file {KiCad (6.0.11)} date Thu Jul  6 11:07:29 2023
; FORMAT={-:-/ absolute / inch / decimal}
; #@! TF.CreationDate,2023-07-06T11:07:29+01:00
; #@! TF.GenerationSoftware,Kicad,Pcbnew,(6.0.11)
; #@! TF.FileFunction,NonPlated,1,2,NPTH
FMAT,2
INCH
; #@! TA.AperFunction,NonPlated,NPTH,ComponentDrill
T1C0.1181
; #@! TA.AperFunction,NonPlated,NPTH,ComponentDrill
T2C0.1260
; #@! TA.AperFunction,NonPlated,NPTH,ComponentDrill
T3C0.1378
; #@! TA.AperFunction,NonPlated,NPTH,ComponentDrill
T4C0.2362
; #@! TA.AperFunction,NonPlated,NPTH,ComponentDrill
T5C0.2402
; #@! TA.AperFunction,NonPlated,NPTH,ComponentDrill
T6C0.2756
%
G90
G05
T1
X2.8268Y-1.6535
X3.0079Y-1.6535
X3.189Y-1.6535
X3.3701Y-1.6535
X3.7559Y-1.6535
X3.937Y-1.6535
X4.1181Y-1.6535
X4.2992Y-1.6535
T3
X3.1693Y-1.9882
X3.9567Y-1.9882
T4
X3.1732Y-4.8937
T5
X3.563Y-2.3819
T6
X2.5512Y-2.0039
X2.5512Y-2.8937
X2.5512Y-3.7835
X2.5512Y-4.6732
X4.5748Y-2.0039
X4.5748Y-2.8937
X4.5748Y-3.7835
X4.5748Y-4.6732
T2
G00X2.2283Y-1.2992
M15
G01X2.2992Y-1.2992
M16
G05
G00X2.2283Y-6.122
M15
G01X2.2992Y-6.122
M16
G05
G00X4.8268Y-1.2992
M15
G01X4.8976Y-1.2992
M16
G05
G00X4.8268Y-6.122
M15
G01X4.8976Y-6.122
M16
G05
T0
M30
