%TF.GenerationSoftware,KiCad,Pcbnew,(6.0.11)*%
%TF.CreationDate,2023-07-06T11:07:26+01:00*%
%TF.ProjectId,Quango_Panel,5175616e-676f-45f5-9061-6e656c2e6b69,rev?*%
%TF.SameCoordinates,Original*%
%TF.FileFunction,Soldermask,Top*%
%TF.FilePolarity,Negative*%
%FSLAX46Y46*%
G04 Gerber Fmt 4.6, Leading zero omitted, Abs format (unit mm)*
G04 Created by KiCad (PCBNEW (6.0.11)) date 2023-07-06 11:07:26*
%MOMM*%
%LPD*%
G01*
G04 APERTURE LIST*
%ADD10C,0.150000*%
%ADD11C,7.853175*%
%ADD12C,2.776851*%
%ADD13C,4.000000*%
%ADD14C,4.500000*%
%ADD15C,0.200000*%
%ADD16C,0.400000*%
%ADD17C,3.000000*%
%ADD18C,7.000000*%
%ADD19O,5.000000X3.200000*%
%ADD20C,6.000000*%
%ADD21C,6.100000*%
%ADD22C,3.500000*%
G04 APERTURE END LIST*
D10*
X118250000Y-148800000D02*
X123350000Y-148800000D01*
D11*
X120126587Y-73500000D02*
G75*
G03*
X120126587Y-73500000I-3926587J0D01*
G01*
D12*
X81888425Y-50500000D02*
G75*
G03*
X81888425Y-50500000I-1388425J0D01*
G01*
D10*
X123350000Y-148800000D02*
X123350000Y-152300000D01*
D11*
X68726587Y-96100000D02*
G75*
G03*
X68726587Y-96100000I-3926587J0D01*
G01*
D10*
X67800000Y-148850000D02*
X67800000Y-152350000D01*
D11*
X68726587Y-50900000D02*
G75*
G03*
X68726587Y-50900000I-3926587J0D01*
G01*
D10*
X67800000Y-152350000D02*
X62700000Y-152350000D01*
D12*
X101888425Y-50500000D02*
G75*
G03*
X101888425Y-50500000I-1388425J0D01*
G01*
D10*
G36*
X79600000Y-36000000D02*
G01*
X77000000Y-34500000D01*
X79600000Y-33000000D01*
X79600000Y-36000000D01*
G37*
X79600000Y-36000000D02*
X77000000Y-34500000D01*
X79600000Y-33000000D01*
X79600000Y-36000000D01*
X62700000Y-148850000D02*
X67800000Y-148850000D01*
D11*
X120126587Y-50900000D02*
G75*
G03*
X120126587Y-50900000I-3926587J0D01*
G01*
D13*
X100450000Y-111450000D02*
X100450000Y-62350000D01*
D14*
X71800000Y-42000000D02*
X85600000Y-42000000D01*
D11*
X68726587Y-73500000D02*
G75*
G03*
X68726587Y-73500000I-3926587J0D01*
G01*
D14*
X109200000Y-42000000D02*
X95400000Y-42000000D01*
D11*
X120126587Y-96200000D02*
G75*
G03*
X120126587Y-96200000I-3926587J0D01*
G01*
D13*
X80550000Y-111450000D02*
X80550000Y-62350000D01*
D10*
G36*
X103500000Y-34500000D02*
G01*
X100900000Y-36000000D01*
X100900000Y-33000000D01*
X103500000Y-34500000D01*
G37*
X103500000Y-34500000D02*
X100900000Y-36000000D01*
X100900000Y-33000000D01*
X103500000Y-34500000D01*
X123350000Y-152300000D02*
X118250000Y-152300000D01*
D11*
X68726587Y-118700000D02*
G75*
G03*
X68726587Y-118700000I-3926587J0D01*
G01*
X120126587Y-118700000D02*
G75*
G03*
X120126587Y-118700000I-3926587J0D01*
G01*
D15*
X80928571Y-156378571D02*
X80928571Y-154878571D01*
X81428571Y-155950000D01*
X81928571Y-154878571D01*
X81928571Y-156378571D01*
X82857142Y-156378571D02*
X82714285Y-156307142D01*
X82642857Y-156235714D01*
X82571428Y-156092857D01*
X82571428Y-155664285D01*
X82642857Y-155521428D01*
X82714285Y-155450000D01*
X82857142Y-155378571D01*
X83071428Y-155378571D01*
X83214285Y-155450000D01*
X83285714Y-155521428D01*
X83357142Y-155664285D01*
X83357142Y-156092857D01*
X83285714Y-156235714D01*
X83214285Y-156307142D01*
X83071428Y-156378571D01*
X82857142Y-156378571D01*
X84642857Y-155378571D02*
X84642857Y-156378571D01*
X84000000Y-155378571D02*
X84000000Y-156164285D01*
X84071428Y-156307142D01*
X84214285Y-156378571D01*
X84428571Y-156378571D01*
X84571428Y-156307142D01*
X84642857Y-156235714D01*
X85357142Y-155378571D02*
X85357142Y-156378571D01*
X85357142Y-155521428D02*
X85428571Y-155450000D01*
X85571428Y-155378571D01*
X85785714Y-155378571D01*
X85928571Y-155450000D01*
X86000000Y-155592857D01*
X86000000Y-156378571D01*
X86500000Y-155378571D02*
X87071428Y-155378571D01*
X86714285Y-154878571D02*
X86714285Y-156164285D01*
X86785714Y-156307142D01*
X86928571Y-156378571D01*
X87071428Y-156378571D01*
X87571428Y-155378571D02*
X87571428Y-156664285D01*
X87500000Y-156807142D01*
X87357142Y-156878571D01*
X87285714Y-156878571D01*
X87571428Y-154878571D02*
X87500000Y-154950000D01*
X87571428Y-155021428D01*
X87642857Y-154950000D01*
X87571428Y-154878571D01*
X87571428Y-155021428D01*
X88500000Y-156378571D02*
X88357142Y-156307142D01*
X88285714Y-156235714D01*
X88214285Y-156092857D01*
X88214285Y-155664285D01*
X88285714Y-155521428D01*
X88357142Y-155450000D01*
X88500000Y-155378571D01*
X88714285Y-155378571D01*
X88857142Y-155450000D01*
X88928571Y-155521428D01*
X89000000Y-155664285D01*
X89000000Y-156092857D01*
X88928571Y-156235714D01*
X88857142Y-156307142D01*
X88714285Y-156378571D01*
X88500000Y-156378571D01*
X89500000Y-155378571D02*
X89857142Y-156378571D01*
X90214285Y-155378571D02*
X89857142Y-156378571D01*
X89714285Y-156735714D01*
X89642857Y-156807142D01*
X89500000Y-156878571D01*
X91928571Y-156378571D02*
X91928571Y-154878571D01*
X92428571Y-155950000D01*
X92928571Y-154878571D01*
X92928571Y-156378571D01*
X93857142Y-156378571D02*
X93714285Y-156307142D01*
X93642857Y-156235714D01*
X93571428Y-156092857D01*
X93571428Y-155664285D01*
X93642857Y-155521428D01*
X93714285Y-155450000D01*
X93857142Y-155378571D01*
X94071428Y-155378571D01*
X94214285Y-155450000D01*
X94285714Y-155521428D01*
X94357142Y-155664285D01*
X94357142Y-156092857D01*
X94285714Y-156235714D01*
X94214285Y-156307142D01*
X94071428Y-156378571D01*
X93857142Y-156378571D01*
X95642857Y-156378571D02*
X95642857Y-154878571D01*
X95642857Y-156307142D02*
X95500000Y-156378571D01*
X95214285Y-156378571D01*
X95071428Y-156307142D01*
X95000000Y-156235714D01*
X94928571Y-156092857D01*
X94928571Y-155664285D01*
X95000000Y-155521428D01*
X95071428Y-155450000D01*
X95214285Y-155378571D01*
X95500000Y-155378571D01*
X95642857Y-155450000D01*
X97000000Y-155378571D02*
X97000000Y-156378571D01*
X96357142Y-155378571D02*
X96357142Y-156164285D01*
X96428571Y-156307142D01*
X96571428Y-156378571D01*
X96785714Y-156378571D01*
X96928571Y-156307142D01*
X97000000Y-156235714D01*
X97928571Y-156378571D02*
X97785714Y-156307142D01*
X97714285Y-156164285D01*
X97714285Y-154878571D01*
X99142857Y-156378571D02*
X99142857Y-155592857D01*
X99071428Y-155450000D01*
X98928571Y-155378571D01*
X98642857Y-155378571D01*
X98500000Y-155450000D01*
X99142857Y-156307142D02*
X99000000Y-156378571D01*
X98642857Y-156378571D01*
X98500000Y-156307142D01*
X98428571Y-156164285D01*
X98428571Y-156021428D01*
X98500000Y-155878571D01*
X98642857Y-155807142D01*
X99000000Y-155807142D01*
X99142857Y-155735714D01*
X99857142Y-156378571D02*
X99857142Y-155378571D01*
X99857142Y-155664285D02*
X99928571Y-155521428D01*
X100000000Y-155450000D01*
X100142857Y-155378571D01*
X100285714Y-155378571D01*
D16*
X119802380Y-151554761D02*
X119802380Y-149554761D01*
X120754761Y-151554761D02*
X120754761Y-149554761D01*
X121897619Y-151554761D01*
X121897619Y-149554761D01*
X64252380Y-151604761D02*
X64252380Y-149604761D01*
X65204761Y-151604761D02*
X65204761Y-149604761D01*
X66347619Y-151604761D01*
X66347619Y-149604761D01*
%TO.C,kibuzzard-649D9B25*%
G36*
X53334068Y-98718463D02*
G01*
X53068901Y-98679129D01*
X52808867Y-98613994D01*
X52556469Y-98523684D01*
X52314138Y-98409070D01*
X52084209Y-98271256D01*
X51868894Y-98111568D01*
X51670269Y-97931544D01*
X51490245Y-97732919D01*
X51330557Y-97517605D01*
X51192743Y-97287675D01*
X51078129Y-97045344D01*
X50987820Y-96792946D01*
X50946470Y-96627869D01*
X53602210Y-96627869D01*
X53644359Y-96935989D01*
X53770804Y-97204578D01*
X53977478Y-97426948D01*
X54260309Y-97596414D01*
X54598661Y-97703675D01*
X54971894Y-97739429D01*
X55321485Y-97711653D01*
X55619916Y-97628324D01*
X55867188Y-97489444D01*
X56051931Y-97301729D01*
X56162777Y-97071898D01*
X56199726Y-96799951D01*
X56131707Y-96437183D01*
X55927649Y-96139526D01*
X55710350Y-95972353D01*
X55421220Y-95824300D01*
X55060260Y-95695367D01*
X54776266Y-95594211D01*
X54570755Y-95486078D01*
X54404487Y-95209351D01*
X54546338Y-94924484D01*
X54716677Y-94843385D01*
X54943988Y-94816351D01*
X55179439Y-94848617D01*
X55355591Y-94945413D01*
X55465468Y-95100346D01*
X55502094Y-95307019D01*
X56199726Y-95307019D01*
X56160484Y-95018665D01*
X56042759Y-94762866D01*
X55854107Y-94550379D01*
X55602088Y-94391959D01*
X55298618Y-94293418D01*
X54955616Y-94260571D01*
X54612904Y-94290802D01*
X54305655Y-94381494D01*
X54049857Y-94525962D01*
X53861496Y-94717520D01*
X53745515Y-94947448D01*
X53706855Y-95207025D01*
X53770933Y-95534912D01*
X53963170Y-95814740D01*
X54283564Y-96046509D01*
X54532967Y-96161327D01*
X54857947Y-96277890D01*
X55164905Y-96392418D01*
X55360242Y-96501132D01*
X55499769Y-96804602D01*
X55360242Y-97087143D01*
X55193392Y-97163010D01*
X54971894Y-97188300D01*
X54678888Y-97153273D01*
X54469599Y-97048192D01*
X54344025Y-96873057D01*
X54302167Y-96627869D01*
X53602210Y-96627869D01*
X50946470Y-96627869D01*
X50922684Y-96532912D01*
X50883351Y-96267745D01*
X50870197Y-96000000D01*
X50883351Y-95732255D01*
X50922684Y-95467088D01*
X50987820Y-95207054D01*
X51078129Y-94954656D01*
X51192743Y-94712325D01*
X51330557Y-94482395D01*
X51490245Y-94267081D01*
X51670269Y-94068456D01*
X51868894Y-93888432D01*
X52084209Y-93728744D01*
X52314138Y-93590930D01*
X52556469Y-93476316D01*
X52808867Y-93386006D01*
X53068901Y-93320871D01*
X53334068Y-93281537D01*
X53601813Y-93268384D01*
X58184101Y-93268384D01*
X58184101Y-98731616D01*
X53601813Y-98731616D01*
X53334068Y-98718463D01*
G37*
%TO.C,kibuzzard-649E93AB*%
G36*
X90686804Y-74027185D02*
G01*
X89841895Y-73746582D01*
X90686804Y-73462878D01*
X90686804Y-74027185D01*
G37*
G36*
X90400000Y-84773471D02*
G01*
X88578923Y-83559420D01*
X88578923Y-79952405D01*
X89240381Y-79952405D01*
X89255453Y-80133531D01*
X89300670Y-80300704D01*
X89376031Y-80453925D01*
X89479557Y-80589145D01*
X89609264Y-80702316D01*
X89765155Y-80793439D01*
X89943008Y-80860187D01*
X90138603Y-80900237D01*
X90351941Y-80913586D01*
X90463562Y-80913586D01*
X90672249Y-80899289D01*
X90864227Y-80858465D01*
X91039496Y-80791113D01*
X91193578Y-80699474D01*
X91321994Y-80585786D01*
X91424744Y-80450049D01*
X91499674Y-80296570D01*
X91544633Y-80129655D01*
X91559619Y-79949304D01*
X91544461Y-79767317D01*
X91498985Y-79599627D01*
X91423193Y-79446234D01*
X91319496Y-79311273D01*
X91190305Y-79198876D01*
X91035620Y-79109045D01*
X90859059Y-79043589D01*
X90664239Y-79004315D01*
X90451160Y-78991223D01*
X90350391Y-78991223D01*
X90137914Y-79004573D01*
X89942836Y-79044622D01*
X89765155Y-79111371D01*
X89609264Y-79202494D01*
X89479557Y-79315665D01*
X89376031Y-79450885D01*
X89300670Y-79604106D01*
X89255453Y-79771279D01*
X89240381Y-79952405D01*
X88578923Y-79952405D01*
X88578923Y-77783545D01*
X89240381Y-77783545D01*
X89255109Y-77963982D01*
X89299292Y-78129088D01*
X89372931Y-78278864D01*
X89534355Y-78467418D01*
X89753528Y-78606750D01*
X89927505Y-78670485D01*
X90118708Y-78708725D01*
X90327136Y-78721472D01*
X90465112Y-78721472D01*
X90706522Y-78705921D01*
X90920705Y-78659267D01*
X91107660Y-78581510D01*
X91267389Y-78472650D01*
X91395240Y-78336660D01*
X91486562Y-78177513D01*
X91541355Y-77995208D01*
X91559619Y-77789746D01*
X91536365Y-77542302D01*
X91466602Y-77329137D01*
X91350330Y-77150250D01*
X91193578Y-77012533D01*
X91002375Y-76922874D01*
X90776721Y-76881274D01*
X90776721Y-77346362D01*
X90955974Y-77384538D01*
X91081354Y-77468060D01*
X91155186Y-77601579D01*
X91179797Y-77789746D01*
X91137552Y-77996516D01*
X91010815Y-78139337D01*
X90876284Y-78200918D01*
X90698001Y-78237867D01*
X90475964Y-78250183D01*
X90305432Y-78250183D01*
X90092267Y-78235628D01*
X89919926Y-78196095D01*
X89788409Y-78131586D01*
X89663417Y-77986827D01*
X89621753Y-77783545D01*
X89646364Y-77596928D01*
X89720197Y-77464960D01*
X89848677Y-77382213D01*
X90037231Y-77343262D01*
X90037231Y-76878174D01*
X89803826Y-76925372D01*
X89607973Y-77017356D01*
X89449670Y-77154126D01*
X89333398Y-77330170D01*
X89263635Y-77539977D01*
X89240381Y-77783545D01*
X88578923Y-77783545D01*
X88578923Y-76715393D01*
X89271387Y-76715393D01*
X89648108Y-76715393D01*
X89648108Y-76033264D01*
X91528613Y-76033264D01*
X91528613Y-75568176D01*
X89648108Y-75568176D01*
X89648108Y-74876746D01*
X89271387Y-74876746D01*
X89271387Y-76715393D01*
X88578923Y-76715393D01*
X88578923Y-73962073D01*
X89271387Y-73962073D01*
X91528613Y-74802332D01*
X91528613Y-74307788D01*
X91063525Y-74152759D01*
X91063525Y-73337305D01*
X91528613Y-73180725D01*
X91528613Y-72686182D01*
X89271387Y-73531091D01*
X89271387Y-73962073D01*
X88578923Y-73962073D01*
X88578923Y-70611890D01*
X89271387Y-70611890D01*
X89271387Y-71129687D01*
X90968958Y-71641284D01*
X89271387Y-72149780D01*
X89271387Y-72666028D01*
X91528613Y-71883130D01*
X91528613Y-71397888D01*
X89271387Y-70611890D01*
X88578923Y-70611890D01*
X88578923Y-70399500D01*
X89271387Y-70399500D01*
X91528613Y-70399500D01*
X91528613Y-68886414D01*
X91154993Y-68886414D01*
X91154993Y-69934412D01*
X90550378Y-69934412D01*
X90550378Y-69041443D01*
X90186060Y-69041443D01*
X90186060Y-69934412D01*
X89648108Y-69934412D01*
X89648108Y-68889514D01*
X89271387Y-68889514D01*
X89271387Y-70399500D01*
X88578923Y-70399500D01*
X88578923Y-66240580D01*
X90400000Y-65026529D01*
X92221077Y-66240580D01*
X92221077Y-83559420D01*
X90400000Y-84773471D01*
G37*
G36*
X90674832Y-79477326D02*
G01*
X90853375Y-79519701D01*
X90994537Y-79589636D01*
X91132320Y-79742340D01*
X91178247Y-79949304D01*
X91130576Y-80160144D01*
X90987561Y-80315173D01*
X90843212Y-80385798D01*
X90664411Y-80428172D01*
X90451160Y-80442297D01*
X90341089Y-80442297D01*
X90125340Y-80427311D01*
X89947314Y-80384420D01*
X89807013Y-80313623D01*
X89670393Y-80159756D01*
X89624854Y-79952405D01*
X89670975Y-79743890D01*
X89809338Y-79589636D01*
X89951276Y-79519012D01*
X90131110Y-79476637D01*
X90348840Y-79462512D01*
X90458911Y-79462512D01*
X90674832Y-79477326D01*
G37*
%TO.C,kibuzzard-649D9B2C*%
G36*
X53299869Y-121072178D02*
G01*
X53039217Y-121033514D01*
X52783610Y-120969488D01*
X52535509Y-120880716D01*
X52297305Y-120768053D01*
X52071290Y-120632585D01*
X51859641Y-120475616D01*
X51664398Y-120298658D01*
X51487439Y-120103414D01*
X51479656Y-120092920D01*
X53563452Y-120092920D01*
X54261084Y-120092920D01*
X54261084Y-118853461D01*
X54816864Y-118853461D01*
X55451709Y-120092920D01*
X56200501Y-120092920D01*
X56200501Y-120060364D01*
X55467987Y-118676727D01*
X55733960Y-118515981D01*
X55922611Y-118308145D01*
X56035104Y-118047987D01*
X56072602Y-117730273D01*
X56036428Y-117429258D01*
X55927908Y-117177336D01*
X55747040Y-116974506D01*
X55499510Y-116825936D01*
X55191002Y-116736794D01*
X54821515Y-116707080D01*
X53563452Y-116707080D01*
X53563452Y-120092920D01*
X51479656Y-120092920D01*
X51330470Y-119891766D01*
X51195002Y-119665751D01*
X51082340Y-119427546D01*
X50993568Y-119179446D01*
X50929542Y-118923838D01*
X50890878Y-118663187D01*
X50877948Y-118400000D01*
X50890878Y-118136813D01*
X50929542Y-117876162D01*
X50993568Y-117620554D01*
X51082340Y-117372454D01*
X51195002Y-117134249D01*
X51330470Y-116908234D01*
X51487439Y-116696586D01*
X51664398Y-116501342D01*
X51859641Y-116324384D01*
X52071290Y-116167415D01*
X52297305Y-116031947D01*
X52535509Y-115919284D01*
X52783610Y-115830512D01*
X53039217Y-115766486D01*
X53299869Y-115727822D01*
X53563056Y-115714893D01*
X58184876Y-115714893D01*
X58184876Y-121085107D01*
X53563056Y-121085107D01*
X53299869Y-121072178D01*
G37*
G36*
X55066558Y-117306462D02*
G01*
X55238932Y-117409363D01*
X55340960Y-117572144D01*
X55374970Y-117786084D01*
X55338926Y-117995664D01*
X55230793Y-118154666D01*
X55056966Y-118254951D01*
X54823841Y-118288379D01*
X54261084Y-118288379D01*
X54261084Y-117272162D01*
X54821515Y-117272162D01*
X55066558Y-117306462D01*
G37*
%TO.C,kibuzzard-649D9B6F*%
G36*
X122815124Y-115914893D02*
G01*
X127436945Y-115914893D01*
X127700131Y-115927822D01*
X127960783Y-115966486D01*
X128216390Y-116030513D01*
X128464491Y-116119284D01*
X128702695Y-116231947D01*
X128928710Y-116367415D01*
X129140358Y-116524384D01*
X129335602Y-116701342D01*
X129512560Y-116896586D01*
X129669529Y-117108234D01*
X129804998Y-117334249D01*
X129917660Y-117572454D01*
X130006432Y-117820555D01*
X130070458Y-118076162D01*
X130109122Y-118336813D01*
X130122052Y-118600000D01*
X130109122Y-118863187D01*
X130070458Y-119123838D01*
X130006432Y-119379445D01*
X129917660Y-119627546D01*
X129804998Y-119865751D01*
X129669529Y-120091766D01*
X129512560Y-120303414D01*
X129335602Y-120498658D01*
X129140358Y-120675616D01*
X128928710Y-120832585D01*
X128702695Y-120968053D01*
X128464491Y-121080716D01*
X128216390Y-121169487D01*
X127960783Y-121233514D01*
X127700131Y-121272178D01*
X127436945Y-121285107D01*
X122815124Y-121285107D01*
X122815124Y-120292920D01*
X124799499Y-120292920D01*
X125497131Y-120292920D01*
X125497131Y-119053461D01*
X126052911Y-119053461D01*
X126687756Y-120292920D01*
X127436548Y-120292920D01*
X127436548Y-120260364D01*
X126704034Y-118876727D01*
X126970006Y-118715981D01*
X127158658Y-118508145D01*
X127271151Y-118247987D01*
X127308649Y-117930273D01*
X127272475Y-117629258D01*
X127163955Y-117377336D01*
X126983087Y-117174506D01*
X126735557Y-117025936D01*
X126427049Y-116936794D01*
X126057562Y-116907080D01*
X124799499Y-116907080D01*
X124799499Y-120292920D01*
X122815124Y-120292920D01*
X122815124Y-115914893D01*
G37*
G36*
X126302605Y-117506462D02*
G01*
X126474979Y-117609363D01*
X126577007Y-117772144D01*
X126611017Y-117986084D01*
X126574972Y-118195664D01*
X126466839Y-118354666D01*
X126293013Y-118454951D01*
X126059888Y-118488379D01*
X125497131Y-118488379D01*
X125497131Y-117472162D01*
X126057562Y-117472162D01*
X126302605Y-117506462D01*
G37*
%TO.C,kibuzzard-649DB643*%
G36*
X72915228Y-150600000D02*
G01*
X74129279Y-148778923D01*
X92084772Y-148778923D01*
X92084772Y-152421077D01*
X74129279Y-152421077D01*
X72957603Y-150663562D01*
X78098029Y-150663562D01*
X78112326Y-150872249D01*
X78153151Y-151064227D01*
X78220502Y-151239496D01*
X78312142Y-151393578D01*
X78425830Y-151521994D01*
X78561567Y-151624744D01*
X78715046Y-151699674D01*
X78881961Y-151744633D01*
X79062311Y-151759619D01*
X79244299Y-151744461D01*
X79411989Y-151698985D01*
X79565382Y-151623193D01*
X79700343Y-151519496D01*
X79812739Y-151390305D01*
X79902570Y-151235620D01*
X79968027Y-151059059D01*
X79984938Y-150975171D01*
X80336652Y-150975171D01*
X80365074Y-151201686D01*
X80444139Y-151393405D01*
X80573847Y-151550330D01*
X80746963Y-151666602D01*
X80956253Y-151736365D01*
X81201716Y-151759619D01*
X81450538Y-151735676D01*
X81661636Y-151663845D01*
X81835010Y-151544128D01*
X81963771Y-151383242D01*
X82041027Y-151187906D01*
X82066779Y-150958118D01*
X82066779Y-149848108D01*
X82308625Y-149848108D01*
X82990754Y-149848108D01*
X82990754Y-151728613D01*
X83455842Y-151728613D01*
X83455842Y-149848108D01*
X84147272Y-149848108D01*
X84147272Y-149471387D01*
X82308625Y-149471387D01*
X82308625Y-149848108D01*
X82066779Y-149848108D01*
X82066779Y-149471387D01*
X81600141Y-149471387D01*
X81600141Y-150973621D01*
X81572914Y-151154036D01*
X81497434Y-151282904D01*
X81373701Y-151360225D01*
X81201716Y-151385999D01*
X81034478Y-151360612D01*
X80907935Y-151284454D01*
X80828289Y-151152873D01*
X80801740Y-150961218D01*
X80801740Y-149471387D01*
X80336652Y-149471387D01*
X80336652Y-150975171D01*
X79984938Y-150975171D01*
X80007301Y-150864239D01*
X80020393Y-150651160D01*
X80020393Y-150550391D01*
X80007043Y-150337914D01*
X79966994Y-150142836D01*
X79900245Y-149965155D01*
X79809122Y-149809264D01*
X79695951Y-149679557D01*
X79560731Y-149576031D01*
X79407510Y-149500670D01*
X79240337Y-149455453D01*
X79059211Y-149440381D01*
X78878085Y-149455453D01*
X78710912Y-149500670D01*
X78557691Y-149576031D01*
X78422471Y-149679557D01*
X78309300Y-149809264D01*
X78218177Y-149965155D01*
X78151428Y-150143008D01*
X78111379Y-150338603D01*
X78098029Y-150551941D01*
X78098029Y-150663562D01*
X72957603Y-150663562D01*
X72915228Y-150600000D01*
G37*
G36*
X79267725Y-149870975D02*
G01*
X79421979Y-150009338D01*
X79492604Y-150151276D01*
X79534979Y-150331110D01*
X79549103Y-150548840D01*
X79549103Y-150658911D01*
X79534290Y-150874832D01*
X79491915Y-151053375D01*
X79421979Y-151194537D01*
X79269276Y-151332320D01*
X79062311Y-151378247D01*
X78851472Y-151330576D01*
X78696442Y-151187561D01*
X78625818Y-151043212D01*
X78583443Y-150864411D01*
X78569318Y-150651160D01*
X78569318Y-150541089D01*
X78584304Y-150325340D01*
X78627196Y-150147314D01*
X78697993Y-150007013D01*
X78851859Y-149870393D01*
X79059211Y-149824854D01*
X79267725Y-149870975D01*
G37*
%TO.C,kibuzzard-649D9A54*%
G36*
X57434013Y-148778923D02*
G01*
X62765987Y-148778923D01*
X62765987Y-152421077D01*
X57434013Y-152421077D01*
X57434013Y-150665112D01*
X58095471Y-150665112D01*
X58111023Y-150906522D01*
X58157677Y-151120705D01*
X58235434Y-151307660D01*
X58344293Y-151467389D01*
X58480283Y-151595240D01*
X58639430Y-151686562D01*
X58821735Y-151741355D01*
X59027197Y-151759619D01*
X59274641Y-151736365D01*
X59487807Y-151666602D01*
X59666693Y-151550330D01*
X59804411Y-151393578D01*
X59894069Y-151202375D01*
X59935669Y-150976721D01*
X59470581Y-150976721D01*
X59432405Y-151155974D01*
X59348883Y-151281354D01*
X59215364Y-151355186D01*
X59027197Y-151379797D01*
X58820427Y-151337552D01*
X58677606Y-151210815D01*
X58616025Y-151076284D01*
X58579076Y-150898001D01*
X58566760Y-150675964D01*
X58566760Y-150505432D01*
X58581316Y-150292267D01*
X58620848Y-150119926D01*
X58685358Y-149988409D01*
X58830116Y-149863417D01*
X59033398Y-149821753D01*
X59220015Y-149846364D01*
X59351984Y-149920197D01*
X59434731Y-150048677D01*
X59473682Y-150237231D01*
X59938770Y-150237231D01*
X59891572Y-150003826D01*
X59799588Y-149807973D01*
X59662817Y-149649670D01*
X59486773Y-149533398D01*
X59300280Y-149471387D01*
X60050391Y-149471387D01*
X60833289Y-151728613D01*
X61318530Y-151728613D01*
X62104529Y-149471387D01*
X61586731Y-149471387D01*
X61075134Y-151168958D01*
X60566638Y-149471387D01*
X60050391Y-149471387D01*
X59300280Y-149471387D01*
X59276967Y-149463635D01*
X59033398Y-149440381D01*
X58852962Y-149455109D01*
X58687855Y-149499292D01*
X58538080Y-149572931D01*
X58349525Y-149734355D01*
X58210193Y-149953528D01*
X58146459Y-150127505D01*
X58108218Y-150318708D01*
X58095471Y-150527136D01*
X58095471Y-150665112D01*
X57434013Y-150665112D01*
X57434013Y-148778923D01*
G37*
%TO.C,kibuzzard-649D9A6F*%
G36*
X98142836Y-150886804D02*
G01*
X97578529Y-150886804D01*
X97859132Y-150041895D01*
X98142836Y-150886804D01*
G37*
G36*
X89483933Y-148778923D02*
G01*
X106502016Y-148778923D01*
X107716067Y-150600000D01*
X106502016Y-152421077D01*
X89483933Y-152421077D01*
X89483933Y-150688367D01*
X94775600Y-150688367D01*
X94790672Y-150898001D01*
X94831755Y-151088687D01*
X94898848Y-151260425D01*
X95044188Y-151474947D01*
X95239912Y-151631720D01*
X95395200Y-151702775D01*
X95566507Y-151745408D01*
X95753834Y-151759619D01*
X96020485Y-151738884D01*
X96060417Y-151728613D01*
X96803383Y-151728613D01*
X97297926Y-151728613D01*
X97452955Y-151263525D01*
X98268410Y-151263525D01*
X98424989Y-151728613D01*
X98919533Y-151728613D01*
X98215635Y-149848108D01*
X98990846Y-149848108D01*
X99672975Y-149848108D01*
X99672975Y-151728613D01*
X100138063Y-151728613D01*
X101094594Y-151728613D01*
X102607680Y-151728613D01*
X102607680Y-151354993D01*
X101559682Y-151354993D01*
X101559682Y-151018579D01*
X102785963Y-151018579D01*
X102814062Y-151223993D01*
X102898360Y-151403052D01*
X103036142Y-151551299D01*
X103224696Y-151664276D01*
X103450264Y-151735783D01*
X103699086Y-151759619D01*
X103932147Y-151741102D01*
X104131101Y-151685550D01*
X104295949Y-151592963D01*
X104419111Y-151467820D01*
X104493008Y-151314599D01*
X104517641Y-151133301D01*
X104472294Y-150891455D01*
X104336256Y-150693018D01*
X104191390Y-150581569D01*
X103998637Y-150482867D01*
X103757997Y-150396912D01*
X103568667Y-150329474D01*
X103431660Y-150257385D01*
X103320814Y-150072900D01*
X103415382Y-149882990D01*
X103528941Y-149828923D01*
X103680482Y-149810901D01*
X103837449Y-149832411D01*
X103954884Y-149896942D01*
X104028136Y-150000230D01*
X104052553Y-150138013D01*
X104517641Y-150138013D01*
X104491479Y-149945776D01*
X104412996Y-149775244D01*
X104287228Y-149633586D01*
X104119215Y-149527972D01*
X103916902Y-149462279D01*
X103688234Y-149440381D01*
X103459759Y-149460535D01*
X103254927Y-149520996D01*
X103084395Y-149617308D01*
X102958821Y-149745013D01*
X102881500Y-149898299D01*
X102855726Y-150071350D01*
X102898446Y-150289941D01*
X103026603Y-150476493D01*
X103240199Y-150631006D01*
X103406468Y-150707552D01*
X103623121Y-150785260D01*
X103827760Y-150861612D01*
X103957985Y-150934088D01*
X104051002Y-151136401D01*
X103957985Y-151324762D01*
X103846751Y-151375340D01*
X103699086Y-151392200D01*
X103503749Y-151368848D01*
X103364223Y-151298795D01*
X103280507Y-151182038D01*
X103252601Y-151018579D01*
X102785963Y-151018579D01*
X101559682Y-151018579D01*
X101559682Y-150750378D01*
X102452650Y-150750378D01*
X102452650Y-150386060D01*
X101559682Y-150386060D01*
X101559682Y-149848108D01*
X102604579Y-149848108D01*
X102604579Y-149471387D01*
X101094594Y-149471387D01*
X101094594Y-151728613D01*
X100138063Y-151728613D01*
X100138063Y-149848108D01*
X100829494Y-149848108D01*
X100829494Y-149471387D01*
X98990846Y-149471387D01*
X98990846Y-149848108D01*
X98215635Y-149848108D01*
X98074623Y-149471387D01*
X97643641Y-149471387D01*
X96803383Y-151728613D01*
X96060417Y-151728613D01*
X96262330Y-151676678D01*
X96465806Y-151576878D01*
X96617348Y-151443359D01*
X96617348Y-150542639D01*
X95729030Y-150542639D01*
X95729030Y-150885254D01*
X96152260Y-150885254D01*
X96152260Y-151274377D01*
X96003044Y-151358093D01*
X95778639Y-151385999D01*
X95549583Y-151340652D01*
X95383314Y-151204614D01*
X95308384Y-151064399D01*
X95263425Y-150885598D01*
X95248439Y-150668213D01*
X95248439Y-150524036D01*
X95263081Y-150308717D01*
X95304938Y-150131984D01*
X95374013Y-149993835D01*
X95526329Y-149860123D01*
X95735231Y-149815552D01*
X95901306Y-149838031D01*
X96027461Y-149905469D01*
X96114859Y-150021353D01*
X96164662Y-150189172D01*
X96617348Y-150189172D01*
X96568944Y-149964638D01*
X96479544Y-149778861D01*
X96349147Y-149631842D01*
X96178787Y-149525475D01*
X95969497Y-149461654D01*
X95721278Y-149440381D01*
X95537224Y-149454936D01*
X95369534Y-149498603D01*
X95218208Y-149571381D01*
X95028685Y-149731448D01*
X94889546Y-149949652D01*
X94826242Y-150124577D01*
X94788260Y-150319655D01*
X94775600Y-150534888D01*
X94775600Y-150688367D01*
X89483933Y-150688367D01*
X89483933Y-148778923D01*
G37*
%TO.C,kibuzzard-649D9A54*%
G36*
X112984013Y-148728923D02*
G01*
X118315987Y-148728923D01*
X118315987Y-152371077D01*
X112984013Y-152371077D01*
X112984013Y-150615112D01*
X113645471Y-150615112D01*
X113661023Y-150856522D01*
X113707677Y-151070705D01*
X113785434Y-151257660D01*
X113894293Y-151417389D01*
X114030283Y-151545240D01*
X114189430Y-151636562D01*
X114371735Y-151691355D01*
X114577197Y-151709619D01*
X114824641Y-151686365D01*
X115037807Y-151616602D01*
X115216693Y-151500330D01*
X115354411Y-151343578D01*
X115444069Y-151152375D01*
X115485669Y-150926721D01*
X115020581Y-150926721D01*
X114982405Y-151105974D01*
X114898883Y-151231354D01*
X114765364Y-151305186D01*
X114577197Y-151329797D01*
X114370427Y-151287552D01*
X114227606Y-151160815D01*
X114166025Y-151026284D01*
X114129076Y-150848001D01*
X114116760Y-150625964D01*
X114116760Y-150455432D01*
X114131316Y-150242267D01*
X114170848Y-150069926D01*
X114235358Y-149938409D01*
X114380116Y-149813417D01*
X114583398Y-149771753D01*
X114770015Y-149796364D01*
X114901984Y-149870197D01*
X114984731Y-149998677D01*
X115023682Y-150187231D01*
X115488770Y-150187231D01*
X115441572Y-149953826D01*
X115349588Y-149757973D01*
X115212817Y-149599670D01*
X115036773Y-149483398D01*
X114850280Y-149421387D01*
X115600391Y-149421387D01*
X116383289Y-151678613D01*
X116868530Y-151678613D01*
X117654529Y-149421387D01*
X117136731Y-149421387D01*
X116625134Y-151118958D01*
X116116638Y-149421387D01*
X115600391Y-149421387D01*
X114850280Y-149421387D01*
X114826967Y-149413635D01*
X114583398Y-149390381D01*
X114402962Y-149405109D01*
X114237855Y-149449292D01*
X114088080Y-149522931D01*
X113899525Y-149684355D01*
X113760193Y-149903528D01*
X113696459Y-150077505D01*
X113658218Y-150268708D01*
X113645471Y-150477136D01*
X113645471Y-150615112D01*
X112984013Y-150615112D01*
X112984013Y-148728923D01*
G37*
%TO.C,kibuzzard-649D9B1E*%
G36*
X54967437Y-72238728D02*
G01*
X55230793Y-72438425D01*
X55349648Y-72643709D01*
X55420962Y-72904546D01*
X55444733Y-73220935D01*
X55444733Y-73399994D01*
X55418120Y-73706177D01*
X55344481Y-73961200D01*
X55223816Y-74165063D01*
X54959298Y-74365633D01*
X54598273Y-74432489D01*
X54261084Y-74432489D01*
X54261084Y-72172162D01*
X54605249Y-72172162D01*
X54967437Y-72238728D01*
G37*
G36*
X53299869Y-75972178D02*
G01*
X53039217Y-75933514D01*
X52783610Y-75869488D01*
X52535510Y-75780716D01*
X52297305Y-75668053D01*
X52071290Y-75532585D01*
X51859642Y-75375616D01*
X51664398Y-75198658D01*
X51487440Y-75003414D01*
X51479657Y-74992920D01*
X53563453Y-74992920D01*
X54612226Y-74992920D01*
X54898255Y-74969149D01*
X55164130Y-74900936D01*
X55409852Y-74788281D01*
X55627797Y-74635061D01*
X55810344Y-74445150D01*
X55957493Y-74218549D01*
X56065367Y-73961975D01*
X56130092Y-73682147D01*
X56151667Y-73379065D01*
X56151667Y-73223260D01*
X56129704Y-72919791D01*
X56063817Y-72638800D01*
X55954004Y-72380289D01*
X55805047Y-72151879D01*
X55621725Y-71961193D01*
X55404038Y-71808231D01*
X55158704Y-71696480D01*
X54892441Y-71629430D01*
X54605249Y-71607080D01*
X53563453Y-71607080D01*
X53563453Y-74992920D01*
X51479657Y-74992920D01*
X51330470Y-74791766D01*
X51195002Y-74565751D01*
X51082340Y-74327546D01*
X50993568Y-74079446D01*
X50929542Y-73823838D01*
X50890878Y-73563187D01*
X50877948Y-73300000D01*
X50890878Y-73036813D01*
X50929542Y-72776162D01*
X50993568Y-72520554D01*
X51082340Y-72272454D01*
X51195002Y-72034249D01*
X51330470Y-71808234D01*
X51487440Y-71596586D01*
X51664398Y-71401342D01*
X51859642Y-71224384D01*
X52071290Y-71067415D01*
X52297305Y-70931947D01*
X52535510Y-70819284D01*
X52783610Y-70730512D01*
X53039217Y-70666486D01*
X53299869Y-70627822D01*
X53563056Y-70614893D01*
X58136042Y-70614893D01*
X58136042Y-75985107D01*
X53563056Y-75985107D01*
X53299869Y-75972178D01*
G37*
%TO.C,kibuzzard-649D9B68*%
G36*
X122836053Y-93168384D02*
G01*
X127418341Y-93168384D01*
X127686086Y-93181537D01*
X127951253Y-93220871D01*
X128211287Y-93286006D01*
X128463685Y-93376316D01*
X128706016Y-93490930D01*
X128935945Y-93628744D01*
X129151260Y-93788432D01*
X129349885Y-93968456D01*
X129529909Y-94167081D01*
X129689597Y-94382395D01*
X129827411Y-94612325D01*
X129942025Y-94854656D01*
X130032335Y-95107054D01*
X130097470Y-95367088D01*
X130136803Y-95632255D01*
X130149957Y-95900000D01*
X130136803Y-96167745D01*
X130097470Y-96432912D01*
X130032335Y-96692946D01*
X129942025Y-96945344D01*
X129827411Y-97187675D01*
X129689597Y-97417605D01*
X129529909Y-97632919D01*
X129349885Y-97831544D01*
X129151260Y-98011568D01*
X128935945Y-98171256D01*
X128706016Y-98309070D01*
X128463685Y-98423684D01*
X128211287Y-98513994D01*
X127951253Y-98579129D01*
X127686086Y-98618463D01*
X127418341Y-98631616D01*
X122836053Y-98631616D01*
X122836053Y-96527869D01*
X124820428Y-96527869D01*
X124862577Y-96835989D01*
X124989022Y-97104578D01*
X125195696Y-97326948D01*
X125478527Y-97496414D01*
X125816879Y-97603675D01*
X126190112Y-97639429D01*
X126539703Y-97611653D01*
X126838134Y-97528324D01*
X127085406Y-97389444D01*
X127270149Y-97201729D01*
X127380995Y-96971898D01*
X127417944Y-96699951D01*
X127349925Y-96337183D01*
X127145867Y-96039526D01*
X126928568Y-95872353D01*
X126639438Y-95724300D01*
X126278479Y-95595367D01*
X125994484Y-95494211D01*
X125788974Y-95386078D01*
X125622705Y-95109351D01*
X125764556Y-94824484D01*
X125934895Y-94743385D01*
X126162207Y-94716351D01*
X126397657Y-94748617D01*
X126573809Y-94845413D01*
X126683686Y-95000346D01*
X126720312Y-95207019D01*
X127417944Y-95207019D01*
X127378702Y-94918665D01*
X127260977Y-94662866D01*
X127072325Y-94450379D01*
X126820306Y-94291959D01*
X126516836Y-94193418D01*
X126173834Y-94160571D01*
X125831122Y-94190802D01*
X125523873Y-94281494D01*
X125268075Y-94425962D01*
X125079715Y-94617520D01*
X124963733Y-94847448D01*
X124925073Y-95107025D01*
X124989152Y-95434912D01*
X125181388Y-95714740D01*
X125501782Y-95946509D01*
X125751185Y-96061327D01*
X126076165Y-96177890D01*
X126383123Y-96292418D01*
X126578460Y-96401132D01*
X126717987Y-96704602D01*
X126578460Y-96987143D01*
X126411610Y-97063010D01*
X126190112Y-97088300D01*
X125897106Y-97053273D01*
X125687817Y-96948192D01*
X125562243Y-96773057D01*
X125520385Y-96527869D01*
X124820428Y-96527869D01*
X122836053Y-96527869D01*
X122836053Y-93168384D01*
G37*
%TO.C,kibuzzard-646BA165*%
G36*
X94081758Y-49764967D02*
G01*
X94196674Y-49815546D01*
X94263530Y-49904494D01*
X94285815Y-50036462D01*
X94246714Y-50189597D01*
X94129408Y-50283131D01*
X93933899Y-50317065D01*
X93589734Y-50317065D01*
X93589734Y-49748108D01*
X93915295Y-49748108D01*
X94081758Y-49764967D01*
G37*
G36*
X79692219Y-50500000D02*
G01*
X80906270Y-48678923D01*
X100093730Y-48678923D01*
X101307781Y-50500000D01*
X100093730Y-52321077D01*
X80906270Y-52321077D01*
X79735627Y-50565112D01*
X86197937Y-50565112D01*
X86213488Y-50806522D01*
X86260143Y-51020705D01*
X86337899Y-51207660D01*
X86446759Y-51367389D01*
X86582749Y-51495240D01*
X86741896Y-51586562D01*
X86924201Y-51641355D01*
X87129663Y-51659619D01*
X87377107Y-51636365D01*
X87400794Y-51628613D01*
X88152856Y-51628613D01*
X88647400Y-51628613D01*
X88802429Y-51163525D01*
X89617883Y-51163525D01*
X89774463Y-51628613D01*
X90269006Y-51628613D01*
X90479846Y-51628613D01*
X91932471Y-51628613D01*
X92228577Y-51628613D01*
X92693665Y-51628613D01*
X93124646Y-51628613D01*
X94002112Y-51628613D01*
X94238790Y-51608287D01*
X94436194Y-51551443D01*
X94594324Y-51458081D01*
X94709734Y-51328890D01*
X94778981Y-51164559D01*
X94802063Y-50965088D01*
X94777065Y-50789130D01*
X94702069Y-50642627D01*
X94583665Y-50532944D01*
X94428442Y-50467444D01*
X94563705Y-50391673D01*
X94665637Y-50282184D01*
X94729587Y-50145952D01*
X94750903Y-49989954D01*
X94727304Y-49803660D01*
X94656508Y-49649923D01*
X94538513Y-49528741D01*
X94374871Y-49441322D01*
X94167132Y-49388871D01*
X93915295Y-49371387D01*
X93124646Y-49371387D01*
X93124646Y-51628613D01*
X92693665Y-51628613D01*
X92693665Y-49371387D01*
X92228577Y-49371387D01*
X92228577Y-51628613D01*
X91932471Y-51628613D01*
X91932471Y-51254993D01*
X90944934Y-51254993D01*
X90944934Y-49371387D01*
X90479846Y-49371387D01*
X90479846Y-51628613D01*
X90269006Y-51628613D01*
X89424097Y-49371387D01*
X88993115Y-49371387D01*
X88152856Y-51628613D01*
X87400794Y-51628613D01*
X87590272Y-51566602D01*
X87769159Y-51450330D01*
X87906877Y-51293578D01*
X87996535Y-51102375D01*
X88038135Y-50876721D01*
X87573047Y-50876721D01*
X87534871Y-51055974D01*
X87451349Y-51181354D01*
X87317830Y-51255186D01*
X87129663Y-51279797D01*
X86922893Y-51237552D01*
X86780072Y-51110815D01*
X86718491Y-50976284D01*
X86681542Y-50798001D01*
X86669226Y-50575964D01*
X86669226Y-50405432D01*
X86683782Y-50192267D01*
X86723314Y-50019926D01*
X86787823Y-49888409D01*
X86932582Y-49763417D01*
X87135864Y-49721753D01*
X87322481Y-49746364D01*
X87454449Y-49820197D01*
X87537196Y-49948677D01*
X87576147Y-50137231D01*
X88041235Y-50137231D01*
X87994038Y-49903826D01*
X87902053Y-49707973D01*
X87765283Y-49549670D01*
X87589239Y-49433398D01*
X87379433Y-49363635D01*
X87135864Y-49340381D01*
X86955427Y-49355109D01*
X86790321Y-49399292D01*
X86640546Y-49472931D01*
X86451991Y-49634355D01*
X86312659Y-49853528D01*
X86248924Y-50027505D01*
X86210684Y-50218708D01*
X86197937Y-50427136D01*
X86197937Y-50565112D01*
X79735627Y-50565112D01*
X79692219Y-50500000D01*
G37*
G36*
X94194348Y-50682762D02*
G01*
X94301318Y-50787665D01*
X94336975Y-50960437D01*
X94244733Y-51176703D01*
X94134468Y-51235420D01*
X93988159Y-51254993D01*
X93589734Y-51254993D01*
X93589734Y-50645728D01*
X94016064Y-50645728D01*
X94194348Y-50682762D01*
G37*
G36*
X89492310Y-50786804D02*
G01*
X88928003Y-50786804D01*
X89208606Y-49941895D01*
X89492310Y-50786804D01*
G37*
%TO.C,kibuzzard-649D9B19*%
G36*
X53299869Y-53372178D02*
G01*
X53039217Y-53333514D01*
X52783610Y-53269488D01*
X52535509Y-53180716D01*
X52297304Y-53068053D01*
X52071290Y-52932585D01*
X51859641Y-52775616D01*
X51664398Y-52598658D01*
X51487439Y-52403414D01*
X51479656Y-52392920D01*
X53563452Y-52392920D01*
X54305267Y-52392920D01*
X54537811Y-51695288D01*
X55760993Y-51695288D01*
X55995862Y-52392920D01*
X56737677Y-52392920D01*
X55470313Y-49007080D01*
X54823840Y-49007080D01*
X53563452Y-52392920D01*
X51479656Y-52392920D01*
X51330470Y-52191766D01*
X51195002Y-51965751D01*
X51082340Y-51727546D01*
X50993568Y-51479446D01*
X50929542Y-51223838D01*
X50890877Y-50963187D01*
X50877948Y-50700000D01*
X50890877Y-50436813D01*
X50929542Y-50176162D01*
X50993568Y-49920554D01*
X51082340Y-49672454D01*
X51195002Y-49434249D01*
X51330470Y-49208234D01*
X51487439Y-48996586D01*
X51664398Y-48801342D01*
X51859641Y-48624384D01*
X52071290Y-48467415D01*
X52297304Y-48331947D01*
X52535509Y-48219284D01*
X52783610Y-48130512D01*
X53039217Y-48066486D01*
X53299869Y-48027822D01*
X53563055Y-48014893D01*
X58722052Y-48014893D01*
X58722052Y-53385107D01*
X53563055Y-53385107D01*
X53299869Y-53372178D01*
G37*
G36*
X55572632Y-51130206D02*
G01*
X54726172Y-51130206D01*
X55147076Y-49862842D01*
X55572632Y-51130206D01*
G37*
%TO.C,G\u002A\u002A\u002A*%
G36*
X96050991Y-33974964D02*
G01*
X96070509Y-33748067D01*
X96114844Y-33573675D01*
X96192886Y-33406580D01*
X96238898Y-33325925D01*
X96449872Y-33030915D01*
X96694693Y-32836744D01*
X97020273Y-32709651D01*
X97135279Y-32680800D01*
X97565353Y-32650084D01*
X97967613Y-32750113D01*
X98317157Y-32968561D01*
X98589084Y-33293105D01*
X98665229Y-33438026D01*
X98758787Y-33759253D01*
X98799956Y-34158044D01*
X98789198Y-34578979D01*
X98726973Y-34966641D01*
X98650607Y-35193943D01*
X98423255Y-35590006D01*
X98151161Y-35857352D01*
X97817818Y-36007550D01*
X97425947Y-36052267D01*
X97047888Y-36007371D01*
X96797603Y-35900112D01*
X96602998Y-35768070D01*
X96456445Y-35624818D01*
X96318850Y-35425996D01*
X96206771Y-35229718D01*
X96125833Y-35053549D01*
X96077240Y-34859050D01*
X96053543Y-34602752D01*
X96053023Y-34577101D01*
X97057637Y-34577101D01*
X97070825Y-34828628D01*
X97137733Y-35064352D01*
X97251056Y-35245661D01*
X97403491Y-35333937D01*
X97440281Y-35337042D01*
X97576850Y-35281187D01*
X97700979Y-35152528D01*
X97798753Y-34913288D01*
X97825648Y-34639304D01*
X97783926Y-34382808D01*
X97675848Y-34196028D01*
X97658927Y-34181104D01*
X97524051Y-34085855D01*
X97440281Y-34049155D01*
X97349610Y-34090020D01*
X97221635Y-34181104D01*
X97105472Y-34348388D01*
X97057637Y-34577101D01*
X96053023Y-34577101D01*
X96047396Y-34299577D01*
X96050991Y-33974964D01*
G37*
G36*
X81809087Y-34299577D02*
G01*
X81812681Y-33974964D01*
X81832199Y-33748067D01*
X81876534Y-33573675D01*
X81954576Y-33406580D01*
X82000588Y-33325925D01*
X82211562Y-33030915D01*
X82456384Y-32836744D01*
X82781963Y-32709651D01*
X82896969Y-32680800D01*
X83327043Y-32650084D01*
X83729303Y-32750113D01*
X84078847Y-32968561D01*
X84350774Y-33293105D01*
X84426919Y-33438026D01*
X84528666Y-33787615D01*
X84566854Y-34210555D01*
X84542663Y-34652583D01*
X84457275Y-35059433D01*
X84387659Y-35242140D01*
X84255954Y-35473900D01*
X84105744Y-35665578D01*
X84021209Y-35739488D01*
X83827110Y-35866666D01*
X84103146Y-36098413D01*
X84253741Y-36234819D01*
X84338240Y-36331292D01*
X84345084Y-36357616D01*
X84268907Y-36412712D01*
X84124236Y-36513788D01*
X84089183Y-36538006D01*
X83867380Y-36690939D01*
X83668480Y-36483332D01*
X83539888Y-36310352D01*
X83509189Y-36174627D01*
X83512404Y-36164130D01*
X83514190Y-36098129D01*
X83435740Y-36064109D01*
X83249332Y-36052691D01*
X83181838Y-36052267D01*
X82803177Y-36008183D01*
X82489587Y-35866432D01*
X82218729Y-35611871D01*
X81968461Y-35229718D01*
X81887523Y-35053549D01*
X81838930Y-34859050D01*
X81820110Y-34655495D01*
X82820375Y-34655495D01*
X82857169Y-34936220D01*
X82954904Y-35164633D01*
X83094608Y-35306850D01*
X83201971Y-35337042D01*
X83338540Y-35281187D01*
X83462669Y-35152528D01*
X83543561Y-34948780D01*
X83579007Y-34691385D01*
X83567163Y-34439513D01*
X83506189Y-34252337D01*
X83491333Y-34231840D01*
X83353917Y-34148086D01*
X83201971Y-34120704D01*
X82994446Y-34170007D01*
X82869905Y-34324293D01*
X82821523Y-34593126D01*
X82820375Y-34655495D01*
X81820110Y-34655495D01*
X81815233Y-34602752D01*
X81809087Y-34299577D01*
G37*
G36*
X92558065Y-32761223D02*
G01*
X92934723Y-32761267D01*
X92888355Y-33780845D01*
X92867441Y-34211616D01*
X92843855Y-34650735D01*
X92820355Y-35049386D01*
X92799697Y-35358754D01*
X92797895Y-35382885D01*
X92753802Y-35965349D01*
X92053491Y-35436547D01*
X91778785Y-35233140D01*
X91542909Y-35065995D01*
X91370346Y-34951944D01*
X91285577Y-34907819D01*
X91284337Y-34907746D01*
X91251332Y-34973487D01*
X91226996Y-35147600D01*
X91215776Y-35395422D01*
X91215493Y-35444366D01*
X91215493Y-35980986D01*
X90586443Y-35980986D01*
X90544423Y-35426479D01*
X90524227Y-35129340D01*
X90501150Y-34741639D01*
X90478172Y-34315790D01*
X90459977Y-33941831D01*
X90441366Y-33581723D01*
X90420995Y-33266042D01*
X90401181Y-33026304D01*
X90384241Y-32894022D01*
X90382404Y-32886479D01*
X90379528Y-32821359D01*
X90434743Y-32783567D01*
X90575457Y-32765935D01*
X90829078Y-32761293D01*
X90861096Y-32761267D01*
X91374935Y-32761267D01*
X92232865Y-33504505D01*
X92207136Y-33132842D01*
X92181408Y-32761178D01*
X92558065Y-32761223D01*
G37*
G36*
X87843464Y-34990359D02*
G01*
X87882224Y-34826434D01*
X87979017Y-34408846D01*
X88071756Y-33990542D01*
X88151060Y-33615029D01*
X88207549Y-33325810D01*
X88215654Y-33280000D01*
X88304889Y-32761267D01*
X89559713Y-32761267D01*
X89643321Y-33172676D01*
X89691561Y-33401162D01*
X89760001Y-33713632D01*
X89842139Y-34081630D01*
X89931472Y-34476702D01*
X90021500Y-34870391D01*
X90105719Y-35234240D01*
X90177627Y-35539796D01*
X90230723Y-35758601D01*
X90256406Y-35855774D01*
X90261510Y-35917654D01*
X90212584Y-35955096D01*
X90083621Y-35974072D01*
X89848614Y-35980553D01*
X89711080Y-35980986D01*
X89419993Y-35977598D01*
X89241444Y-35962696D01*
X89144943Y-35929172D01*
X89099997Y-35869917D01*
X89089259Y-35836030D01*
X89059467Y-35748072D01*
X89007724Y-35730575D01*
X88894079Y-35784459D01*
X88794141Y-35842833D01*
X88631802Y-35921399D01*
X88528888Y-35938857D01*
X88514194Y-35926386D01*
X88456409Y-35817234D01*
X88397306Y-35729418D01*
X88326570Y-35650006D01*
X88285415Y-35685984D01*
X88255424Y-35790821D01*
X88204882Y-35915272D01*
X88105936Y-35969502D01*
X87922862Y-35980986D01*
X87744124Y-35966852D01*
X87645069Y-35931563D01*
X87638028Y-35917561D01*
X87653806Y-35828784D01*
X87697223Y-35627150D01*
X87758750Y-35355071D01*
X88426281Y-35355071D01*
X88469674Y-35399556D01*
X88610840Y-35380163D01*
X88647061Y-35372459D01*
X88818023Y-35330383D01*
X88915373Y-35296270D01*
X88919597Y-35293265D01*
X88919133Y-35213098D01*
X88878180Y-35055429D01*
X88814940Y-34873260D01*
X88747616Y-34719597D01*
X88698497Y-34649431D01*
X88635766Y-34682453D01*
X88560544Y-34824461D01*
X88486881Y-35043828D01*
X88445095Y-35219832D01*
X88426281Y-35355071D01*
X87758750Y-35355071D01*
X87762402Y-35338921D01*
X87843464Y-34990359D01*
G37*
G36*
X86028169Y-33959701D02*
G01*
X86031554Y-34466370D01*
X86044814Y-34847477D01*
X86072604Y-35120466D01*
X86119582Y-35302778D01*
X86190403Y-35411857D01*
X86289724Y-35465143D01*
X86422201Y-35480080D01*
X86434052Y-35480141D01*
X86656028Y-35480141D01*
X86552526Y-32761267D01*
X87584366Y-32761267D01*
X87539647Y-32984859D01*
X87525228Y-33127370D01*
X87512742Y-33385238D01*
X87502998Y-33730722D01*
X87496803Y-34136084D01*
X87494929Y-34520651D01*
X87495347Y-35013608D01*
X87488668Y-35382221D01*
X87462996Y-35645165D01*
X87406435Y-35821113D01*
X87307088Y-35928740D01*
X87153059Y-35986721D01*
X86932450Y-36013730D01*
X86633365Y-36028441D01*
X86531467Y-36033016D01*
X86205565Y-36043745D01*
X85977602Y-36035016D01*
X85803029Y-36000571D01*
X85637296Y-35934154D01*
X85563098Y-35897027D01*
X85368676Y-35778751D01*
X85211240Y-35634590D01*
X85085131Y-35447384D01*
X84984694Y-35199971D01*
X84904270Y-34875190D01*
X84838203Y-34455879D01*
X84780836Y-33924877D01*
X84735798Y-33387324D01*
X84687581Y-32761267D01*
X85357875Y-32761250D01*
X86028169Y-32761234D01*
X86028169Y-33959701D01*
G37*
G36*
X95605582Y-33201059D02*
G01*
X95641212Y-33559331D01*
X95654612Y-33799121D01*
X95638942Y-33944213D01*
X95587367Y-34018392D01*
X95493050Y-34045443D01*
X95361799Y-34049155D01*
X95015784Y-34101516D01*
X94734726Y-34243888D01*
X94535913Y-34454207D01*
X94436632Y-34710407D01*
X94454170Y-34990421D01*
X94512519Y-35133155D01*
X94622541Y-35245651D01*
X94806452Y-35364493D01*
X95001389Y-35453883D01*
X95121873Y-35480141D01*
X95139439Y-35415686D01*
X95137606Y-35248029D01*
X95120618Y-35050845D01*
X95072049Y-34621549D01*
X95936186Y-34621549D01*
X95891221Y-35283380D01*
X95868884Y-35575491D01*
X95846348Y-35808848D01*
X95827071Y-35950062D01*
X95819501Y-35975975D01*
X95731926Y-35998746D01*
X95540203Y-36014934D01*
X95283143Y-36024177D01*
X94999563Y-36026110D01*
X94728275Y-36020370D01*
X94508093Y-36006592D01*
X94394020Y-35989332D01*
X93938719Y-35806523D01*
X93577833Y-35523564D01*
X93322420Y-35152945D01*
X93183534Y-34707158D01*
X93170399Y-34607036D01*
X93177833Y-34098829D01*
X93307519Y-33656460D01*
X93555098Y-33288584D01*
X93916208Y-33003859D01*
X94000932Y-32958028D01*
X94231160Y-32853441D01*
X94443629Y-32793441D01*
X94694951Y-32766584D01*
X94974468Y-32761267D01*
X95559614Y-32761267D01*
X95605582Y-33201059D01*
G37*
%TO.C,kibuzzard-649D9B57*%
G36*
X122277948Y-48214893D02*
G01*
X127436945Y-48214893D01*
X127700131Y-48227822D01*
X127960783Y-48266486D01*
X128216390Y-48330513D01*
X128464491Y-48419284D01*
X128702696Y-48531947D01*
X128928710Y-48667415D01*
X129140359Y-48824384D01*
X129335602Y-49001342D01*
X129512561Y-49196586D01*
X129669530Y-49408234D01*
X129804998Y-49634249D01*
X129917660Y-49872454D01*
X130006432Y-50120555D01*
X130070458Y-50376162D01*
X130109122Y-50636813D01*
X130122052Y-50900000D01*
X130109122Y-51163187D01*
X130070458Y-51423838D01*
X130006432Y-51679445D01*
X129917660Y-51927546D01*
X129804998Y-52165751D01*
X129669530Y-52391766D01*
X129512561Y-52603414D01*
X129335602Y-52798658D01*
X129140359Y-52975616D01*
X128928710Y-53132585D01*
X128702696Y-53268053D01*
X128464491Y-53380716D01*
X128216390Y-53469487D01*
X127960783Y-53533514D01*
X127700131Y-53572178D01*
X127436945Y-53585107D01*
X122277948Y-53585107D01*
X122277948Y-52592920D01*
X124262323Y-52592920D01*
X125004138Y-52592920D01*
X125236682Y-51895288D01*
X126459863Y-51895288D01*
X126694733Y-52592920D01*
X127436548Y-52592920D01*
X126169183Y-49207080D01*
X125522711Y-49207080D01*
X124262323Y-52592920D01*
X122277948Y-52592920D01*
X122277948Y-48214893D01*
G37*
G36*
X126271503Y-51330206D02*
G01*
X125425043Y-51330206D01*
X125845947Y-50062842D01*
X126271503Y-51330206D01*
G37*
%TO.C,kibuzzard-649D9B5F*%
G36*
X122863959Y-70914893D02*
G01*
X127436944Y-70914893D01*
X127700131Y-70927822D01*
X127960783Y-70966486D01*
X128216390Y-71030513D01*
X128464490Y-71119284D01*
X128702695Y-71231947D01*
X128928710Y-71367415D01*
X129140358Y-71524384D01*
X129335602Y-71701342D01*
X129512560Y-71896586D01*
X129669529Y-72108234D01*
X129804997Y-72334249D01*
X129917660Y-72572454D01*
X130006432Y-72820555D01*
X130070458Y-73076162D01*
X130109122Y-73336813D01*
X130122051Y-73600000D01*
X130109122Y-73863187D01*
X130070458Y-74123838D01*
X130006432Y-74379445D01*
X129917660Y-74627546D01*
X129804997Y-74865751D01*
X129669529Y-75091766D01*
X129512560Y-75303414D01*
X129335602Y-75498658D01*
X129140358Y-75675616D01*
X128928710Y-75832585D01*
X128702695Y-75968053D01*
X128464490Y-76080716D01*
X128216390Y-76169487D01*
X127960783Y-76233514D01*
X127700131Y-76272178D01*
X127436944Y-76285107D01*
X122863959Y-76285107D01*
X122863959Y-75292920D01*
X124848334Y-75292920D01*
X125897107Y-75292920D01*
X126183136Y-75269149D01*
X126449011Y-75200936D01*
X126694732Y-75088281D01*
X126912678Y-74935061D01*
X127095225Y-74745150D01*
X127242373Y-74518549D01*
X127350248Y-74261975D01*
X127414973Y-73982147D01*
X127436548Y-73679065D01*
X127436548Y-73523260D01*
X127414585Y-73219791D01*
X127348698Y-72938800D01*
X127238885Y-72680289D01*
X127089928Y-72451879D01*
X126906606Y-72261193D01*
X126688919Y-72108231D01*
X126443585Y-71996480D01*
X126177322Y-71929430D01*
X125890130Y-71907080D01*
X124848334Y-71907080D01*
X124848334Y-75292920D01*
X122863959Y-75292920D01*
X122863959Y-70914893D01*
G37*
G36*
X126252318Y-72538728D02*
G01*
X126515674Y-72738425D01*
X126634529Y-72943709D01*
X126705843Y-73204546D01*
X126729614Y-73520935D01*
X126729614Y-73699994D01*
X126703001Y-74006177D01*
X126629362Y-74261200D01*
X126508697Y-74465063D01*
X126244179Y-74665633D01*
X125883154Y-74732489D01*
X125545965Y-74732489D01*
X125545965Y-72472162D01*
X125890130Y-72472162D01*
X126252318Y-72538728D01*
G37*
%TO.C,kibuzzard-646C865B*%
G36*
X92139919Y-123515606D02*
G01*
X92359382Y-123682021D01*
X92458429Y-123853091D01*
X92517857Y-124070455D01*
X92537666Y-124334113D01*
X92537666Y-124483328D01*
X92515488Y-124738481D01*
X92454123Y-124951000D01*
X92353569Y-125120886D01*
X92133137Y-125288027D01*
X91832283Y-125343741D01*
X91551292Y-125343741D01*
X91551292Y-123460135D01*
X91838096Y-123460135D01*
X92139919Y-123515606D01*
G37*
G36*
X79143450Y-129442706D02*
G01*
X78896314Y-129424476D01*
X78650371Y-129394142D01*
X78406212Y-129351776D01*
X78164427Y-129297482D01*
X77925596Y-129231388D01*
X77690297Y-129153656D01*
X77459095Y-129064471D01*
X77232547Y-128964050D01*
X77011200Y-128852633D01*
X76795586Y-128730489D01*
X76586226Y-128597913D01*
X76383623Y-128455224D01*
X76188265Y-128302765D01*
X76000624Y-128140905D01*
X75821150Y-127970032D01*
X75650277Y-127790558D01*
X75488417Y-127602917D01*
X75335958Y-127407559D01*
X75193269Y-127204956D01*
X75060693Y-126995595D01*
X74938549Y-126779982D01*
X74827132Y-126558635D01*
X74726711Y-126332087D01*
X74637526Y-126100885D01*
X74559794Y-125865586D01*
X74544623Y-125810767D01*
X86336494Y-125810767D01*
X86917854Y-125810767D01*
X86917854Y-125039496D01*
X86859718Y-123710120D01*
X87619362Y-125810767D01*
X88018562Y-125810767D01*
X88780144Y-123708182D01*
X88722008Y-125039496D01*
X88722008Y-125810767D01*
X89305305Y-125810767D01*
X89849846Y-125810767D01*
X90431206Y-125810767D01*
X90969932Y-125810767D01*
X91843910Y-125810767D01*
X93586052Y-125810767D01*
X94167412Y-125810767D01*
X94167412Y-122989233D01*
X93586052Y-122989233D01*
X93586052Y-125810767D01*
X91843910Y-125810767D01*
X92082268Y-125790957D01*
X92303830Y-125734113D01*
X92508598Y-125640234D01*
X92690219Y-125512551D01*
X92842342Y-125354291D01*
X92964966Y-125165457D01*
X93054861Y-124951646D01*
X93108798Y-124718456D01*
X93126778Y-124465887D01*
X93126778Y-124336050D01*
X93108475Y-124083159D01*
X93053569Y-123849000D01*
X92962059Y-123633574D01*
X92837928Y-123443232D01*
X92685159Y-123284327D01*
X92503754Y-123156859D01*
X92299309Y-123063734D01*
X92077423Y-123007858D01*
X91838096Y-122989233D01*
X90969932Y-122989233D01*
X90969932Y-125810767D01*
X90431206Y-125810767D01*
X90431206Y-122989233D01*
X89849846Y-122989233D01*
X89849846Y-125810767D01*
X89305305Y-125810767D01*
X89305305Y-122989233D01*
X88541786Y-122989233D01*
X87820900Y-125035620D01*
X87096138Y-122989233D01*
X86336494Y-122989233D01*
X86336494Y-125810767D01*
X74544623Y-125810767D01*
X74493700Y-125626755D01*
X74439406Y-125384970D01*
X74397040Y-125140811D01*
X74366706Y-124894868D01*
X74348476Y-124647732D01*
X74342395Y-124400000D01*
X74348476Y-124152268D01*
X74366706Y-123905132D01*
X74397040Y-123659189D01*
X74439406Y-123415030D01*
X74493700Y-123173245D01*
X74559794Y-122934414D01*
X74637526Y-122699115D01*
X74726711Y-122467913D01*
X74827132Y-122241365D01*
X74938549Y-122020018D01*
X75060693Y-121804405D01*
X75193269Y-121595044D01*
X75335958Y-121392441D01*
X75488417Y-121197083D01*
X75650277Y-121009442D01*
X75821150Y-120829968D01*
X76000624Y-120659095D01*
X76188265Y-120497235D01*
X76383623Y-120344776D01*
X76586226Y-120202087D01*
X76795586Y-120069511D01*
X77011200Y-119947367D01*
X77232547Y-119835950D01*
X77459095Y-119735529D01*
X77690297Y-119646344D01*
X77925596Y-119568612D01*
X78164427Y-119502518D01*
X78406212Y-119448224D01*
X78650371Y-119405858D01*
X78896314Y-119375524D01*
X79143450Y-119357294D01*
X79391182Y-119351213D01*
X101608818Y-119351213D01*
X101856550Y-119357294D01*
X102103686Y-119375524D01*
X102349629Y-119405858D01*
X102593787Y-119448224D01*
X102835573Y-119502518D01*
X103074404Y-119568612D01*
X103309703Y-119646344D01*
X103540905Y-119735529D01*
X103767453Y-119835950D01*
X103988800Y-119947367D01*
X104204413Y-120069511D01*
X104413774Y-120202087D01*
X104616377Y-120344776D01*
X104811735Y-120497235D01*
X104999376Y-120659095D01*
X105178850Y-120829968D01*
X105349723Y-121009442D01*
X105511583Y-121197083D01*
X105664042Y-121392441D01*
X105806731Y-121595044D01*
X105939307Y-121804405D01*
X106061451Y-122020018D01*
X106172868Y-122241365D01*
X106273289Y-122467913D01*
X106362474Y-122699115D01*
X106440206Y-122934414D01*
X106506300Y-123173245D01*
X106560594Y-123415030D01*
X106602960Y-123659189D01*
X106633294Y-123905132D01*
X106651524Y-124152268D01*
X106657605Y-124400000D01*
X106651524Y-124647732D01*
X106633294Y-124894868D01*
X106602960Y-125140811D01*
X106560594Y-125384970D01*
X106506300Y-125626755D01*
X106440206Y-125865586D01*
X106362474Y-126100885D01*
X106273289Y-126332087D01*
X106172868Y-126558635D01*
X106061451Y-126779982D01*
X105939307Y-126995595D01*
X105806731Y-127204956D01*
X105664042Y-127407559D01*
X105511583Y-127602917D01*
X105349723Y-127790558D01*
X105178850Y-127970032D01*
X104999376Y-128140905D01*
X104811735Y-128302765D01*
X104616377Y-128455224D01*
X104413774Y-128597913D01*
X104204413Y-128730489D01*
X103988800Y-128852633D01*
X103767453Y-128964050D01*
X103540905Y-129064471D01*
X103309703Y-129153656D01*
X103074404Y-129231388D01*
X102835573Y-129297482D01*
X102593787Y-129351776D01*
X102349629Y-129394142D01*
X102103686Y-129424476D01*
X101856550Y-129442706D01*
X101608818Y-129448787D01*
X79391182Y-129448787D01*
X79143450Y-129442706D01*
G37*
%TD*%
D17*
%TO.C,Ref\u002A\u002A*%
X81000000Y-42000000D03*
%TD*%
%TO.C,Ref\u002A\u002A*%
X95400000Y-42000000D03*
%TD*%
%TO.C,Ref\u002A\u002A*%
X100000000Y-42000000D03*
%TD*%
D18*
%TO.C,Ref\u002A\u002A*%
X64800000Y-50900000D03*
%TD*%
D19*
%TO.C,Ref\u002A\u002A*%
X123500000Y-33000000D03*
%TD*%
D18*
%TO.C,Ref\u002A\u002A*%
X116200000Y-96100000D03*
%TD*%
D20*
%TO.C,Ref\u002A\u002A*%
X80600000Y-124300000D03*
%TD*%
D18*
%TO.C,Ref\u002A\u002A*%
X64800000Y-118700000D03*
%TD*%
%TO.C,Ref\u002A\u002A*%
X116200000Y-73500000D03*
%TD*%
D17*
%TO.C,Ref\u002A\u002A*%
X71800000Y-42000000D03*
%TD*%
D19*
%TO.C,Ref\u002A\u002A*%
X57500000Y-155500000D03*
%TD*%
D21*
%TO.C,Ref\u002A\u002A*%
X90500000Y-60500000D03*
%TD*%
D17*
%TO.C,Ref\u002A\u002A*%
X104600000Y-42000000D03*
%TD*%
D18*
%TO.C,Ref\u002A\u002A*%
X116200000Y-50900000D03*
%TD*%
%TO.C,Ref\u002A\u002A*%
X116200000Y-118700000D03*
%TD*%
D19*
%TO.C,Ref\u002A\u002A*%
X123500000Y-155500000D03*
%TD*%
D18*
%TO.C,Ref\u002A\u002A*%
X64800000Y-96100000D03*
%TD*%
%TO.C,Ref\u002A\u002A*%
X64800000Y-73500000D03*
%TD*%
D17*
%TO.C,Ref\u002A\u002A*%
X109200000Y-42000000D03*
%TD*%
D19*
%TO.C,Ref\u002A\u002A*%
X57500000Y-33000000D03*
%TD*%
D17*
%TO.C,Ref\u002A\u002A*%
X76400000Y-42000000D03*
%TD*%
%TO.C,Ref\u002A\u002A*%
X85600000Y-42000000D03*
%TD*%
D22*
%TO.C,RESET*%
X80500000Y-50500000D03*
%TD*%
%TO.C,RESET*%
X100500000Y-50500000D03*
%TD*%
M02*
