%TF.GenerationSoftware,KiCad,Pcbnew,(6.0.11)*%
%TF.CreationDate,2023-07-06T11:07:26+01:00*%
%TF.ProjectId,Quango_Panel,5175616e-676f-45f5-9061-6e656c2e6b69,rev?*%
%TF.SameCoordinates,Original*%
%TF.FileFunction,Legend,Top*%
%TF.FilePolarity,Positive*%
%FSLAX46Y46*%
G04 Gerber Fmt 4.6, Leading zero omitted, Abs format (unit mm)*
G04 Created by KiCad (PCBNEW (6.0.11)) date 2023-07-06 11:07:26*
%MOMM*%
%LPD*%
G01*
G04 APERTURE LIST*
%ADD10C,0.150000*%
%ADD11C,6.100000*%
G04 APERTURE END LIST*
D10*
%TO.C,REF\u002A\u002A*%
X99066666Y-124152380D02*
X98733333Y-123676190D01*
X98495238Y-124152380D02*
X98495238Y-123152380D01*
X98876190Y-123152380D01*
X98971428Y-123200000D01*
X99019047Y-123247619D01*
X99066666Y-123342857D01*
X99066666Y-123485714D01*
X99019047Y-123580952D01*
X98971428Y-123628571D01*
X98876190Y-123676190D01*
X98495238Y-123676190D01*
X99495238Y-123628571D02*
X99828571Y-123628571D01*
X99971428Y-124152380D02*
X99495238Y-124152380D01*
X99495238Y-123152380D01*
X99971428Y-123152380D01*
X100733333Y-123628571D02*
X100400000Y-123628571D01*
X100400000Y-124152380D02*
X100400000Y-123152380D01*
X100876190Y-123152380D01*
X101400000Y-123152380D02*
X101400000Y-123390476D01*
X101161904Y-123295238D02*
X101400000Y-123390476D01*
X101638095Y-123295238D01*
X101257142Y-123580952D02*
X101400000Y-123390476D01*
X101542857Y-123580952D01*
X102161904Y-123152380D02*
X102161904Y-123390476D01*
X101923809Y-123295238D02*
X102161904Y-123390476D01*
X102400000Y-123295238D01*
X102019047Y-123580952D02*
X102161904Y-123390476D01*
X102304761Y-123580952D01*
%TD*%
D11*
%TO.C,Ref\u002A\u002A*%
X90500000Y-60500000D03*
%TD*%
M02*
