%TF.GenerationSoftware,KiCad,Pcbnew,7.0.7*%
%TF.CreationDate,2023-08-21T16:31:17+01:00*%
%TF.ProjectId,Quango_Panel_3,5175616e-676f-45f5-9061-6e656c5f332e,rev?*%
%TF.SameCoordinates,Original*%
%TF.FileFunction,Soldermask,Bot*%
%TF.FilePolarity,Negative*%
%FSLAX46Y46*%
G04 Gerber Fmt 4.6, Leading zero omitted, Abs format (unit mm)*
G04 Created by KiCad (PCBNEW 7.0.7) date 2023-08-21 16:31:17*
%MOMM*%
%LPD*%
G01*
G04 APERTURE LIST*
%ADD10C,7.000000*%
%ADD11O,5.000000X3.200000*%
%ADD12C,6.000000*%
%ADD13C,6.100000*%
%ADD14C,3.500000*%
G04 APERTURE END LIST*
D10*
%TO.C,Ref\u002A\u002A*%
X64800000Y-50900000D03*
%TD*%
D11*
%TO.C,Ref\u002A\u002A*%
X123500000Y-33000000D03*
%TD*%
D10*
%TO.C,Ref\u002A\u002A*%
X116200000Y-96100000D03*
%TD*%
D12*
%TO.C,Ref\u002A\u002A*%
X80600000Y-124300000D03*
%TD*%
D10*
%TO.C,Ref\u002A\u002A*%
X64800000Y-118700000D03*
%TD*%
%TO.C,Ref\u002A\u002A*%
X116200000Y-73500000D03*
%TD*%
D11*
%TO.C,Ref\u002A\u002A*%
X57500000Y-155500000D03*
%TD*%
D13*
%TO.C,Ref\u002A\u002A*%
X90500000Y-60500000D03*
%TD*%
D10*
%TO.C,Ref\u002A\u002A*%
X116200000Y-50900000D03*
%TD*%
%TO.C,Ref\u002A\u002A*%
X116200000Y-118700000D03*
%TD*%
D11*
%TO.C,Ref\u002A\u002A*%
X123500000Y-155500000D03*
%TD*%
D10*
%TO.C,Ref\u002A\u002A*%
X64800000Y-96100000D03*
%TD*%
%TO.C,Ref\u002A\u002A*%
X64800000Y-73500000D03*
%TD*%
D11*
%TO.C,Ref\u002A\u002A*%
X57500000Y-33000000D03*
%TD*%
D14*
%TO.C,RESET*%
X80500000Y-50500000D03*
%TD*%
%TO.C,RESET*%
X100500000Y-50500000D03*
%TD*%
G36*
X81293472Y-40447468D02*
G01*
X81298541Y-40448071D01*
X81325510Y-40452414D01*
X81330333Y-40453388D01*
X81514642Y-40498298D01*
X81533313Y-40504452D01*
X81701377Y-40575057D01*
X81718842Y-40584084D01*
X81873904Y-40680531D01*
X81889261Y-40691806D01*
X82107502Y-40879476D01*
X82120552Y-40892508D01*
X82308717Y-41110674D01*
X82320054Y-41126077D01*
X82416881Y-41281445D01*
X82425981Y-41299036D01*
X82496602Y-41467278D01*
X82502784Y-41486093D01*
X82547469Y-41670662D01*
X82548442Y-41675524D01*
X82552489Y-41700995D01*
X82553075Y-41705983D01*
X82574857Y-41989856D01*
X82574768Y-42009922D01*
X82551072Y-42286620D01*
X82548015Y-42305329D01*
X82505876Y-42478683D01*
X82500424Y-42495677D01*
X82433620Y-42661723D01*
X82425784Y-42677757D01*
X82332473Y-42838279D01*
X82330091Y-42842057D01*
X82301688Y-42883701D01*
X82298002Y-42888572D01*
X82119471Y-43101791D01*
X82102052Y-43118859D01*
X81891969Y-43287608D01*
X81872554Y-43300406D01*
X81632958Y-43427871D01*
X81612585Y-43436476D01*
X81345671Y-43522072D01*
X81340329Y-43523526D01*
X81298894Y-43532837D01*
X81294245Y-43533697D01*
X81109122Y-43560693D01*
X81090281Y-43561987D01*
X80910310Y-43560611D01*
X80891491Y-43559029D01*
X80713851Y-43530345D01*
X80695431Y-43525904D01*
X80426885Y-43438977D01*
X80409299Y-43431753D01*
X80150841Y-43301593D01*
X80146684Y-43299296D01*
X80140545Y-43295590D01*
X80136358Y-43292826D01*
X79979562Y-43179931D01*
X79964319Y-43166965D01*
X79833067Y-43035662D01*
X79820107Y-43020414D01*
X79707298Y-42863609D01*
X79704561Y-42859462D01*
X79701524Y-42854437D01*
X79699212Y-42850254D01*
X79568852Y-42591346D01*
X79561653Y-42573832D01*
X79474425Y-42304846D01*
X79469993Y-42286542D01*
X79440975Y-42108489D01*
X79439367Y-42089825D01*
X79437502Y-41909385D01*
X79438723Y-41890692D01*
X79465052Y-41705044D01*
X79465885Y-41700432D01*
X79474795Y-41659915D01*
X79476248Y-41654491D01*
X79561084Y-41386902D01*
X79569765Y-41366230D01*
X79697157Y-41126286D01*
X79710165Y-41106579D01*
X79879457Y-40896713D01*
X79896884Y-40879061D01*
X80111300Y-40701511D01*
X80116277Y-40697793D01*
X80157313Y-40670231D01*
X80162927Y-40666876D01*
X80409123Y-40536824D01*
X80433361Y-40527129D01*
X80693231Y-40453787D01*
X80716099Y-40449597D01*
X80989935Y-40425628D01*
X81010327Y-40425527D01*
X81293472Y-40447468D01*
G37*
G36*
X104893472Y-40447468D02*
G01*
X104898541Y-40448071D01*
X104925510Y-40452414D01*
X104930333Y-40453388D01*
X105114642Y-40498298D01*
X105133313Y-40504452D01*
X105301377Y-40575057D01*
X105318842Y-40584084D01*
X105473904Y-40680531D01*
X105489261Y-40691806D01*
X105707502Y-40879476D01*
X105720552Y-40892508D01*
X105908717Y-41110674D01*
X105920054Y-41126077D01*
X106016881Y-41281445D01*
X106025981Y-41299036D01*
X106096602Y-41467278D01*
X106102784Y-41486093D01*
X106147469Y-41670662D01*
X106148442Y-41675524D01*
X106152489Y-41700995D01*
X106153075Y-41705983D01*
X106174857Y-41989856D01*
X106174768Y-42009922D01*
X106151072Y-42286620D01*
X106148015Y-42305329D01*
X106105876Y-42478683D01*
X106100424Y-42495677D01*
X106033620Y-42661723D01*
X106025784Y-42677757D01*
X105932473Y-42838279D01*
X105930091Y-42842057D01*
X105901688Y-42883701D01*
X105898002Y-42888572D01*
X105719471Y-43101791D01*
X105702052Y-43118859D01*
X105491969Y-43287608D01*
X105472554Y-43300406D01*
X105232958Y-43427871D01*
X105212585Y-43436476D01*
X104945671Y-43522072D01*
X104940329Y-43523526D01*
X104898894Y-43532837D01*
X104894245Y-43533697D01*
X104709122Y-43560693D01*
X104690281Y-43561987D01*
X104510310Y-43560611D01*
X104491491Y-43559029D01*
X104313851Y-43530345D01*
X104295431Y-43525904D01*
X104026885Y-43438977D01*
X104009299Y-43431753D01*
X103750841Y-43301593D01*
X103746684Y-43299296D01*
X103740545Y-43295590D01*
X103736358Y-43292826D01*
X103579562Y-43179931D01*
X103564319Y-43166965D01*
X103433067Y-43035662D01*
X103420107Y-43020414D01*
X103307298Y-42863609D01*
X103304561Y-42859462D01*
X103301524Y-42854437D01*
X103299212Y-42850254D01*
X103168852Y-42591346D01*
X103161653Y-42573832D01*
X103074425Y-42304846D01*
X103069993Y-42286542D01*
X103040975Y-42108489D01*
X103039367Y-42089825D01*
X103037502Y-41909385D01*
X103038723Y-41890692D01*
X103065052Y-41705044D01*
X103065885Y-41700432D01*
X103074795Y-41659915D01*
X103076248Y-41654491D01*
X103161084Y-41386902D01*
X103169765Y-41366230D01*
X103297157Y-41126286D01*
X103310165Y-41106579D01*
X103479457Y-40896713D01*
X103496884Y-40879061D01*
X103711300Y-40701511D01*
X103716277Y-40697793D01*
X103757313Y-40670231D01*
X103762927Y-40666876D01*
X104009123Y-40536824D01*
X104033361Y-40527129D01*
X104293231Y-40453787D01*
X104316099Y-40449597D01*
X104589935Y-40425628D01*
X104610327Y-40425527D01*
X104893472Y-40447468D01*
G37*
G36*
X76693472Y-40447468D02*
G01*
X76698541Y-40448071D01*
X76725510Y-40452414D01*
X76730333Y-40453388D01*
X76914642Y-40498298D01*
X76933313Y-40504452D01*
X77101377Y-40575057D01*
X77118842Y-40584084D01*
X77273904Y-40680531D01*
X77289261Y-40691806D01*
X77507502Y-40879476D01*
X77520552Y-40892508D01*
X77708717Y-41110674D01*
X77720054Y-41126077D01*
X77816881Y-41281445D01*
X77825981Y-41299036D01*
X77896602Y-41467278D01*
X77902784Y-41486093D01*
X77947469Y-41670662D01*
X77948442Y-41675524D01*
X77952489Y-41700995D01*
X77953075Y-41705983D01*
X77974857Y-41989856D01*
X77974768Y-42009922D01*
X77951072Y-42286620D01*
X77948015Y-42305329D01*
X77905876Y-42478683D01*
X77900424Y-42495677D01*
X77833620Y-42661723D01*
X77825784Y-42677757D01*
X77732473Y-42838279D01*
X77730091Y-42842057D01*
X77701688Y-42883701D01*
X77698002Y-42888572D01*
X77519471Y-43101791D01*
X77502052Y-43118859D01*
X77291969Y-43287608D01*
X77272554Y-43300406D01*
X77032958Y-43427871D01*
X77012585Y-43436476D01*
X76745671Y-43522072D01*
X76740329Y-43523526D01*
X76698894Y-43532837D01*
X76694245Y-43533697D01*
X76509122Y-43560693D01*
X76490281Y-43561987D01*
X76310310Y-43560611D01*
X76291491Y-43559029D01*
X76113851Y-43530345D01*
X76095431Y-43525904D01*
X75826885Y-43438977D01*
X75809299Y-43431753D01*
X75550841Y-43301593D01*
X75546684Y-43299296D01*
X75540545Y-43295590D01*
X75536358Y-43292826D01*
X75379562Y-43179931D01*
X75364319Y-43166965D01*
X75233067Y-43035662D01*
X75220107Y-43020414D01*
X75107298Y-42863609D01*
X75104561Y-42859462D01*
X75101524Y-42854437D01*
X75099212Y-42850254D01*
X74968852Y-42591346D01*
X74961653Y-42573832D01*
X74874425Y-42304846D01*
X74869993Y-42286542D01*
X74840975Y-42108489D01*
X74839367Y-42089825D01*
X74837502Y-41909385D01*
X74838723Y-41890692D01*
X74865052Y-41705044D01*
X74865885Y-41700432D01*
X74874795Y-41659915D01*
X74876248Y-41654491D01*
X74961084Y-41386902D01*
X74969765Y-41366230D01*
X75097157Y-41126286D01*
X75110165Y-41106579D01*
X75279457Y-40896713D01*
X75296884Y-40879061D01*
X75511300Y-40701511D01*
X75516277Y-40697793D01*
X75557313Y-40670231D01*
X75562927Y-40666876D01*
X75809123Y-40536824D01*
X75833361Y-40527129D01*
X76093231Y-40453787D01*
X76116099Y-40449597D01*
X76389935Y-40425628D01*
X76410327Y-40425527D01*
X76693472Y-40447468D01*
G37*
G36*
X72093472Y-40447468D02*
G01*
X72098541Y-40448071D01*
X72125510Y-40452414D01*
X72130333Y-40453388D01*
X72314642Y-40498298D01*
X72333313Y-40504452D01*
X72501377Y-40575057D01*
X72518842Y-40584084D01*
X72673904Y-40680531D01*
X72689261Y-40691806D01*
X72907502Y-40879476D01*
X72920552Y-40892508D01*
X73108717Y-41110674D01*
X73120054Y-41126077D01*
X73216881Y-41281445D01*
X73225981Y-41299036D01*
X73296602Y-41467278D01*
X73302784Y-41486093D01*
X73347469Y-41670662D01*
X73348442Y-41675524D01*
X73352489Y-41700995D01*
X73353075Y-41705983D01*
X73374857Y-41989856D01*
X73374768Y-42009922D01*
X73351072Y-42286620D01*
X73348015Y-42305329D01*
X73305876Y-42478683D01*
X73300424Y-42495677D01*
X73233620Y-42661723D01*
X73225784Y-42677757D01*
X73132473Y-42838279D01*
X73130091Y-42842057D01*
X73101688Y-42883701D01*
X73098002Y-42888572D01*
X72919471Y-43101791D01*
X72902052Y-43118859D01*
X72691969Y-43287608D01*
X72672554Y-43300406D01*
X72432958Y-43427871D01*
X72412585Y-43436476D01*
X72145671Y-43522072D01*
X72140329Y-43523526D01*
X72098894Y-43532837D01*
X72094245Y-43533697D01*
X71909122Y-43560693D01*
X71890281Y-43561987D01*
X71710310Y-43560611D01*
X71691491Y-43559029D01*
X71513851Y-43530345D01*
X71495431Y-43525904D01*
X71226885Y-43438977D01*
X71209299Y-43431753D01*
X70950841Y-43301593D01*
X70946684Y-43299296D01*
X70940545Y-43295590D01*
X70936358Y-43292826D01*
X70779562Y-43179931D01*
X70764319Y-43166965D01*
X70633067Y-43035662D01*
X70620107Y-43020414D01*
X70507298Y-42863609D01*
X70504561Y-42859462D01*
X70501524Y-42854437D01*
X70499212Y-42850254D01*
X70368852Y-42591346D01*
X70361653Y-42573832D01*
X70274425Y-42304846D01*
X70269993Y-42286542D01*
X70240975Y-42108489D01*
X70239367Y-42089825D01*
X70237502Y-41909385D01*
X70238723Y-41890692D01*
X70265052Y-41705044D01*
X70265885Y-41700432D01*
X70274795Y-41659915D01*
X70276248Y-41654491D01*
X70361084Y-41386902D01*
X70369765Y-41366230D01*
X70497157Y-41126286D01*
X70510165Y-41106579D01*
X70679457Y-40896713D01*
X70696884Y-40879061D01*
X70911300Y-40701511D01*
X70916277Y-40697793D01*
X70957313Y-40670231D01*
X70962927Y-40666876D01*
X71209123Y-40536824D01*
X71233361Y-40527129D01*
X71493231Y-40453787D01*
X71516099Y-40449597D01*
X71789935Y-40425628D01*
X71810327Y-40425527D01*
X72093472Y-40447468D01*
G37*
G36*
X85893472Y-40447468D02*
G01*
X85898541Y-40448071D01*
X85925510Y-40452414D01*
X85930333Y-40453388D01*
X86114642Y-40498298D01*
X86133313Y-40504452D01*
X86301377Y-40575057D01*
X86318842Y-40584084D01*
X86473904Y-40680531D01*
X86489261Y-40691806D01*
X86707502Y-40879476D01*
X86720552Y-40892508D01*
X86908717Y-41110674D01*
X86920054Y-41126077D01*
X87016881Y-41281445D01*
X87025981Y-41299036D01*
X87096602Y-41467278D01*
X87102784Y-41486093D01*
X87147469Y-41670662D01*
X87148442Y-41675524D01*
X87152489Y-41700995D01*
X87153075Y-41705983D01*
X87174857Y-41989856D01*
X87174768Y-42009922D01*
X87151072Y-42286620D01*
X87148015Y-42305329D01*
X87105876Y-42478683D01*
X87100424Y-42495677D01*
X87033620Y-42661723D01*
X87025784Y-42677757D01*
X86932473Y-42838279D01*
X86930091Y-42842057D01*
X86901688Y-42883701D01*
X86898002Y-42888572D01*
X86719471Y-43101791D01*
X86702052Y-43118859D01*
X86491969Y-43287608D01*
X86472554Y-43300406D01*
X86232958Y-43427871D01*
X86212585Y-43436476D01*
X85945671Y-43522072D01*
X85940329Y-43523526D01*
X85898894Y-43532837D01*
X85894245Y-43533697D01*
X85709122Y-43560693D01*
X85690281Y-43561987D01*
X85510310Y-43560611D01*
X85491491Y-43559029D01*
X85313851Y-43530345D01*
X85295431Y-43525904D01*
X85026885Y-43438977D01*
X85009299Y-43431753D01*
X84750841Y-43301593D01*
X84746684Y-43299296D01*
X84740545Y-43295590D01*
X84736358Y-43292826D01*
X84579562Y-43179931D01*
X84564319Y-43166965D01*
X84433067Y-43035662D01*
X84420107Y-43020414D01*
X84307298Y-42863609D01*
X84304561Y-42859462D01*
X84301524Y-42854437D01*
X84299212Y-42850254D01*
X84168852Y-42591346D01*
X84161653Y-42573832D01*
X84074425Y-42304846D01*
X84069993Y-42286542D01*
X84040975Y-42108489D01*
X84039367Y-42089825D01*
X84037502Y-41909385D01*
X84038723Y-41890692D01*
X84065052Y-41705044D01*
X84065885Y-41700432D01*
X84074795Y-41659915D01*
X84076248Y-41654491D01*
X84161084Y-41386902D01*
X84169765Y-41366230D01*
X84297157Y-41126286D01*
X84310165Y-41106579D01*
X84479457Y-40896713D01*
X84496884Y-40879061D01*
X84711300Y-40701511D01*
X84716277Y-40697793D01*
X84757313Y-40670231D01*
X84762927Y-40666876D01*
X85009123Y-40536824D01*
X85033361Y-40527129D01*
X85293231Y-40453787D01*
X85316099Y-40449597D01*
X85589935Y-40425628D01*
X85610327Y-40425527D01*
X85893472Y-40447468D01*
G37*
G36*
X109493472Y-40447468D02*
G01*
X109498541Y-40448071D01*
X109525510Y-40452414D01*
X109530333Y-40453388D01*
X109714642Y-40498298D01*
X109733313Y-40504452D01*
X109901377Y-40575057D01*
X109918842Y-40584084D01*
X110073904Y-40680531D01*
X110089261Y-40691806D01*
X110307502Y-40879476D01*
X110320552Y-40892508D01*
X110508717Y-41110674D01*
X110520054Y-41126077D01*
X110616881Y-41281445D01*
X110625981Y-41299036D01*
X110696602Y-41467278D01*
X110702784Y-41486093D01*
X110747469Y-41670662D01*
X110748442Y-41675524D01*
X110752489Y-41700995D01*
X110753075Y-41705983D01*
X110774857Y-41989856D01*
X110774768Y-42009922D01*
X110751072Y-42286620D01*
X110748015Y-42305329D01*
X110705876Y-42478683D01*
X110700424Y-42495677D01*
X110633620Y-42661723D01*
X110625784Y-42677757D01*
X110532473Y-42838279D01*
X110530091Y-42842057D01*
X110501688Y-42883701D01*
X110498002Y-42888572D01*
X110319471Y-43101791D01*
X110302052Y-43118859D01*
X110091969Y-43287608D01*
X110072554Y-43300406D01*
X109832958Y-43427871D01*
X109812585Y-43436476D01*
X109545671Y-43522072D01*
X109540329Y-43523526D01*
X109498894Y-43532837D01*
X109494245Y-43533697D01*
X109309122Y-43560693D01*
X109290281Y-43561987D01*
X109110310Y-43560611D01*
X109091491Y-43559029D01*
X108913851Y-43530345D01*
X108895431Y-43525904D01*
X108626885Y-43438977D01*
X108609299Y-43431753D01*
X108350841Y-43301593D01*
X108346684Y-43299296D01*
X108340545Y-43295590D01*
X108336358Y-43292826D01*
X108179562Y-43179931D01*
X108164319Y-43166965D01*
X108033067Y-43035662D01*
X108020107Y-43020414D01*
X107907298Y-42863609D01*
X107904561Y-42859462D01*
X107901524Y-42854437D01*
X107899212Y-42850254D01*
X107768852Y-42591346D01*
X107761653Y-42573832D01*
X107674425Y-42304846D01*
X107669993Y-42286542D01*
X107640975Y-42108489D01*
X107639367Y-42089825D01*
X107637502Y-41909385D01*
X107638723Y-41890692D01*
X107665052Y-41705044D01*
X107665885Y-41700432D01*
X107674795Y-41659915D01*
X107676248Y-41654491D01*
X107761084Y-41386902D01*
X107769765Y-41366230D01*
X107897157Y-41126286D01*
X107910165Y-41106579D01*
X108079457Y-40896713D01*
X108096884Y-40879061D01*
X108311300Y-40701511D01*
X108316277Y-40697793D01*
X108357313Y-40670231D01*
X108362927Y-40666876D01*
X108609123Y-40536824D01*
X108633361Y-40527129D01*
X108893231Y-40453787D01*
X108916099Y-40449597D01*
X109189935Y-40425628D01*
X109210327Y-40425527D01*
X109493472Y-40447468D01*
G37*
G36*
X95693472Y-40447468D02*
G01*
X95698541Y-40448071D01*
X95725510Y-40452414D01*
X95730333Y-40453388D01*
X95914642Y-40498298D01*
X95933313Y-40504452D01*
X96101377Y-40575057D01*
X96118842Y-40584084D01*
X96273904Y-40680531D01*
X96289261Y-40691806D01*
X96507502Y-40879476D01*
X96520552Y-40892508D01*
X96708717Y-41110674D01*
X96720054Y-41126077D01*
X96816881Y-41281445D01*
X96825981Y-41299036D01*
X96896602Y-41467278D01*
X96902784Y-41486093D01*
X96947469Y-41670662D01*
X96948442Y-41675524D01*
X96952489Y-41700995D01*
X96953075Y-41705983D01*
X96974857Y-41989856D01*
X96974768Y-42009922D01*
X96951072Y-42286620D01*
X96948015Y-42305329D01*
X96905876Y-42478683D01*
X96900424Y-42495677D01*
X96833620Y-42661723D01*
X96825784Y-42677757D01*
X96732473Y-42838279D01*
X96730091Y-42842057D01*
X96701688Y-42883701D01*
X96698002Y-42888572D01*
X96519471Y-43101791D01*
X96502052Y-43118859D01*
X96291969Y-43287608D01*
X96272554Y-43300406D01*
X96032958Y-43427871D01*
X96012585Y-43436476D01*
X95745671Y-43522072D01*
X95740329Y-43523526D01*
X95698894Y-43532837D01*
X95694245Y-43533697D01*
X95509122Y-43560693D01*
X95490281Y-43561987D01*
X95310310Y-43560611D01*
X95291491Y-43559029D01*
X95113851Y-43530345D01*
X95095431Y-43525904D01*
X94826885Y-43438977D01*
X94809299Y-43431753D01*
X94550841Y-43301593D01*
X94546684Y-43299296D01*
X94540545Y-43295590D01*
X94536358Y-43292826D01*
X94379562Y-43179931D01*
X94364319Y-43166965D01*
X94233067Y-43035662D01*
X94220107Y-43020414D01*
X94107298Y-42863609D01*
X94104561Y-42859462D01*
X94101524Y-42854437D01*
X94099212Y-42850254D01*
X93968852Y-42591346D01*
X93961653Y-42573832D01*
X93874425Y-42304846D01*
X93869993Y-42286542D01*
X93840975Y-42108489D01*
X93839367Y-42089825D01*
X93837502Y-41909385D01*
X93838723Y-41890692D01*
X93865052Y-41705044D01*
X93865885Y-41700432D01*
X93874795Y-41659915D01*
X93876248Y-41654491D01*
X93961084Y-41386902D01*
X93969765Y-41366230D01*
X94097157Y-41126286D01*
X94110165Y-41106579D01*
X94279457Y-40896713D01*
X94296884Y-40879061D01*
X94511300Y-40701511D01*
X94516277Y-40697793D01*
X94557313Y-40670231D01*
X94562927Y-40666876D01*
X94809123Y-40536824D01*
X94833361Y-40527129D01*
X95093231Y-40453787D01*
X95116099Y-40449597D01*
X95389935Y-40425628D01*
X95410327Y-40425527D01*
X95693472Y-40447468D01*
G37*
G36*
X100293472Y-40447468D02*
G01*
X100298541Y-40448071D01*
X100325510Y-40452414D01*
X100330333Y-40453388D01*
X100514642Y-40498298D01*
X100533313Y-40504452D01*
X100701377Y-40575057D01*
X100718842Y-40584084D01*
X100873904Y-40680531D01*
X100889261Y-40691806D01*
X101107502Y-40879476D01*
X101120552Y-40892508D01*
X101308717Y-41110674D01*
X101320054Y-41126077D01*
X101416881Y-41281445D01*
X101425981Y-41299036D01*
X101496602Y-41467278D01*
X101502784Y-41486093D01*
X101547469Y-41670662D01*
X101548442Y-41675524D01*
X101552489Y-41700995D01*
X101553075Y-41705983D01*
X101574857Y-41989856D01*
X101574768Y-42009922D01*
X101551072Y-42286620D01*
X101548015Y-42305329D01*
X101505876Y-42478683D01*
X101500424Y-42495677D01*
X101433620Y-42661723D01*
X101425784Y-42677757D01*
X101332473Y-42838279D01*
X101330091Y-42842057D01*
X101301688Y-42883701D01*
X101298002Y-42888572D01*
X101119471Y-43101791D01*
X101102052Y-43118859D01*
X100891969Y-43287608D01*
X100872554Y-43300406D01*
X100632958Y-43427871D01*
X100612585Y-43436476D01*
X100345671Y-43522072D01*
X100340329Y-43523526D01*
X100298894Y-43532837D01*
X100294245Y-43533697D01*
X100109122Y-43560693D01*
X100090281Y-43561987D01*
X99910310Y-43560611D01*
X99891491Y-43559029D01*
X99713851Y-43530345D01*
X99695431Y-43525904D01*
X99426885Y-43438977D01*
X99409299Y-43431753D01*
X99150841Y-43301593D01*
X99146684Y-43299296D01*
X99140545Y-43295590D01*
X99136358Y-43292826D01*
X98979562Y-43179931D01*
X98964319Y-43166965D01*
X98833067Y-43035662D01*
X98820107Y-43020414D01*
X98707298Y-42863609D01*
X98704561Y-42859462D01*
X98701524Y-42854437D01*
X98699212Y-42850254D01*
X98568852Y-42591346D01*
X98561653Y-42573832D01*
X98474425Y-42304846D01*
X98469993Y-42286542D01*
X98440975Y-42108489D01*
X98439367Y-42089825D01*
X98437502Y-41909385D01*
X98438723Y-41890692D01*
X98465052Y-41705044D01*
X98465885Y-41700432D01*
X98474795Y-41659915D01*
X98476248Y-41654491D01*
X98561084Y-41386902D01*
X98569765Y-41366230D01*
X98697157Y-41126286D01*
X98710165Y-41106579D01*
X98879457Y-40896713D01*
X98896884Y-40879061D01*
X99111300Y-40701511D01*
X99116277Y-40697793D01*
X99157313Y-40670231D01*
X99162927Y-40666876D01*
X99409123Y-40536824D01*
X99433361Y-40527129D01*
X99693231Y-40453787D01*
X99716099Y-40449597D01*
X99989935Y-40425628D01*
X100010327Y-40425527D01*
X100293472Y-40447468D01*
G37*
M02*
