%TF.GenerationSoftware,KiCad,Pcbnew,(6.0.11)*%
%TF.CreationDate,2023-07-06T13:05:13+01:00*%
%TF.ProjectId,Quango_Controls,5175616e-676f-45f4-936f-6e74726f6c73,rev?*%
%TF.SameCoordinates,Original*%
%TF.FileFunction,Soldermask,Bot*%
%TF.FilePolarity,Negative*%
%FSLAX46Y46*%
G04 Gerber Fmt 4.6, Leading zero omitted, Abs format (unit mm)*
G04 Created by KiCad (PCBNEW (6.0.11)) date 2023-07-06 13:05:13*
%MOMM*%
%LPD*%
G01*
G04 APERTURE LIST*
G04 Aperture macros list*
%AMRoundRect*
0 Rectangle with rounded corners*
0 $1 Rounding radius*
0 $2 $3 $4 $5 $6 $7 $8 $9 X,Y pos of 4 corners*
0 Add a 4 corners polygon primitive as box body*
4,1,4,$2,$3,$4,$5,$6,$7,$8,$9,$2,$3,0*
0 Add four circle primitives for the rounded corners*
1,1,$1+$1,$2,$3*
1,1,$1+$1,$4,$5*
1,1,$1+$1,$6,$7*
1,1,$1+$1,$8,$9*
0 Add four rect primitives between the rounded corners*
20,1,$1+$1,$2,$3,$4,$5,0*
20,1,$1+$1,$4,$5,$6,$7,0*
20,1,$1+$1,$6,$7,$8,$9,0*
20,1,$1+$1,$8,$9,$2,$3,0*%
%AMFreePoly0*
4,1,22,0.500000,-0.750000,0.000000,-0.750000,0.000000,-0.745033,-0.079941,-0.743568,-0.215256,-0.701293,-0.333266,-0.622738,-0.424486,-0.514219,-0.481581,-0.384460,-0.499164,-0.250000,-0.500000,-0.250000,-0.500000,0.250000,-0.499164,0.250000,-0.499963,0.256109,-0.478152,0.396186,-0.417904,0.524511,-0.324060,0.630769,-0.204165,0.706417,-0.067858,0.745374,0.000000,0.744959,0.000000,0.750000,
0.500000,0.750000,0.500000,-0.750000,0.500000,-0.750000,$1*%
%AMFreePoly1*
4,1,20,0.000000,0.744959,0.073905,0.744508,0.209726,0.703889,0.328688,0.626782,0.421226,0.519385,0.479903,0.390333,0.500000,0.250000,0.500000,-0.250000,0.499851,-0.262216,0.476331,-0.402017,0.414519,-0.529596,0.319384,-0.634700,0.198574,-0.708877,0.061801,-0.746166,0.000000,-0.745033,0.000000,-0.750000,-0.500000,-0.750000,-0.500000,0.750000,0.000000,0.750000,0.000000,0.744959,
0.000000,0.744959,$1*%
G04 Aperture macros list end*
%ADD10R,1.800000X1.800000*%
%ADD11C,1.800000*%
%ADD12RoundRect,0.650000X0.650000X-0.650000X0.650000X0.650000X-0.650000X0.650000X-0.650000X-0.650000X0*%
%ADD13O,2.100000X3.100000*%
%ADD14C,3.500000*%
%ADD15C,3.650000*%
%ADD16R,1.500000X1.500000*%
%ADD17C,1.500000*%
%ADD18R,2.775000X2.775000*%
%ADD19C,2.775000*%
%ADD20C,2.000000*%
%ADD21R,1.750000X1.750000*%
%ADD22C,1.750000*%
%ADD23C,2.700000*%
%ADD24R,1.700000X1.700000*%
%ADD25O,1.700000X1.700000*%
%ADD26O,0.600000X0.400000*%
%ADD27O,1.500000X1.000000*%
%ADD28RoundRect,0.250000X-0.450000X0.262500X-0.450000X-0.262500X0.450000X-0.262500X0.450000X0.262500X0*%
%ADD29R,0.950000X0.600000*%
%ADD30RoundRect,0.250000X0.450000X-0.262500X0.450000X0.262500X-0.450000X0.262500X-0.450000X-0.262500X0*%
%ADD31FreePoly0,0.000000*%
%ADD32FreePoly1,0.000000*%
G04 APERTURE END LIST*
D10*
%TO.C,A3*%
X81000000Y-40730000D03*
D11*
X81000000Y-43270000D03*
%TD*%
D12*
%TO.C,J9*%
X83980000Y-124300000D03*
D13*
X87080000Y-124300000D03*
D12*
X75680000Y-124300000D03*
%TD*%
D14*
%TO.C,Env1*%
X69200000Y-51400000D03*
X60400000Y-51400000D03*
D11*
X67300000Y-58400000D03*
X64800000Y-58400000D03*
X62300000Y-58400000D03*
%TD*%
D15*
%TO.C,J5*%
X56730000Y-141100000D03*
X68160000Y-141100000D03*
D16*
X58000000Y-134750000D03*
D17*
X59270000Y-132210000D03*
X60540000Y-134750000D03*
X61810000Y-132210000D03*
X63080000Y-134750000D03*
X64350000Y-132210000D03*
X65620000Y-134750000D03*
X66890000Y-132210000D03*
%TD*%
D10*
%TO.C,B1*%
X95400000Y-40730000D03*
D11*
X95400000Y-43270000D03*
%TD*%
D14*
%TO.C,Env2*%
X69200000Y-74000000D03*
X60400000Y-74000000D03*
D11*
X67300000Y-81000000D03*
X64800000Y-81000000D03*
X62300000Y-81000000D03*
%TD*%
D15*
%TO.C,J7*%
X86860000Y-141100000D03*
X75430000Y-141100000D03*
D16*
X76700000Y-134750000D03*
D17*
X77970000Y-132210000D03*
X79240000Y-134750000D03*
X80510000Y-132210000D03*
X81780000Y-134750000D03*
X83050000Y-132210000D03*
X84320000Y-134750000D03*
X85590000Y-132210000D03*
%TD*%
D18*
%TO.C,SW3*%
X90500000Y-65200000D03*
D19*
X90500000Y-60500000D03*
X90500000Y-55800000D03*
%TD*%
D10*
%TO.C,A4*%
X85600000Y-40730000D03*
D11*
X85600000Y-43270000D03*
%TD*%
D20*
%TO.C,SW1*%
X77250000Y-48250000D03*
X83750000Y-48250000D03*
X83750000Y-52750000D03*
X77250000Y-52750000D03*
%TD*%
D14*
%TO.C,Env3*%
X69200000Y-96600000D03*
X60400000Y-96600000D03*
D11*
X67300000Y-103600000D03*
X64800000Y-103600000D03*
X62300000Y-103600000D03*
%TD*%
D14*
%TO.C,Env5*%
X120600000Y-51400000D03*
X111800000Y-51400000D03*
D11*
X118700000Y-58400000D03*
X116200000Y-58400000D03*
X113700000Y-58400000D03*
%TD*%
D21*
%TO.C,Level1*%
X82300000Y-58100000D03*
D22*
X78800000Y-58100000D03*
X82300000Y-116600000D03*
D23*
X76350000Y-112450000D03*
X84750000Y-111250000D03*
X84750000Y-63450000D03*
X76350000Y-62250000D03*
%TD*%
D24*
%TO.C,J3*%
X53100000Y-52000000D03*
D25*
X53100000Y-54540000D03*
X53100000Y-57080000D03*
X53100000Y-59620000D03*
X53100000Y-62160000D03*
X53100000Y-64700000D03*
X53100000Y-67240000D03*
X53100000Y-69780000D03*
X53100000Y-72320000D03*
X53100000Y-74860000D03*
X53100000Y-77400000D03*
X53100000Y-79940000D03*
X53100000Y-82480000D03*
X53100000Y-85020000D03*
%TD*%
D10*
%TO.C,B4*%
X109200000Y-40730000D03*
D11*
X109200000Y-43270000D03*
%TD*%
D10*
%TO.C,A1*%
X71800000Y-40730000D03*
D11*
X71800000Y-43270000D03*
%TD*%
D21*
%TO.C,Level2*%
X102200000Y-58100000D03*
D22*
X98700000Y-58100000D03*
X102200000Y-116600000D03*
D23*
X96250000Y-62250000D03*
X104650000Y-63450000D03*
X104650000Y-111250000D03*
X96250000Y-112450000D03*
%TD*%
D10*
%TO.C,B2*%
X100000000Y-40730000D03*
D11*
X100000000Y-43270000D03*
%TD*%
D10*
%TO.C,A2*%
X76400000Y-40730000D03*
D11*
X76400000Y-43270000D03*
%TD*%
D14*
%TO.C,Env4*%
X60400000Y-119200000D03*
X69200000Y-119200000D03*
D11*
X67300000Y-126200000D03*
X64800000Y-126200000D03*
X62300000Y-126200000D03*
%TD*%
D15*
%TO.C,J6*%
X112830000Y-141100000D03*
X124260000Y-141100000D03*
D16*
X114100000Y-134750000D03*
D17*
X115370000Y-132210000D03*
X116640000Y-134750000D03*
X117910000Y-132210000D03*
X119180000Y-134750000D03*
X120450000Y-132210000D03*
X121720000Y-134750000D03*
X122990000Y-132210000D03*
%TD*%
D24*
%TO.C,TP1*%
X91500000Y-126600000D03*
%TD*%
D20*
%TO.C,SW2*%
X97250000Y-48250000D03*
X103750000Y-48250000D03*
X103750000Y-52750000D03*
X97250000Y-52750000D03*
%TD*%
D10*
%TO.C,B3*%
X104600000Y-40730000D03*
D11*
X104600000Y-43270000D03*
%TD*%
D14*
%TO.C,Env8*%
X120600000Y-119200000D03*
X111800000Y-119200000D03*
D11*
X118700000Y-126200000D03*
X116200000Y-126200000D03*
X113700000Y-126200000D03*
%TD*%
D15*
%TO.C,J10*%
X105560000Y-141100000D03*
X94130000Y-141100000D03*
D16*
X95400000Y-134750000D03*
D17*
X96670000Y-132210000D03*
X97940000Y-134750000D03*
X99210000Y-132210000D03*
X100480000Y-134750000D03*
X101750000Y-132210000D03*
X103020000Y-134750000D03*
X104290000Y-132210000D03*
%TD*%
D26*
%TO.C,J8*%
X96625000Y-124200000D03*
X104175000Y-124200000D03*
D27*
X96300000Y-127270000D03*
X104500000Y-127270000D03*
X96300000Y-121130000D03*
X104500000Y-121130000D03*
%TD*%
D14*
%TO.C,Env7*%
X111800000Y-96600000D03*
X120600000Y-96600000D03*
D11*
X118700000Y-103600000D03*
X116200000Y-103600000D03*
X113700000Y-103600000D03*
%TD*%
D14*
%TO.C,Env6*%
X111800000Y-74000000D03*
X120600000Y-74000000D03*
D11*
X118700000Y-81000000D03*
X116200000Y-81000000D03*
X113700000Y-81000000D03*
%TD*%
D24*
%TO.C,J2*%
X127900000Y-97800000D03*
D25*
X127900000Y-100340000D03*
X127900000Y-102880000D03*
X127900000Y-105420000D03*
X127900000Y-107960000D03*
X127900000Y-110500000D03*
X127900000Y-113040000D03*
X127900000Y-115580000D03*
X127900000Y-118120000D03*
X127900000Y-120660000D03*
X127900000Y-123200000D03*
X127900000Y-125740000D03*
X127900000Y-128280000D03*
X127900000Y-130820000D03*
X127900000Y-133360000D03*
X127900000Y-135900000D03*
%TD*%
D28*
%TO.C,R1*%
X98100000Y-123287500D03*
X98100000Y-125112500D03*
%TD*%
D24*
%TO.C,J4*%
X53100000Y-108000000D03*
D25*
X53100000Y-110540000D03*
X53100000Y-113080000D03*
X53100000Y-115620000D03*
X53100000Y-118160000D03*
X53100000Y-120700000D03*
X53100000Y-123240000D03*
X53100000Y-125780000D03*
X53100000Y-128320000D03*
X53100000Y-130860000D03*
X53100000Y-133400000D03*
X53100000Y-135940000D03*
%TD*%
D29*
%TO.C,U1*%
X89675000Y-121650000D03*
X89675000Y-120700000D03*
X89675000Y-119750000D03*
X91925000Y-119750000D03*
X91925000Y-120700000D03*
X91925000Y-121650000D03*
%TD*%
D24*
%TO.C,J1*%
X127900000Y-52000000D03*
D25*
X127900000Y-54540000D03*
X127900000Y-57080000D03*
X127900000Y-59620000D03*
X127900000Y-62160000D03*
X127900000Y-64700000D03*
X127900000Y-67240000D03*
X127900000Y-69780000D03*
X127900000Y-72320000D03*
X127900000Y-74860000D03*
X127900000Y-77400000D03*
X127900000Y-79940000D03*
%TD*%
D30*
%TO.C,R2*%
X102800000Y-125112500D03*
X102800000Y-123287500D03*
%TD*%
D31*
%TO.C,JP1*%
X90150000Y-123800000D03*
D32*
X91450000Y-123800000D03*
%TD*%
M02*
