M48
; DRILL file {KiCad (6.0.11)} date Thu Jul  6 13:05:15 2023
; FORMAT={-:-/ absolute / inch / decimal}
; #@! TF.CreationDate,2023-07-06T13:05:15+01:00
; #@! TF.GenerationSoftware,Kicad,Pcbnew,(6.0.11)
; #@! TF.FileFunction,NonPlated,1,2,NPTH
FMAT,2
INCH
; #@! TA.AperFunction,NonPlated,NPTH,ComponentDrill
T1C0.0157
; #@! TA.AperFunction,NonPlated,NPTH,ComponentDrill
T2C0.0787
; #@! TA.AperFunction,NonPlated,NPTH,ComponentDrill
T3C0.1311
%
G90
G05
T2
X2.378Y-2.0236
X2.378Y-2.9134
X2.378Y-3.8031
X2.378Y-4.6929
X2.7244Y-2.0236
X2.7244Y-2.9134
X2.7244Y-3.8031
X2.7244Y-4.6929
X4.4016Y-2.0236
X4.4016Y-2.9134
X4.4016Y-3.8031
X4.4016Y-4.6929
X4.748Y-2.0236
X4.748Y-2.9134
X4.748Y-3.8031
X4.748Y-4.6929
T3
X2.2335Y-5.5551
X2.6835Y-5.5551
X2.9697Y-5.5551
X3.4197Y-5.5551
X3.7059Y-5.5551
X4.1559Y-5.5551
X4.4421Y-5.5551
X4.8921Y-5.5551
T1
G00X3.8002Y-4.8898
M15
G01X3.8081Y-4.8898
M16
G05
G00X4.0974Y-4.8898
M15
G01X4.1053Y-4.8898
M16
G05
T0
M30
