M48
; DRILL file {KiCad (6.0.11)} date Thu Jul  6 15:41:24 2023
; FORMAT={-:-/ absolute / inch / decimal}
; #@! TF.CreationDate,2023-07-06T15:41:24+01:00
; #@! TF.GenerationSoftware,Kicad,Pcbnew,(6.0.11)
; #@! TF.FileFunction,Plated,1,2,PTH
FMAT,2
INCH
; #@! TA.AperFunction,Plated,PTH,ViaDrill
T1C0.0157
; #@! TA.AperFunction,Plated,PTH,ComponentDrill
T2C0.0236
; #@! TA.AperFunction,Plated,PTH,ComponentDrill
T3C0.0354
; #@! TA.AperFunction,Plated,PTH,ComponentDrill
T4C0.0394
; #@! TA.AperFunction,Plated,PTH,ComponentDrill
T5C0.0433
; #@! TA.AperFunction,Plated,PTH,ComponentDrill
T6C0.0472
; #@! TA.AperFunction,Plated,PTH,ComponentDrill
T7C0.0669
; #@! TA.AperFunction,Plated,PTH,ComponentDrill
T8C0.0728
%
G90
G05
T1
X2.0236Y-1.8071
X2.0512Y-5.7756
X2.0866Y-3.7992
X2.0906Y-3.5197
X2.0945Y-4.0866
X2.1024Y-1.9409
X2.1496Y-4.811
X2.1496Y-4.9016
X2.1732Y-5.1063
X2.185Y-2.2913
X2.1929Y-4.3031
X2.1969Y-2.1535
X2.1969Y-3.0945
X2.2165Y-3.3504
X2.2283Y-4.6142
X2.248Y-1.6969
X2.2835Y-2.9961
X2.2835Y-5.0866
X2.3071Y-1.815
X2.374Y-5.122
X2.3898Y-4.4094
X2.4134Y-2.4331
X2.4232Y-2.7976
X2.4882Y-4.7559
X2.4961Y-5.1181
X2.5118Y-4.3031
X2.5709Y-1.7087
X2.6102Y-1.8425
X2.6102Y-2.4252
X2.689Y-3.9291
X2.7126Y-4.1575
X2.7244Y-1.7087
X2.7244Y-4.4134
X2.7244Y-4.563
X2.7283Y-3.2717
X2.7362Y-5.1102
X2.7402Y-4.0591
X2.7441Y-4.3071
X2.752Y-2.2795
X2.8031Y-1.9173
X2.8504Y-2.1102
X2.8583Y-3.8661
X2.878Y-2.4724
X2.9764Y-4.6496
X3.0039Y-2.2874
X3.0354Y-2.937
X3.0591Y-2.6693
X3.0787Y-3.6654
X3.1102Y-4.7835
X3.1339Y-4.1811
X3.1496Y-2.4291
X3.1575Y-3.1063
X3.2913Y-2.6772
X3.3622Y-2.3425
X3.3819Y-3.9606
X3.4016Y-5.2795
X3.437Y-4.7165
X3.4646Y-3.2677
X3.5315Y-4.6378
X3.563Y-5.2283
X3.6102Y-3.0984
X3.6102Y-4.2598
X3.6457Y-5.3622
X3.6575Y-4.8346
X3.6732Y-2.9449
X3.6811Y-2.5315
X3.6811Y-3.6378
X3.7008Y-4.9114
X3.9134Y-4.8543
X3.9331Y-4.4213
X3.9606Y-4.7347
X3.962Y-5.0271
X3.9724Y-4.9213
X3.9921Y-3.2795
X4.0039Y-4.0984
X4.0157Y-2.6024
X4.1614Y-5.3386
X4.2087Y-1.7835
X4.2087Y-4.3071
X4.2134Y-2.7472
X4.2165Y-5.2008
X4.248Y-2.4764
X4.2913Y-3.0039
X4.2992Y-5.1024
X4.3858Y-4.8307
X4.4055Y-5.3189
X4.4685Y-4.5669
X4.4843Y-5.1142
X4.5551Y-4.2953
X4.6339Y-2.2047
X4.6417Y-1.7913
X4.7087Y-4.3071
X4.7126Y-4.8228
X4.7283Y-3.3661
X4.7323Y-4.5394
X4.7323Y-5.6535
X4.7362Y-3.9921
X4.7402Y-5.0906
X4.7953Y-4.9724
X4.9094Y-2.063
X4.9213Y-2.3937
X4.9213Y-2.5
X4.9213Y-2.5984
X4.9213Y-2.6969
X4.9213Y-2.8071
X4.9449Y-3.122
X5.0512Y-3.689
X5.0591Y-1.7835
X5.0748Y-5.5276
X5.0984Y-5.7913
T3
X2.2835Y-5.3051
X2.3335Y-5.2051
X2.3835Y-5.3051
X2.4335Y-5.2051
X2.4835Y-5.3051
X2.5335Y-5.2051
X2.5835Y-5.3051
X2.6335Y-5.2051
X2.8268Y-1.6035
X2.8268Y-1.7035
X3.0079Y-1.6035
X3.0079Y-1.7035
X3.0197Y-5.3051
X3.0697Y-5.2051
X3.1197Y-5.3051
X3.1697Y-5.2051
X3.189Y-1.6035
X3.189Y-1.7035
X3.2197Y-5.3051
X3.2697Y-5.2051
X3.3197Y-5.3051
X3.3697Y-5.2051
X3.3701Y-1.6035
X3.3701Y-1.7035
X3.7559Y-1.6035
X3.7559Y-1.7035
X3.7559Y-5.3051
X3.8059Y-5.2051
X3.8559Y-5.3051
X3.9059Y-5.2051
X3.937Y-1.6035
X3.937Y-1.7035
X3.9559Y-5.3051
X4.0059Y-5.2051
X4.0559Y-5.3051
X4.1059Y-5.2051
X4.1181Y-1.6035
X4.1181Y-1.7035
X4.2992Y-1.6035
X4.2992Y-1.7035
X4.4921Y-5.3051
X4.5421Y-5.2051
X4.5921Y-5.3051
X4.6421Y-5.2051
X4.6921Y-5.3051
X4.7421Y-5.2051
X4.7921Y-5.3051
X4.8421Y-5.2051
T4
X2.0906Y-2.0472
X2.0906Y-2.1472
X2.0906Y-2.2472
X2.0906Y-2.3472
X2.0906Y-2.4472
X2.0906Y-2.5472
X2.0906Y-2.6472
X2.0906Y-2.7472
X2.0906Y-2.8472
X2.0906Y-2.9472
X2.0906Y-3.0472
X2.0906Y-3.1472
X2.0906Y-3.2472
X2.0906Y-3.3472
X2.0906Y-4.252
X2.0906Y-4.352
X2.0906Y-4.452
X2.0906Y-4.552
X2.0906Y-4.652
X2.0906Y-4.752
X2.0906Y-4.852
X2.0906Y-4.952
X2.0906Y-5.052
X2.0906Y-5.152
X2.0906Y-5.252
X2.0906Y-5.352
X2.3067Y-5.7441
X2.4067Y-5.7441
X2.4528Y-2.2992
X2.4528Y-3.189
X2.4528Y-4.0787
X2.4528Y-4.9685
X2.5067Y-5.7441
X2.5512Y-2.2992
X2.5512Y-3.189
X2.5512Y-4.0787
X2.5512Y-4.9685
X2.6067Y-5.7441
X2.6496Y-2.2992
X2.6496Y-3.189
X2.6496Y-4.0787
X2.6496Y-4.9685
X3.6024Y-4.9843
X4.4764Y-2.2992
X4.4764Y-3.189
X4.4764Y-4.0787
X4.4764Y-4.9685
X4.5748Y-2.2992
X4.5748Y-3.189
X4.5748Y-4.0787
X4.5748Y-4.9685
X4.6732Y-2.2992
X4.6732Y-3.189
X4.6732Y-4.0787
X4.6732Y-4.9685
X5.0354Y-2.0472
X5.0354Y-2.1472
X5.0354Y-2.2472
X5.0354Y-2.3472
X5.0354Y-2.4472
X5.0354Y-2.5472
X5.0354Y-2.6472
X5.0354Y-2.7472
X5.0354Y-2.8472
X5.0354Y-2.9472
X5.0354Y-3.0472
X5.0354Y-3.1472
X5.0354Y-3.8504
X5.0354Y-3.9504
X5.0354Y-4.0504
X5.0354Y-4.1504
X5.0354Y-4.2504
X5.0354Y-4.3504
X5.0354Y-4.4504
X5.0354Y-4.5504
X5.0354Y-4.6504
X5.0354Y-4.7504
X5.0354Y-4.8504
X5.0354Y-4.9504
X5.0354Y-5.0504
X5.0354Y-5.1504
X5.0354Y-5.2504
X5.0354Y-5.3504
T5
X3.0413Y-1.8996
X3.0413Y-2.0768
X3.2972Y-1.8996
X3.2972Y-2.0768
X3.8287Y-1.8996
X3.8287Y-2.0768
X4.0846Y-1.8996
X4.0846Y-2.0768
T6
X3.1024Y-2.2874
X3.2402Y-2.2874
X3.2402Y-4.5906
X3.8858Y-2.2874
X4.0236Y-2.2874
X4.0236Y-4.5906
T7
X3.0059Y-2.4508
X3.0059Y-4.4272
X3.3366Y-2.498
X3.3366Y-4.3799
X3.7894Y-2.4508
X3.7894Y-4.4272
X4.1201Y-2.498
X4.1201Y-4.3799
T8
X3.563Y-2.1969
X3.563Y-2.3819
X3.563Y-2.5669
T2
G00X2.9795Y-4.9134
M15
G01X2.9795Y-4.874
M16
G05
G00X3.3063Y-4.9134
M15
G01X3.3063Y-4.874
M16
G05
G00X3.4283Y-4.9134
M15
G01X3.4283Y-4.874
M16
G05
G00X3.7815Y-4.7689
M15
G01X3.8012Y-4.7689
M16
G05
G00X3.7815Y-5.0106
M15
G01X3.8012Y-5.0106
M16
G05
G00X4.1043Y-4.7689
M15
G01X4.124Y-4.7689
M16
G05
G00X4.1043Y-5.0106
M15
G01X4.124Y-5.0106
M16
G05
T0
M30
