%TF.GenerationSoftware,KiCad,Pcbnew,(6.0.11)*%
%TF.CreationDate,2023-07-06T13:05:13+01:00*%
%TF.ProjectId,Quango_Controls,5175616e-676f-45f4-936f-6e74726f6c73,rev?*%
%TF.SameCoordinates,Original*%
%TF.FileFunction,Legend,Top*%
%TF.FilePolarity,Positive*%
%FSLAX46Y46*%
G04 Gerber Fmt 4.6, Leading zero omitted, Abs format (unit mm)*
G04 Created by KiCad (PCBNEW (6.0.11)) date 2023-07-06 13:05:13*
%MOMM*%
%LPD*%
G01*
G04 APERTURE LIST*
%ADD10C,0.150000*%
%ADD11C,0.120000*%
%ADD12C,0.200000*%
%ADD13C,3.650000*%
G04 APERTURE END LIST*
D10*
%TO.C,Env1*%
X63236190Y-60868571D02*
X63569523Y-60868571D01*
X63712380Y-61392380D02*
X63236190Y-61392380D01*
X63236190Y-60392380D01*
X63712380Y-60392380D01*
X64140952Y-60725714D02*
X64140952Y-61392380D01*
X64140952Y-60820952D02*
X64188571Y-60773333D01*
X64283809Y-60725714D01*
X64426666Y-60725714D01*
X64521904Y-60773333D01*
X64569523Y-60868571D01*
X64569523Y-61392380D01*
X64950476Y-60725714D02*
X65188571Y-61392380D01*
X65426666Y-60725714D01*
X66331428Y-61392380D02*
X65760000Y-61392380D01*
X66045714Y-61392380D02*
X66045714Y-60392380D01*
X65950476Y-60535238D01*
X65855238Y-60630476D01*
X65760000Y-60678095D01*
%TO.C,Env2*%
X63236190Y-83468571D02*
X63569523Y-83468571D01*
X63712380Y-83992380D02*
X63236190Y-83992380D01*
X63236190Y-82992380D01*
X63712380Y-82992380D01*
X64140952Y-83325714D02*
X64140952Y-83992380D01*
X64140952Y-83420952D02*
X64188571Y-83373333D01*
X64283809Y-83325714D01*
X64426666Y-83325714D01*
X64521904Y-83373333D01*
X64569523Y-83468571D01*
X64569523Y-83992380D01*
X64950476Y-83325714D02*
X65188571Y-83992380D01*
X65426666Y-83325714D01*
X65760000Y-83087619D02*
X65807619Y-83040000D01*
X65902857Y-82992380D01*
X66140952Y-82992380D01*
X66236190Y-83040000D01*
X66283809Y-83087619D01*
X66331428Y-83182857D01*
X66331428Y-83278095D01*
X66283809Y-83420952D01*
X65712380Y-83992380D01*
X66331428Y-83992380D01*
%TO.C,Env3*%
X63236190Y-106068571D02*
X63569523Y-106068571D01*
X63712380Y-106592380D02*
X63236190Y-106592380D01*
X63236190Y-105592380D01*
X63712380Y-105592380D01*
X64140952Y-105925714D02*
X64140952Y-106592380D01*
X64140952Y-106020952D02*
X64188571Y-105973333D01*
X64283809Y-105925714D01*
X64426666Y-105925714D01*
X64521904Y-105973333D01*
X64569523Y-106068571D01*
X64569523Y-106592380D01*
X64950476Y-105925714D02*
X65188571Y-106592380D01*
X65426666Y-105925714D01*
X65712380Y-105592380D02*
X66331428Y-105592380D01*
X65998095Y-105973333D01*
X66140952Y-105973333D01*
X66236190Y-106020952D01*
X66283809Y-106068571D01*
X66331428Y-106163809D01*
X66331428Y-106401904D01*
X66283809Y-106497142D01*
X66236190Y-106544761D01*
X66140952Y-106592380D01*
X65855238Y-106592380D01*
X65760000Y-106544761D01*
X65712380Y-106497142D01*
%TO.C,Env5*%
X114636190Y-60868571D02*
X114969523Y-60868571D01*
X115112380Y-61392380D02*
X114636190Y-61392380D01*
X114636190Y-60392380D01*
X115112380Y-60392380D01*
X115540952Y-60725714D02*
X115540952Y-61392380D01*
X115540952Y-60820952D02*
X115588571Y-60773333D01*
X115683809Y-60725714D01*
X115826666Y-60725714D01*
X115921904Y-60773333D01*
X115969523Y-60868571D01*
X115969523Y-61392380D01*
X116350476Y-60725714D02*
X116588571Y-61392380D01*
X116826666Y-60725714D01*
X117683809Y-60392380D02*
X117207619Y-60392380D01*
X117160000Y-60868571D01*
X117207619Y-60820952D01*
X117302857Y-60773333D01*
X117540952Y-60773333D01*
X117636190Y-60820952D01*
X117683809Y-60868571D01*
X117731428Y-60963809D01*
X117731428Y-61201904D01*
X117683809Y-61297142D01*
X117636190Y-61344761D01*
X117540952Y-61392380D01*
X117302857Y-61392380D01*
X117207619Y-61344761D01*
X117160000Y-61297142D01*
%TO.C,J3*%
X52766666Y-48682380D02*
X52766666Y-49396666D01*
X52719047Y-49539523D01*
X52623809Y-49634761D01*
X52480952Y-49682380D01*
X52385714Y-49682380D01*
X53147619Y-48682380D02*
X53766666Y-48682380D01*
X53433333Y-49063333D01*
X53576190Y-49063333D01*
X53671428Y-49110952D01*
X53719047Y-49158571D01*
X53766666Y-49253809D01*
X53766666Y-49491904D01*
X53719047Y-49587142D01*
X53671428Y-49634761D01*
X53576190Y-49682380D01*
X53290476Y-49682380D01*
X53195238Y-49634761D01*
X53147619Y-49587142D01*
%TO.C,Env4*%
X63236190Y-128668571D02*
X63569523Y-128668571D01*
X63712380Y-129192380D02*
X63236190Y-129192380D01*
X63236190Y-128192380D01*
X63712380Y-128192380D01*
X64140952Y-128525714D02*
X64140952Y-129192380D01*
X64140952Y-128620952D02*
X64188571Y-128573333D01*
X64283809Y-128525714D01*
X64426666Y-128525714D01*
X64521904Y-128573333D01*
X64569523Y-128668571D01*
X64569523Y-129192380D01*
X64950476Y-128525714D02*
X65188571Y-129192380D01*
X65426666Y-128525714D01*
X66236190Y-128525714D02*
X66236190Y-129192380D01*
X65998095Y-128144761D02*
X65760000Y-128859047D01*
X66379047Y-128859047D01*
%TO.C,Env8*%
X114636190Y-128668571D02*
X114969523Y-128668571D01*
X115112380Y-129192380D02*
X114636190Y-129192380D01*
X114636190Y-128192380D01*
X115112380Y-128192380D01*
X115540952Y-128525714D02*
X115540952Y-129192380D01*
X115540952Y-128620952D02*
X115588571Y-128573333D01*
X115683809Y-128525714D01*
X115826666Y-128525714D01*
X115921904Y-128573333D01*
X115969523Y-128668571D01*
X115969523Y-129192380D01*
X116350476Y-128525714D02*
X116588571Y-129192380D01*
X116826666Y-128525714D01*
X117350476Y-128620952D02*
X117255238Y-128573333D01*
X117207619Y-128525714D01*
X117160000Y-128430476D01*
X117160000Y-128382857D01*
X117207619Y-128287619D01*
X117255238Y-128240000D01*
X117350476Y-128192380D01*
X117540952Y-128192380D01*
X117636190Y-128240000D01*
X117683809Y-128287619D01*
X117731428Y-128382857D01*
X117731428Y-128430476D01*
X117683809Y-128525714D01*
X117636190Y-128573333D01*
X117540952Y-128620952D01*
X117350476Y-128620952D01*
X117255238Y-128668571D01*
X117207619Y-128716190D01*
X117160000Y-128811428D01*
X117160000Y-129001904D01*
X117207619Y-129097142D01*
X117255238Y-129144761D01*
X117350476Y-129192380D01*
X117540952Y-129192380D01*
X117636190Y-129144761D01*
X117683809Y-129097142D01*
X117731428Y-129001904D01*
X117731428Y-128811428D01*
X117683809Y-128716190D01*
X117636190Y-128668571D01*
X117540952Y-128620952D01*
%TO.C,Env7*%
X114636190Y-106068571D02*
X114969523Y-106068571D01*
X115112380Y-106592380D02*
X114636190Y-106592380D01*
X114636190Y-105592380D01*
X115112380Y-105592380D01*
X115540952Y-105925714D02*
X115540952Y-106592380D01*
X115540952Y-106020952D02*
X115588571Y-105973333D01*
X115683809Y-105925714D01*
X115826666Y-105925714D01*
X115921904Y-105973333D01*
X115969523Y-106068571D01*
X115969523Y-106592380D01*
X116350476Y-105925714D02*
X116588571Y-106592380D01*
X116826666Y-105925714D01*
X117112380Y-105592380D02*
X117779047Y-105592380D01*
X117350476Y-106592380D01*
%TO.C,Env6*%
X114636190Y-83468571D02*
X114969523Y-83468571D01*
X115112380Y-83992380D02*
X114636190Y-83992380D01*
X114636190Y-82992380D01*
X115112380Y-82992380D01*
X115540952Y-83325714D02*
X115540952Y-83992380D01*
X115540952Y-83420952D02*
X115588571Y-83373333D01*
X115683809Y-83325714D01*
X115826666Y-83325714D01*
X115921904Y-83373333D01*
X115969523Y-83468571D01*
X115969523Y-83992380D01*
X116350476Y-83325714D02*
X116588571Y-83992380D01*
X116826666Y-83325714D01*
X117636190Y-82992380D02*
X117445714Y-82992380D01*
X117350476Y-83040000D01*
X117302857Y-83087619D01*
X117207619Y-83230476D01*
X117160000Y-83420952D01*
X117160000Y-83801904D01*
X117207619Y-83897142D01*
X117255238Y-83944761D01*
X117350476Y-83992380D01*
X117540952Y-83992380D01*
X117636190Y-83944761D01*
X117683809Y-83897142D01*
X117731428Y-83801904D01*
X117731428Y-83563809D01*
X117683809Y-83468571D01*
X117636190Y-83420952D01*
X117540952Y-83373333D01*
X117350476Y-83373333D01*
X117255238Y-83420952D01*
X117207619Y-83468571D01*
X117160000Y-83563809D01*
D11*
%TO.C,A3*%
X79920000Y-40440000D02*
X79764000Y-40440000D01*
X82236000Y-40440000D02*
X82080000Y-40440000D01*
X82078608Y-43672335D02*
G75*
G03*
X82235516Y-40440000I-1078609J1672335D01*
G01*
X82079837Y-43041130D02*
G75*
G03*
X82080000Y-40959039I-1079837J1041130D01*
G01*
X79764484Y-40440000D02*
G75*
G03*
X79921392Y-43672335I1235517J-1560000D01*
G01*
X79920000Y-40959039D02*
G75*
G03*
X79920163Y-43041130I1080000J-1040961D01*
G01*
D12*
%TO.C,J9*%
X85100000Y-128800000D02*
X74600000Y-128800000D01*
X85100000Y-128800000D02*
X85100000Y-125800000D01*
X74600000Y-122700000D02*
X74600000Y-119800000D01*
X85100000Y-122800000D02*
X85100000Y-119800000D01*
X74600000Y-128800000D02*
X74600000Y-125900000D01*
X85100000Y-119800000D02*
X74600000Y-119800000D01*
D11*
X83126375Y-122896458D02*
G75*
G03*
X83100000Y-125750000I-2524756J-1403557D01*
G01*
X82400000Y-124300000D02*
G75*
G03*
X82400000Y-124300000I-1800000J0D01*
G01*
%TO.C,Env1*%
X68125000Y-57460000D02*
X69760000Y-57460000D01*
X59839000Y-49205000D02*
X59839000Y-45340000D01*
X59839000Y-57460000D02*
X61475000Y-57460000D01*
X59839000Y-45340000D02*
X69760000Y-45340000D01*
X63125000Y-57460000D02*
X63975000Y-57460000D01*
X69760000Y-57460000D02*
X69760000Y-53594000D01*
X65625000Y-57460000D02*
X66475000Y-57460000D01*
X69760000Y-49205000D02*
X69760000Y-45340000D01*
X59839000Y-57460000D02*
X59839000Y-53594000D01*
X62502000Y-52828000D02*
G75*
G03*
X67097753Y-52828295I2298000J1928000D01*
G01*
X67562000Y-49727000D02*
G75*
G03*
X62037568Y-49728018I-2762000J-1173000D01*
G01*
%TO.C,J5*%
X70600000Y-147720000D02*
X54250000Y-147720000D01*
X54000000Y-135250000D02*
X54500000Y-134750000D01*
X70600000Y-131080000D02*
X54250000Y-131080000D01*
X54500000Y-134750000D02*
X54000000Y-134250000D01*
X54000000Y-134250000D02*
X54000000Y-135250000D01*
X70600000Y-131080000D02*
X70600000Y-147720000D01*
X54250000Y-131080000D02*
X54250000Y-147720000D01*
%TO.C,B1*%
X94320000Y-40440000D02*
X94164000Y-40440000D01*
X96636000Y-40440000D02*
X96480000Y-40440000D01*
X96478608Y-43672335D02*
G75*
G03*
X96635516Y-40440000I-1078609J1672335D01*
G01*
X94164484Y-40440000D02*
G75*
G03*
X94321392Y-43672335I1235517J-1560000D01*
G01*
X94320000Y-40959039D02*
G75*
G03*
X94320163Y-43041130I1080000J-1040961D01*
G01*
X96479837Y-43041130D02*
G75*
G03*
X96480000Y-40959039I-1079837J1041130D01*
G01*
%TO.C,Env2*%
X59839000Y-67940000D02*
X69760000Y-67940000D01*
X63125000Y-80060000D02*
X63975000Y-80060000D01*
X68125000Y-80060000D02*
X69760000Y-80060000D01*
X69760000Y-71805000D02*
X69760000Y-67940000D01*
X59839000Y-80060000D02*
X59839000Y-76194000D01*
X69760000Y-80060000D02*
X69760000Y-76194000D01*
X65625000Y-80060000D02*
X66475000Y-80060000D01*
X59839000Y-80060000D02*
X61475000Y-80060000D01*
X59839000Y-71805000D02*
X59839000Y-67940000D01*
X62502000Y-75428000D02*
G75*
G03*
X67097753Y-75428295I2298000J1928000D01*
G01*
X67562000Y-72327000D02*
G75*
G03*
X62037568Y-72328018I-2762000J-1173000D01*
G01*
%TO.C,J7*%
X73200000Y-134750000D02*
X72700000Y-134250000D01*
X72700000Y-135250000D02*
X73200000Y-134750000D01*
X89300000Y-131080000D02*
X72950000Y-131080000D01*
X72700000Y-134250000D02*
X72700000Y-135250000D01*
X89300000Y-147720000D02*
X72950000Y-147720000D01*
X72950000Y-131080000D02*
X72950000Y-147720000D01*
X89300000Y-131080000D02*
X89300000Y-147720000D01*
%TO.C,SW3*%
X87070000Y-66900000D02*
X93930000Y-66900000D01*
X93930000Y-66900000D02*
X93930000Y-54100000D01*
X93930000Y-54100000D02*
X87070000Y-54100000D01*
X87070000Y-54100000D02*
X87070000Y-66900000D01*
%TO.C,A4*%
X86836000Y-40440000D02*
X86680000Y-40440000D01*
X84520000Y-40440000D02*
X84364000Y-40440000D01*
X86678608Y-43672335D02*
G75*
G03*
X86835516Y-40440000I-1078609J1672335D01*
G01*
X84520000Y-40959039D02*
G75*
G03*
X84520163Y-43041130I1080000J-1040961D01*
G01*
X86679837Y-43041130D02*
G75*
G03*
X86680000Y-40959039I-1079837J1041130D01*
G01*
X84364484Y-40440000D02*
G75*
G03*
X84521392Y-43672335I1235517J-1560000D01*
G01*
%TO.C,SW1*%
X82750000Y-47250000D02*
X78250000Y-47250000D01*
X84000000Y-51250000D02*
X84000000Y-49750000D01*
X77000000Y-49750000D02*
X77000000Y-51250000D01*
X78250000Y-53750000D02*
X82750000Y-53750000D01*
%TO.C,Env3*%
X59839000Y-102660000D02*
X61475000Y-102660000D01*
X68125000Y-102660000D02*
X69760000Y-102660000D01*
X59839000Y-102660000D02*
X59839000Y-98794000D01*
X69760000Y-94405000D02*
X69760000Y-90540000D01*
X59839000Y-90540000D02*
X69760000Y-90540000D01*
X63125000Y-102660000D02*
X63975000Y-102660000D01*
X69760000Y-102660000D02*
X69760000Y-98794000D01*
X59839000Y-94405000D02*
X59839000Y-90540000D01*
X65625000Y-102660000D02*
X66475000Y-102660000D01*
X62502000Y-98028000D02*
G75*
G03*
X67097753Y-98028295I2298000J1928000D01*
G01*
X67562000Y-94927000D02*
G75*
G03*
X62037568Y-94928018I-2762000J-1173000D01*
G01*
%TO.C,Env5*%
X117025000Y-57460000D02*
X117875000Y-57460000D01*
X119525000Y-57460000D02*
X121160000Y-57460000D01*
X114525000Y-57460000D02*
X115375000Y-57460000D01*
X111239000Y-57460000D02*
X112875000Y-57460000D01*
X121160000Y-57460000D02*
X121160000Y-53594000D01*
X111239000Y-49205000D02*
X111239000Y-45340000D01*
X111239000Y-45340000D02*
X121160000Y-45340000D01*
X121160000Y-49205000D02*
X121160000Y-45340000D01*
X111239000Y-57460000D02*
X111239000Y-53594000D01*
X118962000Y-49727000D02*
G75*
G03*
X113437568Y-49728018I-2762000J-1173000D01*
G01*
X113902000Y-52828000D02*
G75*
G03*
X118497753Y-52828295I2298000J1928000D01*
G01*
%TO.C,Level1*%
X75930000Y-114086000D02*
X75930000Y-117470000D01*
X81125000Y-57230000D02*
X79622000Y-57230000D01*
X81477000Y-117470000D02*
X75930000Y-117470000D01*
X85170000Y-117470000D02*
X83123000Y-117470000D01*
X80550000Y-109850000D02*
X79800000Y-109100000D01*
X82800000Y-56425000D02*
X81800000Y-56425000D01*
X85170000Y-65086000D02*
X85170000Y-109615000D01*
X82050000Y-64850000D02*
X79050000Y-64850000D01*
X81300000Y-109100000D02*
X80550000Y-109850000D01*
X81800000Y-56425000D02*
X82300000Y-56925000D01*
X77977000Y-57230000D02*
X75930000Y-57230000D01*
X85170000Y-57230000D02*
X83475000Y-57230000D01*
X85170000Y-112886000D02*
X85170000Y-117470000D01*
X75930000Y-63886000D02*
X75930000Y-110815000D01*
X75930000Y-57230000D02*
X75930000Y-60615000D01*
X80550000Y-64850000D02*
X80550000Y-109850000D01*
X80550000Y-64850000D02*
X79800000Y-65600000D01*
X82050000Y-109850000D02*
X79050000Y-109850000D01*
X85170000Y-57230000D02*
X85170000Y-61815000D01*
X81300000Y-65600000D02*
X80550000Y-64850000D01*
X82300000Y-56925000D02*
X82800000Y-56425000D01*
%TO.C,J3*%
X51770000Y-53270000D02*
X54430000Y-53270000D01*
X54430000Y-50670000D02*
X54430000Y-52000000D01*
X53100000Y-50670000D02*
X54430000Y-50670000D01*
X51770000Y-53270000D02*
X51770000Y-86350000D01*
X54430000Y-53270000D02*
X54430000Y-86350000D01*
X51770000Y-86350000D02*
X54430000Y-86350000D01*
%TO.C,B4*%
X108120000Y-40440000D02*
X107964000Y-40440000D01*
X110436000Y-40440000D02*
X110280000Y-40440000D01*
X108120000Y-40959039D02*
G75*
G03*
X108120163Y-43041130I1080000J-1040961D01*
G01*
X110279837Y-43041130D02*
G75*
G03*
X110280000Y-40959039I-1079837J1041130D01*
G01*
X107964484Y-40440000D02*
G75*
G03*
X108121392Y-43672335I1235517J-1560000D01*
G01*
X110278608Y-43672335D02*
G75*
G03*
X110435516Y-40440000I-1078609J1672335D01*
G01*
%TO.C,A1*%
X70720000Y-40440000D02*
X70564000Y-40440000D01*
X73036000Y-40440000D02*
X72880000Y-40440000D01*
X72878608Y-43672335D02*
G75*
G03*
X73035516Y-40440000I-1078609J1672335D01*
G01*
X70564484Y-40440000D02*
G75*
G03*
X70721392Y-43672335I1235517J-1560000D01*
G01*
X72879837Y-43041130D02*
G75*
G03*
X72880000Y-40959039I-1079837J1041130D01*
G01*
X70720000Y-40959039D02*
G75*
G03*
X70720163Y-43041130I1080000J-1040961D01*
G01*
%TO.C,Level2*%
X105070000Y-117470000D02*
X103023000Y-117470000D01*
X101025000Y-57230000D02*
X99522000Y-57230000D01*
X102200000Y-56925000D02*
X102700000Y-56425000D01*
X105070000Y-112886000D02*
X105070000Y-117470000D01*
X105070000Y-65086000D02*
X105070000Y-109615000D01*
X105070000Y-57230000D02*
X103375000Y-57230000D01*
X100450000Y-64850000D02*
X100450000Y-109850000D01*
X101950000Y-64850000D02*
X98950000Y-64850000D01*
X101377000Y-117470000D02*
X95830000Y-117470000D01*
X101200000Y-109100000D02*
X100450000Y-109850000D01*
X101950000Y-109850000D02*
X98950000Y-109850000D01*
X95830000Y-57230000D02*
X95830000Y-60615000D01*
X105070000Y-57230000D02*
X105070000Y-61815000D01*
X102700000Y-56425000D02*
X101700000Y-56425000D01*
X101700000Y-56425000D02*
X102200000Y-56925000D01*
X100450000Y-109850000D02*
X99700000Y-109100000D01*
X95830000Y-114086000D02*
X95830000Y-117470000D01*
X101200000Y-65600000D02*
X100450000Y-64850000D01*
X100450000Y-64850000D02*
X99700000Y-65600000D01*
X95830000Y-63886000D02*
X95830000Y-110815000D01*
X97877000Y-57230000D02*
X95830000Y-57230000D01*
%TO.C,B2*%
X101236000Y-40440000D02*
X101080000Y-40440000D01*
X98920000Y-40440000D02*
X98764000Y-40440000D01*
X101078608Y-43672335D02*
G75*
G03*
X101235516Y-40440000I-1078609J1672335D01*
G01*
X98764484Y-40440000D02*
G75*
G03*
X98921392Y-43672335I1235517J-1560000D01*
G01*
X98920000Y-40959039D02*
G75*
G03*
X98920163Y-43041130I1080000J-1040961D01*
G01*
X101079837Y-43041130D02*
G75*
G03*
X101080000Y-40959039I-1079837J1041130D01*
G01*
%TO.C,A2*%
X75320000Y-40440000D02*
X75164000Y-40440000D01*
X77636000Y-40440000D02*
X77480000Y-40440000D01*
X75320000Y-40959039D02*
G75*
G03*
X75320163Y-43041130I1080000J-1040961D01*
G01*
X77478608Y-43672335D02*
G75*
G03*
X77635516Y-40440000I-1078609J1672335D01*
G01*
X77479837Y-43041130D02*
G75*
G03*
X77480000Y-40959039I-1079837J1041130D01*
G01*
X75164484Y-40440000D02*
G75*
G03*
X75321392Y-43672335I1235517J-1560000D01*
G01*
%TO.C,Env4*%
X59839000Y-125260000D02*
X59839000Y-121394000D01*
X65625000Y-125260000D02*
X66475000Y-125260000D01*
X68125000Y-125260000D02*
X69760000Y-125260000D01*
X59839000Y-117005000D02*
X59839000Y-113140000D01*
X63125000Y-125260000D02*
X63975000Y-125260000D01*
X59839000Y-125260000D02*
X61475000Y-125260000D01*
X69760000Y-125260000D02*
X69760000Y-121394000D01*
X69760000Y-117005000D02*
X69760000Y-113140000D01*
X59839000Y-113140000D02*
X69760000Y-113140000D01*
X67562000Y-117527000D02*
G75*
G03*
X62037568Y-117528018I-2762000J-1173000D01*
G01*
X62502000Y-120628000D02*
G75*
G03*
X67097753Y-120628295I2298000J1928000D01*
G01*
%TO.C,J6*%
X110100000Y-135250000D02*
X110600000Y-134750000D01*
X126700000Y-131080000D02*
X126700000Y-147720000D01*
X126700000Y-147720000D02*
X110350000Y-147720000D01*
X110600000Y-134750000D02*
X110100000Y-134250000D01*
X110100000Y-134250000D02*
X110100000Y-135250000D01*
X110350000Y-131080000D02*
X110350000Y-147720000D01*
X126700000Y-131080000D02*
X110350000Y-131080000D01*
%TO.C,TP1*%
X90170000Y-127810000D02*
X90170000Y-127930000D01*
X92830000Y-125270000D02*
X92830000Y-126600000D01*
X91500000Y-125270000D02*
X92830000Y-125270000D01*
X90170000Y-127930000D02*
X92830000Y-127930000D01*
X92830000Y-127810000D02*
X92830000Y-127930000D01*
%TO.C,SW2*%
X102750000Y-47250000D02*
X98250000Y-47250000D01*
X104000000Y-51250000D02*
X104000000Y-49750000D01*
X97000000Y-49750000D02*
X97000000Y-51250000D01*
X98250000Y-53750000D02*
X102750000Y-53750000D01*
%TO.C,B3*%
X103520000Y-40440000D02*
X103364000Y-40440000D01*
X105836000Y-40440000D02*
X105680000Y-40440000D01*
X105679837Y-43041130D02*
G75*
G03*
X105680000Y-40959039I-1079837J1041130D01*
G01*
X103364484Y-40440000D02*
G75*
G03*
X103521392Y-43672335I1235517J-1560000D01*
G01*
X105678608Y-43672335D02*
G75*
G03*
X105835516Y-40440000I-1078609J1672335D01*
G01*
X103520000Y-40959039D02*
G75*
G03*
X103520163Y-43041130I1080000J-1040961D01*
G01*
%TO.C,Env8*%
X111239000Y-125260000D02*
X112875000Y-125260000D01*
X111239000Y-125260000D02*
X111239000Y-121394000D01*
X121160000Y-125260000D02*
X121160000Y-121394000D01*
X111239000Y-113140000D02*
X121160000Y-113140000D01*
X114525000Y-125260000D02*
X115375000Y-125260000D01*
X111239000Y-117005000D02*
X111239000Y-113140000D01*
X119525000Y-125260000D02*
X121160000Y-125260000D01*
X121160000Y-117005000D02*
X121160000Y-113140000D01*
X117025000Y-125260000D02*
X117875000Y-125260000D01*
X113902000Y-120628000D02*
G75*
G03*
X118497753Y-120628295I2298000J1928000D01*
G01*
X118962000Y-117527000D02*
G75*
G03*
X113437568Y-117528018I-2762000J-1173000D01*
G01*
%TO.C,J10*%
X91650000Y-131080000D02*
X91650000Y-147720000D01*
X108000000Y-131080000D02*
X108000000Y-147720000D01*
X108000000Y-147720000D02*
X91650000Y-147720000D01*
X91400000Y-134250000D02*
X91400000Y-135250000D01*
X108000000Y-131080000D02*
X91650000Y-131080000D01*
X91400000Y-135250000D02*
X91900000Y-134750000D01*
X91900000Y-134750000D02*
X91400000Y-134250000D01*
%TO.C,J8*%
X94700000Y-120500000D02*
X95600000Y-120500000D01*
X94700000Y-120500000D02*
X94700000Y-127900000D01*
X105200000Y-127900000D02*
X106100000Y-127900000D01*
X106100000Y-120500000D02*
X106100000Y-127900000D01*
X105200000Y-120500000D02*
X106100000Y-120500000D01*
X94700000Y-127900000D02*
X95600000Y-127900000D01*
X97761803Y-120550000D02*
G75*
G03*
X97761803Y-120550000I-111803J0D01*
G01*
%TO.C,Env7*%
X121160000Y-102660000D02*
X121160000Y-98794000D01*
X111239000Y-102660000D02*
X112875000Y-102660000D01*
X121160000Y-94405000D02*
X121160000Y-90540000D01*
X114525000Y-102660000D02*
X115375000Y-102660000D01*
X119525000Y-102660000D02*
X121160000Y-102660000D01*
X111239000Y-90540000D02*
X121160000Y-90540000D01*
X111239000Y-102660000D02*
X111239000Y-98794000D01*
X117025000Y-102660000D02*
X117875000Y-102660000D01*
X111239000Y-94405000D02*
X111239000Y-90540000D01*
X113902000Y-98028000D02*
G75*
G03*
X118497753Y-98028295I2298000J1928000D01*
G01*
X118962000Y-94927000D02*
G75*
G03*
X113437568Y-94928018I-2762000J-1173000D01*
G01*
%TO.C,Env6*%
X111239000Y-80060000D02*
X111239000Y-76194000D01*
X111239000Y-71805000D02*
X111239000Y-67940000D01*
X119525000Y-80060000D02*
X121160000Y-80060000D01*
X121160000Y-80060000D02*
X121160000Y-76194000D01*
X111239000Y-67940000D02*
X121160000Y-67940000D01*
X114525000Y-80060000D02*
X115375000Y-80060000D01*
X111239000Y-80060000D02*
X112875000Y-80060000D01*
X121160000Y-71805000D02*
X121160000Y-67940000D01*
X117025000Y-80060000D02*
X117875000Y-80060000D01*
X113902000Y-75428000D02*
G75*
G03*
X118497753Y-75428295I2298000J1928000D01*
G01*
X118962000Y-72327000D02*
G75*
G03*
X113437568Y-72328018I-2762000J-1173000D01*
G01*
%TD*%
D13*
%TO.C,J5*%
X56730000Y-141100000D03*
X68160000Y-141100000D03*
%TD*%
%TO.C,J7*%
X86860000Y-141100000D03*
X75430000Y-141100000D03*
%TD*%
%TO.C,J6*%
X112830000Y-141100000D03*
X124260000Y-141100000D03*
%TD*%
%TO.C,J10*%
X105560000Y-141100000D03*
X94130000Y-141100000D03*
%TD*%
M02*
