%TF.GenerationSoftware,KiCad,Pcbnew,7.0.5*%
%TF.CreationDate,2023-07-06T16:17:21+01:00*%
%TF.ProjectId,QuangoBreakout_Panel,5175616e-676f-4427-9265-616b6f75745f,rev?*%
%TF.SameCoordinates,Original*%
%TF.FileFunction,Soldermask,Top*%
%TF.FilePolarity,Negative*%
%FSLAX46Y46*%
G04 Gerber Fmt 4.6, Leading zero omitted, Abs format (unit mm)*
G04 Created by KiCad (PCBNEW 7.0.5) date 2023-07-06 16:17:21*
%MOMM*%
%LPD*%
G01*
G04 APERTURE LIST*
%ADD10C,0.200000*%
%ADD11C,6.000000*%
%ADD12O,5.000000X3.200000*%
%ADD13C,3.200000*%
G04 APERTURE END LIST*
D10*
X53019047Y-49567219D02*
X53019047Y-48567219D01*
X53019047Y-48567219D02*
X53352380Y-49281504D01*
X53352380Y-49281504D02*
X53685713Y-48567219D01*
X53685713Y-48567219D02*
X53685713Y-49567219D01*
X54304761Y-49567219D02*
X54209523Y-49519600D01*
X54209523Y-49519600D02*
X54161904Y-49471980D01*
X54161904Y-49471980D02*
X54114285Y-49376742D01*
X54114285Y-49376742D02*
X54114285Y-49091028D01*
X54114285Y-49091028D02*
X54161904Y-48995790D01*
X54161904Y-48995790D02*
X54209523Y-48948171D01*
X54209523Y-48948171D02*
X54304761Y-48900552D01*
X54304761Y-48900552D02*
X54447618Y-48900552D01*
X54447618Y-48900552D02*
X54542856Y-48948171D01*
X54542856Y-48948171D02*
X54590475Y-48995790D01*
X54590475Y-48995790D02*
X54638094Y-49091028D01*
X54638094Y-49091028D02*
X54638094Y-49376742D01*
X54638094Y-49376742D02*
X54590475Y-49471980D01*
X54590475Y-49471980D02*
X54542856Y-49519600D01*
X54542856Y-49519600D02*
X54447618Y-49567219D01*
X54447618Y-49567219D02*
X54304761Y-49567219D01*
X55495237Y-48900552D02*
X55495237Y-49567219D01*
X55066666Y-48900552D02*
X55066666Y-49424361D01*
X55066666Y-49424361D02*
X55114285Y-49519600D01*
X55114285Y-49519600D02*
X55209523Y-49567219D01*
X55209523Y-49567219D02*
X55352380Y-49567219D01*
X55352380Y-49567219D02*
X55447618Y-49519600D01*
X55447618Y-49519600D02*
X55495237Y-49471980D01*
X55971428Y-48900552D02*
X55971428Y-49567219D01*
X55971428Y-48995790D02*
X56019047Y-48948171D01*
X56019047Y-48948171D02*
X56114285Y-48900552D01*
X56114285Y-48900552D02*
X56257142Y-48900552D01*
X56257142Y-48900552D02*
X56352380Y-48948171D01*
X56352380Y-48948171D02*
X56399999Y-49043409D01*
X56399999Y-49043409D02*
X56399999Y-49567219D01*
X56733333Y-48900552D02*
X57114285Y-48900552D01*
X56876190Y-48567219D02*
X56876190Y-49424361D01*
X56876190Y-49424361D02*
X56923809Y-49519600D01*
X56923809Y-49519600D02*
X57019047Y-49567219D01*
X57019047Y-49567219D02*
X57114285Y-49567219D01*
X57447619Y-48900552D02*
X57447619Y-49757695D01*
X57447619Y-49757695D02*
X57400000Y-49852933D01*
X57400000Y-49852933D02*
X57304762Y-49900552D01*
X57304762Y-49900552D02*
X57257143Y-49900552D01*
X57447619Y-48567219D02*
X57400000Y-48614838D01*
X57400000Y-48614838D02*
X57447619Y-48662457D01*
X57447619Y-48662457D02*
X57495238Y-48614838D01*
X57495238Y-48614838D02*
X57447619Y-48567219D01*
X57447619Y-48567219D02*
X57447619Y-48662457D01*
X58066666Y-49567219D02*
X57971428Y-49519600D01*
X57971428Y-49519600D02*
X57923809Y-49471980D01*
X57923809Y-49471980D02*
X57876190Y-49376742D01*
X57876190Y-49376742D02*
X57876190Y-49091028D01*
X57876190Y-49091028D02*
X57923809Y-48995790D01*
X57923809Y-48995790D02*
X57971428Y-48948171D01*
X57971428Y-48948171D02*
X58066666Y-48900552D01*
X58066666Y-48900552D02*
X58209523Y-48900552D01*
X58209523Y-48900552D02*
X58304761Y-48948171D01*
X58304761Y-48948171D02*
X58352380Y-48995790D01*
X58352380Y-48995790D02*
X58399999Y-49091028D01*
X58399999Y-49091028D02*
X58399999Y-49376742D01*
X58399999Y-49376742D02*
X58352380Y-49471980D01*
X58352380Y-49471980D02*
X58304761Y-49519600D01*
X58304761Y-49519600D02*
X58209523Y-49567219D01*
X58209523Y-49567219D02*
X58066666Y-49567219D01*
X58733333Y-48900552D02*
X58971428Y-49567219D01*
X59209523Y-48900552D02*
X58971428Y-49567219D01*
X58971428Y-49567219D02*
X58876190Y-49805314D01*
X58876190Y-49805314D02*
X58828571Y-49852933D01*
X58828571Y-49852933D02*
X58733333Y-49900552D01*
X60352381Y-49567219D02*
X60352381Y-48567219D01*
X60352381Y-48567219D02*
X60685714Y-49281504D01*
X60685714Y-49281504D02*
X61019047Y-48567219D01*
X61019047Y-48567219D02*
X61019047Y-49567219D01*
X61638095Y-49567219D02*
X61542857Y-49519600D01*
X61542857Y-49519600D02*
X61495238Y-49471980D01*
X61495238Y-49471980D02*
X61447619Y-49376742D01*
X61447619Y-49376742D02*
X61447619Y-49091028D01*
X61447619Y-49091028D02*
X61495238Y-48995790D01*
X61495238Y-48995790D02*
X61542857Y-48948171D01*
X61542857Y-48948171D02*
X61638095Y-48900552D01*
X61638095Y-48900552D02*
X61780952Y-48900552D01*
X61780952Y-48900552D02*
X61876190Y-48948171D01*
X61876190Y-48948171D02*
X61923809Y-48995790D01*
X61923809Y-48995790D02*
X61971428Y-49091028D01*
X61971428Y-49091028D02*
X61971428Y-49376742D01*
X61971428Y-49376742D02*
X61923809Y-49471980D01*
X61923809Y-49471980D02*
X61876190Y-49519600D01*
X61876190Y-49519600D02*
X61780952Y-49567219D01*
X61780952Y-49567219D02*
X61638095Y-49567219D01*
X62828571Y-49567219D02*
X62828571Y-48567219D01*
X62828571Y-49519600D02*
X62733333Y-49567219D01*
X62733333Y-49567219D02*
X62542857Y-49567219D01*
X62542857Y-49567219D02*
X62447619Y-49519600D01*
X62447619Y-49519600D02*
X62400000Y-49471980D01*
X62400000Y-49471980D02*
X62352381Y-49376742D01*
X62352381Y-49376742D02*
X62352381Y-49091028D01*
X62352381Y-49091028D02*
X62400000Y-48995790D01*
X62400000Y-48995790D02*
X62447619Y-48948171D01*
X62447619Y-48948171D02*
X62542857Y-48900552D01*
X62542857Y-48900552D02*
X62733333Y-48900552D01*
X62733333Y-48900552D02*
X62828571Y-48948171D01*
X63733333Y-48900552D02*
X63733333Y-49567219D01*
X63304762Y-48900552D02*
X63304762Y-49424361D01*
X63304762Y-49424361D02*
X63352381Y-49519600D01*
X63352381Y-49519600D02*
X63447619Y-49567219D01*
X63447619Y-49567219D02*
X63590476Y-49567219D01*
X63590476Y-49567219D02*
X63685714Y-49519600D01*
X63685714Y-49519600D02*
X63733333Y-49471980D01*
X64352381Y-49567219D02*
X64257143Y-49519600D01*
X64257143Y-49519600D02*
X64209524Y-49424361D01*
X64209524Y-49424361D02*
X64209524Y-48567219D01*
X65161905Y-49567219D02*
X65161905Y-49043409D01*
X65161905Y-49043409D02*
X65114286Y-48948171D01*
X65114286Y-48948171D02*
X65019048Y-48900552D01*
X65019048Y-48900552D02*
X64828572Y-48900552D01*
X64828572Y-48900552D02*
X64733334Y-48948171D01*
X65161905Y-49519600D02*
X65066667Y-49567219D01*
X65066667Y-49567219D02*
X64828572Y-49567219D01*
X64828572Y-49567219D02*
X64733334Y-49519600D01*
X64733334Y-49519600D02*
X64685715Y-49424361D01*
X64685715Y-49424361D02*
X64685715Y-49329123D01*
X64685715Y-49329123D02*
X64733334Y-49233885D01*
X64733334Y-49233885D02*
X64828572Y-49186266D01*
X64828572Y-49186266D02*
X65066667Y-49186266D01*
X65066667Y-49186266D02*
X65161905Y-49138647D01*
X65638096Y-49567219D02*
X65638096Y-48900552D01*
X65638096Y-49091028D02*
X65685715Y-48995790D01*
X65685715Y-48995790D02*
X65733334Y-48948171D01*
X65733334Y-48948171D02*
X65828572Y-48900552D01*
X65828572Y-48900552D02*
X65923810Y-48900552D01*
G36*
X64134982Y-162100000D02*
G01*
X63060939Y-163711064D01*
X61870314Y-163711064D01*
X59877878Y-163711064D01*
X59067230Y-163711064D01*
X56929686Y-163711064D01*
X55739061Y-163711064D01*
X54665018Y-162100000D01*
X55342186Y-161084248D01*
X56929686Y-161084248D01*
X56929686Y-163115752D01*
X57348265Y-163115752D01*
X57348265Y-162560437D01*
X57306407Y-161603286D01*
X57853350Y-163115752D01*
X58140775Y-163115752D01*
X58689113Y-161601891D01*
X58647255Y-162560437D01*
X58647255Y-163115752D01*
X59067230Y-163115752D01*
X59067230Y-161084248D01*
X59459299Y-161084248D01*
X59459299Y-163115752D01*
X59877878Y-163115752D01*
X60115073Y-163115752D01*
X60602020Y-163115752D01*
X60992693Y-162404167D01*
X61383367Y-163115752D01*
X61870314Y-163115752D01*
X61263375Y-162091628D01*
X61854966Y-161084248D01*
X61373600Y-161084248D01*
X60992693Y-161784670D01*
X60611786Y-161084248D01*
X60130421Y-161084248D01*
X60722012Y-162091628D01*
X60115073Y-163115752D01*
X59877878Y-163115752D01*
X59877878Y-161084248D01*
X59459299Y-161084248D01*
X59067230Y-161084248D01*
X58517496Y-161084248D01*
X57998458Y-162557646D01*
X57476629Y-161084248D01*
X56929686Y-161084248D01*
X55342186Y-161084248D01*
X55739061Y-160488936D01*
X56929686Y-160488936D01*
X61870314Y-160488936D01*
X63060939Y-160488936D01*
X64134982Y-162100000D01*
G37*
G36*
X53244357Y-67286804D02*
G01*
X52680050Y-67286804D01*
X52960653Y-66441895D01*
X53244357Y-67286804D01*
G37*
G36*
X54682512Y-68790072D02*
G01*
X54021053Y-68790072D01*
X52399447Y-68790072D01*
X51904904Y-68790072D01*
X51243445Y-68790072D01*
X51243445Y-68128613D01*
X51904904Y-68128613D01*
X52399447Y-68128613D01*
X52554476Y-67663525D01*
X53369930Y-67663525D01*
X53526510Y-68128613D01*
X54021053Y-68128613D01*
X53176144Y-65871387D01*
X52745162Y-65871387D01*
X51904904Y-68128613D01*
X51243445Y-68128613D01*
X51243445Y-65209928D01*
X51904904Y-65209928D01*
X54021053Y-65209928D01*
X54682512Y-65209928D01*
X55756555Y-65209928D01*
X54682512Y-68790072D01*
G37*
G36*
X66268015Y-68282762D02*
G01*
X66374985Y-68387665D01*
X66410642Y-68560437D01*
X66318400Y-68776703D01*
X66208135Y-68835420D01*
X66061826Y-68854993D01*
X65663401Y-68854993D01*
X65663401Y-68245728D01*
X66089731Y-68245728D01*
X66268015Y-68282762D01*
G37*
G36*
X66155425Y-67364967D02*
G01*
X66270341Y-67415546D01*
X66337197Y-67504494D01*
X66359482Y-67636462D01*
X66320381Y-67789597D01*
X66203075Y-67883131D01*
X66007566Y-67917065D01*
X65663401Y-67917065D01*
X65663401Y-67348108D01*
X65988962Y-67348108D01*
X66155425Y-67364967D01*
G37*
G36*
X67537188Y-69890072D02*
G01*
X66875730Y-69890072D01*
X65198313Y-69890072D01*
X64536855Y-69890072D01*
X63462812Y-69890072D01*
X64338417Y-66971387D01*
X65198313Y-66971387D01*
X65198313Y-69228613D01*
X66075779Y-69228613D01*
X66312457Y-69208287D01*
X66509861Y-69151443D01*
X66667991Y-69058081D01*
X66783401Y-68928890D01*
X66852648Y-68764559D01*
X66875730Y-68565088D01*
X66850732Y-68389130D01*
X66775736Y-68242627D01*
X66657332Y-68132944D01*
X66502109Y-68067444D01*
X66637372Y-67991673D01*
X66739304Y-67882184D01*
X66803254Y-67745952D01*
X66824570Y-67589954D01*
X66800971Y-67403660D01*
X66730175Y-67249923D01*
X66612180Y-67128741D01*
X66448538Y-67041322D01*
X66240799Y-66988871D01*
X65988962Y-66971387D01*
X65198313Y-66971387D01*
X64338417Y-66971387D01*
X64536855Y-66309928D01*
X65198313Y-66309928D01*
X66875730Y-66309928D01*
X67537188Y-66309928D01*
X67537188Y-69890072D01*
G37*
G36*
X66268015Y-114182762D02*
G01*
X66374985Y-114287665D01*
X66410642Y-114460437D01*
X66318400Y-114676703D01*
X66208135Y-114735420D01*
X66061826Y-114754993D01*
X65663401Y-114754993D01*
X65663401Y-114145728D01*
X66089731Y-114145728D01*
X66268015Y-114182762D01*
G37*
G36*
X66155425Y-113264967D02*
G01*
X66270341Y-113315546D01*
X66337197Y-113404494D01*
X66359482Y-113536462D01*
X66320381Y-113689597D01*
X66203075Y-113783131D01*
X66007566Y-113817065D01*
X65663401Y-113817065D01*
X65663401Y-113248108D01*
X65988962Y-113248108D01*
X66155425Y-113264967D01*
G37*
G36*
X67537188Y-115790072D02*
G01*
X66875730Y-115790072D01*
X65198313Y-115790072D01*
X64536855Y-115790072D01*
X63462812Y-115790072D01*
X64338417Y-112871387D01*
X65198313Y-112871387D01*
X65198313Y-115128613D01*
X66075779Y-115128613D01*
X66312457Y-115108287D01*
X66509861Y-115051443D01*
X66667991Y-114958081D01*
X66783401Y-114828890D01*
X66852648Y-114664559D01*
X66875730Y-114465088D01*
X66850732Y-114289130D01*
X66775736Y-114142627D01*
X66657332Y-114032944D01*
X66502109Y-113967444D01*
X66637372Y-113891673D01*
X66739304Y-113782184D01*
X66803254Y-113645952D01*
X66824570Y-113489954D01*
X66800971Y-113303660D01*
X66730175Y-113149923D01*
X66612180Y-113028741D01*
X66448538Y-112941322D01*
X66240799Y-112888871D01*
X65988962Y-112871387D01*
X65198313Y-112871387D01*
X64338417Y-112871387D01*
X64536855Y-112209928D01*
X65198313Y-112209928D01*
X66875730Y-112209928D01*
X67537188Y-112209928D01*
X67537188Y-115790072D01*
G37*
G36*
X53030167Y-85516851D02*
G01*
X53174680Y-85558580D01*
X53290203Y-85626956D01*
X53403858Y-85776850D01*
X53441744Y-85981431D01*
X53441744Y-86172504D01*
X52160892Y-86172504D01*
X52160892Y-85977477D01*
X52198612Y-85772238D01*
X52311774Y-85623003D01*
X52428102Y-85555651D01*
X52575909Y-85515240D01*
X52755197Y-85501770D01*
X52856663Y-85501770D01*
X53030167Y-85516851D01*
G37*
G36*
X54347916Y-86913079D02*
G01*
X54347916Y-88705218D01*
X54347916Y-90954615D01*
X54347916Y-91730770D01*
X54347916Y-92293009D01*
X51252084Y-92293009D01*
X51252084Y-91730770D01*
X51252084Y-90963840D01*
X51814324Y-90963840D01*
X51831454Y-91158043D01*
X51882847Y-91332151D01*
X51964712Y-91477103D01*
X52073261Y-91583841D01*
X52203554Y-91649563D01*
X52350648Y-91671471D01*
X52536450Y-91635160D01*
X52695019Y-91526226D01*
X52826355Y-91344669D01*
X52891419Y-91203341D01*
X52957471Y-91019185D01*
X53022370Y-90845242D01*
X53083975Y-90734551D01*
X53255941Y-90655486D01*
X53416048Y-90734551D01*
X53459039Y-90829100D01*
X53473370Y-90954615D01*
X53453521Y-91120652D01*
X53393975Y-91239249D01*
X53294732Y-91310408D01*
X53155792Y-91334127D01*
X53155792Y-91730770D01*
X53330394Y-91706885D01*
X53482594Y-91635233D01*
X53608604Y-91518118D01*
X53704635Y-91357847D01*
X53765416Y-91166114D01*
X53785676Y-90954615D01*
X53769936Y-90756514D01*
X53722717Y-90587403D01*
X53644018Y-90447282D01*
X53537647Y-90342594D01*
X53407409Y-90279782D01*
X53253306Y-90258844D01*
X53047737Y-90297388D01*
X52879065Y-90413021D01*
X52784333Y-90536157D01*
X52700437Y-90699997D01*
X52627375Y-90904541D01*
X52570053Y-91065471D01*
X52508777Y-91181927D01*
X52351965Y-91276146D01*
X52190541Y-91195764D01*
X52144585Y-91099238D01*
X52129266Y-90970428D01*
X52147550Y-90837006D01*
X52202401Y-90737187D01*
X52290196Y-90674923D01*
X52407311Y-90654169D01*
X52407311Y-90258844D01*
X52243910Y-90281081D01*
X52098958Y-90347792D01*
X51978548Y-90454694D01*
X51888777Y-90597505D01*
X51832937Y-90769472D01*
X51814324Y-90963840D01*
X51252084Y-90963840D01*
X51252084Y-89991341D01*
X51840679Y-89991341D01*
X53759321Y-89991341D01*
X53759321Y-88705218D01*
X53441744Y-88705218D01*
X53441744Y-89596016D01*
X52927822Y-89596016D01*
X52927822Y-88836993D01*
X52618151Y-88836993D01*
X52618151Y-89596016D01*
X52160892Y-89596016D01*
X52160892Y-88707853D01*
X51840679Y-88707853D01*
X51840679Y-89991341D01*
X51252084Y-89991341D01*
X51252084Y-88473294D01*
X51840679Y-88473294D01*
X53759321Y-88473294D01*
X53759321Y-88077969D01*
X52496918Y-88077969D01*
X53759321Y-87308404D01*
X53759321Y-86913079D01*
X51840679Y-86913079D01*
X51840679Y-87307086D01*
X53105718Y-87307086D01*
X51840679Y-88077969D01*
X51840679Y-88473294D01*
X51252084Y-88473294D01*
X51252084Y-86567829D01*
X51840679Y-86567829D01*
X53759321Y-86567829D01*
X53759321Y-85973524D01*
X53745851Y-85811441D01*
X53707197Y-85660778D01*
X53643359Y-85521536D01*
X53556534Y-85398034D01*
X53448918Y-85294591D01*
X53320511Y-85211206D01*
X53175119Y-85150077D01*
X53016550Y-85113400D01*
X52844803Y-85101174D01*
X52756514Y-85101174D01*
X52584548Y-85113620D01*
X52425320Y-85150956D01*
X52278830Y-85213183D01*
X52149398Y-85297592D01*
X52041343Y-85401475D01*
X51954664Y-85524831D01*
X51891339Y-85663853D01*
X51853344Y-85814735D01*
X51840679Y-85977477D01*
X51840679Y-86567829D01*
X51252084Y-86567829D01*
X51252084Y-85101174D01*
X51252084Y-84538935D01*
X52800000Y-83506991D01*
X54347916Y-84538935D01*
X54347916Y-85101174D01*
X54347916Y-86567829D01*
X54347916Y-86913079D01*
G37*
G36*
X61185733Y-132087060D02*
G01*
X61484200Y-132087095D01*
X61447458Y-132895019D01*
X61430885Y-133236367D01*
X61412195Y-133584329D01*
X61393574Y-133900225D01*
X61377204Y-134145372D01*
X61375776Y-134164493D01*
X61340837Y-134626043D01*
X60785903Y-134207016D01*
X60568222Y-134045833D01*
X60381312Y-133913386D01*
X60244571Y-133823011D01*
X60177399Y-133788045D01*
X60176416Y-133787988D01*
X60150263Y-133840082D01*
X60130979Y-133978051D01*
X60122088Y-134174427D01*
X60121863Y-134213211D01*
X60121863Y-134638434D01*
X59872630Y-134638434D01*
X59623398Y-134638434D01*
X59590101Y-134199037D01*
X59574097Y-133963581D01*
X59555811Y-133656363D01*
X59537603Y-133318916D01*
X59523185Y-133022586D01*
X59508437Y-132737233D01*
X59492295Y-132487084D01*
X59476594Y-132297113D01*
X59463171Y-132192291D01*
X59461715Y-132186314D01*
X59459436Y-132134712D01*
X59503189Y-132104766D01*
X59614692Y-132090794D01*
X59815665Y-132087116D01*
X59841036Y-132087095D01*
X60248207Y-132087095D01*
X60588124Y-132381570D01*
X60928040Y-132676044D01*
X60907653Y-132381534D01*
X60887265Y-132087025D01*
X61185733Y-132087060D01*
G37*
G36*
X56011372Y-133036747D02*
G01*
X56014055Y-133438237D01*
X56024562Y-133740230D01*
X56046584Y-133956549D01*
X56083809Y-134101016D01*
X56139929Y-134187450D01*
X56218632Y-134229675D01*
X56323608Y-134241511D01*
X56332999Y-134241559D01*
X56508895Y-134241559D01*
X56467886Y-133164327D01*
X56426878Y-132087095D01*
X56835699Y-132087095D01*
X57244520Y-132087095D01*
X57209084Y-132264271D01*
X57197658Y-132377199D01*
X57187764Y-132581536D01*
X57180043Y-132855301D01*
X57175134Y-133176514D01*
X57173649Y-133481250D01*
X57173980Y-133871874D01*
X57168688Y-134163967D01*
X57148345Y-134372326D01*
X57103526Y-134511749D01*
X57024802Y-134597035D01*
X56902747Y-134642979D01*
X56727934Y-134664381D01*
X56490937Y-134676038D01*
X56410191Y-134679664D01*
X56151943Y-134688166D01*
X55971303Y-134681248D01*
X55832969Y-134653954D01*
X55701641Y-134601325D01*
X55642846Y-134571905D01*
X55488784Y-134478181D01*
X55364029Y-134363947D01*
X55264099Y-134215603D01*
X55184512Y-134019550D01*
X55120783Y-133762190D01*
X55068431Y-133429924D01*
X55022973Y-133009152D01*
X54987284Y-132583189D01*
X54949077Y-132087095D01*
X55480224Y-132087082D01*
X56011372Y-132087068D01*
X56011372Y-133036747D01*
G37*
G36*
X63600617Y-132435591D02*
G01*
X63628851Y-132719489D01*
X63639469Y-132909501D01*
X63627052Y-133024474D01*
X63586184Y-133083254D01*
X63511446Y-133104690D01*
X63407441Y-133107631D01*
X63133255Y-133149122D01*
X62910542Y-133261940D01*
X62753000Y-133428599D01*
X62674329Y-133631614D01*
X62688226Y-133853500D01*
X62734463Y-133966604D01*
X62821645Y-134055748D01*
X62967378Y-134149919D01*
X63121849Y-134220753D01*
X63217321Y-134241559D01*
X63231240Y-134190485D01*
X63229788Y-134057632D01*
X63216327Y-133901381D01*
X63177840Y-133561202D01*
X63520215Y-133561202D01*
X63862591Y-133561202D01*
X63826961Y-134085644D01*
X63809261Y-134317116D01*
X63791403Y-134502030D01*
X63776128Y-134613930D01*
X63770129Y-134634464D01*
X63700734Y-134652508D01*
X63548810Y-134665336D01*
X63345113Y-134672660D01*
X63120401Y-134674192D01*
X62905430Y-134669643D01*
X62730956Y-134658725D01*
X62640563Y-134645048D01*
X62279777Y-134500188D01*
X61993808Y-134275968D01*
X61791415Y-133982286D01*
X61681361Y-133629040D01*
X61670952Y-133549702D01*
X61676843Y-133146994D01*
X61779608Y-132796455D01*
X61975792Y-132504947D01*
X62261939Y-132279327D01*
X62329075Y-132243010D01*
X62511511Y-132160135D01*
X62679873Y-132112590D01*
X62879024Y-132091308D01*
X63100516Y-132087095D01*
X63564192Y-132087095D01*
X63600617Y-132435591D01*
G37*
G36*
X65472316Y-132078256D02*
G01*
X65749298Y-132251357D01*
X65964776Y-132508529D01*
X66025115Y-132623366D01*
X66099251Y-132877910D01*
X66131874Y-133193916D01*
X66123349Y-133527470D01*
X66074041Y-133834657D01*
X66013528Y-134014774D01*
X65833371Y-134328618D01*
X65617761Y-134540466D01*
X65353617Y-134659484D01*
X65043094Y-134694919D01*
X64743516Y-134659342D01*
X64545187Y-134574349D01*
X64390980Y-134469718D01*
X64274850Y-134356204D01*
X64165818Y-134198655D01*
X64077006Y-134043122D01*
X64012870Y-133903524D01*
X63974364Y-133749401D01*
X63955587Y-133546307D01*
X63955175Y-133525981D01*
X64751241Y-133525981D01*
X64761692Y-133725294D01*
X64814710Y-133912084D01*
X64904509Y-134055755D01*
X65025300Y-134125706D01*
X65054453Y-134128167D01*
X65162671Y-134083907D01*
X65261033Y-133981956D01*
X65338509Y-133792379D01*
X65359822Y-133575272D01*
X65326761Y-133372021D01*
X65241119Y-133224015D01*
X65227710Y-133212189D01*
X65120833Y-133136713D01*
X65054453Y-133107631D01*
X64982604Y-133140013D01*
X64881195Y-133212189D01*
X64789146Y-133344747D01*
X64751241Y-133525981D01*
X63955175Y-133525981D01*
X63950716Y-133306068D01*
X63953564Y-133048841D01*
X63969030Y-132869045D01*
X64004162Y-132730856D01*
X64066003Y-132598448D01*
X64102464Y-132534536D01*
X64269641Y-132300766D01*
X64463641Y-132146903D01*
X64721633Y-132046194D01*
X64812766Y-132023332D01*
X65153561Y-131998992D01*
X65472316Y-132078256D01*
G37*
G36*
X54189726Y-132078256D02*
G01*
X54466709Y-132251357D01*
X54682187Y-132508529D01*
X54742525Y-132623366D01*
X54823151Y-132900384D01*
X54853411Y-133235526D01*
X54834242Y-133585794D01*
X54766579Y-133908186D01*
X54711415Y-134052965D01*
X54607051Y-134236615D01*
X54488022Y-134388502D01*
X54421036Y-134447069D01*
X54267230Y-134547847D01*
X54485964Y-134731485D01*
X54605296Y-134839575D01*
X54672255Y-134916021D01*
X54677678Y-134936880D01*
X54617315Y-134980539D01*
X54502676Y-135060633D01*
X54474899Y-135079823D01*
X54299140Y-135201009D01*
X54141530Y-135036499D01*
X54039632Y-134899428D01*
X54015306Y-134791877D01*
X54017853Y-134783560D01*
X54019269Y-134731260D01*
X53957104Y-134704302D01*
X53809393Y-134695254D01*
X53755910Y-134694919D01*
X53455855Y-134659986D01*
X53207362Y-134547661D01*
X52992731Y-134345944D01*
X52794416Y-134043122D01*
X52730281Y-133903524D01*
X52691775Y-133749401D01*
X52676861Y-133588102D01*
X53469482Y-133588102D01*
X53498638Y-133810551D01*
X53576084Y-133991548D01*
X53686787Y-134104242D01*
X53771863Y-134128167D01*
X53880082Y-134083907D01*
X53978443Y-133981956D01*
X54042543Y-133820504D01*
X54070630Y-133616541D01*
X54061245Y-133416955D01*
X54012929Y-133268634D01*
X54001156Y-133252393D01*
X53892266Y-133186025D01*
X53771863Y-133164327D01*
X53607418Y-133203395D01*
X53508730Y-133325653D01*
X53470392Y-133538679D01*
X53469482Y-133588102D01*
X52676861Y-133588102D01*
X52672997Y-133546307D01*
X52668127Y-133306068D01*
X52670975Y-133048841D01*
X52686441Y-132869045D01*
X52721572Y-132730856D01*
X52783414Y-132598448D01*
X52819875Y-132534536D01*
X52987052Y-132300766D01*
X53181052Y-132146903D01*
X53439044Y-132046194D01*
X53530176Y-132023332D01*
X53870971Y-131998992D01*
X54189726Y-132078256D01*
G37*
G36*
X58876058Y-132413100D02*
G01*
X58914284Y-132594154D01*
X58968516Y-132841759D01*
X59033603Y-133133365D01*
X59104392Y-133446424D01*
X59175731Y-133758387D01*
X59242467Y-134046705D01*
X59299448Y-134288831D01*
X59341522Y-134462214D01*
X59361873Y-134539216D01*
X59365917Y-134588250D01*
X59327148Y-134617919D01*
X59224956Y-134632956D01*
X59038735Y-134638092D01*
X58929751Y-134638434D01*
X58699090Y-134635750D01*
X58557606Y-134623941D01*
X58481138Y-134597376D01*
X58445522Y-134550422D01*
X58437013Y-134523570D01*
X58413406Y-134453871D01*
X58372404Y-134440006D01*
X58282350Y-134482704D01*
X58203158Y-134528960D01*
X58074519Y-134591217D01*
X57992969Y-134605051D01*
X57981325Y-134595169D01*
X57935536Y-134508676D01*
X57888702Y-134439089D01*
X57832650Y-134376163D01*
X57800039Y-134404672D01*
X57776273Y-134487746D01*
X57736224Y-134586362D01*
X57657817Y-134629335D01*
X57512747Y-134638434D01*
X57371114Y-134627234D01*
X57292622Y-134599271D01*
X57287042Y-134588176D01*
X57299545Y-134517828D01*
X57333949Y-134358051D01*
X57382703Y-134142453D01*
X57911662Y-134142453D01*
X57946048Y-134177703D01*
X58057909Y-134162336D01*
X58086611Y-134156232D01*
X58222083Y-134122890D01*
X58299224Y-134095858D01*
X58302571Y-134093477D01*
X58302204Y-134029952D01*
X58269752Y-133905013D01*
X58219640Y-133760660D01*
X58166292Y-133638896D01*
X58127369Y-133583297D01*
X58077661Y-133609463D01*
X58018054Y-133721992D01*
X57959683Y-133895820D01*
X57926570Y-134035288D01*
X57911662Y-134142453D01*
X57382703Y-134142453D01*
X57385597Y-134129656D01*
X57449832Y-133853451D01*
X57480545Y-133723555D01*
X57557245Y-133392654D01*
X57630733Y-133061186D01*
X57693574Y-132763625D01*
X57738337Y-132534445D01*
X57744759Y-132498144D01*
X57815470Y-132087095D01*
X58312638Y-132087095D01*
X58809806Y-132087095D01*
X58876058Y-132413100D01*
G37*
G36*
X53244357Y-112986804D02*
G01*
X52680050Y-112986804D01*
X52960653Y-112141895D01*
X53244357Y-112986804D01*
G37*
G36*
X54682512Y-114490072D02*
G01*
X54021053Y-114490072D01*
X52399447Y-114490072D01*
X51904904Y-114490072D01*
X51243445Y-114490072D01*
X51243445Y-113828613D01*
X51904904Y-113828613D01*
X52399447Y-113828613D01*
X52554476Y-113363525D01*
X53369930Y-113363525D01*
X53526510Y-113828613D01*
X54021053Y-113828613D01*
X53176144Y-111571387D01*
X52745162Y-111571387D01*
X51904904Y-113828613D01*
X51243445Y-113828613D01*
X51243445Y-110909928D01*
X51904904Y-110909928D01*
X54021053Y-110909928D01*
X54682512Y-110909928D01*
X55756555Y-110909928D01*
X54682512Y-114490072D01*
G37*
G36*
X64247123Y-148464486D02*
G01*
X64343396Y-148558899D01*
X64375487Y-148714393D01*
X64292469Y-148909033D01*
X64193231Y-148961878D01*
X64061553Y-148979493D01*
X63702970Y-148979493D01*
X63702970Y-148431155D01*
X64086667Y-148431155D01*
X64247123Y-148464486D01*
G37*
G36*
X64145792Y-147638471D02*
G01*
X64249216Y-147683991D01*
X64309386Y-147764044D01*
X64329443Y-147882816D01*
X64294252Y-148020637D01*
X64188677Y-148104818D01*
X64012719Y-148135359D01*
X63702970Y-148135359D01*
X63702970Y-147623297D01*
X63995975Y-147623297D01*
X64145792Y-147638471D01*
G37*
G36*
X66463422Y-148300000D02*
G01*
X65389379Y-149911064D01*
X64794066Y-149911064D01*
X63284391Y-149911064D01*
X61736578Y-149911064D01*
X61736578Y-147284248D01*
X63284391Y-147284248D01*
X63284391Y-149315752D01*
X64074110Y-149315752D01*
X64287120Y-149297458D01*
X64464784Y-149246299D01*
X64607101Y-149162273D01*
X64710970Y-149046001D01*
X64773292Y-148898103D01*
X64794066Y-148718579D01*
X64771568Y-148560217D01*
X64704072Y-148428364D01*
X64597508Y-148329649D01*
X64457808Y-148270699D01*
X64579544Y-148202506D01*
X64671283Y-148103965D01*
X64728838Y-147981357D01*
X64748022Y-147840958D01*
X64726783Y-147673294D01*
X64663066Y-147534930D01*
X64556871Y-147425867D01*
X64409594Y-147347190D01*
X64222628Y-147299984D01*
X63995975Y-147284248D01*
X63284391Y-147284248D01*
X61736578Y-147284248D01*
X61736578Y-146688936D01*
X63284391Y-146688936D01*
X64794066Y-146688936D01*
X65389379Y-146688936D01*
X66463422Y-148300000D01*
G37*
G36*
X65657699Y-94866705D02*
G01*
X65747800Y-94927980D01*
X65804628Y-95026482D01*
X65823571Y-95158586D01*
X65823571Y-95477482D01*
X65247714Y-95477482D01*
X65247714Y-95159904D01*
X65267151Y-95021046D01*
X65325461Y-94923368D01*
X65417704Y-94865552D01*
X65538937Y-94846280D01*
X65657699Y-94866705D01*
G37*
G36*
X65657699Y-88180446D02*
G01*
X65747800Y-88241722D01*
X65804628Y-88340223D01*
X65823571Y-88472328D01*
X65823571Y-88791223D01*
X65247714Y-88791223D01*
X65247714Y-88473645D01*
X65267151Y-88334788D01*
X65325461Y-88237110D01*
X65417704Y-88179293D01*
X65538937Y-88160021D01*
X65657699Y-88180446D01*
G37*
G36*
X67434738Y-88791223D02*
G01*
X67434738Y-90246018D01*
X67434738Y-91775925D01*
X67434738Y-92864385D01*
X67434738Y-95477482D01*
X67434738Y-95872806D01*
X67434738Y-96435046D01*
X65900000Y-97458205D01*
X64365262Y-96435046D01*
X64365262Y-95872806D01*
X64927501Y-95872806D01*
X66846144Y-95872806D01*
X66846144Y-95477482D01*
X66143784Y-95477482D01*
X66143784Y-95162540D01*
X66846144Y-94802794D01*
X66846144Y-94378479D01*
X66827695Y-94378479D01*
X66043635Y-94793570D01*
X65952545Y-94642852D01*
X65834771Y-94535950D01*
X65687348Y-94472204D01*
X65507311Y-94450955D01*
X65336736Y-94471453D01*
X65193979Y-94532948D01*
X65079042Y-94635440D01*
X64994853Y-94775707D01*
X64944339Y-94950528D01*
X64927501Y-95159904D01*
X64927501Y-95872806D01*
X64365262Y-95872806D01*
X64365262Y-94150508D01*
X64927501Y-94150508D01*
X66846144Y-94150508D01*
X66846144Y-92864385D01*
X66528566Y-92864385D01*
X66528566Y-93755184D01*
X66014644Y-93755184D01*
X66014644Y-92996160D01*
X65704973Y-92996160D01*
X65704973Y-93755184D01*
X65247714Y-93755184D01*
X65247714Y-92867021D01*
X64927501Y-92867021D01*
X64927501Y-94150508D01*
X64365262Y-94150508D01*
X64365262Y-92751059D01*
X64927501Y-92751059D01*
X65247714Y-92751059D01*
X65247714Y-92171249D01*
X66846144Y-92171249D01*
X66846144Y-91775925D01*
X65247714Y-91775925D01*
X65247714Y-91188208D01*
X64927501Y-91188208D01*
X64927501Y-92751059D01*
X64365262Y-92751059D01*
X64365262Y-90981322D01*
X64927501Y-90981322D01*
X66205718Y-90981322D01*
X66398256Y-90957163D01*
X66561217Y-90889958D01*
X66694603Y-90779706D01*
X66793434Y-90632558D01*
X66852733Y-90454661D01*
X66872499Y-90246018D01*
X66852147Y-90034519D01*
X66791091Y-89855086D01*
X66689332Y-89707717D01*
X66552579Y-89598271D01*
X66386542Y-89532603D01*
X66191223Y-89510714D01*
X64927501Y-89510714D01*
X64927501Y-89907356D01*
X66204400Y-89907356D01*
X66357753Y-89930499D01*
X66467291Y-89994657D01*
X66533014Y-90099830D01*
X66554921Y-90246018D01*
X66533343Y-90388170D01*
X66468609Y-90495731D01*
X66356765Y-90563431D01*
X66193858Y-90585997D01*
X64927501Y-90585997D01*
X64927501Y-90981322D01*
X64365262Y-90981322D01*
X64365262Y-89186548D01*
X64927501Y-89186548D01*
X66846144Y-89186548D01*
X66846144Y-88791223D01*
X66143784Y-88791223D01*
X66143784Y-88476281D01*
X66846144Y-88116535D01*
X66846144Y-87692220D01*
X66827695Y-87692220D01*
X66043635Y-88107311D01*
X65952545Y-87956594D01*
X65834771Y-87849691D01*
X65687348Y-87785945D01*
X65507311Y-87764696D01*
X65336736Y-87785195D01*
X65193979Y-87846690D01*
X65079042Y-87949181D01*
X64994853Y-88089448D01*
X64944339Y-88264270D01*
X64927501Y-88473645D01*
X64927501Y-89186548D01*
X64365262Y-89186548D01*
X64365262Y-87464250D01*
X64927501Y-87464250D01*
X66846144Y-87464250D01*
X66846144Y-87068925D01*
X65583740Y-87068925D01*
X66846144Y-86299360D01*
X66846144Y-85904035D01*
X64927501Y-85904035D01*
X64927501Y-86298042D01*
X66192540Y-86298042D01*
X64927501Y-87068925D01*
X64927501Y-87464250D01*
X64365262Y-87464250D01*
X64365262Y-85904035D01*
X64365262Y-85341795D01*
X67434738Y-85341795D01*
X67434738Y-85904035D01*
X67434738Y-88791223D01*
G37*
G36*
X55192606Y-148558124D02*
G01*
X54684730Y-148558124D01*
X54937272Y-147797705D01*
X55192606Y-148558124D01*
G37*
G36*
X57082258Y-149911064D02*
G01*
X55891633Y-149911064D01*
X54432187Y-149911064D01*
X53987098Y-149911064D01*
X53391785Y-149911064D01*
X52994910Y-149315752D01*
X53987098Y-149315752D01*
X54432187Y-149315752D01*
X54571713Y-148897173D01*
X55305622Y-148897173D01*
X55446544Y-149315752D01*
X55891633Y-149315752D01*
X55131214Y-147284248D01*
X54743331Y-147284248D01*
X53987098Y-149315752D01*
X52994910Y-149315752D01*
X52317742Y-148300000D01*
X53391785Y-146688936D01*
X53987098Y-146688936D01*
X55891633Y-146688936D01*
X57082258Y-146688936D01*
X57082258Y-149911064D01*
G37*
D11*
X59400000Y-154500000D03*
X54700000Y-141800000D03*
D12*
X62000000Y-43900000D03*
D11*
X64100000Y-141800000D03*
D13*
X59400000Y-90900000D03*
D12*
X56700000Y-166400000D03*
M02*
