%TF.GenerationSoftware,KiCad,Pcbnew,7.0.5*%
%TF.CreationDate,2023-07-06T16:17:21+01:00*%
%TF.ProjectId,QuangoBreakout_Panel,5175616e-676f-4427-9265-616b6f75745f,rev?*%
%TF.SameCoordinates,Original*%
%TF.FileFunction,Legend,Bot*%
%TF.FilePolarity,Positive*%
%FSLAX46Y46*%
G04 Gerber Fmt 4.6, Leading zero omitted, Abs format (unit mm)*
G04 Created by KiCad (PCBNEW 7.0.5) date 2023-07-06 16:17:21*
%MOMM*%
%LPD*%
G01*
G04 APERTURE LIST*
%ADD10C,0.300000*%
%ADD11C,0.150000*%
G04 APERTURE END LIST*
D10*
X62792857Y-131406185D02*
X62935714Y-131334757D01*
X62935714Y-131334757D02*
X63078571Y-131191900D01*
X63078571Y-131191900D02*
X63292857Y-130977614D01*
X63292857Y-130977614D02*
X63435714Y-130906185D01*
X63435714Y-130906185D02*
X63578571Y-130906185D01*
X63507142Y-131263328D02*
X63650000Y-131191900D01*
X63650000Y-131191900D02*
X63792857Y-131049042D01*
X63792857Y-131049042D02*
X63864285Y-130763328D01*
X63864285Y-130763328D02*
X63864285Y-130263328D01*
X63864285Y-130263328D02*
X63792857Y-129977614D01*
X63792857Y-129977614D02*
X63650000Y-129834757D01*
X63650000Y-129834757D02*
X63507142Y-129763328D01*
X63507142Y-129763328D02*
X63221428Y-129763328D01*
X63221428Y-129763328D02*
X63078571Y-129834757D01*
X63078571Y-129834757D02*
X62935714Y-129977614D01*
X62935714Y-129977614D02*
X62864285Y-130263328D01*
X62864285Y-130263328D02*
X62864285Y-130763328D01*
X62864285Y-130763328D02*
X62935714Y-131049042D01*
X62935714Y-131049042D02*
X63078571Y-131191900D01*
X63078571Y-131191900D02*
X63221428Y-131263328D01*
X63221428Y-131263328D02*
X63507142Y-131263328D01*
X61578571Y-130263328D02*
X61578571Y-131263328D01*
X62221428Y-130263328D02*
X62221428Y-131049042D01*
X62221428Y-131049042D02*
X62149999Y-131191900D01*
X62149999Y-131191900D02*
X62007142Y-131263328D01*
X62007142Y-131263328D02*
X61792856Y-131263328D01*
X61792856Y-131263328D02*
X61649999Y-131191900D01*
X61649999Y-131191900D02*
X61578571Y-131120471D01*
X60221428Y-131263328D02*
X60221428Y-130477614D01*
X60221428Y-130477614D02*
X60292856Y-130334757D01*
X60292856Y-130334757D02*
X60435713Y-130263328D01*
X60435713Y-130263328D02*
X60721428Y-130263328D01*
X60721428Y-130263328D02*
X60864285Y-130334757D01*
X60221428Y-131191900D02*
X60364285Y-131263328D01*
X60364285Y-131263328D02*
X60721428Y-131263328D01*
X60721428Y-131263328D02*
X60864285Y-131191900D01*
X60864285Y-131191900D02*
X60935713Y-131049042D01*
X60935713Y-131049042D02*
X60935713Y-130906185D01*
X60935713Y-130906185D02*
X60864285Y-130763328D01*
X60864285Y-130763328D02*
X60721428Y-130691900D01*
X60721428Y-130691900D02*
X60364285Y-130691900D01*
X60364285Y-130691900D02*
X60221428Y-130620471D01*
X59507142Y-130263328D02*
X59507142Y-131263328D01*
X59507142Y-130406185D02*
X59435713Y-130334757D01*
X59435713Y-130334757D02*
X59292856Y-130263328D01*
X59292856Y-130263328D02*
X59078570Y-130263328D01*
X59078570Y-130263328D02*
X58935713Y-130334757D01*
X58935713Y-130334757D02*
X58864285Y-130477614D01*
X58864285Y-130477614D02*
X58864285Y-131263328D01*
X57507142Y-130263328D02*
X57507142Y-131477614D01*
X57507142Y-131477614D02*
X57578570Y-131620471D01*
X57578570Y-131620471D02*
X57649999Y-131691900D01*
X57649999Y-131691900D02*
X57792856Y-131763328D01*
X57792856Y-131763328D02*
X58007142Y-131763328D01*
X58007142Y-131763328D02*
X58149999Y-131691900D01*
X57507142Y-131191900D02*
X57649999Y-131263328D01*
X57649999Y-131263328D02*
X57935713Y-131263328D01*
X57935713Y-131263328D02*
X58078570Y-131191900D01*
X58078570Y-131191900D02*
X58149999Y-131120471D01*
X58149999Y-131120471D02*
X58221427Y-130977614D01*
X58221427Y-130977614D02*
X58221427Y-130549042D01*
X58221427Y-130549042D02*
X58149999Y-130406185D01*
X58149999Y-130406185D02*
X58078570Y-130334757D01*
X58078570Y-130334757D02*
X57935713Y-130263328D01*
X57935713Y-130263328D02*
X57649999Y-130263328D01*
X57649999Y-130263328D02*
X57507142Y-130334757D01*
X56578570Y-131263328D02*
X56721427Y-131191900D01*
X56721427Y-131191900D02*
X56792856Y-131120471D01*
X56792856Y-131120471D02*
X56864284Y-130977614D01*
X56864284Y-130977614D02*
X56864284Y-130549042D01*
X56864284Y-130549042D02*
X56792856Y-130406185D01*
X56792856Y-130406185D02*
X56721427Y-130334757D01*
X56721427Y-130334757D02*
X56578570Y-130263328D01*
X56578570Y-130263328D02*
X56364284Y-130263328D01*
X56364284Y-130263328D02*
X56221427Y-130334757D01*
X56221427Y-130334757D02*
X56149999Y-130406185D01*
X56149999Y-130406185D02*
X56078570Y-130549042D01*
X56078570Y-130549042D02*
X56078570Y-130977614D01*
X56078570Y-130977614D02*
X56149999Y-131120471D01*
X56149999Y-131120471D02*
X56221427Y-131191900D01*
X56221427Y-131191900D02*
X56364284Y-131263328D01*
X56364284Y-131263328D02*
X56578570Y-131263328D01*
X67185714Y-132892614D02*
X66971428Y-132964042D01*
X66971428Y-132964042D02*
X66899999Y-133035471D01*
X66899999Y-133035471D02*
X66828571Y-133178328D01*
X66828571Y-133178328D02*
X66828571Y-133392614D01*
X66828571Y-133392614D02*
X66899999Y-133535471D01*
X66899999Y-133535471D02*
X66971428Y-133606900D01*
X66971428Y-133606900D02*
X67114285Y-133678328D01*
X67114285Y-133678328D02*
X67685714Y-133678328D01*
X67685714Y-133678328D02*
X67685714Y-132178328D01*
X67685714Y-132178328D02*
X67185714Y-132178328D01*
X67185714Y-132178328D02*
X67042857Y-132249757D01*
X67042857Y-132249757D02*
X66971428Y-132321185D01*
X66971428Y-132321185D02*
X66899999Y-132464042D01*
X66899999Y-132464042D02*
X66899999Y-132606900D01*
X66899999Y-132606900D02*
X66971428Y-132749757D01*
X66971428Y-132749757D02*
X67042857Y-132821185D01*
X67042857Y-132821185D02*
X67185714Y-132892614D01*
X67185714Y-132892614D02*
X67685714Y-132892614D01*
X66185714Y-133678328D02*
X66185714Y-132678328D01*
X66185714Y-132964042D02*
X66114285Y-132821185D01*
X66114285Y-132821185D02*
X66042857Y-132749757D01*
X66042857Y-132749757D02*
X65899999Y-132678328D01*
X65899999Y-132678328D02*
X65757142Y-132678328D01*
X64685714Y-133606900D02*
X64828571Y-133678328D01*
X64828571Y-133678328D02*
X65114286Y-133678328D01*
X65114286Y-133678328D02*
X65257143Y-133606900D01*
X65257143Y-133606900D02*
X65328571Y-133464042D01*
X65328571Y-133464042D02*
X65328571Y-132892614D01*
X65328571Y-132892614D02*
X65257143Y-132749757D01*
X65257143Y-132749757D02*
X65114286Y-132678328D01*
X65114286Y-132678328D02*
X64828571Y-132678328D01*
X64828571Y-132678328D02*
X64685714Y-132749757D01*
X64685714Y-132749757D02*
X64614286Y-132892614D01*
X64614286Y-132892614D02*
X64614286Y-133035471D01*
X64614286Y-133035471D02*
X65328571Y-133178328D01*
X63328572Y-133678328D02*
X63328572Y-132892614D01*
X63328572Y-132892614D02*
X63400000Y-132749757D01*
X63400000Y-132749757D02*
X63542857Y-132678328D01*
X63542857Y-132678328D02*
X63828572Y-132678328D01*
X63828572Y-132678328D02*
X63971429Y-132749757D01*
X63328572Y-133606900D02*
X63471429Y-133678328D01*
X63471429Y-133678328D02*
X63828572Y-133678328D01*
X63828572Y-133678328D02*
X63971429Y-133606900D01*
X63971429Y-133606900D02*
X64042857Y-133464042D01*
X64042857Y-133464042D02*
X64042857Y-133321185D01*
X64042857Y-133321185D02*
X63971429Y-133178328D01*
X63971429Y-133178328D02*
X63828572Y-133106900D01*
X63828572Y-133106900D02*
X63471429Y-133106900D01*
X63471429Y-133106900D02*
X63328572Y-133035471D01*
X62614286Y-133678328D02*
X62614286Y-132178328D01*
X62471429Y-133106900D02*
X62042857Y-133678328D01*
X62042857Y-132678328D02*
X62614286Y-133249757D01*
X61185714Y-133678328D02*
X61328571Y-133606900D01*
X61328571Y-133606900D02*
X61400000Y-133535471D01*
X61400000Y-133535471D02*
X61471428Y-133392614D01*
X61471428Y-133392614D02*
X61471428Y-132964042D01*
X61471428Y-132964042D02*
X61400000Y-132821185D01*
X61400000Y-132821185D02*
X61328571Y-132749757D01*
X61328571Y-132749757D02*
X61185714Y-132678328D01*
X61185714Y-132678328D02*
X60971428Y-132678328D01*
X60971428Y-132678328D02*
X60828571Y-132749757D01*
X60828571Y-132749757D02*
X60757143Y-132821185D01*
X60757143Y-132821185D02*
X60685714Y-132964042D01*
X60685714Y-132964042D02*
X60685714Y-133392614D01*
X60685714Y-133392614D02*
X60757143Y-133535471D01*
X60757143Y-133535471D02*
X60828571Y-133606900D01*
X60828571Y-133606900D02*
X60971428Y-133678328D01*
X60971428Y-133678328D02*
X61185714Y-133678328D01*
X59400000Y-132678328D02*
X59400000Y-133678328D01*
X60042857Y-132678328D02*
X60042857Y-133464042D01*
X60042857Y-133464042D02*
X59971428Y-133606900D01*
X59971428Y-133606900D02*
X59828571Y-133678328D01*
X59828571Y-133678328D02*
X59614285Y-133678328D01*
X59614285Y-133678328D02*
X59471428Y-133606900D01*
X59471428Y-133606900D02*
X59400000Y-133535471D01*
X58899999Y-132678328D02*
X58328571Y-132678328D01*
X58685714Y-132178328D02*
X58685714Y-133464042D01*
X58685714Y-133464042D02*
X58614285Y-133606900D01*
X58614285Y-133606900D02*
X58471428Y-133678328D01*
X58471428Y-133678328D02*
X58328571Y-133678328D01*
X56685714Y-133678328D02*
X56685714Y-132178328D01*
X56685714Y-132178328D02*
X56114285Y-132178328D01*
X56114285Y-132178328D02*
X55971428Y-132249757D01*
X55971428Y-132249757D02*
X55899999Y-132321185D01*
X55899999Y-132321185D02*
X55828571Y-132464042D01*
X55828571Y-132464042D02*
X55828571Y-132678328D01*
X55828571Y-132678328D02*
X55899999Y-132821185D01*
X55899999Y-132821185D02*
X55971428Y-132892614D01*
X55971428Y-132892614D02*
X56114285Y-132964042D01*
X56114285Y-132964042D02*
X56685714Y-132964042D01*
X54542857Y-133678328D02*
X54542857Y-132892614D01*
X54542857Y-132892614D02*
X54614285Y-132749757D01*
X54614285Y-132749757D02*
X54757142Y-132678328D01*
X54757142Y-132678328D02*
X55042857Y-132678328D01*
X55042857Y-132678328D02*
X55185714Y-132749757D01*
X54542857Y-133606900D02*
X54685714Y-133678328D01*
X54685714Y-133678328D02*
X55042857Y-133678328D01*
X55042857Y-133678328D02*
X55185714Y-133606900D01*
X55185714Y-133606900D02*
X55257142Y-133464042D01*
X55257142Y-133464042D02*
X55257142Y-133321185D01*
X55257142Y-133321185D02*
X55185714Y-133178328D01*
X55185714Y-133178328D02*
X55042857Y-133106900D01*
X55042857Y-133106900D02*
X54685714Y-133106900D01*
X54685714Y-133106900D02*
X54542857Y-133035471D01*
X53828571Y-132678328D02*
X53828571Y-133678328D01*
X53828571Y-132821185D02*
X53757142Y-132749757D01*
X53757142Y-132749757D02*
X53614285Y-132678328D01*
X53614285Y-132678328D02*
X53399999Y-132678328D01*
X53399999Y-132678328D02*
X53257142Y-132749757D01*
X53257142Y-132749757D02*
X53185714Y-132892614D01*
X53185714Y-132892614D02*
X53185714Y-133678328D01*
X51899999Y-133606900D02*
X52042856Y-133678328D01*
X52042856Y-133678328D02*
X52328571Y-133678328D01*
X52328571Y-133678328D02*
X52471428Y-133606900D01*
X52471428Y-133606900D02*
X52542856Y-133464042D01*
X52542856Y-133464042D02*
X52542856Y-132892614D01*
X52542856Y-132892614D02*
X52471428Y-132749757D01*
X52471428Y-132749757D02*
X52328571Y-132678328D01*
X52328571Y-132678328D02*
X52042856Y-132678328D01*
X52042856Y-132678328D02*
X51899999Y-132749757D01*
X51899999Y-132749757D02*
X51828571Y-132892614D01*
X51828571Y-132892614D02*
X51828571Y-133035471D01*
X51828571Y-133035471D02*
X52542856Y-133178328D01*
X50971428Y-133678328D02*
X51114285Y-133606900D01*
X51114285Y-133606900D02*
X51185714Y-133464042D01*
X51185714Y-133464042D02*
X51185714Y-132178328D01*
X61971427Y-134736185D02*
X61899999Y-134664757D01*
X61899999Y-134664757D02*
X61757142Y-134593328D01*
X61757142Y-134593328D02*
X61399999Y-134593328D01*
X61399999Y-134593328D02*
X61257142Y-134664757D01*
X61257142Y-134664757D02*
X61185713Y-134736185D01*
X61185713Y-134736185D02*
X61114284Y-134879042D01*
X61114284Y-134879042D02*
X61114284Y-135021900D01*
X61114284Y-135021900D02*
X61185713Y-135236185D01*
X61185713Y-135236185D02*
X62042856Y-136093328D01*
X62042856Y-136093328D02*
X61114284Y-136093328D01*
X60185713Y-134593328D02*
X60042856Y-134593328D01*
X60042856Y-134593328D02*
X59899999Y-134664757D01*
X59899999Y-134664757D02*
X59828571Y-134736185D01*
X59828571Y-134736185D02*
X59757142Y-134879042D01*
X59757142Y-134879042D02*
X59685713Y-135164757D01*
X59685713Y-135164757D02*
X59685713Y-135521900D01*
X59685713Y-135521900D02*
X59757142Y-135807614D01*
X59757142Y-135807614D02*
X59828571Y-135950471D01*
X59828571Y-135950471D02*
X59899999Y-136021900D01*
X59899999Y-136021900D02*
X60042856Y-136093328D01*
X60042856Y-136093328D02*
X60185713Y-136093328D01*
X60185713Y-136093328D02*
X60328571Y-136021900D01*
X60328571Y-136021900D02*
X60399999Y-135950471D01*
X60399999Y-135950471D02*
X60471428Y-135807614D01*
X60471428Y-135807614D02*
X60542856Y-135521900D01*
X60542856Y-135521900D02*
X60542856Y-135164757D01*
X60542856Y-135164757D02*
X60471428Y-134879042D01*
X60471428Y-134879042D02*
X60399999Y-134736185D01*
X60399999Y-134736185D02*
X60328571Y-134664757D01*
X60328571Y-134664757D02*
X60185713Y-134593328D01*
X59114285Y-134736185D02*
X59042857Y-134664757D01*
X59042857Y-134664757D02*
X58900000Y-134593328D01*
X58900000Y-134593328D02*
X58542857Y-134593328D01*
X58542857Y-134593328D02*
X58400000Y-134664757D01*
X58400000Y-134664757D02*
X58328571Y-134736185D01*
X58328571Y-134736185D02*
X58257142Y-134879042D01*
X58257142Y-134879042D02*
X58257142Y-135021900D01*
X58257142Y-135021900D02*
X58328571Y-135236185D01*
X58328571Y-135236185D02*
X59185714Y-136093328D01*
X59185714Y-136093328D02*
X58257142Y-136093328D01*
X57757143Y-134593328D02*
X56828571Y-134593328D01*
X56828571Y-134593328D02*
X57328571Y-135164757D01*
X57328571Y-135164757D02*
X57114286Y-135164757D01*
X57114286Y-135164757D02*
X56971429Y-135236185D01*
X56971429Y-135236185D02*
X56900000Y-135307614D01*
X56900000Y-135307614D02*
X56828571Y-135450471D01*
X56828571Y-135450471D02*
X56828571Y-135807614D01*
X56828571Y-135807614D02*
X56900000Y-135950471D01*
X56900000Y-135950471D02*
X56971429Y-136021900D01*
X56971429Y-136021900D02*
X57114286Y-136093328D01*
X57114286Y-136093328D02*
X57542857Y-136093328D01*
X57542857Y-136093328D02*
X57685714Y-136021900D01*
X57685714Y-136021900D02*
X57757143Y-135950471D01*
X63971429Y-48570828D02*
X63971429Y-47070828D01*
X63971429Y-47070828D02*
X63471429Y-48142257D01*
X63471429Y-48142257D02*
X62971429Y-47070828D01*
X62971429Y-47070828D02*
X62971429Y-48570828D01*
X62042857Y-48570828D02*
X62185714Y-48499400D01*
X62185714Y-48499400D02*
X62257143Y-48427971D01*
X62257143Y-48427971D02*
X62328571Y-48285114D01*
X62328571Y-48285114D02*
X62328571Y-47856542D01*
X62328571Y-47856542D02*
X62257143Y-47713685D01*
X62257143Y-47713685D02*
X62185714Y-47642257D01*
X62185714Y-47642257D02*
X62042857Y-47570828D01*
X62042857Y-47570828D02*
X61828571Y-47570828D01*
X61828571Y-47570828D02*
X61685714Y-47642257D01*
X61685714Y-47642257D02*
X61614286Y-47713685D01*
X61614286Y-47713685D02*
X61542857Y-47856542D01*
X61542857Y-47856542D02*
X61542857Y-48285114D01*
X61542857Y-48285114D02*
X61614286Y-48427971D01*
X61614286Y-48427971D02*
X61685714Y-48499400D01*
X61685714Y-48499400D02*
X61828571Y-48570828D01*
X61828571Y-48570828D02*
X62042857Y-48570828D01*
X60257143Y-47570828D02*
X60257143Y-48570828D01*
X60900000Y-47570828D02*
X60900000Y-48356542D01*
X60900000Y-48356542D02*
X60828571Y-48499400D01*
X60828571Y-48499400D02*
X60685714Y-48570828D01*
X60685714Y-48570828D02*
X60471428Y-48570828D01*
X60471428Y-48570828D02*
X60328571Y-48499400D01*
X60328571Y-48499400D02*
X60257143Y-48427971D01*
X59542857Y-47570828D02*
X59542857Y-48570828D01*
X59542857Y-47713685D02*
X59471428Y-47642257D01*
X59471428Y-47642257D02*
X59328571Y-47570828D01*
X59328571Y-47570828D02*
X59114285Y-47570828D01*
X59114285Y-47570828D02*
X58971428Y-47642257D01*
X58971428Y-47642257D02*
X58900000Y-47785114D01*
X58900000Y-47785114D02*
X58900000Y-48570828D01*
X58399999Y-47570828D02*
X57828571Y-47570828D01*
X58185714Y-47070828D02*
X58185714Y-48356542D01*
X58185714Y-48356542D02*
X58114285Y-48499400D01*
X58114285Y-48499400D02*
X57971428Y-48570828D01*
X57971428Y-48570828D02*
X57828571Y-48570828D01*
X57328571Y-47570828D02*
X57328571Y-48856542D01*
X57328571Y-48856542D02*
X57399999Y-48999400D01*
X57399999Y-48999400D02*
X57542856Y-49070828D01*
X57542856Y-49070828D02*
X57614285Y-49070828D01*
X57328571Y-47070828D02*
X57399999Y-47142257D01*
X57399999Y-47142257D02*
X57328571Y-47213685D01*
X57328571Y-47213685D02*
X57257142Y-47142257D01*
X57257142Y-47142257D02*
X57328571Y-47070828D01*
X57328571Y-47070828D02*
X57328571Y-47213685D01*
X56399999Y-48570828D02*
X56542856Y-48499400D01*
X56542856Y-48499400D02*
X56614285Y-48427971D01*
X56614285Y-48427971D02*
X56685713Y-48285114D01*
X56685713Y-48285114D02*
X56685713Y-47856542D01*
X56685713Y-47856542D02*
X56614285Y-47713685D01*
X56614285Y-47713685D02*
X56542856Y-47642257D01*
X56542856Y-47642257D02*
X56399999Y-47570828D01*
X56399999Y-47570828D02*
X56185713Y-47570828D01*
X56185713Y-47570828D02*
X56042856Y-47642257D01*
X56042856Y-47642257D02*
X55971428Y-47713685D01*
X55971428Y-47713685D02*
X55899999Y-47856542D01*
X55899999Y-47856542D02*
X55899999Y-48285114D01*
X55899999Y-48285114D02*
X55971428Y-48427971D01*
X55971428Y-48427971D02*
X56042856Y-48499400D01*
X56042856Y-48499400D02*
X56185713Y-48570828D01*
X56185713Y-48570828D02*
X56399999Y-48570828D01*
X55399999Y-47570828D02*
X55042856Y-48570828D01*
X54685713Y-47570828D02*
X55042856Y-48570828D01*
X55042856Y-48570828D02*
X55185713Y-48927971D01*
X55185713Y-48927971D02*
X55257142Y-48999400D01*
X55257142Y-48999400D02*
X55399999Y-49070828D01*
X63471428Y-50985828D02*
X63471428Y-49485828D01*
X63471428Y-49485828D02*
X62971428Y-50557257D01*
X62971428Y-50557257D02*
X62471428Y-49485828D01*
X62471428Y-49485828D02*
X62471428Y-50985828D01*
X61542856Y-50985828D02*
X61685713Y-50914400D01*
X61685713Y-50914400D02*
X61757142Y-50842971D01*
X61757142Y-50842971D02*
X61828570Y-50700114D01*
X61828570Y-50700114D02*
X61828570Y-50271542D01*
X61828570Y-50271542D02*
X61757142Y-50128685D01*
X61757142Y-50128685D02*
X61685713Y-50057257D01*
X61685713Y-50057257D02*
X61542856Y-49985828D01*
X61542856Y-49985828D02*
X61328570Y-49985828D01*
X61328570Y-49985828D02*
X61185713Y-50057257D01*
X61185713Y-50057257D02*
X61114285Y-50128685D01*
X61114285Y-50128685D02*
X61042856Y-50271542D01*
X61042856Y-50271542D02*
X61042856Y-50700114D01*
X61042856Y-50700114D02*
X61114285Y-50842971D01*
X61114285Y-50842971D02*
X61185713Y-50914400D01*
X61185713Y-50914400D02*
X61328570Y-50985828D01*
X61328570Y-50985828D02*
X61542856Y-50985828D01*
X59757142Y-50985828D02*
X59757142Y-49485828D01*
X59757142Y-50914400D02*
X59899999Y-50985828D01*
X59899999Y-50985828D02*
X60185713Y-50985828D01*
X60185713Y-50985828D02*
X60328570Y-50914400D01*
X60328570Y-50914400D02*
X60399999Y-50842971D01*
X60399999Y-50842971D02*
X60471427Y-50700114D01*
X60471427Y-50700114D02*
X60471427Y-50271542D01*
X60471427Y-50271542D02*
X60399999Y-50128685D01*
X60399999Y-50128685D02*
X60328570Y-50057257D01*
X60328570Y-50057257D02*
X60185713Y-49985828D01*
X60185713Y-49985828D02*
X59899999Y-49985828D01*
X59899999Y-49985828D02*
X59757142Y-50057257D01*
X58399999Y-49985828D02*
X58399999Y-50985828D01*
X59042856Y-49985828D02*
X59042856Y-50771542D01*
X59042856Y-50771542D02*
X58971427Y-50914400D01*
X58971427Y-50914400D02*
X58828570Y-50985828D01*
X58828570Y-50985828D02*
X58614284Y-50985828D01*
X58614284Y-50985828D02*
X58471427Y-50914400D01*
X58471427Y-50914400D02*
X58399999Y-50842971D01*
X57471427Y-50985828D02*
X57614284Y-50914400D01*
X57614284Y-50914400D02*
X57685713Y-50771542D01*
X57685713Y-50771542D02*
X57685713Y-49485828D01*
X56257142Y-50985828D02*
X56257142Y-50200114D01*
X56257142Y-50200114D02*
X56328570Y-50057257D01*
X56328570Y-50057257D02*
X56471427Y-49985828D01*
X56471427Y-49985828D02*
X56757142Y-49985828D01*
X56757142Y-49985828D02*
X56899999Y-50057257D01*
X56257142Y-50914400D02*
X56399999Y-50985828D01*
X56399999Y-50985828D02*
X56757142Y-50985828D01*
X56757142Y-50985828D02*
X56899999Y-50914400D01*
X56899999Y-50914400D02*
X56971427Y-50771542D01*
X56971427Y-50771542D02*
X56971427Y-50628685D01*
X56971427Y-50628685D02*
X56899999Y-50485828D01*
X56899999Y-50485828D02*
X56757142Y-50414400D01*
X56757142Y-50414400D02*
X56399999Y-50414400D01*
X56399999Y-50414400D02*
X56257142Y-50342971D01*
X55542856Y-50985828D02*
X55542856Y-49985828D01*
X55542856Y-50271542D02*
X55471427Y-50128685D01*
X55471427Y-50128685D02*
X55399999Y-50057257D01*
X55399999Y-50057257D02*
X55257141Y-49985828D01*
X55257141Y-49985828D02*
X55114284Y-49985828D01*
X132799999Y-97892614D02*
X132585713Y-97964042D01*
X132585713Y-97964042D02*
X132514284Y-98035471D01*
X132514284Y-98035471D02*
X132442856Y-98178328D01*
X132442856Y-98178328D02*
X132442856Y-98392614D01*
X132442856Y-98392614D02*
X132514284Y-98535471D01*
X132514284Y-98535471D02*
X132585713Y-98606900D01*
X132585713Y-98606900D02*
X132728570Y-98678328D01*
X132728570Y-98678328D02*
X133299999Y-98678328D01*
X133299999Y-98678328D02*
X133299999Y-97178328D01*
X133299999Y-97178328D02*
X132799999Y-97178328D01*
X132799999Y-97178328D02*
X132657142Y-97249757D01*
X132657142Y-97249757D02*
X132585713Y-97321185D01*
X132585713Y-97321185D02*
X132514284Y-97464042D01*
X132514284Y-97464042D02*
X132514284Y-97606900D01*
X132514284Y-97606900D02*
X132585713Y-97749757D01*
X132585713Y-97749757D02*
X132657142Y-97821185D01*
X132657142Y-97821185D02*
X132799999Y-97892614D01*
X132799999Y-97892614D02*
X133299999Y-97892614D01*
X131799999Y-98678328D02*
X131799999Y-97678328D01*
X131799999Y-97964042D02*
X131728570Y-97821185D01*
X131728570Y-97821185D02*
X131657142Y-97749757D01*
X131657142Y-97749757D02*
X131514284Y-97678328D01*
X131514284Y-97678328D02*
X131371427Y-97678328D01*
X130299999Y-98606900D02*
X130442856Y-98678328D01*
X130442856Y-98678328D02*
X130728571Y-98678328D01*
X130728571Y-98678328D02*
X130871428Y-98606900D01*
X130871428Y-98606900D02*
X130942856Y-98464042D01*
X130942856Y-98464042D02*
X130942856Y-97892614D01*
X130942856Y-97892614D02*
X130871428Y-97749757D01*
X130871428Y-97749757D02*
X130728571Y-97678328D01*
X130728571Y-97678328D02*
X130442856Y-97678328D01*
X130442856Y-97678328D02*
X130299999Y-97749757D01*
X130299999Y-97749757D02*
X130228571Y-97892614D01*
X130228571Y-97892614D02*
X130228571Y-98035471D01*
X130228571Y-98035471D02*
X130942856Y-98178328D01*
X128942857Y-98678328D02*
X128942857Y-97892614D01*
X128942857Y-97892614D02*
X129014285Y-97749757D01*
X129014285Y-97749757D02*
X129157142Y-97678328D01*
X129157142Y-97678328D02*
X129442857Y-97678328D01*
X129442857Y-97678328D02*
X129585714Y-97749757D01*
X128942857Y-98606900D02*
X129085714Y-98678328D01*
X129085714Y-98678328D02*
X129442857Y-98678328D01*
X129442857Y-98678328D02*
X129585714Y-98606900D01*
X129585714Y-98606900D02*
X129657142Y-98464042D01*
X129657142Y-98464042D02*
X129657142Y-98321185D01*
X129657142Y-98321185D02*
X129585714Y-98178328D01*
X129585714Y-98178328D02*
X129442857Y-98106900D01*
X129442857Y-98106900D02*
X129085714Y-98106900D01*
X129085714Y-98106900D02*
X128942857Y-98035471D01*
X128228571Y-98678328D02*
X128228571Y-97178328D01*
X128085714Y-98106900D02*
X127657142Y-98678328D01*
X127657142Y-97678328D02*
X128228571Y-98249757D01*
X126799999Y-98678328D02*
X126942856Y-98606900D01*
X126942856Y-98606900D02*
X127014285Y-98535471D01*
X127014285Y-98535471D02*
X127085713Y-98392614D01*
X127085713Y-98392614D02*
X127085713Y-97964042D01*
X127085713Y-97964042D02*
X127014285Y-97821185D01*
X127014285Y-97821185D02*
X126942856Y-97749757D01*
X126942856Y-97749757D02*
X126799999Y-97678328D01*
X126799999Y-97678328D02*
X126585713Y-97678328D01*
X126585713Y-97678328D02*
X126442856Y-97749757D01*
X126442856Y-97749757D02*
X126371428Y-97821185D01*
X126371428Y-97821185D02*
X126299999Y-97964042D01*
X126299999Y-97964042D02*
X126299999Y-98392614D01*
X126299999Y-98392614D02*
X126371428Y-98535471D01*
X126371428Y-98535471D02*
X126442856Y-98606900D01*
X126442856Y-98606900D02*
X126585713Y-98678328D01*
X126585713Y-98678328D02*
X126799999Y-98678328D01*
X125014285Y-97678328D02*
X125014285Y-98678328D01*
X125657142Y-97678328D02*
X125657142Y-98464042D01*
X125657142Y-98464042D02*
X125585713Y-98606900D01*
X125585713Y-98606900D02*
X125442856Y-98678328D01*
X125442856Y-98678328D02*
X125228570Y-98678328D01*
X125228570Y-98678328D02*
X125085713Y-98606900D01*
X125085713Y-98606900D02*
X125014285Y-98535471D01*
X124514284Y-97678328D02*
X123942856Y-97678328D01*
X124299999Y-97178328D02*
X124299999Y-98464042D01*
X124299999Y-98464042D02*
X124228570Y-98606900D01*
X124228570Y-98606900D02*
X124085713Y-98678328D01*
X124085713Y-98678328D02*
X123942856Y-98678328D01*
X122442856Y-97678328D02*
X122085713Y-98678328D01*
X122085713Y-98678328D02*
X121728570Y-97678328D01*
X120371427Y-98678328D02*
X121228570Y-98678328D01*
X120799999Y-98678328D02*
X120799999Y-97178328D01*
X120799999Y-97178328D02*
X120942856Y-97392614D01*
X120942856Y-97392614D02*
X121085713Y-97535471D01*
X121085713Y-97535471D02*
X121228570Y-97606900D01*
X119728571Y-98535471D02*
X119657142Y-98606900D01*
X119657142Y-98606900D02*
X119728571Y-98678328D01*
X119728571Y-98678328D02*
X119799999Y-98606900D01*
X119799999Y-98606900D02*
X119728571Y-98535471D01*
X119728571Y-98535471D02*
X119728571Y-98678328D01*
X118728570Y-97178328D02*
X118585713Y-97178328D01*
X118585713Y-97178328D02*
X118442856Y-97249757D01*
X118442856Y-97249757D02*
X118371428Y-97321185D01*
X118371428Y-97321185D02*
X118299999Y-97464042D01*
X118299999Y-97464042D02*
X118228570Y-97749757D01*
X118228570Y-97749757D02*
X118228570Y-98106900D01*
X118228570Y-98106900D02*
X118299999Y-98392614D01*
X118299999Y-98392614D02*
X118371428Y-98535471D01*
X118371428Y-98535471D02*
X118442856Y-98606900D01*
X118442856Y-98606900D02*
X118585713Y-98678328D01*
X118585713Y-98678328D02*
X118728570Y-98678328D01*
X118728570Y-98678328D02*
X118871428Y-98606900D01*
X118871428Y-98606900D02*
X118942856Y-98535471D01*
X118942856Y-98535471D02*
X119014285Y-98392614D01*
X119014285Y-98392614D02*
X119085713Y-98106900D01*
X119085713Y-98106900D02*
X119085713Y-97749757D01*
X119085713Y-97749757D02*
X119014285Y-97464042D01*
X119014285Y-97464042D02*
X118942856Y-97321185D01*
X118942856Y-97321185D02*
X118871428Y-97249757D01*
X118871428Y-97249757D02*
X118728570Y-97178328D01*
D11*
X64219048Y-161304819D02*
X64219048Y-162019104D01*
X64219048Y-162019104D02*
X64266667Y-162161961D01*
X64266667Y-162161961D02*
X64361905Y-162257200D01*
X64361905Y-162257200D02*
X64504762Y-162304819D01*
X64504762Y-162304819D02*
X64600000Y-162304819D01*
X63266667Y-162304819D02*
X63742857Y-162304819D01*
X63742857Y-162304819D02*
X63742857Y-161304819D01*
X62361905Y-162209580D02*
X62409524Y-162257200D01*
X62409524Y-162257200D02*
X62552381Y-162304819D01*
X62552381Y-162304819D02*
X62647619Y-162304819D01*
X62647619Y-162304819D02*
X62790476Y-162257200D01*
X62790476Y-162257200D02*
X62885714Y-162161961D01*
X62885714Y-162161961D02*
X62933333Y-162066723D01*
X62933333Y-162066723D02*
X62980952Y-161876247D01*
X62980952Y-161876247D02*
X62980952Y-161733390D01*
X62980952Y-161733390D02*
X62933333Y-161542914D01*
X62933333Y-161542914D02*
X62885714Y-161447676D01*
X62885714Y-161447676D02*
X62790476Y-161352438D01*
X62790476Y-161352438D02*
X62647619Y-161304819D01*
X62647619Y-161304819D02*
X62552381Y-161304819D01*
X62552381Y-161304819D02*
X62409524Y-161352438D01*
X62409524Y-161352438D02*
X62361905Y-161400057D01*
X61647619Y-161304819D02*
X61647619Y-162019104D01*
X61647619Y-162019104D02*
X61695238Y-162161961D01*
X61695238Y-162161961D02*
X61790476Y-162257200D01*
X61790476Y-162257200D02*
X61933333Y-162304819D01*
X61933333Y-162304819D02*
X62028571Y-162304819D01*
X60695238Y-162304819D02*
X61171428Y-162304819D01*
X61171428Y-162304819D02*
X61171428Y-161304819D01*
X59790476Y-162209580D02*
X59838095Y-162257200D01*
X59838095Y-162257200D02*
X59980952Y-162304819D01*
X59980952Y-162304819D02*
X60076190Y-162304819D01*
X60076190Y-162304819D02*
X60219047Y-162257200D01*
X60219047Y-162257200D02*
X60314285Y-162161961D01*
X60314285Y-162161961D02*
X60361904Y-162066723D01*
X60361904Y-162066723D02*
X60409523Y-161876247D01*
X60409523Y-161876247D02*
X60409523Y-161733390D01*
X60409523Y-161733390D02*
X60361904Y-161542914D01*
X60361904Y-161542914D02*
X60314285Y-161447676D01*
X60314285Y-161447676D02*
X60219047Y-161352438D01*
X60219047Y-161352438D02*
X60076190Y-161304819D01*
X60076190Y-161304819D02*
X59980952Y-161304819D01*
X59980952Y-161304819D02*
X59838095Y-161352438D01*
X59838095Y-161352438D02*
X59790476Y-161400057D01*
X59076190Y-161304819D02*
X59076190Y-162019104D01*
X59076190Y-162019104D02*
X59123809Y-162161961D01*
X59123809Y-162161961D02*
X59219047Y-162257200D01*
X59219047Y-162257200D02*
X59361904Y-162304819D01*
X59361904Y-162304819D02*
X59457142Y-162304819D01*
X58123809Y-162304819D02*
X58599999Y-162304819D01*
X58599999Y-162304819D02*
X58599999Y-161304819D01*
X57219047Y-162209580D02*
X57266666Y-162257200D01*
X57266666Y-162257200D02*
X57409523Y-162304819D01*
X57409523Y-162304819D02*
X57504761Y-162304819D01*
X57504761Y-162304819D02*
X57647618Y-162257200D01*
X57647618Y-162257200D02*
X57742856Y-162161961D01*
X57742856Y-162161961D02*
X57790475Y-162066723D01*
X57790475Y-162066723D02*
X57838094Y-161876247D01*
X57838094Y-161876247D02*
X57838094Y-161733390D01*
X57838094Y-161733390D02*
X57790475Y-161542914D01*
X57790475Y-161542914D02*
X57742856Y-161447676D01*
X57742856Y-161447676D02*
X57647618Y-161352438D01*
X57647618Y-161352438D02*
X57504761Y-161304819D01*
X57504761Y-161304819D02*
X57409523Y-161304819D01*
X57409523Y-161304819D02*
X57266666Y-161352438D01*
X57266666Y-161352438D02*
X57219047Y-161400057D01*
X56504761Y-161304819D02*
X56504761Y-162019104D01*
X56504761Y-162019104D02*
X56552380Y-162161961D01*
X56552380Y-162161961D02*
X56647618Y-162257200D01*
X56647618Y-162257200D02*
X56790475Y-162304819D01*
X56790475Y-162304819D02*
X56885713Y-162304819D01*
X55552380Y-162304819D02*
X56028570Y-162304819D01*
X56028570Y-162304819D02*
X56028570Y-161304819D01*
X54647618Y-162209580D02*
X54695237Y-162257200D01*
X54695237Y-162257200D02*
X54838094Y-162304819D01*
X54838094Y-162304819D02*
X54933332Y-162304819D01*
X54933332Y-162304819D02*
X55076189Y-162257200D01*
X55076189Y-162257200D02*
X55171427Y-162161961D01*
X55171427Y-162161961D02*
X55219046Y-162066723D01*
X55219046Y-162066723D02*
X55266665Y-161876247D01*
X55266665Y-161876247D02*
X55266665Y-161733390D01*
X55266665Y-161733390D02*
X55219046Y-161542914D01*
X55219046Y-161542914D02*
X55171427Y-161447676D01*
X55171427Y-161447676D02*
X55076189Y-161352438D01*
X55076189Y-161352438D02*
X54933332Y-161304819D01*
X54933332Y-161304819D02*
X54838094Y-161304819D01*
X54838094Y-161304819D02*
X54695237Y-161352438D01*
X54695237Y-161352438D02*
X54647618Y-161400057D01*
M02*
