%TF.GenerationSoftware,KiCad,Pcbnew,(6.0.11)*%
%TF.CreationDate,2023-05-22T16:20:36+01:00*%
%TF.ProjectId,Quango_Components,5175616e-676f-45f4-936f-6d706f6e656e,rev?*%
%TF.SameCoordinates,Original*%
%TF.FileFunction,Legend,Bot*%
%TF.FilePolarity,Positive*%
%FSLAX46Y46*%
G04 Gerber Fmt 4.6, Leading zero omitted, Abs format (unit mm)*
G04 Created by KiCad (PCBNEW (6.0.11)) date 2023-05-22 16:20:36*
%MOMM*%
%LPD*%
G01*
G04 APERTURE LIST*
%ADD10C,0.150000*%
%ADD11C,0.120000*%
G04 APERTURE END LIST*
D10*
%TO.C,J1*%
X53433333Y-49122380D02*
X53433333Y-49836666D01*
X53480952Y-49979523D01*
X53576190Y-50074761D01*
X53719047Y-50122380D01*
X53814285Y-50122380D01*
X52433333Y-50122380D02*
X53004761Y-50122380D01*
X52719047Y-50122380D02*
X52719047Y-49122380D01*
X52814285Y-49265238D01*
X52909523Y-49360476D01*
X53004761Y-49408095D01*
%TO.C,J3*%
X128233333Y-49122380D02*
X128233333Y-49836666D01*
X128280952Y-49979523D01*
X128376190Y-50074761D01*
X128519047Y-50122380D01*
X128614285Y-50122380D01*
X127852380Y-49122380D02*
X127233333Y-49122380D01*
X127566666Y-49503333D01*
X127423809Y-49503333D01*
X127328571Y-49550952D01*
X127280952Y-49598571D01*
X127233333Y-49693809D01*
X127233333Y-49931904D01*
X127280952Y-50027142D01*
X127328571Y-50074761D01*
X127423809Y-50122380D01*
X127709523Y-50122380D01*
X127804761Y-50074761D01*
X127852380Y-50027142D01*
%TO.C,J2*%
X53433333Y-94922380D02*
X53433333Y-95636666D01*
X53480952Y-95779523D01*
X53576190Y-95874761D01*
X53719047Y-95922380D01*
X53814285Y-95922380D01*
X53004761Y-95017619D02*
X52957142Y-94970000D01*
X52861904Y-94922380D01*
X52623809Y-94922380D01*
X52528571Y-94970000D01*
X52480952Y-95017619D01*
X52433333Y-95112857D01*
X52433333Y-95208095D01*
X52480952Y-95350952D01*
X53052380Y-95922380D01*
X52433333Y-95922380D01*
%TO.C,J4*%
X128233333Y-105122380D02*
X128233333Y-105836666D01*
X128280952Y-105979523D01*
X128376190Y-106074761D01*
X128519047Y-106122380D01*
X128614285Y-106122380D01*
X127328571Y-105455714D02*
X127328571Y-106122380D01*
X127566666Y-105074761D02*
X127804761Y-105789047D01*
X127185714Y-105789047D01*
D11*
%TO.C,J1*%
X54430000Y-52000000D02*
X54430000Y-50670000D01*
X54430000Y-50670000D02*
X53100000Y-50670000D01*
X54430000Y-53270000D02*
X51770000Y-53270000D01*
X54430000Y-53270000D02*
X54430000Y-81270000D01*
X54430000Y-81270000D02*
X51770000Y-81270000D01*
X51770000Y-53270000D02*
X51770000Y-81270000D01*
%TO.C,J3*%
X126570000Y-53270000D02*
X126570000Y-81270000D01*
X129230000Y-50670000D02*
X127900000Y-50670000D01*
X129230000Y-53270000D02*
X126570000Y-53270000D01*
X129230000Y-52000000D02*
X129230000Y-50670000D01*
X129230000Y-53270000D02*
X129230000Y-81270000D01*
X129230000Y-81270000D02*
X126570000Y-81270000D01*
%TO.C,J2*%
X51770000Y-99070000D02*
X51770000Y-137230000D01*
X54430000Y-96470000D02*
X53100000Y-96470000D01*
X54430000Y-97800000D02*
X54430000Y-96470000D01*
X54430000Y-99070000D02*
X54430000Y-137230000D01*
X54430000Y-137230000D02*
X51770000Y-137230000D01*
X54430000Y-99070000D02*
X51770000Y-99070000D01*
%TO.C,J4*%
X129230000Y-108000000D02*
X129230000Y-106670000D01*
X129230000Y-137270000D02*
X126570000Y-137270000D01*
X129230000Y-109270000D02*
X126570000Y-109270000D01*
X126570000Y-109270000D02*
X126570000Y-137270000D01*
X129230000Y-109270000D02*
X129230000Y-137270000D01*
X129230000Y-106670000D02*
X127900000Y-106670000D01*
%TD*%
M02*
