%TF.GenerationSoftware,KiCad,Pcbnew,(6.0.11)*%
%TF.CreationDate,2023-05-22T17:30:27+01:00*%
%TF.ProjectId,Quango_Components,5175616e-676f-45f4-936f-6d706f6e656e,rev?*%
%TF.SameCoordinates,Original*%
%TF.FileFunction,Paste,Top*%
%TF.FilePolarity,Positive*%
%FSLAX46Y46*%
G04 Gerber Fmt 4.6, Leading zero omitted, Abs format (unit mm)*
G04 Created by KiCad (PCBNEW (6.0.11)) date 2023-05-22 17:30:27*
%MOMM*%
%LPD*%
G01*
G04 APERTURE LIST*
G04 Aperture macros list*
%AMRoundRect*
0 Rectangle with rounded corners*
0 $1 Rounding radius*
0 $2 $3 $4 $5 $6 $7 $8 $9 X,Y pos of 4 corners*
0 Add a 4 corners polygon primitive as box body*
4,1,4,$2,$3,$4,$5,$6,$7,$8,$9,$2,$3,0*
0 Add four circle primitives for the rounded corners*
1,1,$1+$1,$2,$3*
1,1,$1+$1,$4,$5*
1,1,$1+$1,$6,$7*
1,1,$1+$1,$8,$9*
0 Add four rect primitives between the rounded corners*
20,1,$1+$1,$2,$3,$4,$5,0*
20,1,$1+$1,$4,$5,$6,$7,0*
20,1,$1+$1,$6,$7,$8,$9,0*
20,1,$1+$1,$8,$9,$2,$3,0*%
G04 Aperture macros list end*
%ADD10RoundRect,0.200000X0.200000X0.275000X-0.200000X0.275000X-0.200000X-0.275000X0.200000X-0.275000X0*%
%ADD11RoundRect,0.200000X-0.200000X-0.275000X0.200000X-0.275000X0.200000X0.275000X-0.200000X0.275000X0*%
%ADD12R,1.900000X2.500000*%
%ADD13RoundRect,0.225000X0.225000X0.250000X-0.225000X0.250000X-0.225000X-0.250000X0.225000X-0.250000X0*%
%ADD14RoundRect,0.225000X-0.225000X-0.250000X0.225000X-0.250000X0.225000X0.250000X-0.225000X0.250000X0*%
%ADD15RoundRect,0.100000X-0.637500X-0.100000X0.637500X-0.100000X0.637500X0.100000X-0.637500X0.100000X0*%
%ADD16RoundRect,0.150000X-0.825000X-0.150000X0.825000X-0.150000X0.825000X0.150000X-0.825000X0.150000X0*%
%ADD17RoundRect,0.250000X-0.550000X1.050000X-0.550000X-1.050000X0.550000X-1.050000X0.550000X1.050000X0*%
%ADD18RoundRect,0.250000X0.275000X0.350000X-0.275000X0.350000X-0.275000X-0.350000X0.275000X-0.350000X0*%
%ADD19R,1.500000X2.000000*%
%ADD20R,3.800000X2.000000*%
%ADD21RoundRect,0.250000X-0.650000X0.325000X-0.650000X-0.325000X0.650000X-0.325000X0.650000X0.325000X0*%
%ADD22R,1.200000X0.900000*%
%ADD23RoundRect,0.075000X-0.725000X0.075000X-0.725000X-0.075000X0.725000X-0.075000X0.725000X0.075000X0*%
%ADD24RoundRect,0.075000X-0.075000X0.725000X-0.075000X-0.725000X0.075000X-0.725000X0.075000X0.725000X0*%
%ADD25RoundRect,0.250000X0.650000X-0.325000X0.650000X0.325000X-0.650000X0.325000X-0.650000X-0.325000X0*%
%ADD26RoundRect,0.250000X-0.250000X-0.475000X0.250000X-0.475000X0.250000X0.475000X-0.250000X0.475000X0*%
%ADD27RoundRect,0.225000X-0.250000X0.225000X-0.250000X-0.225000X0.250000X-0.225000X0.250000X0.225000X0*%
%ADD28RoundRect,0.150000X-0.150000X0.587500X-0.150000X-0.587500X0.150000X-0.587500X0.150000X0.587500X0*%
%ADD29RoundRect,0.250000X0.250000X0.475000X-0.250000X0.475000X-0.250000X-0.475000X0.250000X-0.475000X0*%
%ADD30R,1.400000X0.300000*%
%ADD31R,2.200000X1.000000*%
%ADD32RoundRect,0.100000X0.637500X0.100000X-0.637500X0.100000X-0.637500X-0.100000X0.637500X-0.100000X0*%
%ADD33RoundRect,0.225000X0.250000X-0.225000X0.250000X0.225000X-0.250000X0.225000X-0.250000X-0.225000X0*%
G04 APERTURE END LIST*
D10*
%TO.C,R3*%
X67925000Y-55100000D03*
X66275000Y-55100000D03*
%TD*%
D11*
%TO.C,R10*%
X66275000Y-53500000D03*
X67925000Y-53500000D03*
%TD*%
%TO.C,R29*%
X66275000Y-118700000D03*
X67925000Y-118700000D03*
%TD*%
D10*
%TO.C,R33*%
X67925000Y-120300000D03*
X66275000Y-120300000D03*
%TD*%
D11*
%TO.C,R17*%
X66275000Y-113900000D03*
X67925000Y-113900000D03*
%TD*%
D10*
%TO.C,R87*%
X112625000Y-130700000D03*
X110975000Y-130700000D03*
%TD*%
D12*
%TO.C,Y1*%
X108100000Y-68700000D03*
X103700000Y-68700000D03*
%TD*%
D13*
%TO.C,C29*%
X80275000Y-74300000D03*
X78725000Y-74300000D03*
%TD*%
D11*
%TO.C,R4*%
X66275000Y-56700000D03*
X67925000Y-56700000D03*
%TD*%
%TO.C,R52*%
X66275000Y-83200000D03*
X67925000Y-83200000D03*
%TD*%
D10*
%TO.C,R82*%
X117525000Y-56400000D03*
X115875000Y-56400000D03*
%TD*%
D11*
%TO.C,R35*%
X78675000Y-117100000D03*
X80325000Y-117100000D03*
%TD*%
D14*
%TO.C,C55*%
X98625000Y-115300000D03*
X100175000Y-115300000D03*
%TD*%
D10*
%TO.C,R28*%
X80325000Y-120300000D03*
X78675000Y-120300000D03*
%TD*%
%TO.C,R44*%
X112625000Y-124200000D03*
X110975000Y-124200000D03*
%TD*%
D13*
%TO.C,C53*%
X100175000Y-96700000D03*
X98625000Y-96700000D03*
%TD*%
D10*
%TO.C,R78*%
X117525000Y-66000000D03*
X115875000Y-66000000D03*
%TD*%
%TO.C,R66*%
X80325000Y-109600000D03*
X78675000Y-109600000D03*
%TD*%
D15*
%TO.C,U11*%
X108462500Y-120650000D03*
X108462500Y-121300000D03*
X108462500Y-121950000D03*
X108462500Y-122600000D03*
X108462500Y-123250000D03*
X108462500Y-123900000D03*
X108462500Y-124550000D03*
X102737500Y-124550000D03*
X102737500Y-123900000D03*
X102737500Y-123250000D03*
X102737500Y-122600000D03*
X102737500Y-121950000D03*
X102737500Y-121300000D03*
X102737500Y-120650000D03*
%TD*%
D14*
%TO.C,C5*%
X93825000Y-79700000D03*
X95375000Y-79700000D03*
%TD*%
D11*
%TO.C,R73*%
X66275000Y-101600000D03*
X67925000Y-101600000D03*
%TD*%
%TO.C,R43*%
X110975000Y-103007933D03*
X112625000Y-103007933D03*
%TD*%
D14*
%TO.C,C31*%
X66325000Y-79100000D03*
X67875000Y-79100000D03*
%TD*%
D10*
%TO.C,R93*%
X100225000Y-134500000D03*
X98575000Y-134500000D03*
%TD*%
%TO.C,R25*%
X67925000Y-71100000D03*
X66275000Y-71100000D03*
%TD*%
D14*
%TO.C,C3*%
X93825000Y-78200000D03*
X95375000Y-78200000D03*
%TD*%
D11*
%TO.C,R49*%
X110975000Y-119400000D03*
X112625000Y-119400000D03*
%TD*%
%TO.C,R64*%
X78675000Y-96800000D03*
X80325000Y-96800000D03*
%TD*%
D13*
%TO.C,C32*%
X80275000Y-69500000D03*
X78725000Y-69500000D03*
%TD*%
D11*
%TO.C,R69*%
X66275000Y-100000000D03*
X67925000Y-100000000D03*
%TD*%
D13*
%TO.C,C37*%
X100175000Y-106200000D03*
X98625000Y-106200000D03*
%TD*%
%TO.C,C56*%
X100175000Y-131300000D03*
X98625000Y-131300000D03*
%TD*%
D11*
%TO.C,R85*%
X110975000Y-99200000D03*
X112625000Y-99200000D03*
%TD*%
D16*
%TO.C,U6*%
X75775000Y-69055000D03*
X75775000Y-70325000D03*
X75775000Y-71595000D03*
X75775000Y-72865000D03*
X75775000Y-74135000D03*
X75775000Y-75405000D03*
X75775000Y-76675000D03*
X75775000Y-77945000D03*
X70825000Y-77945000D03*
X70825000Y-76675000D03*
X70825000Y-75405000D03*
X70825000Y-74135000D03*
X70825000Y-72865000D03*
X70825000Y-71595000D03*
X70825000Y-70325000D03*
X70825000Y-69055000D03*
%TD*%
D17*
%TO.C,C20*%
X55300000Y-46300000D03*
X55300000Y-42700000D03*
%TD*%
D13*
%TO.C,C33*%
X80275000Y-123500000D03*
X78725000Y-123500000D03*
%TD*%
D10*
%TO.C,R14*%
X67925000Y-126700000D03*
X66275000Y-126700000D03*
%TD*%
%TO.C,R59*%
X80325000Y-129700000D03*
X78675000Y-129700000D03*
%TD*%
%TO.C,R12*%
X80325000Y-56700000D03*
X78675000Y-56700000D03*
%TD*%
D13*
%TO.C,C16*%
X117475000Y-75000000D03*
X115925000Y-75000000D03*
%TD*%
D14*
%TO.C,C45*%
X78725000Y-103200000D03*
X80275000Y-103200000D03*
%TD*%
D10*
%TO.C,R55*%
X80325000Y-83200000D03*
X78675000Y-83200000D03*
%TD*%
D18*
%TO.C,L1*%
X117150000Y-50600000D03*
X119450000Y-50600000D03*
%TD*%
D10*
%TO.C,R31*%
X80325000Y-115500000D03*
X78675000Y-115500000D03*
%TD*%
D19*
%TO.C,U3*%
X64300000Y-47650000D03*
D20*
X62000000Y-41350000D03*
D19*
X62000000Y-47650000D03*
X59700000Y-47650000D03*
%TD*%
D14*
%TO.C,C34*%
X66325000Y-117100000D03*
X67875000Y-117100000D03*
%TD*%
D13*
%TO.C,C46*%
X67875000Y-103200000D03*
X66325000Y-103200000D03*
%TD*%
D10*
%TO.C,R70*%
X80325000Y-100000000D03*
X78675000Y-100000000D03*
%TD*%
D11*
%TO.C,R15*%
X78675000Y-126700000D03*
X80325000Y-126700000D03*
%TD*%
D13*
%TO.C,C41*%
X67875000Y-85000000D03*
X66325000Y-85000000D03*
%TD*%
D21*
%TO.C,C6*%
X112400000Y-45975000D03*
X112400000Y-43025000D03*
%TD*%
D14*
%TO.C,C23*%
X78725000Y-79100000D03*
X80275000Y-79100000D03*
%TD*%
D15*
%TO.C,U8*%
X108462500Y-112375000D03*
X108462500Y-113025000D03*
X108462500Y-113675000D03*
X108462500Y-114325000D03*
X108462500Y-114975000D03*
X108462500Y-115625000D03*
X108462500Y-116275000D03*
X108462500Y-116925000D03*
X108462500Y-117575000D03*
X108462500Y-118225000D03*
X102737500Y-118225000D03*
X102737500Y-117575000D03*
X102737500Y-116925000D03*
X102737500Y-116275000D03*
X102737500Y-115625000D03*
X102737500Y-114975000D03*
X102737500Y-114325000D03*
X102737500Y-113675000D03*
X102737500Y-113025000D03*
X102737500Y-112375000D03*
%TD*%
D11*
%TO.C,R72*%
X66275000Y-109600000D03*
X67925000Y-109600000D03*
%TD*%
D10*
%TO.C,R58*%
X80325000Y-132900000D03*
X78675000Y-132900000D03*
%TD*%
D11*
%TO.C,R65*%
X78675000Y-98400000D03*
X80325000Y-98400000D03*
%TD*%
D22*
%TO.C,D3*%
X76400000Y-42850000D03*
X76400000Y-46150000D03*
%TD*%
D10*
%TO.C,R1*%
X107025000Y-56400000D03*
X105375000Y-56400000D03*
%TD*%
%TO.C,R38*%
X112625000Y-107807933D03*
X110975000Y-107807933D03*
%TD*%
D23*
%TO.C,U2*%
X113275000Y-75000000D03*
X113275000Y-75500000D03*
X113275000Y-76000000D03*
X113275000Y-76500000D03*
X113275000Y-77000000D03*
X113275000Y-77500000D03*
X113275000Y-78000000D03*
X113275000Y-78500000D03*
X113275000Y-79000000D03*
X113275000Y-79500000D03*
X113275000Y-80000000D03*
X113275000Y-80500000D03*
X113275000Y-81000000D03*
X113275000Y-81500000D03*
X113275000Y-82000000D03*
X113275000Y-82500000D03*
X113275000Y-83000000D03*
X113275000Y-83500000D03*
X113275000Y-84000000D03*
X113275000Y-84500000D03*
X113275000Y-85000000D03*
X113275000Y-85500000D03*
X113275000Y-86000000D03*
X113275000Y-86500000D03*
X113275000Y-87000000D03*
D24*
X111600000Y-88675000D03*
X111100000Y-88675000D03*
X110600000Y-88675000D03*
X110100000Y-88675000D03*
X109600000Y-88675000D03*
X109100000Y-88675000D03*
X108600000Y-88675000D03*
X108100000Y-88675000D03*
X107600000Y-88675000D03*
X107100000Y-88675000D03*
X106600000Y-88675000D03*
X106100000Y-88675000D03*
X105600000Y-88675000D03*
X105100000Y-88675000D03*
X104600000Y-88675000D03*
X104100000Y-88675000D03*
X103600000Y-88675000D03*
X103100000Y-88675000D03*
X102600000Y-88675000D03*
X102100000Y-88675000D03*
X101600000Y-88675000D03*
X101100000Y-88675000D03*
X100600000Y-88675000D03*
X100100000Y-88675000D03*
X99600000Y-88675000D03*
D23*
X97925000Y-87000000D03*
X97925000Y-86500000D03*
X97925000Y-86000000D03*
X97925000Y-85500000D03*
X97925000Y-85000000D03*
X97925000Y-84500000D03*
X97925000Y-84000000D03*
X97925000Y-83500000D03*
X97925000Y-83000000D03*
X97925000Y-82500000D03*
X97925000Y-82000000D03*
X97925000Y-81500000D03*
X97925000Y-81000000D03*
X97925000Y-80500000D03*
X97925000Y-80000000D03*
X97925000Y-79500000D03*
X97925000Y-79000000D03*
X97925000Y-78500000D03*
X97925000Y-78000000D03*
X97925000Y-77500000D03*
X97925000Y-77000000D03*
X97925000Y-76500000D03*
X97925000Y-76000000D03*
X97925000Y-75500000D03*
X97925000Y-75000000D03*
D24*
X99600000Y-73325000D03*
X100100000Y-73325000D03*
X100600000Y-73325000D03*
X101100000Y-73325000D03*
X101600000Y-73325000D03*
X102100000Y-73325000D03*
X102600000Y-73325000D03*
X103100000Y-73325000D03*
X103600000Y-73325000D03*
X104100000Y-73325000D03*
X104600000Y-73325000D03*
X105100000Y-73325000D03*
X105600000Y-73325000D03*
X106100000Y-73325000D03*
X106600000Y-73325000D03*
X107100000Y-73325000D03*
X107600000Y-73325000D03*
X108100000Y-73325000D03*
X108600000Y-73325000D03*
X109100000Y-73325000D03*
X109600000Y-73325000D03*
X110100000Y-73325000D03*
X110600000Y-73325000D03*
X111100000Y-73325000D03*
X111600000Y-73325000D03*
%TD*%
D10*
%TO.C,R41*%
X100225000Y-109400000D03*
X98575000Y-109400000D03*
%TD*%
D14*
%TO.C,C42*%
X78725000Y-85000000D03*
X80275000Y-85000000D03*
%TD*%
D10*
%TO.C,R77*%
X117515000Y-62810000D03*
X115865000Y-62810000D03*
%TD*%
D13*
%TO.C,C24*%
X80275000Y-67900000D03*
X78725000Y-67900000D03*
%TD*%
D14*
%TO.C,C18*%
X93825000Y-81200000D03*
X95375000Y-81200000D03*
%TD*%
D25*
%TO.C,C17*%
X67600000Y-43025000D03*
X67600000Y-45975000D03*
%TD*%
D16*
%TO.C,U5*%
X75775000Y-51795000D03*
X75775000Y-53065000D03*
X75775000Y-54335000D03*
X75775000Y-55605000D03*
X70825000Y-55605000D03*
X70825000Y-54335000D03*
X70825000Y-53065000D03*
X70825000Y-51795000D03*
%TD*%
D14*
%TO.C,C25*%
X78725000Y-53500000D03*
X80275000Y-53500000D03*
%TD*%
D11*
%TO.C,R22*%
X66275000Y-75900000D03*
X67925000Y-75900000D03*
%TD*%
D10*
%TO.C,R54*%
X80325000Y-86800000D03*
X78675000Y-86800000D03*
%TD*%
D11*
%TO.C,R75*%
X78675000Y-108000000D03*
X80325000Y-108000000D03*
%TD*%
D10*
%TO.C,R45*%
X112625000Y-121000000D03*
X110975000Y-121000000D03*
%TD*%
D11*
%TO.C,R11*%
X78675000Y-55100000D03*
X80325000Y-55100000D03*
%TD*%
%TO.C,R74*%
X78675000Y-101600000D03*
X80325000Y-101600000D03*
%TD*%
%TO.C,R42*%
X110975000Y-109407933D03*
X112625000Y-109407933D03*
%TD*%
%TO.C,R57*%
X66275000Y-132900000D03*
X67925000Y-132900000D03*
%TD*%
D26*
%TO.C,C48*%
X112750000Y-111900000D03*
X110850000Y-111900000D03*
%TD*%
D19*
%TO.C,U1*%
X116000000Y-41150000D03*
D20*
X118300000Y-47450000D03*
D19*
X118300000Y-41150000D03*
X120600000Y-41150000D03*
%TD*%
D11*
%TO.C,R62*%
X66275000Y-96800000D03*
X67925000Y-96800000D03*
%TD*%
D10*
%TO.C,R79*%
X117525000Y-61200000D03*
X115875000Y-61200000D03*
%TD*%
D11*
%TO.C,R46*%
X98575000Y-121000000D03*
X100225000Y-121000000D03*
%TD*%
D17*
%TO.C,C12*%
X72100000Y-46300000D03*
X72100000Y-42700000D03*
%TD*%
D11*
%TO.C,R24*%
X78675000Y-75900000D03*
X80325000Y-75900000D03*
%TD*%
%TO.C,R19*%
X105475000Y-61100000D03*
X107125000Y-61100000D03*
%TD*%
D17*
%TO.C,C11*%
X107800000Y-46300000D03*
X107800000Y-42700000D03*
%TD*%
D11*
%TO.C,R53*%
X66275000Y-86800000D03*
X67925000Y-86800000D03*
%TD*%
D10*
%TO.C,R18*%
X107125000Y-59400000D03*
X105475000Y-59400000D03*
%TD*%
D15*
%TO.C,U12*%
X76162500Y-83050000D03*
X76162500Y-83700000D03*
X76162500Y-84350000D03*
X76162500Y-85000000D03*
X76162500Y-85650000D03*
X76162500Y-86300000D03*
X76162500Y-86950000D03*
X70437500Y-86950000D03*
X70437500Y-86300000D03*
X70437500Y-85650000D03*
X70437500Y-85000000D03*
X70437500Y-84350000D03*
X70437500Y-83700000D03*
X70437500Y-83050000D03*
%TD*%
D11*
%TO.C,R68*%
X66275000Y-108000000D03*
X67925000Y-108000000D03*
%TD*%
%TO.C,R88*%
X98575000Y-129700000D03*
X100225000Y-129700000D03*
%TD*%
D15*
%TO.C,U10*%
X108462500Y-104250000D03*
X108462500Y-104900000D03*
X108462500Y-105550000D03*
X108462500Y-106200000D03*
X108462500Y-106850000D03*
X108462500Y-107500000D03*
X108462500Y-108150000D03*
X102737500Y-108150000D03*
X102737500Y-107500000D03*
X102737500Y-106850000D03*
X102737500Y-106200000D03*
X102737500Y-105550000D03*
X102737500Y-104900000D03*
X102737500Y-104250000D03*
%TD*%
D14*
%TO.C,C26*%
X66325000Y-112300000D03*
X67875000Y-112300000D03*
%TD*%
%TO.C,C35*%
X66325000Y-125100000D03*
X67875000Y-125100000D03*
%TD*%
D15*
%TO.C,U15*%
X102737500Y-129350000D03*
X102737500Y-130000000D03*
X102737500Y-130650000D03*
X102737500Y-131300000D03*
X102737500Y-131950000D03*
X102737500Y-132600000D03*
X102737500Y-133250000D03*
X108462500Y-133250000D03*
X108462500Y-132600000D03*
X108462500Y-131950000D03*
X108462500Y-131300000D03*
X108462500Y-130650000D03*
X108462500Y-130000000D03*
X108462500Y-129350000D03*
%TD*%
D11*
%TO.C,R91*%
X110975000Y-129100000D03*
X112625000Y-129100000D03*
%TD*%
D10*
%TO.C,R23*%
X80325000Y-72700000D03*
X78675000Y-72700000D03*
%TD*%
%TO.C,R50*%
X100225000Y-119400000D03*
X98575000Y-119400000D03*
%TD*%
D11*
%TO.C,R71*%
X78675000Y-106400000D03*
X80325000Y-106400000D03*
%TD*%
D10*
%TO.C,R2*%
X117525000Y-77500000D03*
X115875000Y-77500000D03*
%TD*%
%TO.C,R34*%
X67925000Y-123500000D03*
X66275000Y-123500000D03*
%TD*%
D11*
%TO.C,R8*%
X78675000Y-66300000D03*
X80325000Y-66300000D03*
%TD*%
D14*
%TO.C,C47*%
X111025000Y-113707933D03*
X112575000Y-113707933D03*
%TD*%
D22*
%TO.C,D2*%
X103600000Y-42850000D03*
X103600000Y-46150000D03*
%TD*%
D13*
%TO.C,C15*%
X113175000Y-91700000D03*
X111625000Y-91700000D03*
%TD*%
D11*
%TO.C,R89*%
X98575000Y-132900000D03*
X100225000Y-132900000D03*
%TD*%
D27*
%TO.C,C4*%
X110300000Y-68925000D03*
X110300000Y-70475000D03*
%TD*%
D10*
%TO.C,R80*%
X117525000Y-59600000D03*
X115875000Y-59600000D03*
%TD*%
D11*
%TO.C,R27*%
X78675000Y-71100000D03*
X80325000Y-71100000D03*
%TD*%
%TO.C,R9*%
X66275000Y-67900000D03*
X67925000Y-67900000D03*
%TD*%
D10*
%TO.C,R83*%
X117525000Y-54800000D03*
X115875000Y-54800000D03*
%TD*%
D28*
%TO.C,D1*%
X102200000Y-56537500D03*
X101250000Y-54662500D03*
X103150000Y-54662500D03*
%TD*%
D11*
%TO.C,R47*%
X98575000Y-124200000D03*
X100225000Y-124200000D03*
%TD*%
D17*
%TO.C,C14*%
X125300000Y-46300000D03*
X125300000Y-42700000D03*
%TD*%
D10*
%TO.C,R13*%
X67925000Y-115500000D03*
X66275000Y-115500000D03*
%TD*%
D11*
%TO.C,R7*%
X78675000Y-80700000D03*
X80325000Y-80700000D03*
%TD*%
%TO.C,R56*%
X66275000Y-129700000D03*
X67925000Y-129700000D03*
%TD*%
D13*
%TO.C,C1*%
X106975000Y-54800000D03*
X105425000Y-54800000D03*
%TD*%
D29*
%TO.C,C50*%
X98450000Y-111900000D03*
X100350000Y-111900000D03*
%TD*%
D10*
%TO.C,R76*%
X117525000Y-64400000D03*
X115875000Y-64400000D03*
%TD*%
D11*
%TO.C,R37*%
X98575000Y-107800000D03*
X100225000Y-107800000D03*
%TD*%
D10*
%TO.C,R20*%
X80325000Y-77500000D03*
X78675000Y-77500000D03*
%TD*%
D11*
%TO.C,R48*%
X110975000Y-125800000D03*
X112625000Y-125800000D03*
%TD*%
D30*
%TO.C,U9*%
X107800000Y-97200000D03*
X107800000Y-97700000D03*
X107800000Y-98200000D03*
X107800000Y-98700000D03*
X107800000Y-99200000D03*
X103400000Y-99200000D03*
X103400000Y-98700000D03*
X103400000Y-98200000D03*
X103400000Y-97700000D03*
X103400000Y-97200000D03*
%TD*%
D31*
%TO.C,RESET1*%
X94600000Y-59500000D03*
X87800000Y-59500000D03*
X87800000Y-63500000D03*
X94600000Y-63500000D03*
%TD*%
D11*
%TO.C,R16*%
X78675000Y-112300000D03*
X80325000Y-112300000D03*
%TD*%
D10*
%TO.C,R60*%
X67925000Y-104800000D03*
X66275000Y-104800000D03*
%TD*%
D13*
%TO.C,C28*%
X80275000Y-113900000D03*
X78725000Y-113900000D03*
%TD*%
D11*
%TO.C,R36*%
X98575000Y-104600000D03*
X100225000Y-104600000D03*
%TD*%
D14*
%TO.C,C44*%
X78725000Y-131300000D03*
X80275000Y-131300000D03*
%TD*%
D13*
%TO.C,C39*%
X100175000Y-122600000D03*
X98625000Y-122600000D03*
%TD*%
D15*
%TO.C,U13*%
X76162500Y-129350000D03*
X76162500Y-130000000D03*
X76162500Y-130650000D03*
X76162500Y-131300000D03*
X76162500Y-131950000D03*
X76162500Y-132600000D03*
X76162500Y-133250000D03*
X70437500Y-133250000D03*
X70437500Y-132600000D03*
X70437500Y-131950000D03*
X70437500Y-131300000D03*
X70437500Y-130650000D03*
X70437500Y-130000000D03*
X70437500Y-129350000D03*
%TD*%
D10*
%TO.C,R5*%
X67925000Y-69500000D03*
X66275000Y-69500000D03*
%TD*%
D13*
%TO.C,C43*%
X67875000Y-131300000D03*
X66325000Y-131300000D03*
%TD*%
D10*
%TO.C,R51*%
X100225000Y-125800000D03*
X98575000Y-125800000D03*
%TD*%
D11*
%TO.C,R67*%
X78675000Y-104800000D03*
X80325000Y-104800000D03*
%TD*%
D14*
%TO.C,C40*%
X111025000Y-122600000D03*
X112575000Y-122600000D03*
%TD*%
D28*
%TO.C,Q1*%
X103250000Y-59400000D03*
X101350000Y-59400000D03*
X102300000Y-61275000D03*
%TD*%
D14*
%TO.C,C27*%
X78725000Y-125100000D03*
X80275000Y-125100000D03*
%TD*%
D10*
%TO.C,R81*%
X117525000Y-58000000D03*
X115875000Y-58000000D03*
%TD*%
D11*
%TO.C,R84*%
X110975000Y-115600000D03*
X112625000Y-115600000D03*
%TD*%
D10*
%TO.C,R61*%
X67925000Y-106400000D03*
X66275000Y-106400000D03*
%TD*%
D13*
%TO.C,C9*%
X104775000Y-65700000D03*
X103225000Y-65700000D03*
%TD*%
D14*
%TO.C,C19*%
X93825000Y-82700000D03*
X95375000Y-82700000D03*
%TD*%
D13*
%TO.C,C51*%
X100175000Y-98200000D03*
X98625000Y-98200000D03*
%TD*%
D29*
%TO.C,C52*%
X98450000Y-100000000D03*
X100350000Y-100000000D03*
%TD*%
D11*
%TO.C,R21*%
X66275000Y-72700000D03*
X67925000Y-72700000D03*
%TD*%
D14*
%TO.C,C10*%
X93825000Y-86500000D03*
X95375000Y-86500000D03*
%TD*%
D11*
%TO.C,R30*%
X66275000Y-121900000D03*
X67925000Y-121900000D03*
%TD*%
%TO.C,R90*%
X110975000Y-134500000D03*
X112625000Y-134500000D03*
%TD*%
%TO.C,R92*%
X98575000Y-128100000D03*
X100225000Y-128100000D03*
%TD*%
D10*
%TO.C,R6*%
X67925000Y-80700000D03*
X66275000Y-80700000D03*
%TD*%
D14*
%TO.C,C21*%
X66325000Y-66300000D03*
X67875000Y-66300000D03*
%TD*%
D32*
%TO.C,U4*%
X70437500Y-64875000D03*
X70437500Y-64225000D03*
X70437500Y-63575000D03*
X70437500Y-62925000D03*
X70437500Y-62275000D03*
X70437500Y-61625000D03*
X70437500Y-60975000D03*
X70437500Y-60325000D03*
X76162500Y-60325000D03*
X76162500Y-60975000D03*
X76162500Y-61625000D03*
X76162500Y-62275000D03*
X76162500Y-62925000D03*
X76162500Y-63575000D03*
X76162500Y-64225000D03*
X76162500Y-64875000D03*
%TD*%
D11*
%TO.C,R63*%
X66275000Y-98400000D03*
X67925000Y-98400000D03*
%TD*%
D33*
%TO.C,C2*%
X107600000Y-93275000D03*
X107600000Y-91725000D03*
%TD*%
D10*
%TO.C,R86*%
X112625000Y-132900000D03*
X110975000Y-132900000D03*
%TD*%
D11*
%TO.C,R32*%
X78675000Y-121900000D03*
X80325000Y-121900000D03*
%TD*%
D14*
%TO.C,C22*%
X66325000Y-51900000D03*
X67875000Y-51900000D03*
%TD*%
D10*
%TO.C,R39*%
X112625000Y-104607933D03*
X110975000Y-104607933D03*
%TD*%
D13*
%TO.C,C49*%
X100175000Y-113700000D03*
X98625000Y-113700000D03*
%TD*%
D14*
%TO.C,C38*%
X111025000Y-106207933D03*
X112575000Y-106207933D03*
%TD*%
%TO.C,C7*%
X97625000Y-70500000D03*
X99175000Y-70500000D03*
%TD*%
D15*
%TO.C,U14*%
X76162500Y-101250000D03*
X76162500Y-101900000D03*
X76162500Y-102550000D03*
X76162500Y-103200000D03*
X76162500Y-103850000D03*
X76162500Y-104500000D03*
X76162500Y-105150000D03*
X70437500Y-105150000D03*
X70437500Y-104500000D03*
X70437500Y-103850000D03*
X70437500Y-103200000D03*
X70437500Y-102550000D03*
X70437500Y-101900000D03*
X70437500Y-101250000D03*
%TD*%
D16*
%TO.C,U7*%
X75775000Y-115055000D03*
X75775000Y-116325000D03*
X75775000Y-117595000D03*
X75775000Y-118865000D03*
X75775000Y-120135000D03*
X75775000Y-121405000D03*
X75775000Y-122675000D03*
X75775000Y-123945000D03*
X70825000Y-123945000D03*
X70825000Y-122675000D03*
X70825000Y-121405000D03*
X70825000Y-120135000D03*
X70825000Y-118865000D03*
X70825000Y-117595000D03*
X70825000Y-116325000D03*
X70825000Y-115055000D03*
%TD*%
D14*
%TO.C,C30*%
X66325000Y-74300000D03*
X67875000Y-74300000D03*
%TD*%
D33*
%TO.C,C13*%
X106000000Y-93275000D03*
X106000000Y-91725000D03*
%TD*%
D29*
%TO.C,C54*%
X98450000Y-94900000D03*
X100350000Y-94900000D03*
%TD*%
D14*
%TO.C,C8*%
X107025000Y-65700000D03*
X108575000Y-65700000D03*
%TD*%
D10*
%TO.C,R26*%
X67925000Y-77500000D03*
X66275000Y-77500000D03*
%TD*%
D13*
%TO.C,C36*%
X80275000Y-118700000D03*
X78725000Y-118700000D03*
%TD*%
D10*
%TO.C,R40*%
X100225000Y-103000000D03*
X98575000Y-103000000D03*
%TD*%
M02*
