%TF.GenerationSoftware,KiCad,Pcbnew,(6.0.11)*%
%TF.CreationDate,2023-05-22T16:20:36+01:00*%
%TF.ProjectId,Quango_Components,5175616e-676f-45f4-936f-6d706f6e656e,rev?*%
%TF.SameCoordinates,Original*%
%TF.FileFunction,Soldermask,Bot*%
%TF.FilePolarity,Negative*%
%FSLAX46Y46*%
G04 Gerber Fmt 4.6, Leading zero omitted, Abs format (unit mm)*
G04 Created by KiCad (PCBNEW (6.0.11)) date 2023-05-22 16:20:36*
%MOMM*%
%LPD*%
G01*
G04 APERTURE LIST*
%ADD10C,0.100000*%
%ADD11C,1.700000*%
%ADD12R,1.700000X1.700000*%
%ADD13O,1.700000X1.700000*%
G04 APERTURE END LIST*
%TO.C,FID1*%
G36*
X119800000Y-138350000D02*
G01*
X111800000Y-138350000D01*
X111800000Y-136350000D01*
X119800000Y-136350000D01*
X119800000Y-138350000D01*
G37*
D10*
X119800000Y-138350000D02*
X111800000Y-138350000D01*
X111800000Y-136350000D01*
X119800000Y-136350000D01*
X119800000Y-138350000D01*
%TD*%
D11*
%TO.C,TP3*%
X89900000Y-52500000D03*
%TD*%
D12*
%TO.C,J5*%
X127950000Y-96220000D03*
D11*
X127950000Y-93680000D03*
X127950000Y-91140000D03*
X127950000Y-88600000D03*
%TD*%
%TO.C,TP4*%
X94200000Y-52500000D03*
%TD*%
%TO.C,TP2*%
X105700000Y-52600000D03*
%TD*%
%TO.C,TP7*%
X122900000Y-136000000D03*
%TD*%
%TO.C,TP5*%
X85300000Y-52500000D03*
%TD*%
%TO.C,TP1*%
X110400000Y-52500000D03*
%TD*%
D12*
%TO.C,J7*%
X69500000Y-93275000D03*
D13*
X69500000Y-90735000D03*
X72040000Y-93275000D03*
X72040000Y-90735000D03*
X74580000Y-93275000D03*
X74580000Y-90735000D03*
X77120000Y-93275000D03*
X77120000Y-90735000D03*
%TD*%
D12*
%TO.C,J8*%
X90500000Y-133600000D03*
D13*
X90500000Y-131060000D03*
X90500000Y-128520000D03*
X90500000Y-125980000D03*
%TD*%
D11*
%TO.C,J9*%
X127900000Y-84300000D03*
%TD*%
%TO.C,TP6*%
X53100000Y-89100000D03*
%TD*%
D12*
%TO.C,J6*%
X85420000Y-45862500D03*
D11*
X85420000Y-43322500D03*
X87960000Y-45862500D03*
X87960000Y-43322500D03*
X90500000Y-45862500D03*
X90500000Y-43322500D03*
X93040000Y-45862500D03*
X93040000Y-43322500D03*
X95580000Y-45862500D03*
X95580000Y-43322500D03*
%TD*%
D12*
%TO.C,J1*%
X53100000Y-52000000D03*
D13*
X53100000Y-54540000D03*
X53100000Y-57080000D03*
X53100000Y-59620000D03*
X53100000Y-62160000D03*
X53100000Y-64700000D03*
X53100000Y-67240000D03*
X53100000Y-69780000D03*
X53100000Y-72320000D03*
X53100000Y-74860000D03*
X53100000Y-77400000D03*
X53100000Y-79940000D03*
%TD*%
D12*
%TO.C,J3*%
X127900000Y-52000000D03*
D13*
X127900000Y-54540000D03*
X127900000Y-57080000D03*
X127900000Y-59620000D03*
X127900000Y-62160000D03*
X127900000Y-64700000D03*
X127900000Y-67240000D03*
X127900000Y-69780000D03*
X127900000Y-72320000D03*
X127900000Y-74860000D03*
X127900000Y-77400000D03*
X127900000Y-79940000D03*
%TD*%
D12*
%TO.C,J2*%
X53100000Y-97800000D03*
D13*
X53100000Y-100340000D03*
X53100000Y-102880000D03*
X53100000Y-105420000D03*
X53100000Y-107960000D03*
X53100000Y-110500000D03*
X53100000Y-113040000D03*
X53100000Y-115580000D03*
X53100000Y-118120000D03*
X53100000Y-120660000D03*
X53100000Y-123200000D03*
X53100000Y-125740000D03*
X53100000Y-128280000D03*
X53100000Y-130820000D03*
X53100000Y-133360000D03*
X53100000Y-135900000D03*
%TD*%
D12*
%TO.C,J4*%
X127900000Y-108000000D03*
D13*
X127900000Y-110540000D03*
X127900000Y-113080000D03*
X127900000Y-115620000D03*
X127900000Y-118160000D03*
X127900000Y-120700000D03*
X127900000Y-123240000D03*
X127900000Y-125780000D03*
X127900000Y-128320000D03*
X127900000Y-130860000D03*
X127900000Y-133400000D03*
X127900000Y-135940000D03*
%TD*%
M02*
