M48
; DRILL file {KiCad (6.0.11)} date Mon May 22 17:30:28 2023
; FORMAT={-:-/ absolute / inch / decimal}
; #@! TF.CreationDate,2023-05-22T17:30:28+01:00
; #@! TF.GenerationSoftware,Kicad,Pcbnew,(6.0.11)
; #@! TF.FileFunction,Plated,1,4,PTH
FMAT,2
INCH
; #@! TA.AperFunction,Plated,PTH,ViaDrill
T1C0.0157
; #@! TA.AperFunction,Plated,PTH,ViaDrill
T2C0.0236
; #@! TA.AperFunction,Plated,PTH,ComponentDrill
T3C0.0394
%
G90
G05
T1
X2.2638Y-1.8228
X2.2638Y-2.1181
X2.3189Y-5.1969
X2.43Y-3.93
X2.43Y-4.19
X2.43Y-4.37
X2.437Y-2.8661
X2.44Y-3.51
X2.4409Y-4.7756
X2.4449Y-2.685
X2.48Y-2.2
X2.5394Y-2.8701
X2.5394Y-2.9882
X2.548Y-4.5504
X2.5571Y-3.1358
X2.5591Y-3.0492
X2.5591Y-3.9961
X2.5591Y-4.315
X2.564Y-4.9882
X2.5709Y-4.6772
X2.5709Y-4.7992
X2.5906Y-3.7441
X2.6122Y-2.5236
X2.6654Y-3.5118
X2.7146Y-2.4882
X2.7205Y-4.0354
X2.7244Y-2.5866
X2.7736Y-3.1319
X2.8189Y-3.2598
X2.8294Y-5.1699
X2.9311Y-2.5541
X2.937Y-4.252
X2.9705Y-2.6752
X3.0512Y-3.1269
X3.0551Y-4.0236
X3.0551Y-4.0906
X3.1654Y-2.2953
X3.2047Y-4.5433
X3.2126Y-4.4222
X3.2244Y-4.7992
X3.2362Y-4.7126
X3.2402Y-2.6339
X3.248Y-4.1594
X3.252Y-2.7795
X3.2717Y-2.685
X3.2992Y-2.9843
X3.3395Y-3.3465
X3.3465Y-3.2992
X3.3898Y-2.9764
X3.4192Y-4.7168
X3.4331Y-3.9094
X3.4764Y-4.5118
X3.4961Y-5.3307
X3.5827Y-2.2165
X3.6378Y-4.5118
X3.6378Y-5.3307
X3.7421Y-4.0846
X3.7992Y-3.2087
X3.8008Y-3.2564
X3.815Y-2.3425
X3.8386Y-3.5039
X3.9016Y-3.5709
X3.937Y-2.3386
X3.9409Y-2.2362
X3.9606Y-3.3228
X3.9685Y-3.2421
X3.9783Y-3.0276
X3.9843Y-4.8543
X4.0Y-3.73
X4.0197Y-3.5591
X4.0217Y-3.1181
X4.04Y-3.79
X4.1142Y-5.2087
X4.122Y-3.8504
X4.122Y-4.5866
X4.128Y-3.3878
X4.1299Y-4.5236
X4.1367Y-3.7145
X4.1378Y-3.0118
X4.1516Y-2.4528
X4.1614Y-1.8701
X4.1614Y-3.3504
X4.17Y-3.98
X4.1772Y-3.8957
X4.1811Y-3.3898
X4.1811Y-4.5522
X4.2205Y-5.1614
X4.2244Y-3.5551
X4.28Y-3.79
X4.3307Y-1.8701
X4.3819Y-3.2874
X4.44Y-3.54
X4.474Y-3.7512
X4.5079Y-2.4921
X4.5236Y-5.0591
X4.5285Y-2.5593
X4.5423Y-2.6348
X4.5512Y-3.3622
X4.5828Y-3.1801
X4.6181Y-3.1142
X4.6245Y-5.1481
X4.6457Y-4.5039
X4.6496Y-3.1496
X4.6654Y-5.1969
X4.6693Y-4.8425
X4.68Y-2.81
X4.685Y-3.5394
X4.685Y-3.9094
X4.685Y-4.1772
X4.685Y-4.4508
X4.71Y-2.7
X4.752Y-3.2195
X4.7795Y-3.1181
X4.7961Y-3.2392
X4.82Y-2.81
X4.8307Y-3.2677
X5.11Y-4.9
X5.11Y-5.31
T2
X2.0118Y-2.4961
X2.0276Y-1.8228
X2.1024Y-1.8976
X2.1024Y-5.4291
X2.1772Y-1.9075
X2.189Y-2.8583
X2.2205Y-2.5
X2.2795Y-4.626
X2.3524Y-1.9528
X2.5531Y-4.6102
X2.5531Y-4.8878
X2.5551Y-3.3465
X2.5551Y-4.7382
X2.563Y-4.0571
X2.5689Y-5.1673
X2.622Y-1.9291
X2.6594Y-1.6339
X2.7087Y-3.374
X2.7165Y-5.1417
X2.7244Y-2.1378
X2.752Y-4.4606
X2.7874Y-4.9272
X2.8327Y-3.3438
X2.8386Y-1.6043
X2.8386Y-1.8976
X2.8386Y-2.4803
X2.8386Y-4.0591
X2.9272Y-4.063
X2.9291Y-3.3465
X2.935Y-5.1634
X3.0197Y-4.9331
X3.0512Y-4.4803
X3.0551Y-5.1417
X3.0551Y-3.3189
X3.0664Y-2.4876
X3.0669Y-2.5433
X3.2047Y-4.9272
X3.2087Y-3.3465
X3.2126Y-5.1693
X3.2146Y-3.128
X3.2146Y-4.063
X3.2165Y-2.9626
X3.2185Y-2.1063
X3.2205Y-4.6594
X3.3307Y-2.5118
X3.3543Y-2.7638
X3.4134Y-3.7638
X3.4213Y-3.4409
X3.4331Y-3.2441
X3.4488Y-4.8937
X3.4567Y-2.2972
X3.6398Y-3.1024
X3.6398Y-3.4055
X3.6417Y-3.2303
X3.7251Y-3.2947
X3.7283Y-4.6575
X3.7285Y-3.0432
X3.7618Y-3.4449
X3.8248Y-3.7776
X3.8248Y-3.8957
X3.8307Y-4.4508
X3.8327Y-4.5394
X3.8327Y-5.1693
X3.8366Y-4.1811
X3.8386Y-4.8268
X3.8445Y-2.8228
X3.8583Y-2.7244
X3.9094Y-3.1299
X3.9252Y-3.685
X3.9331Y-3.3858
X3.9539Y-2.9442
X3.9843Y-4.6024
X3.9882Y-4.2087
X3.9882Y-5.1378
X3.9921Y-3.937
X3.9961Y-4.378
X4.0906Y-2.2303
X4.1378Y-3.2205
X4.1614Y-4.622
X4.2047Y-3.7185
X4.2343Y-2.1161
X4.2421Y-1.9055
X4.2677Y-3.4035
X4.2756Y-3.6102
X4.2769Y-4.378
X4.2992Y-2.4055
X4.3346Y-4.2047
X4.3351Y-4.7985
X4.3425Y-2.6634
X4.3543Y-3.0059
X4.3543Y-3.8583
X4.4252Y-1.8642
X4.435Y-4.6201
X4.4764Y-4.1831
X4.4823Y-4.8268
X4.4843Y-3.9055
X4.4921Y-4.4409
X4.5Y-3.4724
X4.5059Y-3.6122
X4.5197Y-1.9843
X4.6102Y-4.5827
X4.6181Y-2.9055
X4.6732Y-2.9528
X4.6732Y-3.0512
X4.7008Y-3.1181
X4.8071Y-1.6201
X4.8583Y-2.0433
X4.9331Y-1.9016
X4.9488Y-3.1969
X4.9646Y-3.6142
X5.0157Y-1.8189
X5.1102Y-2.3937
X5.1142Y-2.7953
T3
X2.0906Y-2.0472
X2.0906Y-2.1472
X2.0906Y-2.2472
X2.0906Y-2.3472
X2.0906Y-2.4472
X2.0906Y-2.5472
X2.0906Y-2.6472
X2.0906Y-2.7472
X2.0906Y-2.8472
X2.0906Y-2.9472
X2.0906Y-3.0472
X2.0906Y-3.1472
X2.0906Y-3.5079
X2.0906Y-3.8504
X2.0906Y-3.9504
X2.0906Y-4.0504
X2.0906Y-4.1504
X2.0906Y-4.2504
X2.0906Y-4.3504
X2.0906Y-4.4504
X2.0906Y-4.5504
X2.0906Y-4.6504
X2.0906Y-4.7504
X2.0906Y-4.8504
X2.0906Y-4.9504
X2.0906Y-5.0504
X2.0906Y-5.1504
X2.0906Y-5.2504
X2.0906Y-5.3504
X2.7362Y-3.5722
X2.7362Y-3.6722
X2.8362Y-3.5722
X2.8362Y-3.6722
X2.9362Y-3.5722
X2.9362Y-3.6722
X3.0362Y-3.5722
X3.0362Y-3.6722
X3.3583Y-2.0669
X3.363Y-1.7056
X3.363Y-1.8056
X3.463Y-1.7056
X3.463Y-1.8056
X3.5394Y-2.0669
X3.563Y-1.7056
X3.563Y-1.8056
X3.563Y-4.9598
X3.563Y-5.0598
X3.563Y-5.1598
X3.563Y-5.2598
X3.663Y-1.7056
X3.663Y-1.8056
X3.7087Y-2.0669
X3.763Y-1.7056
X3.763Y-1.8056
X4.1614Y-2.0709
X4.3465Y-2.0669
X4.8386Y-5.3543
X5.0354Y-2.0472
X5.0354Y-2.1472
X5.0354Y-2.2472
X5.0354Y-2.3472
X5.0354Y-2.4472
X5.0354Y-2.5472
X5.0354Y-2.6472
X5.0354Y-2.7472
X5.0354Y-2.8472
X5.0354Y-2.9472
X5.0354Y-3.0472
X5.0354Y-3.1472
X5.0354Y-3.2472
X5.0354Y-3.3472
X5.0354Y-4.252
X5.0354Y-4.352
X5.0354Y-4.452
X5.0354Y-4.552
X5.0354Y-4.652
X5.0354Y-4.752
X5.0354Y-4.852
X5.0354Y-4.952
X5.0354Y-5.052
X5.0354Y-5.152
X5.0354Y-5.252
X5.0354Y-5.352
X5.0374Y-3.515
X5.0374Y-3.615
X5.0374Y-3.715
X5.0374Y-3.815
T0
M30
