%TF.GenerationSoftware,KiCad,Pcbnew,7.0.5*%
%TF.CreationDate,2023-07-06T16:05:27+01:00*%
%TF.ProjectId,QuangoBreakout_Controls,5175616e-676f-4427-9265-616b6f75745f,rev?*%
%TF.SameCoordinates,Original*%
%TF.FileFunction,Soldermask,Top*%
%TF.FilePolarity,Negative*%
%FSLAX46Y46*%
G04 Gerber Fmt 4.6, Leading zero omitted, Abs format (unit mm)*
G04 Created by KiCad (PCBNEW 7.0.5) date 2023-07-06 16:05:27*
%MOMM*%
%LPD*%
G01*
G04 APERTURE LIST*
%ADD10C,3.250000*%
%ADD11C,1.500000*%
%ADD12R,1.500000X1.500000*%
%ADD13C,2.500000*%
%ADD14R,1.000000X2.500000*%
%ADD15R,2.500000X1.000000*%
%ADD16C,3.200000*%
%ADD17R,1.700000X1.700000*%
%ADD18O,1.700000X1.700000*%
G04 APERTURE END LIST*
D10*
%TO.C,J1*%
X53050000Y-62800000D03*
X65750000Y-62800000D03*
D11*
X62960000Y-59370000D03*
X61930000Y-61910000D03*
X60930000Y-59370000D03*
X59910000Y-61910000D03*
X58900000Y-59370000D03*
X57880000Y-61910000D03*
X56870000Y-59370000D03*
D12*
X55850000Y-61910000D03*
%TD*%
D10*
%TO.C,J2*%
X65750000Y-72300000D03*
X53050000Y-72300000D03*
D11*
X55840000Y-75730000D03*
X56870000Y-73190000D03*
X57870000Y-75730000D03*
X58890000Y-73190000D03*
X59900000Y-75730000D03*
X60920000Y-73190000D03*
X61930000Y-75730000D03*
D12*
X62950000Y-73190000D03*
%TD*%
D13*
%TO.C,J9*%
X59400000Y-154500000D03*
D14*
X52920000Y-154500000D03*
X56020000Y-154500000D03*
X64320000Y-154500000D03*
%TD*%
D13*
%TO.C,J8*%
X64100000Y-141800000D03*
D15*
X64100000Y-135320000D03*
X64100000Y-138420000D03*
X64100000Y-146720000D03*
%TD*%
D10*
%TO.C,J3*%
X65750000Y-118100000D03*
X53050000Y-118100000D03*
D11*
X55840000Y-121530000D03*
X56870000Y-118990000D03*
X57870000Y-121530000D03*
X58890000Y-118990000D03*
X59900000Y-121530000D03*
X60920000Y-118990000D03*
X61930000Y-121530000D03*
D12*
X62950000Y-118990000D03*
%TD*%
D16*
%TO.C,H1*%
X59400000Y-90900000D03*
%TD*%
D13*
%TO.C,J7*%
X54700000Y-141800000D03*
D15*
X54700000Y-135320000D03*
X54700000Y-138420000D03*
X54700000Y-146720000D03*
%TD*%
D10*
%TO.C,J4*%
X53050000Y-108600000D03*
X65750000Y-108600000D03*
D11*
X62960000Y-105170000D03*
X61930000Y-107710000D03*
X60930000Y-105170000D03*
X59910000Y-107710000D03*
X58900000Y-105170000D03*
X57880000Y-107710000D03*
X56870000Y-105170000D03*
D12*
X55850000Y-107710000D03*
%TD*%
D17*
%TO.C,J10*%
X63400000Y-68875000D03*
D18*
X63400000Y-66335000D03*
X60860000Y-68875000D03*
X60860000Y-66335000D03*
X58320000Y-68875000D03*
X58320000Y-66335000D03*
X55780000Y-68875000D03*
X55780000Y-66335000D03*
%TD*%
D17*
%TO.C,J6*%
X64475000Y-86700000D03*
D18*
X64475000Y-84160000D03*
X61935000Y-86700000D03*
X61935000Y-84160000D03*
X59395000Y-86700000D03*
X59395000Y-84160000D03*
X56855000Y-86700000D03*
X56855000Y-84160000D03*
X54315000Y-86700000D03*
X54315000Y-84160000D03*
%TD*%
M02*
