M48
; DRILL file {KiCad 7.0.5} date Thu Jul  6 16:05:29 2023
; FORMAT={-:-/ absolute / inch / decimal}
; #@! TF.CreationDate,2023-07-06T16:05:29+01:00
; #@! TF.GenerationSoftware,Kicad,Pcbnew,7.0.5
; #@! TF.FileFunction,Plated,1,2,PTH
FMAT,2
INCH
; #@! TA.AperFunction,Plated,PTH,ViaDrill
T1C0.0157
; #@! TA.AperFunction,Plated,PTH,ComponentDrill
T2C0.0197
; #@! TA.AperFunction,Plated,PTH,ComponentDrill
T3C0.0354
; #@! TA.AperFunction,Plated,PTH,ComponentDrill
T4C0.0394
%
G90
G05
T1
X2.0157Y-5.063
X2.0472Y-3.752
X2.0512Y-5.7874
X2.0669Y-2.2244
X2.0866Y-4.7795
X2.1063Y-2.5709
X2.1063Y-4.5079
X2.1181Y-2.3504
X2.1732Y-5.0394
X2.3071Y-5.0197
X2.374Y-5.0157
X2.5079Y-4.4094
X2.5512Y-4.7717
X2.5512Y-5.1102
X2.563Y-2.9803
X2.5827Y-4.5276
X2.5945Y-2.3465
X2.5945Y-4.4055
X2.626Y-3.752
T3
X2.1984Y-2.9815
X2.1984Y-4.7846
X2.1988Y-2.4374
X2.1988Y-4.2406
X2.239Y-2.3374
X2.239Y-2.8815
X2.239Y-4.1406
X2.239Y-4.6846
X2.2783Y-2.9815
X2.2783Y-4.7846
X2.2787Y-2.4374
X2.2787Y-4.2406
X2.3185Y-2.8815
X2.3185Y-4.6846
X2.3189Y-2.3374
X2.3189Y-4.1406
X2.3583Y-2.9815
X2.3583Y-4.7846
X2.3587Y-2.4374
X2.3587Y-4.2406
X2.3984Y-2.8815
X2.3984Y-4.6846
X2.3988Y-2.3374
X2.3988Y-4.1406
X2.4382Y-2.4374
X2.4382Y-2.9815
X2.4382Y-4.2406
X2.4382Y-4.7846
X2.4783Y-2.8815
X2.4783Y-4.6846
X2.4787Y-2.3374
X2.4787Y-4.1406
T4
X2.1384Y-3.3134
X2.1384Y-3.4134
X2.1961Y-2.6116
X2.1961Y-2.7116
X2.2384Y-3.3134
X2.2384Y-3.4134
X2.2961Y-2.6116
X2.2961Y-2.7116
X2.3384Y-3.3134
X2.3384Y-3.4134
X2.3961Y-2.6116
X2.3961Y-2.7116
X2.4384Y-3.3134
X2.4384Y-3.4134
X2.4961Y-2.6116
X2.4961Y-2.7116
X2.5384Y-3.3134
X2.5384Y-3.4134
T2
G00X2.0835Y-6.063
M15
G01X2.0835Y-6.1024
M16
G05
G00X2.1732Y-5.3276
M15
G01X2.1339Y-5.3276
M16
G05
G00X2.1732Y-5.4496
M15
G01X2.1339Y-5.4496
M16
G05
G00X2.1732Y-5.7764
M15
G01X2.1339Y-5.7764
M16
G05
G00X2.2055Y-6.063
M15
G01X2.2055Y-6.1024
M16
G05
G00X2.5433Y-5.3276
M15
G01X2.5039Y-5.3276
M16
G05
G00X2.5433Y-5.4496
M15
G01X2.5039Y-5.4496
M16
G05
G00X2.5433Y-5.7764
M15
G01X2.5039Y-5.7764
M16
G05
G00X2.5323Y-6.063
M15
G01X2.5323Y-6.1024
M16
G05
T0
M30
